<svg xmlns="http://www.w3.org/2000/svg" width="48.902" height="48.827" viewBox="0 0 48.902 48.827">
  <g id="Grupo_55032" data-name="Grupo 55032" transform="translate(-3730.459 283.449)">
    <g id="Grupo_55031" data-name="Grupo 55031" transform="translate(3730.459 -283.449)">
      <path id="Trazado_104779" data-name="Trazado 104779" d="M3778.635-283.415a1.012,1.012,0,0,0-1.031.366c-.84.865-1.679,1.73-2.626,2.7-.31-.37-.54-.679-.809-.952-.622-.632-1.085-.628-1.7-.007-.54.546-1.073,1.1-1.737,1.779a6.916,6.916,0,0,0-.624-.8.914.914,0,0,0-1.319-.006.9.9,0,0,0,0,1.352,5.759,5.759,0,0,0,.748.561l-.289.017-15.084,15.2c-.325-.35-.659-.732-1.016-1.091-.673-.677-1.11-.678-1.782-.009-1.636,1.629-3.3,3.236-4.887,4.909a9.863,9.863,0,0,0-1.591,2.189,26.038,26.038,0,0,1-4.027,5.929c-2.706,2.857-5.5,5.631-8.259,8.438a1.116,1.116,0,0,1-.226.124v-.585c0-3.848.042-7.7-.014-11.546a4.5,4.5,0,0,1,4.482-4.714,6.124,6.124,0,0,0,6.07-5.8c.023-.268.033-.536.052-.857,0-.006,0-.013,0-.019.287,0,.527-.006.768,0a1.206,1.206,0,0,0,.517-.088,1.242,1.242,0,0,0,.512-.425c.895-1.209,1.81-2.4,2.7-3.616a1.242,1.242,0,0,0,.257-.668q.028-3.332,0-6.665a.925.925,0,0,0-.969-.966c-.292-.021-.586,0-.945,0v-.635c0-.979,0-1.96,0-2.939,0-.756-.355-1.194-.947-1.2s-.962.438-.966,1.181c0,.717.006,1.435,0,2.152-.005.45.136,1.094-.1,1.3-.274.244-.884.122-1.349.13-.747.013-1.495,0-2.287,0h-.1v-.7c0-1.032.011-2.065-.012-3.1a.935.935,0,0,0-.959-.968.937.937,0,0,0-.926.951c-.03.663-.012,1.329-.013,1.995v1.822c-.26,0-.449,0-.637,0-.979.01-1.277.312-1.278,1.3,0,2.029-.018,4.059.016,6.089a2.025,2.025,0,0,0,.35,1.054c.68.975,1.451,1.887,2.119,2.87a2.309,2.309,0,0,0,1.444,1.142h0a1.851,1.851,0,0,0,.6,0l.046-.007a.108.108,0,0,1,.055.007c.038.012.092.037.182.066a11.793,11.793,0,0,1-.158,1.366c-.477,2.055-2.078,3.255-4.433,3.359a6.143,6.143,0,0,0-5.971,6.065c-.046,5.476-.02,10.952-.009,16.428a4.127,4.127,0,0,0,1.037,2.793,4.394,4.394,0,0,0,2.926,1.509,4.256,4.256,0,0,0,3.335-1.22q3.056-2.956,6.007-6.016a34.034,34.034,0,0,1,9.712-7.4,4.916,4.916,0,0,0,1.283-.9c1.866-1.819,3.708-3.664,5.549-5.51a.931.931,0,0,0-.022-1.472c-.417-.417-.854-.812-1.21-1.148l15.121-15.222c.586.47,1.125,1.465,1.987.608s-.152-1.394-.643-2.033c.556-.549,1.1-1.085,1.647-1.627a1.006,1.006,0,0,0-.007-1.7c-.27-.267-.575-.5-.947-.814.363-.326.617-.54.853-.771q.277-.274.555-.546c.464-.457.925-.914,1.372-1.386A.952.952,0,0,0,3778.635-283.415Zm-37.695,15.257a.916.916,0,0,1-.606-.288c-.059-.073-.117-.148-.175-.223-.621-.79-1.218-1.6-1.816-2.41a.807.807,0,0,1-.191-.416c-.012-1.726-.008-3.452-.008-5.261h2.644c1.155,0,2.31.006,3.464,0,.347,0,.7,0,1.042-.007.363,0,.533.063.527.483-.023,1.537,0,3.074-.019,4.611a1.139,1.139,0,0,1-.213.618c-.437.606-.882,1.208-1.337,1.8q-.306.4-.618.792a.911.911,0,0,1-.6.3A20.179,20.179,0,0,1,3740.941-268.158Zm4.167,22.33q-4.026,3.985-8.031,7.992c-.211.21-.415.427-.635.627a2.364,2.364,0,0,1-3.354-.045c-.026-.026-.051-.054-.076-.081a2.325,2.325,0,0,1,.071-3.265c1.943-1.988,3.925-3.939,5.877-5.919,1.373-1.393,2.722-2.809,4.075-4.208q.825.838,1.671,1.7l1.872,1.9C3746.121-246.727,3745.588-246.3,3745.108-245.828Zm3.156-2.616-2.058-2.085-1.905-1.931,2.142-3.508,2.591,2.611,2.748,2.771Zm5.217-3.171q-1.536-1.565-3.063-3.125-1.432-1.461-2.852-2.91l1.589-1.563c.94.952,1.9,1.919,2.851,2.885,1.01,1.024,2.021,2.045,3.012,3.049Zm3.079-3.078q-1.538-1.557-3.076-3.114l-2.877-2.911,1.627-1.69,2.9,2.947,3.032,3.079C3757.678-255.867,3757.115-255.276,3756.559-254.694Zm1.163-5.147-1.075-1.131-.8-.837,17.473-17.587.871.874,1.042,1.046Z" transform="translate(-3730.459 283.449)" fill="#b3009d"/>
      <path id="Trazado_104780" data-name="Trazado 104780" d="M4014.612-9.98A10.085,10.085,0,0,0,4004.54.056a10.082,10.082,0,0,0,10.055,10.055A10.089,10.089,0,0,0,4024.67.074,10.093,10.093,0,0,0,4014.612-9.98Zm.006,18.189a8.2,8.2,0,0,1-8.176-8.142,8.163,8.163,0,0,1,8.173-8.126A8.16,8.16,0,0,1,4022.763.09,8.2,8.2,0,0,1,4014.618,8.209Z" transform="translate(-3975.768 38.688)" fill="#b3009d"/>
      <path id="Trazado_104781" data-name="Trazado 104781" d="M3832.151-192.273a.96.96,0,0,1,.942.937.963.963,0,0,1-.928.949.947.947,0,0,1-.96-.96A.948.948,0,0,1,3832.151-192.273Z" transform="translate(-3820.628 201.844)" fill="#b3009d"/>
      <path id="Trazado_104782" data-name="Trazado 104782" d="M4076.923,42.429c-.873-.692-1.683-1.327-2.486-1.971-.761-.61-.767-1.188-.008-1.795q1.638-1.309,3.292-2.6a.987.987,0,0,1,1.486.031.975.975,0,0,1-.29,1.451c-.827.668-1.665,1.32-2.54,2.012.825.649,1.607,1.261,2.385,1.879.9.713.9,1.259.007,1.966q-1.582,1.252-3.168,2.5c-.575.453-1.161.442-1.523-.027s-.234-1.017.354-1.484C4075.238,43.755,4076.047,43.12,4076.923,42.429Z" transform="translate(-4037.814 -2.239)" fill="#b3009d"/>
    </g>
  </g>
</svg>
