<svg xmlns="http://www.w3.org/2000/svg" width="84.351" height="83.501" viewBox="0 0 84.351 83.501">
  <g id="Grupo_54929" data-name="Grupo 54929" transform="translate(-1466.48 -454.655)">
    <path id="Trazado_103885" data-name="Trazado 103885" d="M1943.617,699.294a2.591,2.591,0,0,1-1.915-2.69c.024-1.985.015-12.553,0-14.443a2.421,2.421,0,0,1,2.164-2.619l.256-.033.254.046a2.424,2.424,0,0,1,2.055,2.546c-.009,1.967-.017,12.569,0,14.622a2.625,2.625,0,0,1-1.553,2.442l-.608.325Z" transform="translate(-395.616 -187.188)" fill="#060505"/>
    <path id="Trazado_103886" data-name="Trazado 103886" d="M1470.565,538.065c-2.9-.986-4.085-2.65-4.085-5.744q0-25.735,0-51.47c0-3.721,2.049-5.771,5.768-5.773l2.024,0,2.44,0c1.282,0,2.343,0,3.322.008-.012-.941-.007-1.87,0-2.739a2.3,2.3,0,0,1-1.4-.674,3.175,3.175,0,0,1-.656-2.42v-1.831c0-1.541,0-3.135,0-4.7a7.8,7.8,0,0,1,5.669-7.771,7.887,7.887,0,0,1,2.1-.29,7.667,7.667,0,0,0,13.116.012,7.665,7.665,0,0,1,4.474,1.437,9.146,9.146,0,0,1,2.549,3l.082.141.053.154a13.642,13.642,0,0,1,.558,4.762c-.014,1.146-.01,2.317-.008,3.449q0,.808,0,1.616a3.2,3.2,0,0,1-.646,2.417,2.309,2.309,0,0,1-1.431.682c.005.3.008.6.01.9,0,.258,0,.515.008.772v.059l0,.059c-.018.328-.033.665-.036,1,10.337.009,20.624.01,28.482.01h12.261c.189,0,.379-.007.568-.014l.3-.01.175,0,.172.031a5.282,5.282,0,0,1,4.337,4.147l.056.211,0,3.671c0,3.88-.01,7.891,0,11.835a2.74,2.74,0,0,1-1.739,2.842l-.985.072a2.568,2.568,0,0,1-2.016-2.864c.009-4.136.007-8.341.005-12.408v-1.724a2.618,2.618,0,0,0-.111-.951,2.684,2.684,0,0,0-.982-.115h-40.46q.012.932.021,1.863l.017,1.526-.13.26c0,.054.006.128.009.188.008.145.019.324.014.522a2.33,2.33,0,0,1-2.232,2.531c-.045,0-.089,0-.132,0a2.35,2.35,0,0,1-2.349-2.506c-.015-.318-.025-.637-.034-.956l-.013-.436.01-1.162c.005-.6.011-1.214.018-1.829h-.8l-.987,0q.013.917.022,1.834l.014,1.173,0,.049q-.01.22-.022.439c-.017.322-.033.625-.039.924a2.34,2.34,0,0,1-2.209,2.465q-.082,0-.16,0a2.322,2.322,0,0,1-2.335-2.382c-.026-.358-.039-.706-.05-1.042-.005-.14-.01-.28-.016-.42l0-.046V482.8q.007-.574.012-1.148c.006-.592.012-1.2.022-1.8l-.928,0-.88,0c.009.612.014,1.222.02,1.819,0,.381.011,1.185.011,1.185v.041c-.005.145-.01.29-.015.436-.011.357-.022.727-.049,1.106a2.344,2.344,0,0,1-2.367,2.294l-.095,0a2.321,2.321,0,0,1-2.234-2.275,5.2,5.2,0,0,1,0-.725c0-.073.009-.167.009-.227l-.135-.275s.012-1.163.016-1.545c.005-.6.011-1.216.019-1.832l-.937,0-.792,0c.009.617.015,1.232.02,1.834,0,.377.012,1.171.012,1.171v.04c-.005.142-.009.284-.012.425-.009.367-.018.747-.054,1.147a2.376,2.376,0,0,1-4.749-.006c-.034-.4-.041-.778-.048-1.145,0-.143-.005-.286-.01-.428v-.069q.005-.564.01-1.128c0-.606.01-1.225.018-1.845-2.024.011-4.06.015-6.04.019l-2.254,0a1.126,1.126,0,0,0-.359.06,1.786,1.786,0,0,0-.111.765q0,25.924,0,51.848v.138a3.092,3.092,0,0,0,.009.364c.03.2.1.263.3.263h.042l.119-.007.119.01c.091.008.183.017.274.027.127.014.248.027.326.027l43.638,0h28.858l.395,0c.12,0,.259,0,.383-.012.164-.014.271-.067.337-.3a3.124,3.124,0,0,0,.046-.719v-6.816q0-8.427,0-16.854V508.6c-.008-2.046,1.152-2.649,2.128-2.794l.294-.044.291.06a2.489,2.489,0,0,1,2.018,2.8q0,6.274,0,12.547,0,5.815,0,11.631a5.854,5.854,0,0,1-.143,1.383c-.6,2.521-2.588,3.968-5.442,3.968l-72.034,0c-.473,0-.945,0-1.418.006l-.945.005Zm21.61-62.945h.992q.013-1.385.024-2.769a2.609,2.609,0,0,1-.9-.314,2.486,2.486,0,0,1-.912.291q0,.259.008.513c0,.212.005.423.01.635l0,.081-.006.081c-.036.493-.053.989-.05,1.484Zm7.541,0v-1.639q.006-.327.009-.655c0-.142,0-.286.006-.43l-.871,0-.9,0q0,.214.008.425c0,.22.008.439.013.659l0,.072,0,.072c-.029.463-.054.971-.053,1.5Zm-14.4-.005.767,0h.516c0-.486-.014-.983-.049-1.487l-.015-.227.045-.223a3.7,3.7,0,0,0,.046-.786l-1.011,0-.83,0c0,.951-.01,1.852-.024,2.721Zm13.541-15.685a2.97,2.97,0,0,0-2.977,3.115c-.01,1.006-.008,2.034-.006,3.028q0,.653,0,1.305c0,.27,0,.558,0,.805.252-.015.555-.039.9-.067l.119-.01.119.007c.56.035,1.135.052,1.759.052.582,0,1.2-.015,1.881-.046l.052,0h.052c.195,0,.39,0,.584,0l.45,0c0-.775,0-1.55,0-2.306,0-.931,0-1.894-.006-2.836a2.888,2.888,0,0,0-2.933-3.054l0-1.675Zm-13.084,0a2.811,2.811,0,0,0-2.967,2.427,30.137,30.137,0,0,0-.122,4.458c.009.435.018.877.022,1.324l1.131-.016,3.711,0c.211,0,.423,0,.634,0l.5,0c0-.642,0-1.278,0-1.9,0-1.14,0-2.319-.015-3.47a2.949,2.949,0,0,0-2.68-2.829Q1485.883,459.427,1485.775,459.427Z" transform="translate(0)" fill="#060505"/>
    <path id="Trazado_103887" data-name="Trazado 103887" d="M1569.865,649.095a4.443,4.443,0,0,1-.111,1.245,2,2,0,0,1-1.805,1.5c-.3.026-.613.016-.92.016q-36.248,0-72.5,0c-.247,0-.494-.039-.741-.06a4.257,4.257,0,0,1-.769-2.748q.028-25.556,0-51.112a4.709,4.709,0,0,1,.756-2.924c3.148-.008,6.3-.01,9.443-.031.434,0,.59.145.581.579-.031,1.364-.034,2.728-.048,4.093a1.7,1.7,0,0,0-.982,2.052,1.752,1.752,0,0,0,1.691,1.344,1.786,1.786,0,0,0,1.857-1.464c.208-.8-.12-1.407-1.042-1.934-.015-1.359-.022-2.718-.051-4.076-.009-.418.125-.6.569-.594,1.332.019,2.664.014,4,0,.376,0,.56.114.552.52-.027,1.386-.034,2.773-.049,4.16a1.679,1.679,0,0,0-.961,2.117,1.763,1.763,0,0,0,1.9,1.269,1.871,1.871,0,0,0,1.685-1.571,1.769,1.769,0,0,0-1.1-1.83c-.015-1.364-.019-2.728-.051-4.092-.011-.443.167-.58.59-.574q2.006.025,4.012,0c.415,0,.61.117.6.567-.034,1.363-.04,2.727-.057,4.091a1.638,1.638,0,0,0-1.087,1.98,1.89,1.89,0,0,0,1.724,1.431,1.813,1.813,0,0,0,1.871-1.45,1.777,1.777,0,0,0-1.023-1.956c-.017-1.389-.03-2.779-.055-4.168-.006-.356.143-.494.5-.492,1.391.009,2.782.013,4.173,0,.424,0,.509.2.5.568-.023,1.362-.031,2.725-.044,4.087a1.721,1.721,0,0,0-1.111,1.827,1.863,1.863,0,0,0,1.685,1.585,1.748,1.748,0,0,0,1.875-1.324,1.677,1.677,0,0,0-.936-2.061c-.016-1.393-.028-2.786-.05-4.178-.005-.351.141-.513.5-.5.223.009.446,0,.669,0H1567.1c2.086,0,2.767.674,2.768,2.74C1569.866,602.442,1569.865,641.226,1569.865,649.095Zm-24.386-33.258,3.3,0a1.678,1.678,0,0,0,1.759,1.094,1.488,1.488,0,0,0,1.483-1.091l3.3,0a1.87,1.87,0,0,0,2.022,1.076,1.963,1.963,0,0,0,1.472-1.62,1.7,1.7,0,0,0-1.093-1.746,28.5,28.5,0,0,1,0-3.758,1.735,1.735,0,0,0,0-3.237,28.922,28.922,0,0,1,0-3.653,1.929,1.929,0,0,0,1.086-1.965,1.815,1.815,0,0,0-1.6-1.493,1.74,1.74,0,0,0-1.883,1.076l-3.307,0a1.629,1.629,0,0,0-1.616-1.094,1.693,1.693,0,0,0-1.623,1.1l-3.3,0a1.619,1.619,0,0,0-1.614-1.094,1.7,1.7,0,0,0-1.626,1.094h-3.3a1.8,1.8,0,0,0-3.443.618c.012.734.167,1.458,1.063,1.666a34.308,34.308,0,0,1,0,3.763,1.742,1.742,0,0,0,0,3.225,34.732,34.732,0,0,1,0,3.763,1.542,1.542,0,0,0-1.047,1.768,1.97,1.97,0,0,0,1.475,1.613,1.875,1.875,0,0,0,1.953-1.088h3.3A1.737,1.737,0,0,0,1545.479,615.837Zm-14.739,10.678q11.092,0,22.184,0c1.318,0,1.743-.431,1.747-1.756q.005-1.674,0-3.348c0-1.374-.414-1.781-1.807-1.781q-22.143,0-44.285,0c-1.246,0-1.779.514-1.8,1.761-.018,1.088-.007,2.177,0,3.265,0,1.363.5,1.86,1.862,1.861Zm27.745-3.444a3.324,3.324,0,0,0,3.407,3.442,3.441,3.441,0,1,0,.01-6.882A3.326,3.326,0,0,0,1558.486,623.071Zm-62.289-.012a3.324,3.324,0,0,0,3.4,3.453,3.435,3.435,0,0,0,3.477-3.411,3.48,3.48,0,0,0-3.445-3.471A3.346,3.346,0,0,0,1496.2,623.059Zm13.081-7.986a1.8,1.8,0,0,0,1.813,1.867,1.893,1.893,0,0,0,1.843-1.79,1.922,1.922,0,0,0-1.767-1.867A1.813,1.813,0,0,0,1509.278,615.073Zm54.248,32.354a1.812,1.812,0,0,0,1.838-1.844,1.831,1.831,0,0,0-3.661-.015A1.809,1.809,0,0,0,1563.526,647.426Zm-45.922,0a1.851,1.851,0,0,0,1.868-1.738,1.911,1.911,0,0,0-1.806-1.915,1.842,1.842,0,0,0-1.849,1.853A1.785,1.785,0,0,0,1517.6,647.427Zm45.94-10.547a1.811,1.811,0,0,0-1.841,1.84,1.831,1.831,0,0,0,3.661.021A1.808,1.808,0,0,0,1563.544,636.879Zm-.029-33.826a1.813,1.813,0,0,0,1.849-1.832,1.831,1.831,0,0,0-3.661-.038A1.811,1.811,0,0,0,1563.515,603.053Zm-47.7,12.1a1.848,1.848,0,0,0,1.833,1.791,1.829,1.829,0,0,0,.008-3.659A1.846,1.846,0,0,0,1515.817,615.149Zm41.164,32.278a1.841,1.841,0,0,0,1.842-1.845,1.829,1.829,0,0,0-3.658-.016A1.809,1.809,0,0,0,1556.981,647.427Zm-24.427-32.3a1.815,1.815,0,0,0-1.852-1.846,1.936,1.936,0,0,0-1.8,1.859,1.888,1.888,0,0,0,1.848,1.8A1.805,1.805,0,0,0,1532.554,615.127Zm-21.441,32.3a1.844,1.844,0,0,0,1.819-1.872,1.972,1.972,0,0,0-1.871-1.78,1.831,1.831,0,0,0-1.783,1.822A1.776,1.776,0,0,0,1511.113,647.427Zm21.44-46.168a1.837,1.837,0,0,0-1.848-1.858,1.941,1.941,0,0,0-1.791,1.87,1.822,1.822,0,0,0,1.749,1.78A1.784,1.784,0,0,0,1532.553,601.259Zm24.439,35.621a1.807,1.807,0,0,0-1.827,1.783,1.879,1.879,0,0,0,1.778,1.857,1.916,1.916,0,0,0,1.879-1.767A1.843,1.843,0,0,0,1556.992,636.879Zm-32.848,10.548a1.813,1.813,0,0,0,1.87-1.825,1.9,1.9,0,0,0-1.815-1.83,1.964,1.964,0,0,0-1.838,1.82A1.843,1.843,0,0,0,1524.144,647.427Zm39.4-13.889a1.8,1.8,0,0,0,1.816-1.8,1.826,1.826,0,0,0-1.8-1.83,1.882,1.882,0,0,0-1.863,1.774A1.808,1.808,0,0,0,1563.548,633.538ZM1524.18,613.28a1.83,1.83,0,0,0-.025,3.66,1.856,1.856,0,0,0,1.859-1.853A1.9,1.9,0,0,0,1524.18,613.28Zm39.36,3.659a1.888,1.888,0,0,0,1.825-1.817,1.858,1.858,0,0,0-1.874-1.842,1.829,1.829,0,0,0,.049,3.658Zm-26.255,16.6a1.693,1.693,0,0,0,1.808-1.749,1.824,1.824,0,0,0-1.722-1.9,2.029,2.029,0,0,0-1.923,1.86A1.827,1.827,0,0,0,1537.284,633.538Zm-19.619,0a1.839,1.839,0,0,0,1.807-1.811,1.943,1.943,0,0,0-1.915-1.836,1.866,1.866,0,0,0-1.74,1.9A1.789,1.789,0,0,0,1517.666,633.539Zm14.888,12.065a1.835,1.835,0,0,0-1.792-1.829,1.972,1.972,0,0,0-1.848,1.9,1.822,1.822,0,0,0,1.781,1.748A1.781,1.781,0,0,0,1532.553,645.6Zm-16.736-6.985a1.86,1.86,0,0,0,1.729,1.9,1.934,1.934,0,0,0,1.925-1.82,1.842,1.842,0,0,0-1.8-1.82A1.794,1.794,0,0,0,1515.818,638.618Zm-6.539-.017a1.814,1.814,0,0,0,1.694,1.914,1.987,1.987,0,0,0,1.96-1.79,1.852,1.852,0,0,0-1.695-1.846A1.792,1.792,0,0,0,1509.279,638.6Zm1.85-5.064a1.835,1.835,0,0,0,1.8-1.819,2.016,2.016,0,0,0-1.859-1.825,1.855,1.855,0,0,0-1.795,1.92A1.722,1.722,0,0,0,1511.129,633.538Zm19.625,3.341a1.826,1.826,0,0,0-1.841,1.77,1.958,1.958,0,0,0,1.876,1.872,1.826,1.826,0,0,0,1.765-1.763A1.786,1.786,0,0,0,1530.754,636.879Zm26.266-3.341a1.81,1.81,0,0,0,1.8-1.8,1.956,1.956,0,0,0-1.832-1.823,1.836,1.836,0,0,0-1.823,1.883A1.8,1.8,0,0,0,1557.02,633.538Zm-13.215,0a1.636,1.636,0,0,0,1.827-1.7,1.776,1.776,0,1,0-3.544-.126A1.7,1.7,0,0,0,1543.8,633.538Zm-32.693-27.144a1.705,1.705,0,0,0-1.831,1.726,1.671,1.671,0,0,0,1.73,1.82,1.777,1.777,0,1,0,.1-3.546Zm13.073,27.146a1.81,1.81,0,0,0,1.83-1.857,1.932,1.932,0,0,0-1.767-1.792,2,2,0,0,0-1.887,1.87A1.815,1.815,0,0,0,1524.183,633.539Zm-19.685-23.6a1.776,1.776,0,1,0,.014-3.547,1.675,1.675,0,0,0-1.774,1.775A1.641,1.641,0,0,0,1504.5,609.94Zm-6.582,23.6a1.717,1.717,0,0,0,1.83-1.812,1.775,1.775,0,1,0-3.549,0A1.639,1.639,0,0,0,1497.916,633.538Zm6.537,0a1.638,1.638,0,0,0,1.831-1.7,1.777,1.777,0,1,0-3.546-.146A1.712,1.712,0,0,0,1504.453,633.538Zm32.893,13.888a1.785,1.785,0,0,0,1.746-1.843,1.827,1.827,0,0,0-1.8-1.808,1.951,1.951,0,0,0-1.818,1.829A1.83,1.83,0,0,0,1537.346,647.426Zm-32.845,0a1.891,1.891,0,0,0,1.884-1.754,2.018,2.018,0,0,0-1.866-1.9,1.842,1.842,0,0,0-1.781,1.829A1.784,1.784,0,0,0,1504.5,647.426Zm19.666-10.548a1.846,1.846,0,0,0-1.807,1.8,1.988,1.988,0,0,0,1.907,1.84,1.92,1.92,0,0,0,1.746-1.805A1.814,1.814,0,0,0,1524.167,636.878Zm8.386-5.09a1.863,1.863,0,0,0-1.731-1.894,1.973,1.973,0,0,0-1.907,1.844,1.811,1.811,0,0,0,1.8,1.8A1.786,1.786,0,0,0,1532.553,631.788Zm-29.815-16.655a1.812,1.812,0,0,0,1.791,1.8,1.828,1.828,0,1,0-.046-3.654A1.813,1.813,0,0,0,1502.739,615.133Zm-4.737-8.74a1.774,1.774,0,1,0,1.744,1.818A1.678,1.678,0,0,0,1498,606.393Zm4.737,32.337a1.815,1.815,0,0,0,1.81,1.787,2.026,2.026,0,0,0,1.834-1.844,1.87,1.87,0,0,0-1.911-1.794A1.791,1.791,0,0,0,1502.739,638.731ZM1517.6,609.94a1.775,1.775,0,1,0,.066-3.547,1.789,1.789,0,0,0-1.85,1.751A1.726,1.726,0,0,0,1517.6,609.94ZM1552.17,631.8a1.825,1.825,0,0,0-1.8-1.907,1.884,1.884,0,0,0-1.748,1.81,1.73,1.73,0,0,0,1.829,1.837A1.625,1.625,0,0,0,1552.17,631.8Zm-13.077,6.878a1.785,1.785,0,0,0-1.806-1.8,1.836,1.836,0,0,0-1.817,1.811,1.983,1.983,0,0,0,1.851,1.831A1.819,1.819,0,0,0,1539.093,638.676Zm6.539,0a1.773,1.773,0,1,0-3.545,0,1.774,1.774,0,1,0,3.545,0Zm-49.435-.043a1.776,1.776,0,1,0,3.549.1,1.74,1.74,0,0,0-1.733-1.847A1.711,1.711,0,0,0,1496.2,638.632Zm55.972,7.1a1.776,1.776,0,1,0-3.543-.13,1.8,1.8,0,0,0,1.687,1.829A1.677,1.677,0,0,0,1552.169,645.727Zm-54.214-42.674a1.789,1.789,0,0,0,1.791-1.807,1.776,1.776,0,1,0-3.549-.012A1.736,1.736,0,0,0,1497.955,603.053Zm32.755,6.887a1.709,1.709,0,0,0,1.843-1.722,1.777,1.777,0,0,0-1.76-1.824,1.775,1.775,0,1,0-.083,3.547Zm32.811,0a1.774,1.774,0,1,0-1.817-1.7A1.815,1.815,0,0,0,1563.521,609.94Zm-63.774,35.691a1.776,1.776,0,1,0-3.549-.037,1.739,1.739,0,0,0,1.745,1.831A1.786,1.786,0,0,0,1499.746,645.631Zm45.885-.042a1.774,1.774,0,1,0-3.545.046,1.783,1.783,0,0,0,1.807,1.791A1.731,1.731,0,0,0,1545.631,645.589Zm-45.885-30.448a1.776,1.776,0,1,0-1.805,1.8A1.815,1.815,0,0,0,1499.746,615.141Zm52.424,23.507a1.676,1.676,0,0,0-1.779-1.769,1.793,1.793,0,0,0-1.765,1.745,1.861,1.861,0,0,0,1.813,1.894A1.809,1.809,0,0,0,1552.17,638.648Zm-27.988-28.707a1.775,1.775,0,1,0-1.823-1.777A1.811,1.811,0,0,0,1524.182,609.941Z" transform="translate(-22.097 -116.822)" fill="#6bc7f5"/>
    <path id="Trazado_103888" data-name="Trazado 103888" d="M1487.045,595.166a4.71,4.71,0,0,0-.756,2.924q.028,25.556,0,51.112a4.256,4.256,0,0,0,.769,2.748,1.919,1.919,0,0,1-2.1-1.685,5.1,5.1,0,0,1-.028-.751q0-25.924,0-51.848C1484.935,595.994,1485.6,595.217,1487.045,595.166Z" transform="translate(-15.362 -116.974)" fill="#fdfdfe"/>
    <path id="Trazado_103889" data-name="Trazado 103889" d="M1555.931,484.687c-.752.011-1.5.02-2.255.034-.3.005-.565-.017-.556-.426a69.2,69.2,0,0,1,.12-7.263,4.518,4.518,0,0,1,4.941-3.88,4.628,4.628,0,0,1,4.26,4.472c.037,2.145,0,4.291.022,6.437.006.512-.159.7-.671.666-.722-.041-1.447-.027-2.171-.036,0-2.032.013-4.064.008-6.1a1.727,1.727,0,0,0-1.785-1.942,1.8,1.8,0,0,0-1.921,1.938C1555.915,480.623,1555.928,482.655,1555.931,484.687Z" transform="translate(-72.094 -15.391)" fill="#f5759d"/>
    <path id="Trazado_103890" data-name="Trazado 103890" d="M1634.674,484.687c-2.718.218-2.718.218-2.718-2.409,0-1.45-.011-2.9,0-4.35a4.63,4.63,0,0,1,4.657-4.773,4.563,4.563,0,0,1,4.606,4.711c.021,2.035-.012,4.071.017,6.106.008.567-.14.813-.743.765-.665-.053-1.336-.032-2-.044,0-2.035,0-4.07.011-6.106a1.772,1.772,0,0,0-.354-1.172,2,2,0,0,0-2.249-.676,2.024,2.024,0,0,0-1.23,2.007C1634.656,480.728,1634.671,482.708,1634.674,484.687Z" transform="translate(-137.754 -15.402)" fill="#6bc7f5"/>
    <path id="Trazado_103891" data-name="Trazado 103891" d="M1648.147,501.946c0-1.979-.019-3.959,0-5.938a2.024,2.024,0,0,1,1.23-2.007,2,2,0,0,1,2.249.676,1.772,1.772,0,0,1,.354,1.172c-.01,2.035-.008,4.07-.011,6.106A35.562,35.562,0,0,1,1648.147,501.946Z" transform="translate(-151.227 -32.66)" fill="#d0f8fd"/>
    <path id="Trazado_103892" data-name="Trazado 103892" d="M1570.045,502.128c0-2.032-.017-4.064-.007-6.1a1.8,1.8,0,0,1,1.921-1.938,1.727,1.727,0,0,1,1.784,1.942c.006,2.032,0,4.064-.008,6.1Z" transform="translate(-86.208 -32.832)" fill="#fed6e4"/>
    <path id="Trazado_103893" data-name="Trazado 103893" d="M1592.44,622.843a1.769,1.769,0,0,1,1.1,1.83,1.871,1.871,0,0,1-1.685,1.571,1.763,1.763,0,0,1-1.905-1.269,1.679,1.679,0,0,1,.961-2.117,3.793,3.793,0,0,1,.117,1.468c.034.408.2.727.625.742.456.016.7-.295.73-.737C1592.414,623.836,1592.421,623.339,1592.44,622.843Z" transform="translate(-102.708 -140.014)" fill="#0789ea"/>
    <path id="Trazado_103894" data-name="Trazado 103894" d="M1631.564,622.8a1.777,1.777,0,0,1,1.023,1.956,1.813,1.813,0,0,1-1.871,1.45,1.891,1.891,0,0,1-1.724-1.431,1.638,1.638,0,0,1,1.087-1.979c.02.47.029.941.063,1.41.033.45.182.861.724.828.471-.028.627-.383.635-.824C1631.51,623.742,1631.542,623.272,1631.564,622.8Z" transform="translate(-135.253 -139.977)" fill="#0789ea"/>
    <path id="Trazado_103895" data-name="Trazado 103895" d="M1670.74,622.815a1.676,1.676,0,0,1,.936,2.061,1.748,1.748,0,0,1-1.875,1.324,1.863,1.863,0,0,1-1.685-1.584,1.721,1.721,0,0,1,1.111-1.827c.015.443.024.887.045,1.33.023.477.135.939.727.91.526-.026.626-.44.639-.9A2.92,2.92,0,0,1,1670.74,622.815Z" transform="translate(-167.843 -139.969)" fill="#0789ea"/>
    <path id="Trazado_103896" data-name="Trazado 103896" d="M1553.4,622.867c.922.527,1.249,1.135,1.042,1.934a1.786,1.786,0,0,1-1.857,1.464,1.752,1.752,0,0,1-1.691-1.344,1.7,1.7,0,0,1,.982-2.052c.016.494.01.99.053,1.482.036.416.22.756.706.756s.667-.344.7-.758C1553.387,623.856,1553.385,623.361,1553.4,622.867Z" transform="translate(-70.22 -140.034)" fill="#0789ea"/>
    <path id="Trazado_103897" data-name="Trazado 103897" d="M1599.064,748.983h-22.1c-1.36,0-1.857-.5-1.862-1.861,0-1.088-.015-2.177,0-3.265.021-1.246.554-1.761,1.8-1.761q22.142,0,44.285,0c1.393,0,1.8.407,1.807,1.781q.005,1.674,0,3.348c0,1.325-.429,1.756-1.747,1.756Q1610.156,748.986,1599.064,748.983Z" transform="translate(-90.42 -239.291)" fill="#0089ee"/>
    <path id="Trazado_103898" data-name="Trazado 103898" d="M1759.878,636.636c-.488-.035-.991-.053-1.5-.053s-1,.017-1.517.051l-.054,0H1753.4l-.058,0c-.5-.034-1-.052-1.505-.052s-1.007.017-1.509.051l-.057,0h-3.458l-.1-.013a3.869,3.869,0,0,1-3.827-3.677l-.031-.183.01-.186a33.193,33.193,0,0,0,0-3.582l0-.045V625.64l0-.042a32.48,32.48,0,0,0,0-3.58l-.011-.191.032-.188a3.871,3.871,0,0,1,3.853-3.67l.089-.01,3.394,0h3.239l3.3,0,3.237,0,3.394,0,.083.008c2.359.239,3.557,1.418,3.884,3.823l.022.161-.01.162a27.158,27.158,0,0,0,0,3.442l.008.123-.01.123a18.6,18.6,0,0,0,0,2.969l.01.121-.008.121a26.976,26.976,0,0,0,0,3.538l.014.2-.035.2a3.881,3.881,0,0,1-3.855,3.663l-.1.011-3.462,0Zm-.23-4.757,2.952,0c.005-2.8.005-5.8,0-9.155l-7.361,0-7.555,0c0,2.767,0,5.773,0,9.154l2.991,0h8.973Z" transform="translate(-230.072 -135.949)" fill="#060505"/>
    <path id="Trazado_103899" data-name="Trazado 103899" d="M1752.9,634.008a34.321,34.321,0,0,0,0-3.764c.271-1.6.808-2.115,2.38-2.283h6.543l3.3,0,3.239,0,3.307,0c1.6.162,2.168.727,2.393,2.382a28.945,28.945,0,0,0,0,3.653,20.13,20.13,0,0,0,0,3.237,28.543,28.543,0,0,0,0,3.759c-.281,1.6-.813,2.1-2.4,2.29l-3.3,0a23.7,23.7,0,0,0-3.241,0h-3.3a23.775,23.775,0,0,0-3.243,0h-3.3c-1.6-.2-2.112-.695-2.381-2.293a34.8,34.8,0,0,0,0-3.763Zm10.654,7.871q3.971,0,7.943,0c.925,0,1.141-.208,1.142-1.124q.011-5.1,0-10.2c0-.957-.227-1.179-1.184-1.179q-7.985,0-15.969,0c-.946,0-1.11.17-1.111,1.133q-.007,5.1,0,10.2c0,1.023.145,1.17,1.153,1.171Q1759.541,641.884,1763.554,641.879Z" transform="translate(-238.437 -144.275)" fill="#060505"/>
    <path id="Trazado_103900" data-name="Trazado 103900" d="M1883.814,745.557a3.326,3.326,0,0,1,3.418-3.44,3.441,3.441,0,1,1-.01,6.882A3.324,3.324,0,0,1,1883.814,745.557Z" transform="translate(-347.425 -239.308)" fill="#028aee"/>
    <path id="Trazado_103901" data-name="Trazado 103901" d="M1511.968,745.544a3.347,3.347,0,0,1,3.434-3.428,3.48,3.48,0,0,1,3.445,3.471A3.435,3.435,0,0,1,1515.37,749,3.324,3.324,0,0,1,1511.968,745.544Z" transform="translate(-37.868 -239.307)" fill="#028aee"/>
    <path id="Trazado_103902" data-name="Trazado 103902" d="M1590.057,706a1.813,1.813,0,0,1,1.889-1.791,1.922,1.922,0,0,1,1.767,1.867,1.893,1.893,0,0,1-1.843,1.79A1.8,1.8,0,0,1,1590.057,706Z" transform="translate(-102.876 -207.749)" fill="#058bee"/>
    <path id="Trazado_103903" data-name="Trazado 103903" d="M1904.843,889.9a1.809,1.809,0,0,1-1.823-1.858,1.831,1.831,0,0,1,3.661.015A1.812,1.812,0,0,1,1904.843,889.9Z" transform="translate(-363.414 -359.293)" fill="#058bee"/>
    <path id="Trazado_103904" data-name="Trazado 103904" d="M1630.885,889.895a1.785,1.785,0,0,1-1.787-1.8,1.842,1.842,0,0,1,1.849-1.853,1.911,1.911,0,0,1,1.806,1.915A1.851,1.851,0,0,1,1630.885,889.895Z" transform="translate(-135.378 -359.29)" fill="#058bee"/>
    <path id="Trazado_103905" data-name="Trazado 103905" d="M1904.862,845.085a1.808,1.808,0,0,1,1.82,1.86,1.831,1.831,0,0,1-3.661-.021A1.811,1.811,0,0,1,1904.862,845.085Z" transform="translate(-363.414 -325.028)" fill="#058bee"/>
    <path id="Trazado_103906" data-name="Trazado 103906" d="M1904.83,625a1.811,1.811,0,0,1-1.812-1.87,1.831,1.831,0,0,1,3.661.038A1.813,1.813,0,0,1,1904.83,625Z" transform="translate(-363.412 -138.77)" fill="#058bee"/>
    <path id="Trazado_103907" data-name="Trazado 103907" d="M1629.094,706.08a1.846,1.846,0,0,1,1.841-1.867,1.829,1.829,0,0,1-.008,3.659A1.848,1.848,0,0,1,1629.094,706.08Z" transform="translate(-135.374 -207.753)" fill="#058bee"/>
    <path id="Trazado_103908" data-name="Trazado 103908" d="M1865.806,889.9a1.809,1.809,0,0,1-1.816-1.862,1.829,1.829,0,0,1,3.658.016A1.841,1.841,0,0,1,1865.806,889.9Z" transform="translate(-330.921 -359.291)" fill="#058bee"/>
    <path id="Trazado_103909" data-name="Trazado 103909" d="M1710.869,706.06a1.805,1.805,0,0,1-1.8,1.812,1.889,1.889,0,0,1-1.848-1.8,1.936,1.936,0,0,1,1.8-1.859A1.815,1.815,0,0,1,1710.869,706.06Z" transform="translate(-200.411 -207.754)" fill="#058bee"/>
    <path id="Trazado_103910" data-name="Trazado 103910" d="M1591.9,889.893a1.776,1.776,0,0,1-1.835-1.831,1.831,1.831,0,0,1,1.783-1.822,1.972,1.972,0,0,1,1.871,1.78A1.844,1.844,0,0,1,1591.9,889.893Z" transform="translate(-102.879 -359.288)" fill="#058bee"/>
    <path id="Trazado_103911" data-name="Trazado 103911" d="M1710.922,623.211a1.784,1.784,0,0,1-1.89,1.793,1.822,1.822,0,0,1-1.749-1.781,1.941,1.941,0,0,1,1.791-1.87A1.836,1.836,0,0,1,1710.922,623.211Z" transform="translate(-200.465 -138.774)" fill="#038bee"/>
    <path id="Trazado_103912" data-name="Trazado 103912" d="M1865.818,845.087a1.843,1.843,0,0,1,1.83,1.873,1.916,1.916,0,0,1-1.879,1.767,1.879,1.879,0,0,1-1.778-1.857A1.807,1.807,0,0,1,1865.818,845.087Z" transform="translate(-330.922 -325.029)" fill="#038bee"/>
    <path id="Trazado_103913" data-name="Trazado 103913" d="M1669.936,889.892a1.843,1.843,0,0,1-1.783-1.834,1.964,1.964,0,0,1,1.838-1.82,1.9,1.9,0,0,1,1.815,1.83A1.813,1.813,0,0,1,1669.936,889.892Z" transform="translate(-167.889 -359.287)" fill="#058bee"/>
    <path id="Trazado_103914" data-name="Trazado 103914" d="M1904.866,807.121a1.809,1.809,0,0,1-1.844-1.852,1.882,1.882,0,0,1,1.863-1.774,1.826,1.826,0,0,1,1.8,1.83A1.8,1.8,0,0,1,1904.866,807.121Z" transform="translate(-363.415 -290.404)" fill="#058bee"/>
    <path id="Trazado_103915" data-name="Trazado 103915" d="M1669.963,704.207a1.9,1.9,0,0,1,1.834,1.807,1.856,1.856,0,0,1-1.859,1.853,1.83,1.83,0,0,1,.025-3.66Z" transform="translate(-167.879 -207.749)" fill="#058bee"/>
    <path id="Trazado_103916" data-name="Trazado 103916" d="M1904.854,707.869a1.829,1.829,0,0,1-.049-3.658,1.858,1.858,0,0,1,1.874,1.842A1.888,1.888,0,0,1,1904.854,707.869Z" transform="translate(-363.411 -207.751)" fill="#058bee"/>
    <path id="Trazado_103917" data-name="Trazado 103917" d="M1748.121,807.025a1.827,1.827,0,0,1-1.837-1.784,2.029,2.029,0,0,1,1.923-1.86,1.824,1.824,0,0,1,1.722,1.9A1.694,1.694,0,0,1,1748.121,807.025Z" transform="translate(-232.933 -290.309)" fill="#058bee"/>
    <path id="Trazado_103918" data-name="Trazado 103918" d="M1630.946,807.016a1.789,1.789,0,0,1-1.848-1.75,1.866,1.866,0,0,1,1.74-1.9,1.943,1.943,0,0,1,1.915,1.836A1.839,1.839,0,0,1,1630.946,807.016Z" transform="translate(-135.377 -290.299)" fill="#058bee"/>
    <path id="Trazado_103919" data-name="Trazado 103919" d="M1710.917,888.074a1.781,1.781,0,0,1-1.859,1.822,1.821,1.821,0,0,1-1.78-1.749,1.972,1.972,0,0,1,1.848-1.9A1.834,1.834,0,0,1,1710.917,888.074Z" transform="translate(-200.46 -359.292)" fill="#038bee"/>
    <path id="Trazado_103920" data-name="Trazado 103920" d="M1629.1,846.823a1.794,1.794,0,0,1,1.858-1.739,1.843,1.843,0,0,1,1.8,1.821,1.934,1.934,0,0,1-1.925,1.82A1.859,1.859,0,0,1,1629.1,846.823Z" transform="translate(-135.377 -325.026)" fill="#038bee"/>
    <path id="Trazado_103921" data-name="Trazado 103921" d="M1590.058,846.8a1.792,1.792,0,0,1,1.959-1.721,1.852,1.852,0,0,1,1.695,1.846,1.987,1.987,0,0,1-1.96,1.79A1.814,1.814,0,0,1,1590.058,846.8Z" transform="translate(-102.876 -325.018)" fill="#058bee"/>
    <path id="Trazado_103922" data-name="Trazado 103922" d="M1591.914,807.027a1.722,1.722,0,0,1-1.85-1.724,1.855,1.855,0,0,1,1.795-1.92,2.016,2.016,0,0,1,1.859,1.825A1.835,1.835,0,0,1,1591.914,807.027Z" transform="translate(-102.882 -290.311)" fill="#038bee"/>
    <path id="Trazado_103923" data-name="Trazado 103923" d="M1709.112,845.085a1.785,1.785,0,0,1,1.8,1.88,1.826,1.826,0,0,1-1.764,1.763,1.957,1.957,0,0,1-1.876-1.872A1.826,1.826,0,0,1,1709.112,845.085Z" transform="translate(-200.455 -325.027)" fill="#038bee"/>
    <path id="Trazado_103924" data-name="Trazado 103924" d="M1865.846,807.123a1.8,1.8,0,0,1-1.854-1.743,1.836,1.836,0,0,1,1.823-1.883,1.956,1.956,0,0,1,1.832,1.823A1.81,1.81,0,0,1,1865.846,807.123Z" transform="translate(-330.923 -290.407)" fill="#038bee"/>
    <path id="Trazado_103925" data-name="Trazado 103925" d="M1787.634,807.021a1.7,1.7,0,0,1-1.717-1.829,1.776,1.776,0,1,1,3.544.126A1.636,1.636,0,0,1,1787.634,807.021Z" transform="translate(-265.927 -290.305)" fill="#038bee"/>
    <path id="Trazado_103926" data-name="Trazado 103926" d="M1591.9,663.095a1.777,1.777,0,1,1-.1,3.546,1.671,1.671,0,0,1-1.73-1.82A1.705,1.705,0,0,1,1591.9,663.095Z" transform="translate(-102.882 -173.523)" fill="#038bee"/>
    <path id="Trazado_103927" data-name="Trazado 103927" d="M1669.973,807.012a1.815,1.815,0,0,1-1.824-1.779,2,2,0,0,1,1.887-1.87,1.932,1.932,0,0,1,1.767,1.792A1.81,1.81,0,0,1,1669.973,807.012Z" transform="translate(-167.887 -290.295)" fill="#058bee"/>
    <path id="Trazado_103928" data-name="Trazado 103928" d="M1552.781,666.641a1.641,1.641,0,0,1-1.76-1.772,1.675,1.675,0,0,1,1.774-1.775,1.776,1.776,0,1,1-.015,3.547Z" transform="translate(-70.379 -173.523)" fill="#038bee"/>
    <path id="Trazado_103929" data-name="Trazado 103929" d="M1513.692,807.014a1.639,1.639,0,0,1-1.719-1.811,1.775,1.775,0,1,1,3.549,0A1.717,1.717,0,0,1,1513.692,807.014Z" transform="translate(-37.873 -290.297)" fill="#038bee"/>
    <path id="Trazado_103930" data-name="Trazado 103930" d="M1552.738,807.026a1.712,1.712,0,0,1-1.714-1.842,1.777,1.777,0,1,1,3.546.146A1.638,1.638,0,0,1,1552.738,807.026Z" transform="translate(-70.381 -290.31)" fill="#038bee"/>
    <path id="Trazado_103931" data-name="Trazado 103931" d="M1748.291,889.9a1.83,1.83,0,0,1-1.877-1.822,1.951,1.951,0,0,1,1.818-1.829,1.827,1.827,0,0,1,1.8,1.808A1.785,1.785,0,0,1,1748.291,889.9Z" transform="translate(-233.041 -359.295)" fill="#038bee"/>
    <path id="Trazado_103932" data-name="Trazado 103932" d="M1552.785,889.875a1.784,1.784,0,0,1-1.762-1.827,1.842,1.842,0,0,1,1.781-1.829,2.018,2.018,0,0,1,1.866,1.9A1.891,1.891,0,0,1,1552.785,889.875Z" transform="translate(-70.381 -359.27)" fill="#038bee"/>
    <path id="Trazado_103933" data-name="Trazado 103933" d="M1669.961,845.081a1.814,1.814,0,0,1,1.847,1.838,1.92,1.92,0,0,1-1.746,1.805,1.988,1.988,0,0,1-1.907-1.84A1.846,1.846,0,0,1,1669.961,845.081Z" transform="translate(-167.891 -325.024)" fill="#038bee"/>
    <path id="Trazado_103934" data-name="Trazado 103934" d="M1710.924,805.276a1.786,1.786,0,0,1-1.838,1.749,1.811,1.811,0,0,1-1.8-1.8,1.973,1.973,0,0,1,1.907-1.844A1.863,1.863,0,0,1,1710.924,805.276Z" transform="translate(-200.467 -290.31)" fill="#038bee"/>
    <path id="Trazado_103935" data-name="Trazado 103935" d="M1551.022,706.077a1.813,1.813,0,0,1,1.745-1.85,1.828,1.828,0,1,1,.046,3.654A1.812,1.812,0,0,1,1551.022,706.077Z" transform="translate(-70.38 -207.765)" fill="#038bee"/>
    <path id="Trazado_103936" data-name="Trazado 103936" d="M1513.777,663.094a1.678,1.678,0,0,1,1.744,1.818,1.775,1.775,0,1,1-1.744-1.818Z" transform="translate(-37.872 -173.523)" fill="#038bee"/>
    <path id="Trazado_103937" data-name="Trazado 103937" d="M1551.022,846.936a1.791,1.791,0,0,1,1.733-1.851,1.87,1.87,0,0,1,1.911,1.794,2.026,2.026,0,0,1-1.834,1.844A1.816,1.816,0,0,1,1551.022,846.936Z" transform="translate(-70.38 -325.028)" fill="#038bee"/>
    <path id="Trazado_103938" data-name="Trazado 103938" d="M1630.885,666.641a1.726,1.726,0,0,1-1.785-1.8,1.79,1.79,0,0,1,1.851-1.751,1.775,1.775,0,1,1-.065,3.547Z" transform="translate(-135.379 -173.522)" fill="#038bee"/>
    <path id="Trazado_103939" data-name="Trazado 103939" d="M1828.5,805.275a1.625,1.625,0,0,1-1.714,1.74,1.73,1.73,0,0,1-1.829-1.837,1.884,1.884,0,0,1,1.748-1.81A1.825,1.825,0,0,1,1828.5,805.275Z" transform="translate(-298.424 -290.299)" fill="#038bee"/>
    <path id="Trazado_103940" data-name="Trazado 103940" d="M1750.035,846.881a1.819,1.819,0,0,1-1.773,1.846,1.983,1.983,0,0,1-1.851-1.831,1.836,1.836,0,0,1,1.817-1.811A1.784,1.784,0,0,1,1750.035,846.881Z" transform="translate(-233.039 -325.027)" fill="#038bee"/>
    <path id="Trazado_103941" data-name="Trazado 103941" d="M1789.462,846.879a1.774,1.774,0,1,1-3.545,0,1.773,1.773,0,1,1,3.545,0Z" transform="translate(-265.927 -325.026)" fill="#038bee"/>
    <path id="Trazado_103942" data-name="Trazado 103942" d="M1511.971,846.84a1.711,1.711,0,0,1,1.816-1.752,1.74,1.74,0,0,1,1.733,1.847,1.776,1.776,0,1,1-3.549-.1Z" transform="translate(-37.871 -325.03)" fill="#038bee"/>
    <path id="Trazado_103943" data-name="Trazado 103943" d="M1828.5,888.188a1.677,1.677,0,0,1-1.856,1.7,1.8,1.8,0,0,1-1.687-1.829,1.776,1.776,0,1,1,3.543.13Z" transform="translate(-298.425 -359.283)" fill="#038bee"/>
    <path id="Trazado_103944" data-name="Trazado 103944" d="M1513.732,624.975a1.736,1.736,0,0,1-1.758-1.819,1.776,1.776,0,1,1,3.549.012A1.789,1.789,0,0,1,1513.732,624.975Z" transform="translate(-37.873 -138.744)" fill="#038bee"/>
    <path id="Trazado_103945" data-name="Trazado 103945" d="M1709.08,666.639a1.775,1.775,0,1,1,.083-3.547,1.777,1.777,0,0,1,1.76,1.824A1.709,1.709,0,0,1,1709.08,666.639Z" transform="translate(-200.466 -173.521)" fill="#038bee"/>
    <path id="Trazado_103946" data-name="Trazado 103946" d="M1904.842,666.643a1.774,1.774,0,1,1,1.842-1.672A1.809,1.809,0,0,1,1904.842,666.643Z" transform="translate(-363.418 -173.525)" fill="#038bee"/>
    <path id="Trazado_103947" data-name="Trazado 103947" d="M1515.524,888.077a1.786,1.786,0,0,1-1.8,1.795,1.739,1.739,0,0,1-1.745-1.831,1.776,1.776,0,1,1,3.549.036Z" transform="translate(-37.874 -359.267)" fill="#038bee"/>
    <path id="Trazado_103948" data-name="Trazado 103948" d="M1789.461,888.062a1.731,1.731,0,0,1-1.738,1.837,1.783,1.783,0,0,1-1.807-1.791,1.774,1.774,0,1,1,3.545-.046Z" transform="translate(-265.926 -359.295)" fill="#038bee"/>
    <path id="Trazado_103949" data-name="Trazado 103949" d="M1515.521,706.084a1.776,1.776,0,1,1-1.745-1.857A1.817,1.817,0,0,1,1515.521,706.084Z" transform="translate(-37.871 -207.765)" fill="#038bee"/>
    <path id="Trazado_103950" data-name="Trazado 103950" d="M1828.5,846.851a1.809,1.809,0,0,1-1.731,1.87,1.861,1.861,0,0,1-1.813-1.894,1.793,1.793,0,0,1,1.765-1.745A1.676,1.676,0,0,1,1828.5,846.851Z" transform="translate(-298.425 -325.025)" fill="#038bee"/>
    <path id="Trazado_103951" data-name="Trazado 103951" d="M1669.975,666.639a1.775,1.775,0,1,1,1.83-1.769A1.812,1.812,0,0,1,1669.975,666.639Z" transform="translate(-167.889 -173.52)" fill="#038bee"/>
    <path id="Trazado_103952" data-name="Trazado 103952" d="M1770.891,648.887q-4.013,0-8.027,0c-1.007,0-1.152-.148-1.153-1.171q0-5.1,0-10.2c0-.963.166-1.132,1.111-1.133q7.985-.006,15.97,0c.958,0,1.183.223,1.184,1.18q.008,5.1,0,10.2c0,.916-.218,1.122-1.142,1.124Q1774.862,648.893,1770.891,648.887Zm0-10.378c-1.867,0-3.734-.009-5.6,0a1.325,1.325,0,0,0-1.518,1.469q-.024,2.633,0,5.266a1.323,1.323,0,0,0,1.493,1.5q5.558.017,11.117,0a1.318,1.318,0,0,0,1.471-1.5q.014-2.549,0-5.1c-.005-1.162-.463-1.626-1.612-1.631C1774.453,638.5,1772.67,638.509,1770.887,638.509Z" transform="translate(-245.774 -151.283)" fill="#f5759d"/>
    <path id="Trazado_103953" data-name="Trazado 103953" d="M1781.063,649.077c1.783,0,3.566-.006,5.349,0,1.149.005,1.607.469,1.612,1.631q.012,2.549,0,5.1a1.318,1.318,0,0,1-1.471,1.5q-5.558.019-11.116,0a1.323,1.323,0,0,1-1.493-1.5q-.022-2.633,0-5.266a1.325,1.325,0,0,1,1.518-1.469C1777.33,649.068,1779.2,649.077,1781.063,649.077Z" transform="translate(-255.951 -161.851)" fill="#fed6e4"/>
  </g>
</svg>
