<svg xmlns="http://www.w3.org/2000/svg" xmlns:xlink="http://www.w3.org/1999/xlink" width="396.572" height="377.506" viewBox="0 0 396.572 377.506">
  <defs>
    <clipPath id="clip-path">
      <rect id="Rectángulo_313153" data-name="Rectángulo 313153" width="13.36" height="123.649" fill="none"/>
    </clipPath>
    <clipPath id="clip-path-2">
      <rect id="Rectángulo_313154" data-name="Rectángulo 313154" width="13.36" height="22.74" fill="none"/>
    </clipPath>
    <clipPath id="clip-path-3">
      <rect id="Rectángulo_313155" data-name="Rectángulo 313155" width="18.697" height="121.872" fill="none"/>
    </clipPath>
    <clipPath id="clip-path-4">
      <rect id="Rectángulo_313156" data-name="Rectángulo 313156" width="12.251" height="11.37" fill="none"/>
    </clipPath>
    <clipPath id="clip-path-5">
      <rect id="Rectángulo_313157" data-name="Rectángulo 313157" width="18.698" height="121.872" fill="none"/>
    </clipPath>
    <clipPath id="clip-path-7">
      <rect id="Rectángulo_313159" data-name="Rectángulo 313159" width="104.225" height="8.307" fill="none"/>
    </clipPath>
    <clipPath id="clip-path-8">
      <rect id="Rectángulo_313160" data-name="Rectángulo 313160" width="91.671" height="47.345" fill="#fff"/>
    </clipPath>
    <clipPath id="clip-path-9">
      <rect id="Rectángulo_313161" data-name="Rectángulo 313161" width="17.844" height="20.064" fill="#fff"/>
    </clipPath>
    <clipPath id="clip-path-10">
      <rect id="Rectángulo_313162" data-name="Rectángulo 313162" width="30.557" height="22.044" fill="none"/>
    </clipPath>
    <clipPath id="clip-path-11">
      <rect id="Rectángulo_313163" data-name="Rectángulo 313163" width="78.922" height="141.048" fill="none"/>
    </clipPath>
    <clipPath id="clip-path-12">
      <rect id="Rectángulo_313164" data-name="Rectángulo 313164" width="12.193" height="16.375" fill="none"/>
    </clipPath>
    <clipPath id="clip-path-13">
      <rect id="Rectángulo_313165" data-name="Rectángulo 313165" width="15.337" height="15.696" fill="none"/>
    </clipPath>
    <clipPath id="clip-path-14">
      <rect id="Rectángulo_313166" data-name="Rectángulo 313166" width="84.535" height="40.965" fill="none"/>
    </clipPath>
    <clipPath id="clip-path-15">
      <rect id="Rectángulo_313169" data-name="Rectángulo 313169" width="30.914" height="106.2" fill="#fff"/>
    </clipPath>
    <clipPath id="clip-path-16">
      <rect id="Rectángulo_313170" data-name="Rectángulo 313170" width="78.339" height="159.692" fill="#fff"/>
    </clipPath>
    <clipPath id="clip-path-17">
      <rect id="Rectángulo_313171" data-name="Rectángulo 313171" width="33.343" height="48.223" fill="none"/>
    </clipPath>
    <clipPath id="clip-path-18">
      <rect id="Rectángulo_313172" data-name="Rectángulo 313172" width="16.815" height="68.226" fill="#fff"/>
    </clipPath>
    <clipPath id="clip-path-19">
      <rect id="Rectángulo_313173" data-name="Rectángulo 313173" width="14.763" height="69.206" fill="#fff"/>
    </clipPath>
    <clipPath id="clip-path-20">
      <rect id="Rectángulo_313174" data-name="Rectángulo 313174" width="18.421" height="27.487" fill="none"/>
    </clipPath>
    <clipPath id="clip-path-21">
      <rect id="Rectángulo_313175" data-name="Rectángulo 313175" width="80.015" height="73.988" fill="#fff"/>
    </clipPath>
    <clipPath id="clip-path-22">
      <rect id="Rectángulo_313176" data-name="Rectángulo 313176" width="9.201" height="26.465" fill="none"/>
    </clipPath>
    <clipPath id="clip-path-23">
      <rect id="Rectángulo_313177" data-name="Rectángulo 313177" width="29.141" height="27.312" fill="none"/>
    </clipPath>
    <clipPath id="clip-path-24">
      <rect id="Rectángulo_313178" data-name="Rectángulo 313178" width="78.894" height="32.801" fill="none"/>
    </clipPath>
    <clipPath id="clip-path-25">
      <rect id="Rectángulo_313179" data-name="Rectángulo 313179" width="42.245" height="12.699" fill="none"/>
    </clipPath>
    <clipPath id="clip-path-26">
      <rect id="Rectángulo_313180" data-name="Rectángulo 313180" width="6.043" height="8.545" fill="none"/>
    </clipPath>
    <clipPath id="clip-path-27">
      <rect id="Rectángulo_313181" data-name="Rectángulo 313181" width="49.276" height="18.819" fill="none"/>
    </clipPath>
    <clipPath id="clip-path-28">
      <rect id="Rectángulo_313182" data-name="Rectángulo 313182" width="49.987" height="17.39" fill="none"/>
    </clipPath>
    <clipPath id="clip-path-29">
      <rect id="Rectángulo_313183" data-name="Rectángulo 313183" width="58.943" height="3.407" fill="none"/>
    </clipPath>
    <clipPath id="clip-path-30">
      <rect id="Rectángulo_313184" data-name="Rectángulo 313184" width="31.256" height="12.51" fill="none"/>
    </clipPath>
    <clipPath id="clip-path-31">
      <rect id="Rectángulo_313187" data-name="Rectángulo 313187" width="9.217" height="10.378" fill="none"/>
    </clipPath>
    <clipPath id="clip-path-32">
      <rect id="Rectángulo_313188" data-name="Rectángulo 313188" width="29.401" height="34.391" fill="none"/>
    </clipPath>
    <clipPath id="clip-path-33">
      <rect id="Rectángulo_313190" data-name="Rectángulo 313190" width="8.554" height="8.843" fill="none"/>
    </clipPath>
    <clipPath id="clip-path-34">
      <rect id="Rectángulo_313192" data-name="Rectángulo 313192" width="8.554" height="8.842" fill="none"/>
    </clipPath>
    <clipPath id="clip-path-35">
      <rect id="Rectángulo_313194" data-name="Rectángulo 313194" width="23.54" height="203.52" fill="#7a512c"/>
    </clipPath>
    <clipPath id="clip-path-36">
      <rect id="Rectángulo_313195" data-name="Rectángulo 313195" width="12.18" height="9.949" fill="none"/>
    </clipPath>
    <clipPath id="clip-path-37">
      <rect id="Rectángulo_313196" data-name="Rectángulo 313196" width="11.555" height="203.52" fill="#7a512c"/>
    </clipPath>
    <clipPath id="clip-path-38">
      <rect id="Rectángulo_313197" data-name="Rectángulo 313197" width="11.555" height="35.531" fill="none"/>
    </clipPath>
    <clipPath id="clip-path-41">
      <rect id="Rectángulo_313200" data-name="Rectángulo 313200" width="23.527" height="203.52" fill="#7a512c"/>
    </clipPath>
    <clipPath id="clip-path-43">
      <rect id="Rectángulo_313203" data-name="Rectángulo 313203" width="257.363" height="5.455" fill="#563a22"/>
    </clipPath>
  </defs>
  <g id="Grupo_237491" data-name="Grupo 237491" transform="translate(397 11277.506)">
    <rect id="Rectángulo_313114" data-name="Rectángulo 313114" width="213.485" height="312.998" transform="translate(-360.168 -11277.506)" fill="#f0f0f0"/>
    <rect id="Rectángulo_313115" data-name="Rectángulo 313115" width="198.393" height="57.807" transform="translate(-352.623 -11267.652)" fill="#e1e1e1"/>
    <rect id="Rectángulo_313116" data-name="Rectángulo 313116" width="11.271" height="48.449" transform="translate(-352.624 -11258.295)" fill="#ececec"/>
    <rect id="Rectángulo_313117" data-name="Rectángulo 313117" width="11.271" height="48.449" transform="translate(-298.129 -11258.295)" fill="#ececec"/>
    <rect id="Rectángulo_313118" data-name="Rectángulo 313118" width="48.45" height="11.269" transform="translate(-227.869 -11209.847) rotate(-99.781)" fill="#ececec"/>
    <rect id="Rectángulo_313119" data-name="Rectángulo 313119" width="11.271" height="42.065" transform="translate(-338.659 -11251.911)" fill="#ececec"/>
    <rect id="Rectángulo_313120" data-name="Rectángulo 313120" width="11.271" height="42.065" transform="translate(-312.755 -11251.911)" fill="#ececec"/>
    <rect id="Rectángulo_313121" data-name="Rectángulo 313121" width="11.271" height="42.065" transform="translate(-247.37 -11251.911)" fill="#ececec"/>
    <rect id="Rectángulo_313122" data-name="Rectángulo 313122" width="42.064" height="11.27" transform="translate(-273.934 -11209.847) rotate(-102.527)" fill="#ececec"/>
    <rect id="Rectángulo_313123" data-name="Rectángulo 313123" width="5.635" height="50.854" transform="translate(-323.278 -11260.7)" fill="#ececec"/>
    <rect id="Rectángulo_313124" data-name="Rectángulo 313124" width="5.635" height="50.854" transform="translate(-256.245 -11260.7)" fill="#ececec"/>
    <rect id="Rectángulo_313125" data-name="Rectángulo 313125" width="198.393" height="57.808" transform="translate(-352.623 -11200.693)" fill="#e1e1e1"/>
    <rect id="Rectángulo_313126" data-name="Rectángulo 313126" width="11.271" height="48.449" transform="translate(-165.501 -11191.334)" fill="#ececec"/>
    <rect id="Rectángulo_313127" data-name="Rectángulo 313127" width="11.271" height="48.449" transform="translate(-219.994 -11191.334)" fill="#ececec"/>
    <rect id="Rectángulo_313128" data-name="Rectángulo 313128" width="11.269" height="48.45" transform="translate(-278.983 -11142.886) rotate(-170.219)" fill="#ececec"/>
    <rect id="Rectángulo_313129" data-name="Rectángulo 313129" width="11.271" height="42.065" transform="translate(-179.464 -11184.95)" fill="#ececec"/>
    <rect id="Rectángulo_313130" data-name="Rectángulo 313130" width="11.271" height="42.065" transform="translate(-205.368 -11184.95)" fill="#ececec"/>
    <rect id="Rectángulo_313131" data-name="Rectángulo 313131" width="11.271" height="42.065" transform="translate(-270.753 -11184.95)" fill="#ececec"/>
    <rect id="Rectángulo_313132" data-name="Rectángulo 313132" width="11.27" height="42.064" transform="translate(-232.92 -11142.886) rotate(-167.473)" fill="#ececec"/>
    <rect id="Rectángulo_313133" data-name="Rectángulo 313133" width="5.635" height="50.854" transform="translate(-189.21 -11193.739)" fill="#ececec"/>
    <rect id="Rectángulo_313134" data-name="Rectángulo 313134" width="5.635" height="50.854" transform="translate(-256.243 -11193.739)" fill="#ececec"/>
    <rect id="Rectángulo_313135" data-name="Rectángulo 313135" width="11.271" height="48.449" transform="translate(-352.624 -11191.334)" fill="#ececec"/>
    <rect id="Rectángulo_313136" data-name="Rectángulo 313136" width="11.271" height="42.065" transform="translate(-338.659 -11184.95)" fill="#ececec"/>
    <rect id="Rectángulo_313137" data-name="Rectángulo 313137" width="11.271" height="42.065" transform="translate(-312.755 -11184.95)" fill="#ececec"/>
    <rect id="Rectángulo_313138" data-name="Rectángulo 313138" width="5.635" height="50.854" transform="translate(-323.278 -11193.739)" fill="#ececec"/>
    <rect id="Rectángulo_313139" data-name="Rectángulo 313139" width="198.393" height="57.808" transform="translate(-352.623 -11133.732)" fill="#e1e1e1"/>
    <rect id="Rectángulo_313140" data-name="Rectángulo 313140" width="11.271" height="48.449" transform="translate(-238.752 -11124.373)" fill="#ececec"/>
    <rect id="Rectángulo_313141" data-name="Rectángulo 313141" width="48.45" height="11.269" transform="translate(-168.493 -11075.925) rotate(-99.781)" fill="#ececec"/>
    <rect id="Rectángulo_313142" data-name="Rectángulo 313142" width="11.271" height="42.065" transform="translate(-279.283 -11117.989)" fill="#ececec"/>
    <rect id="Rectángulo_313143" data-name="Rectángulo 313143" width="11.271" height="42.065" transform="translate(-253.378 -11117.989)" fill="#ececec"/>
    <rect id="Rectángulo_313144" data-name="Rectángulo 313144" width="11.271" height="42.065" transform="translate(-187.993 -11117.989)" fill="#ececec"/>
    <rect id="Rectángulo_313145" data-name="Rectángulo 313145" width="42.064" height="11.27" transform="translate(-214.557 -11075.925) rotate(-102.527)" fill="#ececec"/>
    <rect id="Rectángulo_313146" data-name="Rectángulo 313146" width="5.635" height="50.854" transform="translate(-263.903 -11126.778)" fill="#ececec"/>
    <rect id="Rectángulo_313147" data-name="Rectángulo 313147" width="5.635" height="50.854" transform="translate(-196.868 -11126.778)" fill="#ececec"/>
    <rect id="Rectángulo_313148" data-name="Rectángulo 313148" width="48.45" height="11.269" transform="translate(-298.151 -11075.925) rotate(-99.781)" fill="#ececec"/>
    <rect id="Rectángulo_313149" data-name="Rectángulo 313149" width="11.271" height="42.065" transform="translate(-317.651 -11117.989)" fill="#ececec"/>
    <rect id="Rectángulo_313150" data-name="Rectángulo 313150" width="42.064" height="11.27" transform="translate(-344.215 -11075.925) rotate(-102.527)" fill="#ececec"/>
    <rect id="Rectángulo_313151" data-name="Rectángulo 313151" width="5.635" height="50.854" transform="translate(-326.526 -11126.778)" fill="#ececec"/>
    <rect id="Rectángulo_313152" data-name="Rectángulo 313152" width="36.83" height="313.818" transform="translate(-397 -11277.506)" fill="#e1e1e1"/>
    <path id="Trazado_232439" data-name="Trazado 232439" d="M0,284.459c0,8.889,88.776,16.093,198.286,16.093s198.286-7.2,198.286-16.093S307.8,268.366,198.286,268.366,0,275.572,0,284.459" transform="translate(-397 -11200.552)" fill="#f5f5f5"/>
    <path id="Trazado_232440" data-name="Trazado 232440" d="M229.162,193.81l-.512,22.129-2.331,101.52h-7.689l-2.317-101.52L215.8,193.81Z" transform="translate(-536.299 -11231.959)" fill="#1a2e35"/>
    <g id="Grupo_237358" data-name="Grupo 237358" transform="translate(-320.497 -11038.148)" opacity="0.4" style="isolation: isolate">
      <g id="Grupo_237357" data-name="Grupo 237357">
        <g id="Grupo_237356" data-name="Grupo 237356" clip-path="url(#clip-path)">
          <path id="Trazado_232441" data-name="Trazado 232441" d="M229.162,193.81l-.512,22.129-2.331,101.52h-7.689l-2.317-101.52L215.8,193.81Z" transform="translate(-215.802 -193.81)" fill="#fff"/>
        </g>
      </g>
    </g>
    <g id="Grupo_237361" data-name="Grupo 237361" transform="translate(-320.497 -11038.148)" opacity="0.2" style="isolation: isolate">
      <g id="Grupo_237360" data-name="Grupo 237360">
        <g id="Grupo_237359" data-name="Grupo 237359" clip-path="url(#clip-path-2)">
          <path id="Trazado_232442" data-name="Trazado 232442" d="M229.162,193.81l-.512,22.74H216.314l-.512-22.74Z" transform="translate(-215.802 -193.81)"/>
        </g>
      </g>
    </g>
    <path id="Trazado_232443" data-name="Trazado 232443" d="M205.137,316.64l-7.1-121.73h-11.61l9.943,121.73Z" transform="translate(-470.52 -11231.495)" fill="#1a2e35"/>
    <g id="Grupo_237364" data-name="Grupo 237364" transform="translate(-284.093 -11036.728)" opacity="0.5" style="isolation: isolate">
      <g id="Grupo_237363" data-name="Grupo 237363">
        <g id="Grupo_237362" data-name="Grupo 237362" clip-path="url(#clip-path-3)">
          <path id="Trazado_232444" data-name="Trazado 232444" d="M196.353,316.682h8.778l-6.445-110.929-.64-10.944H186.433l.9,10.944Z" transform="translate(-186.434 -194.81)" fill="#fff"/>
        </g>
      </g>
    </g>
    <g id="Grupo_237367" data-name="Grupo 237367" transform="translate(-284.093 -11036.728)" opacity="0.2" style="isolation: isolate">
      <g id="Grupo_237366" data-name="Grupo 237366">
        <g id="Grupo_237365" data-name="Grupo 237365" clip-path="url(#clip-path-4)">
          <path id="Trazado_232445" data-name="Trazado 232445" d="M190.968,194.81l.9,11.37h11.356l-.64-11.37Z" transform="translate(-190.968 -194.81)"/>
        </g>
      </g>
    </g>
    <path id="Trazado_232446" data-name="Trazado 232446" d="M250.187,316.64l9.945-121.73H248.52l-7.1,121.73Z" transform="translate(-603.675 -11231.495)" fill="#1a2e35"/>
    <g id="Grupo_237370" data-name="Grupo 237370" transform="translate(-362.246 -11036.728)" opacity="0.5" style="isolation: isolate">
      <g id="Grupo_237369" data-name="Grupo 237369">
        <g id="Grupo_237368" data-name="Grupo 237368" clip-path="url(#clip-path-5)">
          <path id="Trazado_232447" data-name="Trazado 232447" d="M250.2,316.682l9.024-110.929.9-10.944H248.506l-.64,10.944-6.445,110.929Z" transform="translate(-241.42 -194.81)" fill="#fff"/>
        </g>
      </g>
    </g>
    <g id="Grupo_237373" data-name="Grupo 237373" transform="translate(-355.799 -11036.728)" opacity="0.2" style="isolation: isolate">
      <g id="Grupo_237372" data-name="Grupo 237372">
        <g id="Grupo_237371" data-name="Grupo 237371" clip-path="url(#clip-path-4)">
          <path id="Trazado_232448" data-name="Trazado 232448" d="M253.672,194.81l-.9,11.37H241.421l.64-11.37Z" transform="translate(-241.421 -194.81)"/>
        </g>
      </g>
    </g>
    <path id="Trazado_232449" data-name="Trazado 232449" d="M275.049,186.143h-80.9a7.107,7.107,0,0,0-7.106,7.106v9.507h95.112v-9.507a7.107,7.107,0,0,0-7.106-7.106" transform="translate(-548.42 -11235.188)" fill="#1a2e35"/>
    <path id="Trazado_232450" data-name="Trazado 232450" d="M285.2,191.988H186.7a2.857,2.857,0,0,0-2.858,2.858v2.59a2.859,2.859,0,0,0,2.858,2.86H285.2a2.859,2.859,0,0,0,2.858-2.86v-2.59a2.857,2.857,0,0,0-2.858-2.858" transform="translate(-549.771 -11232.727)" fill="#1a2e35"/>
    <g id="Grupo_237376" data-name="Grupo 237376" transform="translate(-365.933 -11040.738)" opacity="0.6" style="isolation: isolate">
      <g id="Grupo_237375" data-name="Grupo 237375">
        <g id="Grupo_237374" data-name="Grupo 237374" clip-path="url(#clip-path-7)">
          <path id="Trazado_232451" data-name="Trazado 232451" d="M285.2,191.988H186.7a2.857,2.857,0,0,0-2.858,2.858v2.59a2.859,2.859,0,0,0,2.858,2.86H285.2a2.859,2.859,0,0,0,2.858-2.86v-2.59a2.857,2.857,0,0,0-2.858-2.858" transform="translate(-183.838 -191.988)" fill="#fff"/>
        </g>
      </g>
    </g>
    <path id="Trazado_232452" data-name="Trazado 232452" d="M94.581,99.465l12.881-14.116s.605-5.071,2.952-6.161,16.965-9.176,19.214-6.069,7.122,10.617,5.622,13.233-12.931,6.067-14.805,5.935-6.747,0-6.747,0l-10.5,15.986Z" transform="translate(-270.383 -11283.098)" fill="#fcb373"/>
    <path id="Trazado_232453" data-name="Trazado 232453" d="M126.193,95.749c15.33,10.053,34.072,16.788,38.758,14.17s25.834-25.105,25.834-25.105l11.624,7.037s-18.631,33.262-29.588,39.164S110.735,118,110.735,118Z" transform="translate(-360.219 -11277.873)" fill="#ffd947"/>
    <g id="Grupo_237379" data-name="Grupo 237379" transform="translate(-249.481 -11193.065)" opacity="0.7" style="isolation: isolate">
      <g id="Grupo_237378" data-name="Grupo 237378">
        <g id="Grupo_237377" data-name="Grupo 237377" clip-path="url(#clip-path-8)">
          <path id="Trazado_232454" data-name="Trazado 232454" d="M110.735,118s15.037,5.557,30.557,9.721c13.09,3.5,26.506,6,31.523,3.3,10.958-5.9,29.59-39.156,29.59-39.156L190.78,84.81s-21.148,22.5-25.838,25.114-23.422-4.122-38.758-14.17l-6.893,9.92Z" transform="translate(-110.735 -84.81)" fill="#fff"/>
        </g>
      </g>
    </g>
    <path id="Trazado_232455" data-name="Trazado 232455" d="M114.434,82.222l-5,6.636L121.7,102.285l5.578-7.139Z" transform="translate(-283.23 -11278.966)" fill="#ffd947"/>
    <g id="Grupo_237382" data-name="Grupo 237382" transform="translate(-173.799 -11196.743)" opacity="0.6" style="isolation: isolate">
      <g id="Grupo_237381" data-name="Grupo 237381">
        <g id="Grupo_237380" data-name="Grupo 237380" clip-path="url(#clip-path-9)">
          <path id="Trazado_232456" data-name="Trazado 232456" d="M114.434,82.222l-5,6.636L121.7,102.285l5.578-7.139Z" transform="translate(-109.43 -82.222)" fill="#fff"/>
        </g>
      </g>
    </g>
    <g id="Grupo_237385" data-name="Grupo 237385" transform="translate(-249.481 -11172.201)" opacity="0.2" style="isolation: isolate">
      <g id="Grupo_237384" data-name="Grupo 237384">
        <g id="Grupo_237383" data-name="Grupo 237383" clip-path="url(#clip-path-10)">
          <path id="Trazado_232457" data-name="Trazado 232457" d="M153.735,111.812s15.037,5.557,30.557,9.721c-6.737-10.432-16.586-18.235-22-22.044Z" transform="translate(-153.735 -99.49)"/>
        </g>
      </g>
    </g>
    <path id="Trazado_232458" data-name="Trazado 232458" d="M238.411,77.286c7.952,2,20.244,13.8,19.579,21.587s1.538,26.33-5.507,50.931-3.2,57.023-3.2,57.023l-70.187,11.151s25.3-149.256,59.317-140.693" transform="translate(-512.982 -11281.194)" fill="#ffd947"/>
    <g id="Grupo_237388" data-name="Grupo 237388" transform="translate(-333.888 -11204.263)" opacity="0.4" style="isolation: isolate">
      <g id="Grupo_237387" data-name="Grupo 237387">
        <g id="Grupo_237386" data-name="Grupo 237386" clip-path="url(#clip-path-11)">
          <path id="Trazado_232459" data-name="Trazado 232459" d="M238.411,77.286c7.952,2,20.244,13.8,19.579,21.587s1.538,26.33-5.507,50.931-3.2,57.023-3.2,57.023l-70.187,11.151s25.3-149.256,59.317-140.693" transform="translate(-179.094 -76.931)" fill="#fff"/>
        </g>
      </g>
    </g>
    <path id="Trazado_232460" data-name="Trazado 232460" d="M187.074,282.027l11.322-1.553,1.569-26.913-11.306,1.566Z" transform="translate(-466.273 -11206.789)" fill="#fcb373"/>
    <g id="Grupo_237391" data-name="Grupo 237391" transform="translate(-278.499 -10953.215)" opacity="0.2" style="isolation: isolate">
      <g id="Grupo_237390" data-name="Grupo 237390">
        <g id="Grupo_237389" data-name="Grupo 237389" clip-path="url(#clip-path-12)">
          <path id="Trazado_232461" data-name="Trazado 232461" d="M187.957,255.122l11.307-1.552-.9,15.384-11.29.991Z" transform="translate(-187.072 -253.57)"/>
        </g>
      </g>
    </g>
    <path id="Trazado_232462" data-name="Trazado 232462" d="M238.581,168.524l-2.763-17.305-63.473-3.8s-6.75,36.012-1.563,45.605c9.258,17.126,59.15,8.483,73.749,10.166-8.727,35.688-7.874,105.428-7.874,105.428l20.85,1.592s16.043-75.15,19.286-110.858c2.189-24.095-17.776-23.5-38.212-30.833" transform="translate(-517.324 -11251.499)" fill="#203a8a"/>
    <path id="Trazado_232464" data-name="Trazado 232464" d="M164.724,274.218l11.4.839,7.14-26-11.384-.823Z" transform="translate(-417.805 -11209.03)" fill="#fcb373"/>
    <path id="Trazado_232465" data-name="Trazado 232465" d="M164.517,268.664c0-.011.189-.02.19-.033l.206-.01v0h-.2c.041-.172.578-3.361,1.963-4.122a1.31,1.31,0,0,1,1.144-.05,1,1,0,0,1,.689,1.035,4.163,4.163,0,0,1-1.683,2.314c1.194-.254,2.548-.4,3.195.085a1,1,0,0,1,.387.894,1.422,1.422,0,0,1-.715,1.343,3.061,3.061,0,0,1-2.217-.036,14.013,14.013,0,0,1-2.789-1.2.151.151,0,0,1-.1-.013c-.023-.023-.017-.06-.031-.088a.223.223,0,0,1-.041-.119m3.421-3.181c.02-.156-.026-.362-.381-.506l-.122-.045a.773.773,0,0,0-.613.081c-.827.443-1.4,2.166-1.67,3.215l.257-.078c1.123-.618,2.432-1.9,2.528-2.666m1.5,4.17a.98.98,0,0,0,.438-.861.482.482,0,0,0-.188-.439c-.642-.482-2.727-.071-4.231.384,1.859.937,3.319,1.278,3.981.917" transform="translate(-404.659 -11202.249)" fill="#007cff"/>
    <g id="Grupo_237394" data-name="Grupo 237394" transform="translate(-249.88 -10960.793)" opacity="0.2" style="isolation: isolate">
      <g id="Grupo_237393" data-name="Grupo 237393">
        <g id="Grupo_237392" data-name="Grupo 237392" clip-path="url(#clip-path-13)">
          <path id="Trazado_232466" data-name="Trazado 232466" d="M168.678,248.238l11.383.837-4.085,14.859-11.251-1.383Z" transform="translate(-164.724 -248.238)"/>
        </g>
      </g>
    </g>
    <path id="Trazado_232467" data-name="Trazado 232467" d="M233.149,302.311l-20.068-5.9s11.981-67.623,24.133-91.074c-.91-.3-2.118-.682-3.61-1.123-2.686-.81-6.254-1.819-10.446-2.985-29.164-8.087-88.274-23.252-88.274-23.252l27-25.2s107.56,16.4,109.792,44.741c1.066,13.63-38.53,104.789-38.53,104.789" transform="translate(-463.831 -11249.242)" fill="#203a8a"/>
    <g id="Grupo_237397" data-name="Grupo 237397" transform="translate(-311.409 -11085.991)" opacity="0.2" style="isolation: isolate">
      <g id="Grupo_237396" data-name="Grupo 237396">
        <g id="Grupo_237395" data-name="Grupo 237395" clip-path="url(#clip-path-14)">
          <path id="Trazado_232469" data-name="Trazado 232469" d="M240.511,201.113c-2.686-.81-6.254-1.819-10.446-2.985.839-6.879.853-14.767-2.459-18.789-6.58-8.016-23.508-12.72-33.144-14.426-8.059-1.421-35.133-4.25-35.133-4.25s35.133-3.368,71.048,7.106c17.751,5.188,14.3,22.541,10.134,33.343" transform="translate(-159.329 -160.148)"/>
        </g>
      </g>
    </g>
    <path id="Trazado_232472" data-name="Trazado 232472" d="M174.842,267.327,162.5,263.882a.812.812,0,0,0-1.023.517l0,.013-3.329,9.609a2.018,2.018,0,0,0,1.377,2.479c4.328,1.133,6.45,1.457,11.894,2.929,3.336.922,9.842,3.059,14.6,3.6s5.166-4.177,3.2-4.825c-4.659-1.561-10.236-6.417-12.658-9.716a3.193,3.193,0,0,0-1.715-1.161" transform="translate(-415.406 -11202.458)" fill="#1a2e35"/>
    <path id="Trazado_232473" data-name="Trazado 232473" d="M182.957,273.929v-.013c0-.2.192-3.427,1.381-4.454a1.68,1.68,0,0,1,1.268-.3,1.083,1.083,0,0,1,.971.864,4.059,4.059,0,0,1-1.124,2.609c1.116-.5,2.432-.918,3.164-.583a1.021,1.021,0,0,1,.574.794,1.417,1.417,0,0,1-.415,1.461,3.05,3.05,0,0,1-2.173.428,14.052,14.052,0,0,1-2.975-.59.151.151,0,0,1-.1.009c-.027-.018-.028-.054-.048-.08s-.274-.065-.287-.108c0-.011-.239-.017-.239-.03Zm3.142-3.785c-.011-.156-.1-.348-.476-.416l-.129-.017a.769.769,0,0,0-.581.206c-.718.607-.921,2.41-.964,3.492.073-.041.146-.082.233-.129.969-.839,1.984-2.364,1.917-3.135m2.331,3.768a.978.978,0,0,0,.25-.934.483.483,0,0,0-.276-.391c-.728-.337-2.682.5-4.058,1.258,2.013.527,3.513.557,4.083.067" transform="translate(-449.705 -11200.226)" fill="#007cff"/>
    <path id="Trazado_232474" data-name="Trazado 232474" d="M189.958,271.774l-12.791-.8a.81.81,0,0,0-.893.718v.014L175.019,281.8a2.016,2.016,0,0,0,1.863,2.138c4.468.206,6.612.081,12.243.388,3.455.206,10.264.941,15.033.479s4.183-5.161,2.125-5.385c-4.883-.556-11.349-4.144-14.4-6.866a3.2,3.2,0,0,0-1.92-.779" transform="translate(-456.982 -11199.454)" fill="#1a2e35"/>
    <path id="Trazado_232475" data-name="Trazado 232475" d="M167.822,198.462l73.554-12.243s4.6-43.685,38.763-84.167c0,0-11.857-25.929-54.067-22.336s-58.25,118.746-58.25,118.746" transform="translate(-519.085 -11280.165)" fill="#1a2e35"/>
    <path id="Trazado_232476" data-name="Trazado 232476" d="M171.658,83.3A156.422,156.422,0,0,0,195.38,96.191s-23.034,28.658-30.348,93.308c0,0-2.736-15.746,3.839-43.922,0,0,11.586-50.619,2.787-62.278" transform="translate(-429.559 -11278.512)" fill="#ffd947"/>
    <g id="Grupo_237406" data-name="Grupo 237406" transform="translate(-265.091 -11195.213)" opacity="0.8" style="isolation: isolate">
      <g id="Grupo_237405" data-name="Grupo 237405">
        <g id="Grupo_237404" data-name="Grupo 237404" clip-path="url(#clip-path-15)">
          <path id="Trazado_232477" data-name="Trazado 232477" d="M171.658,83.3A156.422,156.422,0,0,0,195.38,96.191s-23.034,28.658-30.348,93.308c0,0-2.736-15.746,3.839-43.922,0,0,11.586-50.619,2.787-62.278" transform="translate(-164.468 -83.299)" fill="#fff"/>
        </g>
      </g>
    </g>
    <path id="Trazado_232478" data-name="Trazado 232478" d="M268.056,144.492s-26.425,64-45.918,93.052c0,0-15.368-3.3-26.613-4.367,0,0,14.056-118.92,43.294-147.236,0,0,17.972-7.921,35.047-8.076A26.857,26.857,0,0,0,269.207,91.4c-.948,17.211,1.168,45.6-1.151,53.089" transform="translate(-552.184 -11280.801)" fill="#ffd947"/>
    <g id="Grupo_237409" data-name="Grupo 237409" transform="translate(-356.658 -11202.942)" opacity="0.8" style="isolation: isolate">
      <g id="Grupo_237408" data-name="Grupo 237408">
        <g id="Grupo_237407" data-name="Grupo 237407" clip-path="url(#clip-path-16)">
          <path id="Trazado_232479" data-name="Trazado 232479" d="M195.524,233.175c11.244,1.066,26.607,4.377,26.607,4.377,11.1-16.543,24.46-44.428,33.883-65.363,3.781-8.385,6.936-15.648,9.053-20.637,1.9-4.434,2.983-7.064,2.983-7.064,2.318-7.49.2-35.872,1.153-53.084a26.955,26.955,0,0,1,4.662-13.545c-17.071.156-35.048,8.087-35.048,8.087-29.235,28.311-43.293,147.228-43.293,147.228" transform="translate(-195.524 -77.86)" fill="#fff"/>
        </g>
      </g>
    </g>
    <g id="Grupo_237412" data-name="Grupo 237412" transform="translate(-320.458 -11156.838)" opacity="0.2" style="isolation: isolate">
      <g id="Grupo_237411" data-name="Grupo 237411">
        <g id="Grupo_237410" data-name="Grupo 237410" clip-path="url(#clip-path-17)">
          <path id="Trazado_232480" data-name="Trazado 232480" d="M201.715,110.3S204.1,153.947,226,158.523c3.781-8.385,6.936-15.648,9.053-20.637-11.782-13.175-33.343-27.587-33.343-27.587" transform="translate(-201.715 -110.3)"/>
        </g>
      </g>
    </g>
    <path id="Trazado_232481" data-name="Trazado 232481" d="M209.7,77.367a10.866,10.866,0,0,0-5.64,8.714c-.546,6.315,4.8,40.331-3.918,58.885,0,0,.922-27.328-4.217-39.757l2.044-7.753-5.084-2.2s4.164-22.513,16.815-17.885" transform="translate(-484.273 -11281.274)" fill="#ffd947"/>
    <g id="Grupo_237415" data-name="Grupo 237415" transform="translate(-291.385 -11204.534)" opacity="0.7" style="isolation: isolate">
      <g id="Grupo_237414" data-name="Grupo 237414">
        <g id="Grupo_237413" data-name="Grupo 237413" clip-path="url(#clip-path-18)">
          <path id="Trazado_232482" data-name="Trazado 232482" d="M209.7,77.367a10.866,10.866,0,0,0-5.64,8.714c-.546,6.315,4.8,40.331-3.918,58.885,0,0,.922-27.328-4.217-39.757l2.044-7.753-5.084-2.2s4.164-22.513,16.815-17.885" transform="translate(-192.888 -76.74)" fill="#fff"/>
        </g>
      </g>
    </g>
    <path id="Trazado_232483" data-name="Trazado 232483" d="M174.17,78.424s14.488,13.454,14.009,25.462l-4.576.614,5.33,6.255s-6.147,26.343-12.722,36.876c0,0,12.612-51.263-2.041-69.206" transform="translate(-436.9 -11280.565)" fill="#ffd947"/>
    <g id="Grupo_237418" data-name="Grupo 237418" transform="translate(-262.73 -11202.142)" opacity="0.7" style="isolation: isolate">
      <g id="Grupo_237417" data-name="Grupo 237417">
        <g id="Grupo_237416" data-name="Grupo 237416" clip-path="url(#clip-path-19)">
          <path id="Trazado_232484" data-name="Trazado 232484" d="M174.17,78.424s14.488,13.454,14.009,25.462l-4.576.614,5.33,6.255s-6.147,26.343-12.722,36.876c0,0,12.612-51.263-2.041-69.206" transform="translate(-174.17 -78.424)" fill="#fff"/>
        </g>
      </g>
    </g>
    <path id="Trazado_232485" data-name="Trazado 232485" d="M203.532,94.325c-3.084-1.364-6.751,0-6.751,0a9.831,9.831,0,0,1-9.451,7.589,17.166,17.166,0,0,1-3.24-.142c-11-1.507-9.792-17.865-9.792-17.865a19.624,19.624,0,0,0,11.455-2.757v-.014a25.378,25.378,0,0,0,7.5-6.708Z" transform="translate(-451.625 -11282.249)" fill="#fcb373"/>
    <g id="Grupo_237421" data-name="Grupo 237421" transform="translate(-266.513 -11207.822)" opacity="0.2" style="isolation: isolate">
      <g id="Grupo_237420" data-name="Grupo 237420">
        <g id="Grupo_237419" data-name="Grupo 237419" clip-path="url(#clip-path-20)">
          <path id="Trazado_232486" data-name="Trazado 232486" d="M192.679,94.325c-3.084-1.364-6.751,0-6.751,0a9.831,9.831,0,0,1-9.451,7.589c-2.828-7.007-2.459-15.037-1.578-20.765v-.014a25.378,25.378,0,0,0,7.5-6.708Z" transform="translate(-174.258 -74.427)"/>
        </g>
      </g>
    </g>
    <path id="Trazado_232487" data-name="Trazado 232487" d="M164,63.664c-5.435,2.355-4.289,8.309,4.964,19.035,5.507-4.9,8.351-15.9,5.365-19.369s-5.6-1.7-10.33.334" transform="translate(-404.417 -11287.752)" fill="#1a2e35"/>
    <path id="Trazado_232488" data-name="Trazado 232488" d="M163.115,70.747c-1.706,11.867-3.3,18.718,1.364,25.959,7.025,10.885,22.6,8.519,27.821-2.6,4.674-9.993,6.69-27.726-3.812-34.754a16.352,16.352,0,0,0-25.374,11.4" transform="translate(-425.936 -11289.784)" fill="#fcb373"/>
    <path id="Trazado_232489" data-name="Trazado 232489" d="M171.21,71.792c-.2.954.152,1.832.776,1.958s1.278-.534,1.474-1.488-.139-1.826-.758-1.966-1.232.57-1.492,1.5" transform="translate(-417.197 -11283.996)" fill="#1a2e35"/>
    <path id="Trazado_232490" data-name="Trazado 232490" d="M163.571,73.382c-.2.954.152,1.832.775,1.958s1.29-.529,1.494-1.5-.152-1.832-.776-1.958-1.3.541-1.492,1.5" transform="translate(-398.721 -11283.325)" fill="#1a2e35"/>
    <path id="Trazado_232491" data-name="Trazado 232491" d="M167.555,72.735a34.765,34.765,0,0,0,2.871,9.1c-2.049,1.218-4.74-.1-4.74-.1Z" transform="translate(-406.335 -11282.962)" fill="#ec873e"/>
    <path id="Trazado_232492" data-name="Trazado 232492" d="M190,60.845c5.09,3.012,3.195,8.778-7.336,18.239-4.849-5.56-6.283-16.845-2.868-19.885s5.756-.976,10.2,1.646" transform="translate(-446 -11289.301)" fill="#1a2e35"/>
    <path id="Trazado_232493" data-name="Trazado 232493" d="M182.323,74.056a11.405,11.405,0,0,0,3.926,7.774c3.051,2.575,6.228.244,6.771-3.5.486-3.374-.523-8.785-4.247-9.909s-6.713,1.94-6.45,5.631" transform="translate(-452.665 -11284.877)" fill="#fcb373"/>
    <path id="Trazado_232494" data-name="Trazado 232494" d="M178,75.435c-.577,3.044-3.1,5.122-5.644,4.642s-4.133-3.34-3.556-6.384,3.1-5.122,5.644-4.64S178.575,72.391,178,75.435Z" transform="translate(-418.281 -11284.542)" fill="none" stroke="#1a2e35" stroke-linecap="round" stroke-linejoin="round" stroke-width="0.526"/>
    <path id="Trazado_232495" data-name="Trazado 232495" d="M169.117,76.972c-.576,3.044-3.1,5.122-5.644,4.642s-4.133-3.34-3.555-6.384,3.1-5.122,5.642-4.64S169.694,73.928,169.117,76.972Z" transform="translate(-396.779 -11283.895)" fill="none" stroke="#1a2e35" stroke-linecap="round" stroke-linejoin="round" stroke-width="0.526"/>
    <path id="Trazado_232496" data-name="Trazado 232496" d="M166.355,73.655s2.079-1.251,3.422.443" transform="translate(-406.638 -11282.762)" fill="none" stroke="#1a2e35" stroke-linecap="round" stroke-linejoin="round" stroke-width="0.526"/>
    <line id="Línea_259" data-name="Línea 259" x1="11.015" y1="3.076" transform="translate(-260.498 -11213.925)" fill="none" stroke="#1a2e35" stroke-linecap="round" stroke-linejoin="round" stroke-width="0.526"/>
    <path id="Trazado_232497" data-name="Trazado 232497" d="M172.475,69.007a.638.638,0,0,0,.623-.129,4.894,4.894,0,0,1,4.187-1.319.6.6,0,0,0,.3-1.171h0a6.027,6.027,0,0,0-5.3,1.593.6.6,0,0,0-.058.853l.01.01a.908.908,0,0,0,.244.163" transform="translate(-423.022 -11285.679)" fill="#1a2e35"/>
    <path id="Trazado_232498" data-name="Trazado 232498" d="M165.008,71.979a.526.526,0,0,0,.776-.651l0-.013a6.02,6.02,0,0,0-3.707-4.132.605.605,0,0,0-.756.4h0a.622.622,0,0,0,.4.759,4.9,4.9,0,0,1,2.884,3.317.62.62,0,0,0,.408.321" transform="translate(-395.473 -11285.312)" fill="#1a2e35"/>
    <path id="Trazado_232499" data-name="Trazado 232499" d="M179.077,82.215a34.084,34.084,0,0,0-2.885,4.014c-.27-.107-.541-.213-.806-.334-3.636-1.536-4.814-3.451-5.018-5.107A5.093,5.093,0,0,1,170.7,78.4a4.961,4.961,0,0,1,.64-1.221c1.44,1.966,4.719,3.66,6.508,4.491.745.355,1.231.543,1.231.543" transform="translate(-421.597 -11281.089)" fill="#1a2e35"/>
    <path id="Trazado_232500" data-name="Trazado 232500" d="M178.35,81.672l-.881,1.161c-3.421-1.455-5.634-2.941-6.266-4.431a4.961,4.961,0,0,1,.64-1.221c1.441,1.966,4.719,3.66,6.508,4.491" transform="translate(-422.101 -11281.089)" fill="#fff"/>
    <path id="Trazado_232501" data-name="Trazado 232501" d="M177.952,84.826c-3.636-1.536-4.814-3.451-5.018-5.107a12.661,12.661,0,0,1,3.7,2.507,4.753,4.753,0,0,1,1.32,2.6" transform="translate(-424.163 -11280.02)" fill="#fd5652"/>
    <path id="Trazado_232502" data-name="Trazado 232502" d="M167.353,68.559s0-5.763,7.466-4.058c6.067,1.387,10.239,5.885,16.381,6.167s12.749-12.791,7.408-15.743c-3.935-2.176-7.027,3.192-17.862-2.51-13.392-7.049-26.229,0-25.924,10.2.242,8.053,12.531,5.941,12.531,5.941" transform="translate(-421.029 -11292.72)" fill="#1a2e35"/>
    <path id="Trazado_232503" data-name="Trazado 232503" d="M144.1,113.274c9.947-3.282,19.272-6.352,22.135-6.831,6.73-1.124,22.193,4.775,22.193,4.775l1.406,9.23s-13.762-.273-21.5-4.046c0,0-11.276,6.742-24.234,13.617Z" transform="translate(-395.051 -11268.822)" fill="#fcb373"/>
    <path id="Trazado_232504" data-name="Trazado 232504" d="M178.61,86.4c13.8-.24,21.394,44.856,24.73,48.144,3.479,3.431,46.046-15.858,46.046-15.858l1.285,19.71s-38.631,22.034-49.619,21.991-29.365-34.968-30.324-51.822S178.61,86.4,178.61,86.4" transform="translate(-493.642 -11277.206)" fill="#ffd947"/>
    <g id="Grupo_237424" data-name="Grupo 237424" transform="translate(-322.985 -11190.809)" opacity="0.7" style="isolation: isolate">
      <g id="Grupo_237423" data-name="Grupo 237423">
        <g id="Grupo_237422" data-name="Grupo 237422" clip-path="url(#clip-path-21)">
          <path id="Trazado_232505" data-name="Trazado 232505" d="M178.61,86.4c13.8-.24,21.394,44.856,24.73,48.144,3.479,3.431,46.046-15.858,46.046-15.858l1.285,19.71s-38.631,22.034-49.619,21.991-29.365-34.968-30.324-51.822S178.61,86.4,178.61,86.4" transform="translate(-170.657 -86.398)" fill="#fff"/>
        </g>
      </g>
    </g>
    <path id="Trazado_232506" data-name="Trazado 232506" d="M175.727,107.931l2.237,23.9-7.81,2.57-1.391-23.1Z" transform="translate(-418.247 -11268.136)" fill="#ffd947"/>
    <g id="Grupo_237427" data-name="Grupo 237427" transform="translate(-249.484 -11160.204)" opacity="0.6" style="isolation: isolate">
      <g id="Grupo_237426" data-name="Grupo 237426">
        <g id="Grupo_237425" data-name="Grupo 237425" clip-path="url(#clip-path-22)">
          <path id="Trazado_232507" data-name="Trazado 232507" d="M175.727,107.931l2.237,23.9-7.81,2.57-1.391-23.1Z" transform="translate(-168.763 -107.931)" fill="#fff"/>
        </g>
      </g>
    </g>
    <path id="Trazado_232508" data-name="Trazado 232508" d="M143.064,137.364a4.858,4.858,0,0,0,.524-.023.71.71,0,0,0-.148-1.413,7.2,7.2,0,0,1-5.2-1.872c-2-1.92-2.892-5.153-2.639-9.611.338-5.962-1.509-10.522-5.2-12.838a10.952,10.952,0,0,0-10.843-.236c-6.016,3.341-4.25,12.106-4.171,12.477a.711.711,0,1,0,1.391-.291c-.017-.081-1.627-8.112,3.469-10.942a9.493,9.493,0,0,1,9.4.2c2.29,1.434,4.935,4.6,4.541,11.553-.279,4.906.763,8.518,3.093,10.735a8.487,8.487,0,0,0,5.789,2.264" transform="translate(-308.209 -11267.242)" fill="#007cff"/>
    <g id="Grupo_237430" data-name="Grupo 237430" transform="translate(-193.128 -11157.189)" opacity="0.3" style="isolation: isolate">
      <g id="Grupo_237429" data-name="Grupo 237429">
        <g id="Grupo_237428" data-name="Grupo 237428" clip-path="url(#clip-path-23)">
          <path id="Trazado_232509" data-name="Trazado 232509" d="M143.064,137.364a4.858,4.858,0,0,0,.524-.023.71.71,0,0,0-.148-1.413,7.2,7.2,0,0,1-5.2-1.872c-2-1.92-2.892-5.153-2.639-9.611.338-5.962-1.509-10.522-5.2-12.838a10.952,10.952,0,0,0-10.843-.236c-6.016,3.341-4.25,12.106-4.171,12.477a.711.711,0,1,0,1.391-.291c-.017-.081-1.627-8.112,3.469-10.942a9.493,9.493,0,0,1,9.4.2c2.29,1.434,4.935,4.6,4.541,11.553-.279,4.906.763,8.518,3.093,10.735a8.487,8.487,0,0,0,5.789,2.264" transform="translate(-115.081 -110.052)"/>
        </g>
      </g>
    </g>
    <path id="Trazado_232510" data-name="Trazado 232510" d="M131.861,139.292c7.638,0,15.367-2.273,21.816-4.169,4.176-1.227,7.781-2.287,10.379-2.429,9.831-.507,17.8,5.941,17.875,6.008a.711.711,0,1,0,.905-1.1c-.341-.283-8.485-6.913-18.857-6.332-2.763.154-6.443,1.235-10.7,2.486-11.708,3.439-27.74,8.157-39.2-2.334-9.009-8.248-9.669-15.628-7.282-19.785a7,7,0,0,1,8.091-3.435c7.58,2.352,8.3,14.592,8.31,14.713a.694.694,0,0,0,.746.674.709.709,0,0,0,.674-.745c-.028-.544-.78-13.353-9.308-16a8.41,8.41,0,0,0-9.747,4.085c-2.659,4.635-2.071,12.727,7.557,21.542,5.587,5.116,12.129,6.816,18.738,6.816" transform="translate(-331.62 -11268.742)"/>
    <g id="Grupo_237433" data-name="Grupo 237433" transform="translate(-227.419 -11162.251)" opacity="0.4" style="isolation: isolate">
      <g id="Grupo_237432" data-name="Grupo 237432">
        <g id="Grupo_237431" data-name="Grupo 237431" clip-path="url(#clip-path-24)">
          <path id="Trazado_232511" data-name="Trazado 232511" d="M131.861,139.292c7.638,0,15.367-2.273,21.816-4.169,4.176-1.227,7.781-2.287,10.379-2.429,9.831-.507,17.8,5.941,17.875,6.008a.711.711,0,1,0,.905-1.1c-.341-.283-8.485-6.913-18.857-6.332-2.763.154-6.443,1.235-10.7,2.486-11.708,3.439-27.74,8.157-39.2-2.334-9.009-8.248-9.669-15.628-7.282-19.785a7,7,0,0,1,8.091-3.435c7.58,2.352,8.3,14.592,8.31,14.713a.694.694,0,0,0,.746.674.709.709,0,0,0,.674-.745c-.028-.544-.78-13.353-9.308-16a8.41,8.41,0,0,0-9.747,4.085c-2.659,4.635-2.071,12.727,7.557,21.542,5.587,5.116,12.129,6.816,18.738,6.816" transform="translate(-104.201 -106.491)" fill="#fff"/>
        </g>
      </g>
    </g>
    <path id="Trazado_232512" data-name="Trazado 232512" d="M128.948,121.02h37.137a2.555,2.555,0,0,1,2.554,2.555V133.72H126.394V123.575a2.555,2.555,0,0,1,2.554-2.555" transform="translate(-348.705 -11262.621)" fill="#007cff"/>
    <g id="Grupo_237436" data-name="Grupo 237436" transform="translate(-222.311 -11141.602)" opacity="0.2" style="isolation: isolate">
      <g id="Grupo_237435" data-name="Grupo 237435">
        <g id="Grupo_237434" data-name="Grupo 237434" clip-path="url(#clip-path-25)">
          <path id="Trazado_232513" data-name="Trazado 232513" d="M128.948,121.02h37.137a2.555,2.555,0,0,1,2.554,2.555V133.72H126.394V123.575a2.555,2.555,0,0,1,2.554-2.555" transform="translate(-126.394 -121.02)"/>
        </g>
      </g>
    </g>
    <path id="Trazado_232514" data-name="Trazado 232514" d="M139.733,116.9v6.964l-2.46.151-3.725-7.818,1.406-.878,2.742,5.1.517-3.584Z" transform="translate(-329.966 -11265.022)" fill="#007cff"/>
    <path id="Trazado_232515" data-name="Trazado 232515" d="M150.471,115.322v8.546h-3.725l-2.319-7.949,1.265-.281,2.8,4.235,1.136-4.551Z" transform="translate(-356.166 -11265.022)" fill="#007cff"/>
    <g id="Grupo_237439" data-name="Grupo 237439" transform="translate(-211.738 -11149.7)" opacity="0.4" style="isolation: isolate">
      <g id="Grupo_237438" data-name="Grupo 237438">
        <g id="Grupo_237437" data-name="Grupo 237437" clip-path="url(#clip-path-26)">
          <path id="Trazado_232516" data-name="Trazado 232516" d="M150.471,115.322v8.546h-3.725l-2.319-7.949,1.265-.281,2.8,4.235,1.136-4.551Z" transform="translate(-144.428 -115.322)" fill="#fff"/>
        </g>
      </g>
    </g>
    <path id="Trazado_232517" data-name="Trazado 232517" d="M112.254,134.033h5.9V114.277a.751.751,0,0,0-.75-.75H113a.751.751,0,0,0-.75.75Z" transform="translate(-278.127 -11265.778)" fill="#007cff"/>
    <path id="Trazado_232518" data-name="Trazado 232518" d="M78.254,134.033h5.9V114.277a.751.751,0,0,0-.75-.75H79a.751.751,0,0,0-.75.75Z" transform="translate(-195.804 -11265.778)" fill="#007cff"/>
    <path id="Trazado_232519" data-name="Trazado 232519" d="M80,133.533h49.276V115.381a.667.667,0,0,0-.668-.667H80.663a.667.667,0,0,0-.668.667Z" transform="translate(-243.392 -11265.278)" fill="#007cff"/>
    <g id="Grupo_237442" data-name="Grupo 237442" transform="translate(-163.397 -11150.564)" opacity="0.4" style="isolation: isolate">
      <g id="Grupo_237441" data-name="Grupo 237441">
        <g id="Grupo_237440" data-name="Grupo 237440" clip-path="url(#clip-path-27)">
          <path id="Trazado_232520" data-name="Trazado 232520" d="M80,133.533h49.276V115.381a.667.667,0,0,0-.668-.667H80.663a.667.667,0,0,0-.668.667Z" transform="translate(-79.995 -114.714)" fill="#fff"/>
        </g>
      </g>
    </g>
    <path id="Trazado_232521" data-name="Trazado 232521" d="M80.1,132.712h0l49.276-.375a.355.355,0,0,0,.01-.711l-33.142-1.15,33.132-.308a.355.355,0,0,0,.009-.711l-33.131-1.094L129.381,128a.355.355,0,0,0,.007-.711l-33.141-1.039,33.134-.421a.355.355,0,0,0,.006-.711l-33.129-.981,33.124-.476a.355.355,0,0,0,.006-.711l-33.141-.925,33.137-.534a.355.355,0,0,0,0-.711l-33.129-.868,33.127-.588a.355.355,0,0,0,0-.711L96.246,117.8l33.138-.645a.355.355,0,0,0,0-.711l-49.276-1.124a.341.341,0,0,0-.364.347.356.356,0,0,0,.347.364l32.484.74-32.483.632a.355.355,0,0,0,0,.711l32.484.8-32.481.577a.355.355,0,0,0,0,.711l32.494.853-32.491.523a.355.355,0,0,0,0,.711l32.484.907-32.478.468a.355.355,0,0,0-.006.711l32.484.962-32.478.412a.355.355,0,0,0-.007.711l32.486,1.016L80.1,127.83a.355.355,0,0,0-.007.711l32.486,1.073-32.477.3a.355.355,0,0,0-.01.711l32.5,1.128L80.1,132a.355.355,0,0,0,0,.711" transform="translate(-243.498 -11265.021)" fill="#007cff"/>
    <g id="Grupo_237445" data-name="Grupo 237445" transform="translate(-163.752 -11149.7)" opacity="0.6">
      <g id="Grupo_237444" data-name="Grupo 237444">
        <g id="Grupo_237443" data-name="Grupo 237443" clip-path="url(#clip-path-28)">
          <path id="Trazado_232522" data-name="Trazado 232522" d="M80.1,132.712h0l49.276-.375a.355.355,0,0,0,.01-.711l-33.142-1.15,33.132-.308a.355.355,0,0,0,.009-.711l-33.131-1.094L129.381,128a.355.355,0,0,0,.007-.711l-33.141-1.039,33.134-.421a.355.355,0,0,0,.006-.711l-33.129-.981,33.124-.476a.355.355,0,0,0,.006-.711l-33.141-.925,33.137-.534a.355.355,0,0,0,0-.711l-33.129-.868,33.127-.588a.355.355,0,0,0,0-.711L96.246,117.8l33.138-.645a.355.355,0,0,0,0-.711l-49.276-1.124a.341.341,0,0,0-.364.347.356.356,0,0,0,.347.364l32.484.74-32.483.632a.355.355,0,0,0,0,.711l32.484.8-32.481.577a.355.355,0,0,0,0,.711l32.494.853-32.491.523a.355.355,0,0,0,0,.711l32.484.907-32.478.468a.355.355,0,0,0-.006.711l32.484.962-32.478.412a.355.355,0,0,0-.007.711l32.486,1.016L80.1,127.83a.355.355,0,0,0-.007.711l32.486,1.073-32.477.3a.355.355,0,0,0-.01.711l32.5,1.128L80.1,132a.355.355,0,0,0,0,.711" transform="translate(-79.745 -115.322)" fill="#fff"/>
        </g>
      </g>
    </g>
    <path id="Trazado_232523" data-name="Trazado 232523" d="M95.254,134.033h5.9V114.277a.751.751,0,0,0-.75-.75H96a.751.751,0,0,0-.75.75Z" transform="translate(-236.966 -11265.778)" fill="#007cff"/>
    <path id="Trazado_232524" data-name="Trazado 232524" d="M77.08,127.558h57.768a.587.587,0,0,1,.587.587v2.82H76.493v-2.82a.587.587,0,0,1,.587-.587" transform="translate(-244.579 -11259.867)" fill="#007cff"/>
    <g id="Grupo_237448" data-name="Grupo 237448" transform="translate(-168.086 -11132.31)" opacity="0.2" style="isolation: isolate">
      <g id="Grupo_237447" data-name="Grupo 237447">
        <g id="Grupo_237446" data-name="Grupo 237446" clip-path="url(#clip-path-29)">
          <path id="Trazado_232525" data-name="Trazado 232525" d="M77.08,127.558h57.768a.587.587,0,0,1,.587.587v2.82H76.493v-2.82a.587.587,0,0,1,.587-.587" transform="translate(-76.493 -127.558)" fill="#fff"/>
        </g>
      </g>
    </g>
    <path id="Trazado_232526" data-name="Trazado 232526" d="M87.032,94.5c.263-2.119,7.315-2.987,15.75-1.94s15.062,3.613,14.8,5.73l-.7,5.642-12.325.694c-.915-.071-1.852-.162-2.811-.281-1.477-.183-2.892-.415-4.231-.681l-11.182-3.522Z" transform="translate(-240.717 -11274.796)" fill="#1a2e35"/>
    <g id="Grupo_237451" data-name="Grupo 237451" transform="translate(-154.384 -11182.676)" opacity="0.2" style="isolation: isolate">
      <g id="Grupo_237450" data-name="Grupo 237450">
        <g id="Grupo_237449" data-name="Grupo 237449" clip-path="url(#clip-path-30)">
          <path id="Trazado_232527" data-name="Trazado 232527" d="M87.032,94.5c.263-2.119,7.315-2.987,15.75-1.94s15.062,3.613,14.8,5.73l-.7,5.642-12.325.694c-.915-.071-1.852-.162-2.811-.281-1.477-.183-2.892-.415-4.231-.681l-11.182-3.522Z" transform="translate(-86.333 -92.12)" fill="#fff"/>
        </g>
      </g>
    </g>
    <path id="Trazado_232528" data-name="Trazado 232528" d="M102.583,96.532c8.435,1.047,15.061,3.613,14.8,5.732s-7.315,2.987-15.75,1.94-15.061-3.613-14.8-5.73,7.314-2.987,15.75-1.941m-.574,4.625c3.466.431,6.32.426,6.374-.01s-2.712-1.137-6.178-1.566-6.322-.426-6.376.009,2.713,1.137,6.18,1.568" transform="translate(-241.216 -11273.124)" fill="#1a2e35"/>
    <rect id="Rectángulo_313185" data-name="Rectángulo 313185" width="17.197" height="6.606" transform="matrix(-0.353, -0.936, 0.936, -0.353, -86.622, -11140.489)" fill="#007cff"/>
    <g id="Grupo_237454" data-name="Grupo 237454" transform="translate(-89.658 -11150.867)" opacity="0.4" style="isolation: isolate">
      <g id="Grupo_237453" data-name="Grupo 237453">
        <g id="Grupo_237452" data-name="Grupo 237452" clip-path="url(#clip-path-31)">
          <rect id="Rectángulo_313186" data-name="Rectángulo 313186" width="8.598" height="6.606" transform="matrix(-0.353, -0.936, 0.936, -0.353, 3.035, 10.378)" fill="#fff"/>
        </g>
      </g>
    </g>
    <path id="Trazado_232529" data-name="Trazado 232529" d="M46.506,107.365l.4-3.525a4.942,4.942,0,0,0-3.546,3.955,4.6,4.6,0,0,0,3.489,4.9,4,4,0,0,0,2.261-.063l15.1,18.94c-1.708,2.679.19,5.333,2,6.293l.379-3.51a1.5,1.5,0,1,1,2.973.348l-.4,3.526a4.94,4.94,0,0,0,3.546-3.955,4.611,4.611,0,0,0-3.381-4.987,3.6,3.6,0,0,0-2.15-.024l-15.1-18.94c1.12-2.211-.3-5.244-2.108-6.205l-.435,3.555a1.532,1.532,0,0,1-1.681,1.339,1.5,1.5,0,0,1-1.343-1.647" transform="translate(-134.742 -11269.858)" fill="#1a2e35"/>
    <g id="Grupo_237457" data-name="Grupo 237457" transform="translate(-91.413 -11166.021)" opacity="0.6" style="isolation: isolate">
      <g id="Grupo_237456" data-name="Grupo 237456">
        <g id="Grupo_237455" data-name="Grupo 237455" clip-path="url(#clip-path-32)">
          <path id="Trazado_232530" data-name="Trazado 232530" d="M46.506,107.365l.4-3.525a4.942,4.942,0,0,0-3.546,3.955,4.6,4.6,0,0,0,3.489,4.9,4,4,0,0,0,2.261-.063l15.1,18.94c-1.708,2.679.19,5.333,2,6.293l.379-3.51a1.5,1.5,0,1,1,2.973.348l-.4,3.526a4.94,4.94,0,0,0,3.546-3.955,4.611,4.611,0,0,0-3.381-4.987,3.6,3.6,0,0,0-2.15-.024l-15.1-18.94c1.12-2.211-.3-5.244-2.108-6.205l-.435,3.555a1.532,1.532,0,0,1-1.681,1.339,1.5,1.5,0,0,1-1.343-1.647" transform="translate(-43.329 -103.839)" fill="#fff"/>
        </g>
      </g>
    </g>
    <path id="Trazado_232531" data-name="Trazado 232531" d="M39.169,102.727l-5.516,10.732a11.072,11.072,0,0,0,19.7,10.122l5.514-10.733-5.448-2.8L47.9,120.781a4.946,4.946,0,1,1-8.8-4.522l5.514-10.732Z" transform="translate(-105.384 -11270.327)" fill="#007cff"/>
    <g id="Grupo_237460" data-name="Grupo 237460" transform="translate(-55.073 -11160.279)" opacity="0.4" style="isolation: isolate">
      <g id="Grupo_237459" data-name="Grupo 237459">
        <g id="Grupo_237458" data-name="Grupo 237458" clip-path="url(#clip-path-33)">
          <rect id="Rectángulo_313189" data-name="Rectángulo 313189" width="6.125" height="6.793" transform="translate(5.448 8.842) rotate(-152.799)" fill="#fff"/>
        </g>
      </g>
    </g>
    <g id="Grupo_237463" data-name="Grupo 237463" transform="translate(-69.32 -11167.601)" opacity="0.4" style="isolation: isolate">
      <g id="Grupo_237462" data-name="Grupo 237462">
        <g id="Grupo_237461" data-name="Grupo 237461" clip-path="url(#clip-path-34)">
          <rect id="Rectángulo_313191" data-name="Rectángulo 313191" width="6.126" height="6.793" transform="translate(5.448 8.842) rotate(-152.797)" fill="#fff"/>
        </g>
      </g>
    </g>
    <rect id="Rectángulo_313193" data-name="Rectángulo 313193" width="45.355" height="17.788" transform="translate(-93.291 -11146.689)" fill="#1a2e35"/>
    <path id="Trazado_232532" data-name="Trazado 232532" d="M153,340.987l-14.643-203.87h11.551l11.981,203.87Z" transform="translate(-358.957 -11255.841)" fill="#1a2e35"/>
    <g id="Grupo_237466" data-name="Grupo 237466" transform="translate(-220.604 -11118.374)" opacity="0.4" style="isolation: isolate">
      <g id="Grupo_237465" data-name="Grupo 237465">
        <g id="Grupo_237464" data-name="Grupo 237464" clip-path="url(#clip-path-35)">
          <path id="Trazado_232533" data-name="Trazado 232533" d="M153,340.883,139.121,147.831l-.767-10.468h11.555l.625,10.468,11.36,193.052Z" transform="translate(-138.354 -137.363)" fill="#7a512c"/>
        </g>
      </g>
    </g>
    <g id="Grupo_237469" data-name="Grupo 237469" transform="translate(-220.604 -11118.374)" opacity="0.2" style="isolation: isolate">
      <g id="Grupo_237468" data-name="Grupo 237468">
        <g id="Grupo_237467" data-name="Grupo 237467" clip-path="url(#clip-path-36)">
          <path id="Trazado_232534" data-name="Trazado 232534" d="M158.527,147.312H147.114l-.767-9.949H157.9Z" transform="translate(-146.347 -137.363)"/>
        </g>
      </g>
    </g>
    <path id="Trazado_232535" data-name="Trazado 232535" d="M93.151,340.987l-1.33-203.87h11.551l-1.332,203.87Z" transform="translate(-234.301 -11255.841)" fill="#1a2e35"/>
    <g id="Grupo_237472" data-name="Grupo 237472" transform="translate(-142.478 -11118.374)" opacity="0.5" style="isolation: isolate">
      <g id="Grupo_237471" data-name="Grupo 237471">
        <g id="Grupo_237470" data-name="Grupo 237470" clip-path="url(#clip-path-37)">
          <path id="Trazado_232536" data-name="Trazado 232536" d="M102.041,340.883H93.147L92.044,172.5l-.227-35.14h11.555l-.227,35.14Z" transform="translate(-91.816 -137.363)" fill="#7a512c"/>
        </g>
      </g>
    </g>
    <g id="Grupo_237475" data-name="Grupo 237475" transform="translate(-142.478 -11118.374)" opacity="0.2" style="isolation: isolate">
      <g id="Grupo_237474" data-name="Grupo 237474">
        <g id="Grupo_237473" data-name="Grupo 237473" clip-path="url(#clip-path-38)">
          <path id="Trazado_232537" data-name="Trazado 232537" d="M103.372,137.363l-.227,35.531h-11.1l-.227-35.531Z" transform="translate(-91.817 -137.363)"/>
        </g>
      </g>
    </g>
    <path id="Trazado_232538" data-name="Trazado 232538" d="M43,340.987,28.357,137.117H39.908l11.981,203.87Z" transform="translate(-92.619 -11255.841)" fill="#1a2e35"/>
    <g id="Grupo_237478" data-name="Grupo 237478" transform="translate(-64.266 -11118.374)" opacity="0.5" style="isolation: isolate">
      <g id="Grupo_237477" data-name="Grupo 237477">
        <g id="Grupo_237476" data-name="Grupo 237476" clip-path="url(#clip-path-35)">
          <path id="Trazado_232539" data-name="Trazado 232539" d="M43,340.883,29.121,147.831l-.767-10.468H39.909l.625,10.468,11.36,193.052Z" transform="translate(-28.353 -137.363)" fill="#7a512c"/>
        </g>
      </g>
    </g>
    <g id="Grupo_237481" data-name="Grupo 237481" transform="translate(-64.266 -11118.374)" opacity="0.2" style="isolation: isolate">
      <g id="Grupo_237480" data-name="Grupo 237480">
        <g id="Grupo_237479" data-name="Grupo 237479" clip-path="url(#clip-path-36)">
          <path id="Trazado_232540" data-name="Trazado 232540" d="M48.527,147.312H37.114l-.767-9.949H47.9Z" transform="translate(-36.347 -137.363)"/>
        </g>
      </g>
    </g>
    <path id="Trazado_232541" data-name="Trazado 232541" d="M196.856,340.987l11.98-203.87h11.552l-14.643,203.87Z" transform="translate(-500.597 -11255.841)" fill="#1a2e35"/>
    <g id="Grupo_237484" data-name="Grupo 237484" transform="translate(-303.739 -11118.374)" opacity="0.5" style="isolation: isolate">
      <g id="Grupo_237483" data-name="Grupo 237483">
        <g id="Grupo_237482" data-name="Grupo 237482" clip-path="url(#clip-path-41)">
          <path id="Trazado_232542" data-name="Trazado 232542" d="M205.739,340.883h-8.881L208.2,147.831l.625-10.468h11.555l-.767,10.468Z" transform="translate(-196.858 -137.363)" fill="#7a512c"/>
        </g>
      </g>
    </g>
    <g id="Grupo_237487" data-name="Grupo 237487" transform="translate(-292.392 -11118.374)" opacity="0.2" style="isolation: isolate">
      <g id="Grupo_237486" data-name="Grupo 237486">
        <g id="Grupo_237485" data-name="Grupo 237485" clip-path="url(#clip-path-36)">
          <path id="Trazado_232543" data-name="Trazado 232543" d="M197.483,137.363h11.555l-.767,9.949H196.857Z" transform="translate(-196.857 -137.363)"/>
        </g>
      </g>
    </g>
    <path id="Trazado_232544" data-name="Trazado 232544" d="M284.633,144.187H33.417a3.072,3.072,0,0,1-3.073-3.071v-7.837H287.707v7.837a3.073,3.073,0,0,1-3.074,3.071" transform="translate(-331.262 -11257.457)" fill="#84572f"/>
    <g id="Grupo_237490" data-name="Grupo 237490" transform="translate(-300.918 -11124.179)" opacity="0.2" style="isolation: isolate">
      <g id="Grupo_237489" data-name="Grupo 237489">
        <g id="Grupo_237488" data-name="Grupo 237488" clip-path="url(#clip-path-43)">
          <rect id="Rectángulo_313202" data-name="Rectángulo 313202" width="257.362" height="5.455" transform="translate(0.001)" fill="#563a22"/>
        </g>
      </g>
    </g>
    <path id="Trazado_232545" data-name="Trazado 232545" d="M295.614,136.1H27.458a3.073,3.073,0,0,1,0-6.146H295.614a3.073,3.073,0,0,1,0,6.146" transform="translate(-333.772 -11258.857)" fill="#84572f"/>
  </g>
</svg>
