<svg id="Grupo_237531" data-name="Grupo 237531" xmlns="http://www.w3.org/2000/svg" xmlns:xlink="http://www.w3.org/1999/xlink" width="443.133" height="407.819" viewBox="0 0 443.133 407.819">
  <defs>
    <clipPath id="clip-path">
      <rect id="Rectángulo_313601" data-name="Rectángulo 313601" width="443.133" height="407.819" fill="none"/>
    </clipPath>
    <clipPath id="clip-path-3">
      <rect id="Rectángulo_313482" data-name="Rectángulo 313482" width="36.219" height="36.22" fill="none"/>
    </clipPath>
    <clipPath id="clip-path-4">
      <rect id="Rectángulo_313489" data-name="Rectángulo 313489" width="16.557" height="14.427" fill="none"/>
    </clipPath>
    <clipPath id="clip-path-5">
      <rect id="Rectángulo_313497" data-name="Rectángulo 313497" width="79.879" height="31.051" fill="none"/>
    </clipPath>
    <clipPath id="clip-path-6">
      <rect id="Rectángulo_313530" data-name="Rectángulo 313530" width="12.095" height="45.455" fill="none"/>
    </clipPath>
  </defs>
  <g id="Grupo_237530" data-name="Grupo 237530" clip-path="url(#clip-path)">
    <g id="Grupo_237529" data-name="Grupo 237529">
      <g id="Grupo_237528" data-name="Grupo 237528" clip-path="url(#clip-path)">
        <path id="Trazado_234095" data-name="Trazado 234095" d="M11.377,111.277A12.252,12.252,0,0,0,0,99.061V41.349A12.262,12.262,0,0,0,12.26,29.088,12.26,12.26,0,0,0,0,16.827V8.683A8.681,8.681,0,0,1,8.682,0H147.017A8.683,8.683,0,0,1,155.7,8.683v8.144a12.261,12.261,0,0,0,0,24.522V147.021a8.683,8.683,0,0,1-8.683,8.681h-32.5V138.661a5.919,5.919,0,0,0-5.4-5.974,5.787,5.787,0,0,0-6.172,5.776V155.7H8.682A8.681,8.681,0,0,1,0,147.021V123.493a12.252,12.252,0,0,0,11.376-12.216" transform="translate(0.001)" fill="#ffc727"/>
        <path id="Trazado_234096" data-name="Trazado 234096" d="M2.535,65.851a7.475,7.475,0,1,0,7.475-7.475,7.474,7.474,0,0,0-7.475,7.475" transform="translate(3.232 74.418)" fill="#fff"/>
        <path id="Trazado_234097" data-name="Trazado 234097" d="M4.154,63.74a3.708,3.708,0,1,0,3.708-3.708A3.709,3.709,0,0,0,4.154,63.74" transform="translate(5.296 76.529)" fill="#ff735d"/>
        <g id="Grupo_237518" data-name="Grupo 237518" transform="translate(29.265 30.471)" opacity="0.3">
          <g id="Grupo_237517" data-name="Grupo 237517">
            <g id="Grupo_237516" data-name="Grupo 237516" clip-path="url(#clip-path-3)">
              <path id="Trazado_234098" data-name="Trazado 234098" d="M12.865,18.523v-.971h1.247V14.644h2.031V13.4h.971v1.249h1.617V13.4H19.7v1.249h1.617V13.4h.971v1.249h1.617V13.4h.971v1.249H26.5V13.4h.969v1.249h1.617V13.4h.971v1.249H31.7V13.4h.971v1.249h1.617V13.4h.971v1.249h1.617V13.4h.969v1.249h1.617V13.4h.971v1.249h1.617V13.4h.971v1.249h1.617V13.4h.969v1.249h2.132v2.907h1.338v.971H47.747V20.14h1.338v.971H47.747v1.617h1.338V23.7H47.747v1.617h1.338v.971H47.747V27.9h1.338v.971H47.747v1.617h1.338v.969H47.747v1.654h1.338v.969H47.747V35.7h1.338v.971H47.747v1.617h1.338v.971H47.747v1.617h1.338v.969H47.747v1.617h1.338v.971H47.747v1.617h1.338v.971H47.747v1.251H45.615v1.338h-.969V48.277H43.029v1.338h-.971V48.277H40.44v1.338h-.971V48.277H37.852v1.338h-.969V48.277H35.265v1.338h-.971V48.277H32.676v1.338H31.7V48.277H30.053v1.338h-.971V48.277H27.465v1.338H26.5V48.277H24.878v1.338h-.971V48.277H22.29v1.338h-.971V48.277H19.7v1.338h-.969V48.277H17.114v1.338h-.971V48.277H14.112V47.026H12.865v-.971h1.247V44.437H12.865v-.971h1.247V41.849H12.865v-.969h1.247V39.262H12.865v-.971h1.247V36.673H12.865V35.7h1.247V34.085H12.865v-.969h1.247V31.462H12.865v-.969h1.247V28.875H12.865V27.9h1.247V26.287H12.865v-.971h1.247V23.7H12.865v-.969h1.247V21.111H12.865V20.14h1.247V18.523Z" transform="translate(-12.865 -13.395)"/>
            </g>
          </g>
        </g>
        <rect id="Rectángulo_313483" data-name="Rectángulo 313483" width="10.212" height="30.869" transform="translate(130.274 124.835)" fill="#ececec"/>
        <rect id="Rectángulo_313484" data-name="Rectángulo 313484" width="10.212" height="30.869" transform="translate(83.103 124.835)" fill="#ececec"/>
        <rect id="Rectángulo_313485" data-name="Rectángulo 313485" width="10.212" height="30.869" transform="translate(65.112 124.835)" fill="#ececec"/>
        <rect id="Rectángulo_313486" data-name="Rectángulo 313486" width="10.212" height="30.869" transform="translate(47.118 124.835)" fill="#ececec"/>
        <rect id="Rectángulo_313487" data-name="Rectángulo 313487" width="10.212" height="30.869" transform="translate(29.127 124.835)" fill="#ececec"/>
        <path id="Trazado_234099" data-name="Trazado 234099" d="M65.4,104.628h.639V91.907a.5.5,0,0,1,.146-.355l8.6-8.6a1.134,1.134,0,0,0,.334-.808V24.791a1.149,1.149,0,0,0-.334-.81l-5.2-5.2a1.145,1.145,0,0,0-.81-.337H55.985v.639H68.774a.5.5,0,0,1,.357.148l5.207,5.207a.508.508,0,0,1,.148.357V82.144a.493.493,0,0,1-.148.355l-8.6,8.6a1.153,1.153,0,0,0-.334.808Z" transform="translate(71.37 23.507)" fill="#fff"/>
        <path id="Trazado_234100" data-name="Trazado 234100" d="M63.742,101.5h.639V87.85a.5.5,0,0,1,.148-.357l8.18-8.182a1.147,1.147,0,0,0,.334-.821L72.391,25.1a1.139,1.139,0,0,0-.348-.808L68.6,20.959a1.153,1.153,0,0,0-.767-.323l-13.665-.33-.016.639,13.665.33a.507.507,0,0,1,.339.141L71.6,24.749a.515.515,0,0,1,.155.357L72.4,78.5a.5.5,0,0,1-.146.364l-8.182,8.18a1.135,1.135,0,0,0-.334.81Z" transform="translate(69.03 25.886)" fill="#fff"/>
        <path id="Trazado_234101" data-name="Trazado 234101" d="M55.592,33.1h5.717a1.282,1.282,0,0,0,1.281-1.281v-4.1a1.281,1.281,0,0,0-1.281-1.281H55.592v.637h5.717a.645.645,0,0,1,.644.644v4.1a.643.643,0,0,1-.644.641H55.592Z" transform="translate(70.869 33.705)" fill="#fff"/>
        <path id="Trazado_234102" data-name="Trazado 234102" d="M39.546,94.6h.639V89.144a.5.5,0,0,1,.5-.505h25.8a1.134,1.134,0,0,0,.808-.334l18.5-18.5A1.134,1.134,0,0,0,86.127,69V24.858a1.143,1.143,0,0,0-1.142-1.142H78.921v.637h6.065a.507.507,0,0,1,.505.505V69a.5.5,0,0,1-.148.357l-18.5,18.5a.5.5,0,0,1-.357.148h-25.8a1.143,1.143,0,0,0-1.142,1.142Z" transform="translate(50.414 30.233)" fill="#fff"/>
        <path id="Trazado_234103" data-name="Trazado 234103" d="M37.777,92.846h.639V82.063a.5.5,0,0,1,.5-.505H64.267a1.143,1.143,0,0,0,1.142-1.142V26.235a.507.507,0,0,1,.505-.505h4.345v-.637H65.914a1.143,1.143,0,0,0-1.142,1.142V80.416a.5.5,0,0,1-.505.5H38.919a1.145,1.145,0,0,0-1.142,1.144Z" transform="translate(48.159 31.989)" fill="#fff"/>
        <path id="Trazado_234104" data-name="Trazado 234104" d="M72.4,31.591h8.317a1,1,0,0,0,.994-.994V5.961a1,1,0,0,0-.994-.994H44.661V5.6H80.714a.357.357,0,0,1,.355.357V30.6a.357.357,0,0,1-.355.357H72.4Z" transform="translate(56.934 6.332)" fill="#fff"/>
        <path id="Trazado_234105" data-name="Trazado 234105" d="M22.988,118.5h.639V111.5a1.959,1.959,0,0,0-1.131-1.772L9.969,103.887a1.317,1.317,0,0,1-.76-1.192v-84.6a1.315,1.315,0,0,1,.425-.969L21.807,5.952a1.314,1.314,0,0,1,.889-.346H76.591V4.967H22.7a1.953,1.953,0,0,0-1.322.516L9.2,16.655a1.956,1.956,0,0,0-.632,1.44v84.6a1.96,1.96,0,0,0,1.128,1.77l12.53,5.837a1.323,1.323,0,0,1,.76,1.194Z" transform="translate(10.925 6.332)" fill="#fff"/>
        <path id="Trazado_234106" data-name="Trazado 234106" d="M54.1,31.226h6.854v-.639H54.1a.357.357,0,0,1-.357-.355V7.829a1,1,0,0,0-.994-1h-8.6v.639h8.6a.358.358,0,0,1,.357.357v22.4a1,1,0,0,0,.994.994" transform="translate(56.284 8.711)" fill="#fff"/>
        <path id="Trazado_234107" data-name="Trazado 234107" d="M31.774,113.271h.637V97.618a.5.5,0,0,1,.5-.505H67.3a1.149,1.149,0,0,0,1.147-1.144V35.593A1.147,1.147,0,0,0,67.3,34.452H59.841a.507.507,0,0,1-.505-.505V9.854H58.7V33.947a1.141,1.141,0,0,0,1.14,1.142H67.3a.505.505,0,0,1,.505.505V95.969a.5.5,0,0,1-.505.505H32.914a1.143,1.143,0,0,0-1.14,1.144Z" transform="translate(40.506 12.562)" fill="#fff"/>
        <path id="Trazado_234108" data-name="Trazado 234108" d="M51.245,32.22h9.709v-.639H51.245a.357.357,0,0,1-.357-.355V9.128a1,1,0,0,0-.994-1H44.15v.639h5.744a.358.358,0,0,1,.357.357v22.1a1,1,0,0,0,.994.994" transform="translate(56.283 10.367)" fill="#fff"/>
        <path id="Trazado_234109" data-name="Trazado 234109" d="M51.312,21.566h1.781v-.639H51.312a.357.357,0,0,1-.357-.355V8.286a.359.359,0,0,1,.357-.357H68.319a.358.358,0,0,1,.357.357V20.572a.356.356,0,0,1-.357.355h-3.13v.639h3.13a1,1,0,0,0,1-.994V8.286a1,1,0,0,0-1-.994H51.312a1,1,0,0,0-.994.994V20.572a1,1,0,0,0,.994.994" transform="translate(64.146 9.296)" fill="#fff"/>
        <path id="Trazado_234110" data-name="Trazado 234110" d="M37.978,50.074h.639v-3.7a1.728,1.728,0,0,0-1.727-1.724H12.65a1.091,1.091,0,0,1-1.087-1.09V22.012a1.089,1.089,0,0,1,1.087-1.087h7.364v-.639H12.65a1.727,1.727,0,0,0-1.724,1.727V43.556a1.727,1.727,0,0,0,1.724,1.727h24.24a1.09,1.09,0,0,1,1.087,1.087Z" transform="translate(13.929 25.86)" fill="#fff"/>
        <rect id="Rectángulo_313488" data-name="Rectángulo 313488" width="0.639" height="19.841" transform="translate(68.278 105.992)" fill="#fff"/>
        <path id="Trazado_234111" data-name="Trazado 234111" d="M21.79,120.656h.639v-6.087L7.756,107.66,7.49,18.376,22.9,3.917H81.956a.531.531,0,0,1,.532.53V6.042h.637V4.447a1.17,1.17,0,0,0-1.169-1.169H22.645L6.851,18.1v.139l.268,89.828,14.67,6.909Z" transform="translate(8.734 4.179)" fill="#fff"/>
        <path id="Trazado_234112" data-name="Trazado 234112" d="M23.476,66.917h.637V57.661a1.3,1.3,0,0,1,.375-.91l6.324-6.324a1.9,1.9,0,0,0,.564-1.358V46.216h-.639v2.853a1.294,1.294,0,0,1-.375.908L24.038,56.3a1.908,1.908,0,0,0-.562,1.36Z" transform="translate(29.927 58.917)" fill="#fff"/>
        <path id="Trazado_234113" data-name="Trazado 234113" d="M25.668,65.918h.639V56.7a1.926,1.926,0,0,0-.6-1.4c-1.247-1.176-4.493-3.92-5.83-5.046a1.2,1.2,0,0,1-.43-.921V46.216h-.637v3.123a1.839,1.839,0,0,0,.655,1.41c1.333,1.121,4.568,3.856,5.805,5.021a1.274,1.274,0,0,1,.4.933Z" transform="translate(23.975 58.917)" fill="#fff"/>
        <path id="Trazado_234114" data-name="Trazado 234114" d="M34.849,41.393h.639V32.425A1.728,1.728,0,0,0,33.762,30.7H17.943a.683.683,0,0,1-.682-.685v-2.2h-.639v2.2a1.324,1.324,0,0,0,1.322,1.322H33.762a1.09,1.09,0,0,1,1.087,1.087Z" transform="translate(21.189 35.464)" fill="#fff"/>
        <path id="Trazado_234115" data-name="Trazado 234115" d="M17.025,21.842V21.2a.278.278,0,0,1,.253.152c-.03-.082-.171-.726,0-5.475a1.312,1.312,0,0,1,1.315-1.269H39.973a1.958,1.958,0,0,0,1.954-1.954V8.327A1.317,1.317,0,0,1,43.242,7.01H66.411V6.373H43.242a1.957,1.957,0,0,0-1.954,1.954v4.329a1.315,1.315,0,0,1-1.315,1.315H18.594a1.948,1.948,0,0,0-1.952,1.886c-.2,5.532-.009,5.733.132,5.876l.093.1Z" transform="translate(21.106 8.124)" fill="#fff"/>
        <path id="Trazado_234116" data-name="Trazado 234116" d="M36.392,64.4h.639V60.881a.845.845,0,0,1,.842-.846H57.5a1.481,1.481,0,0,0,1.481-1.479V38.638A1.482,1.482,0,0,0,57.5,37.157H51.433A2.858,2.858,0,0,1,48.578,34.3V9.773h-.637V34.3A3.5,3.5,0,0,0,51.433,37.8H57.5a.843.843,0,0,1,.844.842V58.556a.843.843,0,0,1-.844.842H37.873a1.484,1.484,0,0,0-1.481,1.483Z" transform="translate(46.393 12.459)" fill="#fff"/>
        <path id="Trazado_234117" data-name="Trazado 234117" d="M49.336,62.349h.639V58.234a2.431,2.431,0,0,1,.717-1.733L64.673,42.522a3.738,3.738,0,0,0,1.1-2.632c.034-4.434.136-19.379.036-25.478a3.1,3.1,0,0,0-3.085-3.032H21.893a3.087,3.087,0,0,0-3.085,3.085v1.574h.637V14.465a2.451,2.451,0,0,1,2.448-2.448H62.728a2.459,2.459,0,0,1,2.448,2.4c.1,6.092,0,21.031-.036,25.464a3.11,3.11,0,0,1-.919,2.186L50.239,56.053a3.066,3.066,0,0,0-.9,2.182Z" transform="translate(23.977 14.507)" fill="#fff"/>
        <path id="Trazado_234118" data-name="Trazado 234118" d="M29.576,59.215h.639V54.649a2.429,2.429,0,0,1,.714-1.731l16.4-16.4a3.059,3.059,0,0,0,.905-2.182V16.924a3.089,3.089,0,0,0-3.085-3.085H28.623v.639H45.147a2.447,2.447,0,0,1,2.445,2.445V34.34a2.439,2.439,0,0,1-.717,1.731l-16.4,16.4a3.062,3.062,0,0,0-.9,2.182Z" transform="translate(36.489 17.642)" fill="#fff"/>
        <path id="Trazado_234119" data-name="Trazado 234119" d="M10.189,73.824A7.795,7.795,0,1,0,2.4,66.031a7.8,7.8,0,0,0,7.793,7.794m0-14.95a7.157,7.157,0,1,1-7.157,7.157,7.164,7.164,0,0,1,7.157-7.157" transform="translate(3.054 74.239)" fill="#fff"/>
        <g id="Grupo_237521" data-name="Grupo 237521" transform="translate(85.384 11.606)" opacity="0.3">
          <g id="Grupo_237520" data-name="Grupo 237520">
            <g id="Grupo_237519" data-name="Grupo 237519" clip-path="url(#clip-path-4)">
              <path id="Trazado_234120" data-name="Trazado 234120" d="M37.535,5.1H54.093V18.207H52.457v1.322h-.971V18.207H49.869v1.322H48.9V18.207H47.28v1.322h-.969V18.207H44.693v1.322h-.971V18.207H42.1v1.322h-.971V18.207H39.516v1.322h-.969V18.207H37.535Z" transform="translate(-37.535 -5.102)"/>
            </g>
          </g>
        </g>
        <rect id="Rectángulo_313490" data-name="Rectángulo 313490" width="16.558" height="13.105" transform="translate(86.504 9.311)" fill="#263238"/>
        <rect id="Rectángulo_313491" data-name="Rectángulo 313491" width="0.971" height="2.498" transform="translate(100.456 21.24)" fill="#e1e1e1"/>
        <rect id="Rectángulo_313492" data-name="Rectángulo 313492" width="0.971" height="2.498" transform="translate(97.869 21.24)" fill="#e1e1e1"/>
        <rect id="Rectángulo_313493" data-name="Rectángulo 313493" width="0.971" height="2.498" transform="translate(95.28 21.24)" fill="#e1e1e1"/>
        <rect id="Rectángulo_313494" data-name="Rectángulo 313494" width="0.971" height="2.498" transform="translate(92.692 21.24)" fill="#e1e1e1"/>
        <rect id="Rectángulo_313495" data-name="Rectángulo 313495" width="0.971" height="2.498" transform="translate(90.105 21.24)" fill="#e1e1e1"/>
        <rect id="Rectángulo_313496" data-name="Rectángulo 313496" width="0.971" height="2.498" transform="translate(87.516 21.24)" fill="#e1e1e1"/>
        <path id="Trazado_234121" data-name="Trazado 234121" d="M38.557,5.879A1.12,1.12,0,1,0,39.676,4.76a1.118,1.118,0,0,0-1.119,1.119" transform="translate(49.153 6.068)" fill="#455a64"/>
        <g id="Grupo_237524" data-name="Grupo 237524" transform="translate(22.918 78.383)" opacity="0.3">
          <g id="Grupo_237523" data-name="Grupo 237523">
            <g id="Grupo_237522" data-name="Grupo 237522" clip-path="url(#clip-path-5)">
              <path id="Trazado_234122" data-name="Trazado 234122" d="M10.281,34.734l79.673-.278V64.516h-3v.992h-.971v-.992H84.365v.992H83.4v-.992H81.779v.992h-.971v-.992H79.19v.992h-.971v-.992H76.6v.992h-.969v-.992H74.015v.992h-.971v-.992H71.392v.992H70.42v-.992H68.8v.992h-.971v-.992H66.214v.992h-.969v-.992H63.628v.992h-.971v-.992H61.039v.992h-.971v-.992H58.45v.992h-.969v-.992H55.525v.992h-.971v-.992H52.936v.992h-.969v-.992H50.35v.992h-.971v-.992H47.761v.992H46.79v-.992H45.172v.992H44.2v-.992H42.586v.992h-.971v-.992H39.961v.992h-.969v-.992H37.374v.992H36.4v-.992H34.786v.992h-.969v-.992H32.2v.992h-.969v-.992H29.61v.992h-.971v-.992H27.022v.992h-.969v-.992h-1.09v.992h-.971v-.992H22.374v.992h-.969v-.992H19.788v.992h-.971v-.992H17.2v.992h-.971v-.992H14.61v.992h-.969v-.992H12.024v.992h-.971v-.992h-.978Z" transform="translate(-10.075 -34.457)"/>
            </g>
          </g>
        </g>
        <rect id="Rectángulo_313498" data-name="Rectángulo 313498" width="79.88" height="30.057" transform="translate(25.173 75.935)" fill="#263238"/>
        <rect id="Rectángulo_313499" data-name="Rectángulo 313499" width="0.971" height="2.498" transform="translate(101.081 104.487)" fill="#e1e1e1"/>
        <rect id="Rectángulo_313500" data-name="Rectángulo 313500" width="0.971" height="2.498" transform="translate(98.492 104.487)" fill="#e1e1e1"/>
        <rect id="Rectángulo_313501" data-name="Rectángulo 313501" width="0.971" height="2.498" transform="translate(95.904 104.487)" fill="#e1e1e1"/>
        <rect id="Rectángulo_313502" data-name="Rectángulo 313502" width="0.971" height="2.498" transform="translate(93.317 104.487)" fill="#e1e1e1"/>
        <rect id="Rectángulo_313503" data-name="Rectángulo 313503" width="0.971" height="2.498" transform="translate(90.729 104.487)" fill="#e1e1e1"/>
        <rect id="Rectángulo_313504" data-name="Rectángulo 313504" width="0.971" height="2.498" transform="translate(88.14 104.487)" fill="#e1e1e1"/>
        <rect id="Rectángulo_313505" data-name="Rectángulo 313505" width="0.971" height="2.498" transform="translate(85.517 104.487)" fill="#e1e1e1"/>
        <rect id="Rectángulo_313506" data-name="Rectángulo 313506" width="0.971" height="2.498" transform="translate(82.93 104.487)" fill="#e1e1e1"/>
        <rect id="Rectángulo_313507" data-name="Rectángulo 313507" width="0.971" height="2.498" transform="translate(80.342 104.487)" fill="#e1e1e1"/>
        <rect id="Rectángulo_313508" data-name="Rectángulo 313508" width="0.971" height="2.498" transform="translate(77.753 104.487)" fill="#e1e1e1"/>
        <rect id="Rectángulo_313509" data-name="Rectángulo 313509" width="0.971" height="2.498" transform="translate(75.167 104.487)" fill="#e1e1e1"/>
        <rect id="Rectángulo_313510" data-name="Rectángulo 313510" width="0.971" height="2.498" transform="translate(72.578 104.487)" fill="#e1e1e1"/>
        <rect id="Rectángulo_313511" data-name="Rectángulo 313511" width="0.971" height="2.498" transform="translate(69.65 104.487)" fill="#e1e1e1"/>
        <rect id="Rectángulo_313512" data-name="Rectángulo 313512" width="0.971" height="2.498" transform="translate(67.064 104.487)" fill="#e1e1e1"/>
        <rect id="Rectángulo_313513" data-name="Rectángulo 313513" width="0.971" height="2.498" transform="translate(64.475 104.487)" fill="#e1e1e1"/>
        <rect id="Rectángulo_313514" data-name="Rectángulo 313514" width="0.971" height="2.498" transform="translate(61.886 104.487)" fill="#e1e1e1"/>
        <rect id="Rectángulo_313515" data-name="Rectángulo 313515" width="0.971" height="2.498" transform="translate(59.3 104.487)" fill="#e1e1e1"/>
        <rect id="Rectángulo_313516" data-name="Rectángulo 313516" width="0.971" height="2.498" transform="translate(56.711 104.487)" fill="#e1e1e1"/>
        <rect id="Rectángulo_313517" data-name="Rectángulo 313517" width="0.971" height="2.498" transform="translate(54.088 104.487)" fill="#e1e1e1"/>
        <rect id="Rectángulo_313518" data-name="Rectángulo 313518" width="0.971" height="2.498" transform="translate(51.499 104.487)" fill="#e1e1e1"/>
        <rect id="Rectángulo_313519" data-name="Rectángulo 313519" width="0.971" height="2.498" transform="translate(48.913 104.487)" fill="#e1e1e1"/>
        <rect id="Rectángulo_313520" data-name="Rectángulo 313520" width="0.971" height="2.498" transform="translate(46.324 104.487)" fill="#e1e1e1"/>
        <rect id="Rectángulo_313521" data-name="Rectángulo 313521" width="0.971" height="2.498" transform="translate(43.735 104.487)" fill="#e1e1e1"/>
        <rect id="Rectángulo_313522" data-name="Rectángulo 313522" width="0.971" height="2.498" transform="translate(41.149 104.487)" fill="#e1e1e1"/>
        <rect id="Rectángulo_313523" data-name="Rectángulo 313523" width="0.971" height="2.498" transform="translate(39.088 104.487)" fill="#e1e1e1"/>
        <rect id="Rectángulo_313524" data-name="Rectángulo 313524" width="0.971" height="2.498" transform="translate(36.502 104.487)" fill="#e1e1e1"/>
        <rect id="Rectángulo_313525" data-name="Rectángulo 313525" width="0.971" height="2.498" transform="translate(33.913 104.487)" fill="#e1e1e1"/>
        <rect id="Rectángulo_313526" data-name="Rectángulo 313526" width="0.971" height="2.498" transform="translate(31.324 104.487)" fill="#e1e1e1"/>
        <rect id="Rectángulo_313527" data-name="Rectángulo 313527" width="0.971" height="2.498" transform="translate(28.738 104.487)" fill="#e1e1e1"/>
        <rect id="Rectángulo_313528" data-name="Rectángulo 313528" width="0.971" height="2.498" transform="translate(26.149 104.487)" fill="#e1e1e1"/>
        <path id="Trazado_234123" data-name="Trazado 234123" d="M12.453,57.079c.091,0,.166-5.057.166-11.294s-.075-11.3-.166-11.3-.166,5.057-.166,11.3.075,11.294.166,11.294" transform="translate(15.664 43.966)" fill="#455a64"/>
        <path id="Trazado_234124" data-name="Trazado 234124" d="M13.053,41.945a19.053,19.053,0,0,0,.166-3.537,19.053,19.053,0,0,0-.166-3.537,19.053,19.053,0,0,0-.166,3.537,19.053,19.053,0,0,0,.166,3.537" transform="translate(16.428 44.453)" fill="#455a64"/>
        <path id="Trazado_234125" data-name="Trazado 234125" d="M27.089,44.715c0,.091.43.166.96.166s.96-.075.96-.166-.43-.166-.96-.166-.96.075-.96.166" transform="translate(34.533 56.792)" fill="#455a64"/>
        <path id="Trazado_234126" data-name="Trazado 234126" d="M25.523,44.715c0,.091.43.166.96.166s.96-.075.96-.166-.43-.166-.96-.166-.96.075-.96.166" transform="translate(32.537 56.792)" fill="#455a64"/>
        <path id="Trazado_234127" data-name="Trazado 234127" d="M23.958,44.715c0,.091.43.166.96.166s.96-.075.96-.166-.43-.166-.96-.166-.96.075-.96.166" transform="translate(30.542 56.792)" fill="#455a64"/>
        <path id="Trazado_234128" data-name="Trazado 234128" d="M22.392,44.715c0,.091.43.166.96.166s.96-.075.96-.166-.43-.166-.96-.166-.96.075-.96.166" transform="translate(28.546 56.792)" fill="#455a64"/>
        <path id="Trazado_234129" data-name="Trazado 234129" d="M20.826,44.715c0,.091.43.166.96.166s.96-.075.96-.166-.43-.166-.96-.166-.96.075-.96.166" transform="translate(26.549 56.792)" fill="#455a64"/>
        <path id="Trazado_234130" data-name="Trazado 234130" d="M19.26,44.715c0,.091.43.166.96.166s.96-.075.96-.166-.43-.166-.96-.166-.96.075-.96.166" transform="translate(24.553 56.792)" fill="#455a64"/>
        <path id="Trazado_234131" data-name="Trazado 234131" d="M17.694,44.715c0,.091.43.166.96.166s.96-.075.96-.166-.43-.166-.96-.166-.96.075-.96.166" transform="translate(22.556 56.792)" fill="#455a64"/>
        <path id="Trazado_234132" data-name="Trazado 234132" d="M16.128,44.715c0,.091.43.166.96.166s.96-.075.96-.166-.43-.166-.96-.166-.96.075-.96.166" transform="translate(20.56 56.792)" fill="#455a64"/>
        <g id="Grupo_237527" data-name="Grupo 237527" transform="translate(113.912 24.4)" opacity="0.3">
          <g id="Grupo_237526" data-name="Grupo 237526">
            <g id="Grupo_237525" data-name="Grupo 237525" clip-path="url(#clip-path-6)">
              <rect id="Rectángulo_313529" data-name="Rectángulo 313529" width="12.095" height="45.455" transform="translate(0.001 0)"/>
            </g>
          </g>
        </g>
        <rect id="Rectángulo_313531" data-name="Rectángulo 313531" width="12.095" height="45.455" transform="translate(117.239 23.738)" fill="#263238"/>
        <rect id="Rectángulo_313532" data-name="Rectángulo 313532" width="2.498" height="0.971" transform="translate(128.502 24.611)" fill="#e1e1e1"/>
        <rect id="Rectángulo_313533" data-name="Rectángulo 313533" width="2.498" height="0.971" transform="translate(128.502 27.191)" fill="#e1e1e1"/>
        <rect id="Rectángulo_313534" data-name="Rectángulo 313534" width="2.498" height="0.971" transform="translate(128.502 29.77)" fill="#e1e1e1"/>
        <rect id="Rectángulo_313535" data-name="Rectángulo 313535" width="2.498" height="0.971" transform="translate(128.502 32.35)" fill="#e1e1e1"/>
        <rect id="Rectángulo_313536" data-name="Rectángulo 313536" width="2.498" height="0.971" transform="translate(128.502 34.93)" fill="#e1e1e1"/>
        <rect id="Rectángulo_313537" data-name="Rectángulo 313537" width="2.498" height="0.971" transform="translate(128.502 37.509)" fill="#e1e1e1"/>
        <rect id="Rectángulo_313538" data-name="Rectángulo 313538" width="2.498" height="0.971" transform="translate(128.502 40.089)" fill="#e1e1e1"/>
        <rect id="Rectángulo_313539" data-name="Rectángulo 313539" width="2.498" height="0.971" transform="translate(128.502 42.669)" fill="#e1e1e1"/>
        <rect id="Rectángulo_313540" data-name="Rectángulo 313540" width="2.498" height="0.971" transform="translate(128.502 45.251)" fill="#e1e1e1"/>
        <rect id="Rectángulo_313541" data-name="Rectángulo 313541" width="2.498" height="0.971" transform="translate(128.502 47.83)" fill="#e1e1e1"/>
        <rect id="Rectángulo_313542" data-name="Rectángulo 313542" width="2.498" height="0.971" transform="translate(128.502 50.41)" fill="#e1e1e1"/>
        <rect id="Rectángulo_313543" data-name="Rectángulo 313543" width="2.498" height="0.971" transform="translate(128.502 52.989)" fill="#e1e1e1"/>
        <rect id="Rectángulo_313544" data-name="Rectángulo 313544" width="2.498" height="0.971" transform="translate(128.502 55.569)" fill="#e1e1e1"/>
        <rect id="Rectángulo_313545" data-name="Rectángulo 313545" width="2.498" height="0.971" transform="translate(128.502 58.149)" fill="#e1e1e1"/>
        <rect id="Rectángulo_313546" data-name="Rectángulo 313546" width="2.498" height="0.971" transform="translate(128.502 60.728)" fill="#e1e1e1"/>
        <rect id="Rectángulo_313547" data-name="Rectángulo 313547" width="2.498" height="0.971" transform="translate(128.502 63.308)" fill="#e1e1e1"/>
        <rect id="Rectángulo_313548" data-name="Rectángulo 313548" width="2.498" height="0.971" transform="translate(128.502 65.888)" fill="#e1e1e1"/>
        <path id="Trazado_234133" data-name="Trazado 234133" d="M52.242,12.146a1.12,1.12,0,1,0,1.119-1.119,1.118,1.118,0,0,0-1.119,1.119" transform="translate(66.599 14.057)" fill="#455a64"/>
        <rect id="Rectángulo_313549" data-name="Rectángulo 313549" width="33.633" height="33.633" transform="translate(33.942 29.648)" fill="#263238"/>
        <rect id="Rectángulo_313550" data-name="Rectángulo 313550" width="0.971" height="2.498" transform="translate(64.475 28.399)" fill="#e1e1e1"/>
        <rect id="Rectángulo_313551" data-name="Rectángulo 313551" width="0.971" height="2.498" transform="translate(61.886 28.399)" fill="#e1e1e1"/>
        <rect id="Rectángulo_313552" data-name="Rectángulo 313552" width="0.971" height="2.498" transform="translate(59.3 28.399)" fill="#e1e1e1"/>
        <rect id="Rectángulo_313553" data-name="Rectángulo 313553" width="0.971" height="2.498" transform="translate(56.711 28.399)" fill="#e1e1e1"/>
        <rect id="Rectángulo_313554" data-name="Rectángulo 313554" width="0.971" height="2.498" transform="translate(54.122 28.399)" fill="#e1e1e1"/>
        <rect id="Rectángulo_313555" data-name="Rectángulo 313555" width="0.971" height="2.498" transform="translate(51.536 28.399)" fill="#e1e1e1"/>
        <rect id="Rectángulo_313556" data-name="Rectángulo 313556" width="0.971" height="2.498" transform="translate(48.913 28.399)" fill="#e1e1e1"/>
        <rect id="Rectángulo_313557" data-name="Rectángulo 313557" width="0.971" height="2.498" transform="translate(46.324 28.399)" fill="#e1e1e1"/>
        <rect id="Rectángulo_313558" data-name="Rectángulo 313558" width="0.971" height="2.498" transform="translate(43.735 28.399)" fill="#e1e1e1"/>
        <rect id="Rectángulo_313559" data-name="Rectángulo 313559" width="0.971" height="2.498" transform="translate(41.149 28.399)" fill="#e1e1e1"/>
        <rect id="Rectángulo_313560" data-name="Rectángulo 313560" width="0.971" height="2.498" transform="translate(38.56 28.399)" fill="#e1e1e1"/>
        <rect id="Rectángulo_313561" data-name="Rectángulo 313561" width="0.971" height="2.498" transform="translate(35.972 28.399)" fill="#e1e1e1"/>
        <rect id="Rectángulo_313562" data-name="Rectángulo 313562" width="0.971" height="2.498" transform="translate(64.475 62.121)" fill="#e1e1e1"/>
        <rect id="Rectángulo_313563" data-name="Rectángulo 313563" width="0.971" height="2.498" transform="translate(61.886 62.121)" fill="#e1e1e1"/>
        <rect id="Rectángulo_313564" data-name="Rectángulo 313564" width="0.971" height="2.498" transform="translate(59.3 62.121)" fill="#e1e1e1"/>
        <rect id="Rectángulo_313565" data-name="Rectángulo 313565" width="0.971" height="2.498" transform="translate(56.711 62.121)" fill="#e1e1e1"/>
        <rect id="Rectángulo_313566" data-name="Rectángulo 313566" width="0.971" height="2.498" transform="translate(54.122 62.121)" fill="#e1e1e1"/>
        <rect id="Rectángulo_313567" data-name="Rectángulo 313567" width="0.971" height="2.498" transform="translate(51.536 62.121)" fill="#e1e1e1"/>
        <rect id="Rectángulo_313568" data-name="Rectángulo 313568" width="0.971" height="2.498" transform="translate(48.913 62.121)" fill="#e1e1e1"/>
        <rect id="Rectángulo_313569" data-name="Rectángulo 313569" width="0.971" height="2.498" transform="translate(46.324 62.121)" fill="#e1e1e1"/>
        <rect id="Rectángulo_313570" data-name="Rectángulo 313570" width="0.971" height="2.498" transform="translate(43.735 62.121)" fill="#e1e1e1"/>
        <rect id="Rectángulo_313571" data-name="Rectángulo 313571" width="0.971" height="2.498" transform="translate(41.149 62.121)" fill="#e1e1e1"/>
        <rect id="Rectángulo_313572" data-name="Rectángulo 313572" width="0.971" height="2.498" transform="translate(38.56 62.121)" fill="#e1e1e1"/>
        <rect id="Rectángulo_313573" data-name="Rectángulo 313573" width="0.971" height="2.498" transform="translate(35.972 62.121)" fill="#e1e1e1"/>
        <rect id="Rectángulo_313574" data-name="Rectángulo 313574" width="2.498" height="0.971" transform="translate(66.415 61.058)" fill="#e1e1e1"/>
        <rect id="Rectángulo_313575" data-name="Rectángulo 313575" width="2.498" height="0.971" transform="translate(66.415 58.469)" fill="#e1e1e1"/>
        <rect id="Rectángulo_313576" data-name="Rectángulo 313576" width="2.498" height="0.971" transform="translate(66.415 55.881)" fill="#e1e1e1"/>
        <rect id="Rectángulo_313577" data-name="Rectángulo 313577" width="2.498" height="0.971" transform="translate(66.415 53.294)" fill="#e1e1e1"/>
        <rect id="Rectángulo_313578" data-name="Rectángulo 313578" width="2.498" height="0.971" transform="translate(66.415 50.706)" fill="#e1e1e1"/>
        <rect id="Rectángulo_313579" data-name="Rectángulo 313579" width="2.498" height="0.971" transform="translate(66.415 48.117)" fill="#e1e1e1"/>
        <rect id="Rectángulo_313580" data-name="Rectángulo 313580" width="2.498" height="0.971" transform="translate(66.415 45.494)" fill="#e1e1e1"/>
        <rect id="Rectángulo_313581" data-name="Rectángulo 313581" width="2.498" height="0.971" transform="translate(66.415 42.907)" fill="#e1e1e1"/>
        <rect id="Rectángulo_313582" data-name="Rectángulo 313582" width="2.498" height="0.971" transform="translate(66.415 40.319)" fill="#e1e1e1"/>
        <rect id="Rectángulo_313583" data-name="Rectángulo 313583" width="2.498" height="0.971" transform="translate(66.415 37.73)" fill="#e1e1e1"/>
        <rect id="Rectángulo_313584" data-name="Rectángulo 313584" width="2.498" height="0.971" transform="translate(66.415 35.144)" fill="#e1e1e1"/>
        <rect id="Rectángulo_313585" data-name="Rectángulo 313585" width="2.498" height="0.971" transform="translate(66.415 32.555)" fill="#e1e1e1"/>
        <rect id="Rectángulo_313586" data-name="Rectángulo 313586" width="2.498" height="0.971" transform="translate(32.694 61.058)" fill="#e1e1e1"/>
        <rect id="Rectángulo_313587" data-name="Rectángulo 313587" width="2.498" height="0.971" transform="translate(32.694 58.469)" fill="#e1e1e1"/>
        <rect id="Rectángulo_313588" data-name="Rectángulo 313588" width="2.498" height="0.971" transform="translate(32.694 55.881)" fill="#e1e1e1"/>
        <rect id="Rectángulo_313589" data-name="Rectángulo 313589" width="2.498" height="0.971" transform="translate(32.694 53.294)" fill="#e1e1e1"/>
        <rect id="Rectángulo_313590" data-name="Rectángulo 313590" width="2.498" height="0.971" transform="translate(32.694 50.706)" fill="#e1e1e1"/>
        <rect id="Rectángulo_313591" data-name="Rectángulo 313591" width="2.498" height="0.971" transform="translate(32.694 48.117)" fill="#e1e1e1"/>
        <rect id="Rectángulo_313592" data-name="Rectángulo 313592" width="2.498" height="0.971" transform="translate(32.694 45.494)" fill="#e1e1e1"/>
        <rect id="Rectángulo_313593" data-name="Rectángulo 313593" width="2.498" height="0.971" transform="translate(32.694 42.907)" fill="#e1e1e1"/>
        <rect id="Rectángulo_313594" data-name="Rectángulo 313594" width="2.498" height="0.971" transform="translate(32.694 40.319)" fill="#e1e1e1"/>
        <rect id="Rectángulo_313595" data-name="Rectángulo 313595" width="2.498" height="0.971" transform="translate(32.694 37.73)" fill="#e1e1e1"/>
        <rect id="Rectángulo_313596" data-name="Rectángulo 313596" width="2.498" height="0.971" transform="translate(32.694 35.144)" fill="#e1e1e1"/>
        <rect id="Rectángulo_313597" data-name="Rectángulo 313597" width="2.498" height="0.971" transform="translate(32.694 32.555)" fill="#e1e1e1"/>
        <path id="Trazado_234134" data-name="Trazado 234134" d="M25.673,17.327a2.588,2.588,0,1,0,2.589-2.589,2.589,2.589,0,0,0-2.589,2.589" transform="translate(32.728 18.788)" fill="#455a64"/>
        <path id="Trazado_234135" data-name="Trazado 234135" d="M16.721,20.939a52.624,52.624,0,0,0-.166,5.892,52.59,52.59,0,0,0,.166,5.892,52.591,52.591,0,0,0,.166-5.892,52.625,52.625,0,0,0-.166-5.892" transform="translate(21.104 26.693)" fill="#455a64"/>
        <path id="Trazado_234136" data-name="Trazado 234136" d="M16.665,19.752c-.091,0-.166.348-.166.78s.075.778.166.778.166-.348.166-.778-.075-.78-.166-.78" transform="translate(21.033 25.18)" fill="#455a64"/>
        <path id="Trazado_234137" data-name="Trazado 234137" d="M8.04,67.946A4.028,4.028,0,1,0,4.014,63.92,4.033,4.033,0,0,0,8.04,67.946m0-7.416A3.389,3.389,0,1,1,4.651,63.92,3.392,3.392,0,0,1,8.04,60.53" transform="translate(5.117 76.35)" fill="#263238"/>
        <rect id="Rectángulo_313598" data-name="Rectángulo 313598" width="45.903" height="45.901" transform="translate(201.437 150.349)" fill="#455a64"/>
        <path id="Trazado_234139" data-name="Trazado 234139" d="M123.91,70.831c-5.4-.444-10.8-.546-16.194-.569-5.4.02-10.8.123-16.194.569,5.4.446,10.8.548,16.194.569,5.4-.023,10.8-.125,16.194-.569" transform="translate(116.672 89.571)" fill="#fff"/>
        <path id="Trazado_234140" data-name="Trazado 234140" d="M114.834,73.492a52.4,52.4,0,0,0-8.1-.569,51.851,51.851,0,0,0-8.1.569,51.847,51.847,0,0,0,8.1.569,52.4,52.4,0,0,0,8.1-.569" transform="translate(125.747 92.963)" fill="#fff"/>
        <path id="Trazado_234141" data-name="Trazado 234141" d="M120.038,76.152c-4.247-.444-8.494-.546-12.741-.569-4.245.02-8.492.123-12.739.569,4.247.446,8.494.548,12.739.569,4.247-.023,8.494-.125,12.741-.569" transform="translate(120.543 96.354)" fill="#fff"/>
        <path id="Trazado_234142" data-name="Trazado 234142" d="M123.91,78.812c-5.4-.444-10.8-.546-16.194-.569-5.4.02-10.8.123-16.194.569,5.4.446,10.8.548,16.194.569,5.4-.023,10.8-.125,16.194-.569" transform="translate(116.672 99.745)" fill="#fff"/>
        <path id="Trazado_234143" data-name="Trazado 234143" d="M119.721,81.473a123.372,123.372,0,0,0-12.457-.569,122.054,122.054,0,0,0-12.457.569,122.054,122.054,0,0,0,12.457.569,123.372,123.372,0,0,0,12.457-.569" transform="translate(120.861 103.137)" fill="#fff"/>
        <rect id="Rectángulo_313599" data-name="Rectángulo 313599" width="45.903" height="45.901" transform="translate(212.476 85.642)" fill="#ffc727"/>
        <path id="Trazado_234144" data-name="Trazado 234144" d="M128.763,42.386c-5.4-.444-10.8-.546-16.194-.569-5.4.02-10.8.123-16.194.569,5.4.446,10.8.548,16.194.569,5.4-.023,10.8-.125,16.194-.569" transform="translate(122.859 53.309)" fill="#fff"/>
        <path id="Trazado_234145" data-name="Trazado 234145" d="M119.687,45.046a52.381,52.381,0,0,0-8.1-.569,51.85,51.85,0,0,0-8.1.569,51.851,51.851,0,0,0,8.1.569,52.38,52.38,0,0,0,8.1-.569" transform="translate(131.934 56.7)" fill="#fff"/>
        <path id="Trazado_234146" data-name="Trazado 234146" d="M124.891,47.706c-4.247-.441-8.494-.544-12.741-.569-4.245.02-8.492.123-12.739.569a126.3,126.3,0,0,0,12.739.569c4.247-.02,8.494-.123,12.741-.569" transform="translate(126.73 60.091)" fill="#fff"/>
        <path id="Trazado_234147" data-name="Trazado 234147" d="M128.763,50.367c-5.4-.444-10.8-.546-16.194-.569-5.4.02-10.8.123-16.194.569,5.4.446,10.8.548,16.194.569,5.4-.023,10.8-.125,16.194-.569" transform="translate(122.859 63.483)" fill="#fff"/>
        <path id="Trazado_234148" data-name="Trazado 234148" d="M124.574,53.027a123.369,123.369,0,0,0-12.457-.569,122.082,122.082,0,0,0-12.457.569,122.082,122.082,0,0,0,12.457.569,123.369,123.369,0,0,0,12.457-.569" transform="translate(127.048 66.874)" fill="#fff"/>
        <path id="Trazado_234149" data-name="Trazado 234149" d="M153.549,127.572H107.644a24.5,24.5,0,0,1-2.275-9.136V81.671h45.906v37.241c0,3.724,2.275,8.66,2.275,8.66" transform="translate(134.325 104.115)" fill="#ffc727"/>
        <path id="Trazado_234150" data-name="Trazado 234150" d="M141.229,86.758c-5.4-.444-10.8-.546-16.194-.569-5.4.02-10.8.123-16.194.569,5.4.446,10.8.548,16.194.569,5.4-.023,10.8-.125,16.194-.569" transform="translate(138.75 109.875)" fill="#fff"/>
        <path id="Trazado_234151" data-name="Trazado 234151" d="M139.4,89.419c-4.854-.444-9.711-.546-14.566-.569-4.854.02-9.711.123-14.566.569,4.854.446,9.711.548,14.566.569,4.854-.023,9.711-.125,14.566-.569" transform="translate(140.576 113.267)" fill="#fff"/>
        <path id="Trazado_234152" data-name="Trazado 234152" d="M137.357,92.079c-4.247-.444-8.494-.546-12.741-.569-4.245.02-8.492.123-12.739.569,4.247.446,8.494.548,12.739.569,4.247-.023,8.494-.125,12.741-.569" transform="translate(142.622 116.658)" fill="#fff"/>
        <path id="Trazado_234153" data-name="Trazado 234153" d="M141.229,94.739c-5.4-.444-10.8-.546-16.194-.569-5.4.02-10.8.123-16.194.569,5.4.446,10.8.548,16.194.569,5.4-.023,10.8-.125,16.194-.569" transform="translate(138.75 120.049)" fill="#fff"/>
        <path id="Trazado_234154" data-name="Trazado 234154" d="M117.255,70.939h36.5a64.047,64.047,0,0,0,.785-9.136V25.038h-45.9V62.279c0,3.724,8.617,8.66,8.617,8.66" transform="translate(138.493 31.919)" fill="#455a64"/>
        <path id="Trazado_234155" data-name="Trazado 234155" d="M108.639,41.463c0,3.617,8.1,8.349,8.6,8.644-1.342-.91-1.115-8.1-1.115-8.1s-7.348-.955-7.484-.546" transform="translate(138.494 52.728)" fill="#37474f"/>
        <path id="Trazado_234156" data-name="Trazado 234156" d="M144,30.125c-5.4-.444-10.8-.546-16.194-.569-5.4.02-10.8.123-16.194.569,5.4.446,10.8.548,16.194.569,5.4-.023,10.8-.125,16.194-.569" transform="translate(142.279 37.678)" fill="#fff"/>
        <path id="Trazado_234157" data-name="Trazado 234157" d="M140.125,32.785c-4.247-.444-8.494-.546-12.741-.569-4.245.02-8.492.123-12.739.569,4.247.446,8.494.548,12.739.569,4.247-.023,8.494-.125,12.741-.569" transform="translate(146.151 41.069)" fill="#fff"/>
        <path id="Trazado_234158" data-name="Trazado 234158" d="M140.125,35.445c-4.247-.441-8.494-.544-12.741-.569-4.245.02-8.492.123-12.739.569a126.3,126.3,0,0,0,12.739.569c4.247-.02,8.494-.123,12.741-.569" transform="translate(146.151 44.46)" fill="#fff"/>
        <path id="Trazado_234159" data-name="Trazado 234159" d="M74.174,22.629c15.78,2.036,31.133,8.244,43.224,18.506A56.975,56.975,0,0,1,132.02,59.5a42.826,42.826,0,0,1,3.644,11.131,39.234,39.234,0,0,1,.218,11.663,35.728,35.728,0,0,1-9.7,20.742c-5.421,5.591-12.589,9.274-20.066,11.572a93.386,93.386,0,0,1-23.294,3.653,149.562,149.562,0,0,1-23.676-.953,77.061,77.061,0,0,1-22.589-6.4A60.94,60.94,0,0,1,17.595,97.266,48.792,48.792,0,0,1,6.148,77.081C4.16,69.608,4.089,61.36,7.417,54.317,10.709,47.254,16.69,41.676,23.4,37.64A72.343,72.343,0,0,1,45.45,29.23a90.838,90.838,0,0,1,47.075,2.475,91.331,91.331,0,0,0-47.289-3.519A72.242,72.242,0,0,0,22.69,36.439C15.764,40.489,9.462,46.164,5.88,53.6A30.219,30.219,0,0,0,2.945,65.459,38.715,38.715,0,0,0,4.262,77.586,50.834,50.834,0,0,0,16.08,98.662a63.035,63.035,0,0,0,19.554,14.211,78.978,78.978,0,0,0,23.217,6.686,151.984,151.984,0,0,0,24.065.864,95.494,95.494,0,0,0,23.813-3.847c7.691-2.4,15.164-6.256,20.862-12.184a36.937,36.937,0,0,0,10-21.89,40.9,40.9,0,0,0-.387-12.15,44.221,44.221,0,0,0-3.917-11.476A57.671,57.671,0,0,0,118.1,40.3C105.582,30.161,90,24.308,74.174,22.629" transform="translate(3.677 28.848)" fill="#263238"/>
        <path id="Trazado_234160" data-name="Trazado 234160" d="M159.243,54.693a45.318,45.318,0,0,0-15.021-15.328,32.973,32.973,0,0,0-10.1-4.031,35.418,35.418,0,0,0-10.912-.446c-7.229.828-14.493,4.338-18.729,10.607a18.106,18.106,0,0,0-2.434,5.084,11.1,11.1,0,0,0-.259,5.8c.808,4.167,6.324,6.772,10.061,3.954a8.815,8.815,0,0,0,2.919-5.268,18.83,18.83,0,0,0,.207-5.708,28.3,28.3,0,0,0-3.455-10.621A32.15,32.15,0,0,0,94.909,24.42c-6.852-2.707-14.745-3.351-21.763-.892A37.232,37.232,0,0,0,55.812,36.349l.328.271A38.638,38.638,0,0,1,73.66,25.178a29.6,29.6,0,0,1,10.3-1.053,33.3,33.3,0,0,1,10.048,2.53,31.219,31.219,0,0,1,15.321,13.31,26.813,26.813,0,0,1,3.323,9.661,16.628,16.628,0,0,1-.073,5.009,6.747,6.747,0,0,1-2.045,4.031,4.064,4.064,0,0,1-4.083.432,4.42,4.42,0,0,1-2.809-3.2c-.8-3.085.457-6.617,2.284-9.438,3.783-5.821,10.539-9.295,17.452-10.2a35.818,35.818,0,0,1,10.516.218,31.85,31.85,0,0,1,9.9,3.633,44.767,44.767,0,0,1,15.237,14.709Z" transform="translate(71.15 28.039)" fill="#263238"/>
        <path id="Trazado_234161" data-name="Trazado 234161" d="M68.366,33.276,57.419,34.3,57.2,23.3,55.24,36.738Z" transform="translate(70.421 29.707)" fill="#263238"/>
        <path id="Trazado_234162" data-name="Trazado 234162" d="M16.58,73.746a111.259,111.259,0,0,0-3.892,30.512,81.058,81.058,0,0,0,5.539,29.968A59.724,59.724,0,0,0,25.588,147.5a69.784,69.784,0,0,0,10.3,11.081,71.247,71.247,0,0,0,12.536,8.6c2.17,1.351,4.543,2.323,6.838,3.462,2.339,1.046,4.743,1.95,7.125,2.948l-.173.555a72.637,72.637,0,0,1-27.93-13.658,59.825,59.825,0,0,1-17.866-25.551,82.464,82.464,0,0,1-4.941-30.68,111.95,111.95,0,0,1,4.87-30.585Z" transform="translate(14.61 93.914)" fill="#263238"/>
        <path id="Trazado_234163" data-name="Trazado 234163" d="M28.548,128.542l11.1-5-5.8-10.705L43.082,124.7Z" transform="translate(36.394 143.843)" fill="#263238"/>
        <path id="Trazado_234164" data-name="Trazado 234164" d="M149.269,227.774l48.645,45.387s55.18-44.757,54.928-65.685-45.692-76.97-72.052-97.207-31.267-4.286-21.686,19.165,31.925,65.621,31.217,66.6-41.051,31.74-41.051,31.74" transform="translate(190.29 128.779)" fill="#ffc727"/>
        <path id="Trazado_234165" data-name="Trazado 234165" d="M172.076,178.326c-2.939-3.717-5.792-7.5-8.644-11.283-1.369-1.815-2.757-3.621-4.067-5.482-1.41-2-3.019-3.945-4.281-6.04a.133.133,0,0,1,.207-.166c1.74,1.717,3.244,3.738,4.864,5.571,1.5,1.706,2.93,3.483,4.374,5.237,3.01,3.66,6.017,7.318,8.94,11.046,5.858,7.468,11.481,15.077,17.029,22.775a.178.178,0,0,1-.277.223c-6.183-7.193-12.259-14.44-18.144-21.881" transform="translate(197.671 197.989)" fill="#263238"/>
        <path id="Trazado_234166" data-name="Trazado 234166" d="M148.663,138.437c7.159,1.2,20.039-11.36,24.243-20.4.284-.623-1.046-6.87-2.307-14.538-.748-4.657-1.47-9.859-1.786-14.654l-29.591,9.286s3.617,9.857,4.117,18.219a10.844,10.844,0,0,1-.077,1.981c0,.091-.025.2-.023.33-.364,3.776-1.495,18.612,5.423,19.779" transform="translate(177.483 113.257)" fill="#d3766a"/>
        <path id="Trazado_234167" data-name="Trazado 234167" d="M143.266,118.167c0,.086-.02.214-.02.341a19.412,19.412,0,0,0,3.11-.041c17.655-1.874,20.978-22,21.6-29.5l-28.733,9.011s3.622,9.864,4.131,18.212a11.848,11.848,0,0,1-.084,1.979" transform="translate(177.478 113.413)" fill="#263238"/>
        <path id="Trazado_234168" data-name="Trazado 234168" d="M186.808,86.615c1.818,11.024-7.857,40.876-16.3,46.693-12.241,8.433-30.248,6.993-36.9-7.257-6.447-13.815,6.852-52.5,16.1-57.571,13.612-7.48,34.42,1.852,37.107,18.135" transform="translate(168.151 83.964)" fill="#d3766a"/>
        <path id="Trazado_234169" data-name="Trazado 234169" d="M141.823,81.3c.039-.073.13.143.1.225-.678,2-1.119,4.413.507,5.639.05.039.014.139-.052.109-2.136-.994-1.52-4.186-.555-5.974" transform="translate(179.669 103.617)" fill="#263238"/>
        <path id="Trazado_234170" data-name="Trazado 234170" d="M144.132,80.623c3.328.742,1.6,7.343-1.485,6.654-3.035-.676-1.3-7.277,1.485-6.654" transform="translate(179.808 102.726)" fill="#263238"/>
        <path id="Trazado_234171" data-name="Trazado 234171" d="M138.326,79.965c0-.082-.184.055-.2.139-.471,2.061-1.356,4.345-3.385,4.538-.064.007-.084.111-.011.118,2.339.273,3.485-2.766,3.6-4.8" transform="translate(171.69 101.908)" fill="#263238"/>
        <path id="Trazado_234172" data-name="Trazado 234172" d="M137.794,78.872c-3.223-1.11-5.209,5.419-2.222,6.449,2.939,1.012,4.925-5.514,2.222-6.449" transform="translate(170.955 100.385)" fill="#263238"/>
        <path id="Trazado_234173" data-name="Trazado 234173" d="M146.388,82.677a26.755,26.755,0,0,1-2.32-1.57c-.885-.614-1.652-1.01-2.061-2.052a1.442,1.442,0,0,1,.667-1.631,3.575,3.575,0,0,1,3.583.555,5.253,5.253,0,0,1,2.352,2.969,1.538,1.538,0,0,1-2.22,1.729" transform="translate(180.948 98.337)" fill="#263238"/>
        <path id="Trazado_234174" data-name="Trazado 234174" d="M135.771,79.183a26.179,26.179,0,0,0,2.8.007,4.524,4.524,0,0,0,2.857-.539,1.439,1.439,0,0,0,.366-1.722,3.577,3.577,0,0,0-3.276-1.554,5.256,5.256,0,0,0-3.615,1.128,1.54,1.54,0,0,0,.864,2.68" transform="translate(171.297 96.084)" fill="#263238"/>
        <path id="Trazado_234175" data-name="Trazado 234175" d="M142.5,89.9a3.217,3.217,0,0,1-2.036.748,5.562,5.562,0,0,1-2.061-1.09.074.074,0,0,0-.116.082,2.845,2.845,0,0,0,2.3,1.79,2.251,2.251,0,0,0,2.081-1.388c.061-.109-.082-.2-.173-.143" transform="translate(176.285 114.156)" fill="#263238"/>
        <path id="Trazado_234176" data-name="Trazado 234176" d="M146.386,100.515a7.2,7.2,0,0,1-5.46,1.879,8.934,8.934,0,0,1-2.534-.541,2.457,2.457,0,0,1-.464-.18c-.143-.057-.273-.109-.43-.187a.522.522,0,0,1-.289-.564l0-.016a.9.9,0,0,1,.073-.2l0-.016.05-.18c.371-1.586,1.149-3.938,1.149-3.938-.651.137-3.929.687-3.667-.123,2.191-6.7,4.627-14.156,8.221-20.364a.2.2,0,0,1,.362.15c-1.852,6.526-4.836,12.68-6.8,19.206a12.562,12.562,0,0,1,3.546-.136c.209.123-1.588,4.522-1.7,5.248a.248.248,0,0,0-.007.077c2.557,1.033,4.761.755,7.794-.348.184-.077.309.1.143.234" transform="translate(171.855 96.861)" fill="#263238"/>
        <path id="Trazado_234177" data-name="Trazado 234177" d="M136.885,87.582a8.538,8.538,0,0,0,2.632,3.43,3.856,3.856,0,0,0,2.225.73c1.742,0,2.177-1.488,2.211-2.848a9.176,9.176,0,0,0-.216-2.154,11.062,11.062,0,0,1-6.852.842" transform="translate(174.502 110.577)" fill="#263238"/>
        <path id="Trazado_234178" data-name="Trazado 234178" d="M138.043,89.837a3.843,3.843,0,0,0,2.22.732c1.745,0,2.179-1.49,2.216-2.85-1.8-.278-3.842.455-4.436,2.118" transform="translate(175.979 111.752)" fill="#ff97b8"/>
        <path id="Trazado_234179" data-name="Trazado 234179" d="M179.573,115.23c-7.589-1.731-5.971-15.844-5.971-15.844s-12.557-5.059-12.25-15.3c0,0-14.145,5.123-23.083-.589s-4.427-16.256-2.823-18.367,6.019,3.469,6.019,3.469,2.013-6.087,3.822-6.349,2.766,3.913,2.766,3.913,13.478-1.392,24.779,1.483,14.359,15.6,14.359,15.6S192.983,85.905,194,90.6s-9.591,25.728-14.425,24.625" transform="translate(169.397 79.344)" fill="#263238"/>
        <path id="Trazado_234180" data-name="Trazado 234180" d="M146.183,71.03a16.543,16.543,0,0,0-.118,6.09,10.994,10.994,0,0,0,2.586,5.275,16.051,16.051,0,0,0,4.907,3.394c.928.407,1.9.728,2.866,1.081.99.278,1.99.525,2.991.837-1.033-.086-2.066-.239-3.11-.357-1.012-.264-2.038-.507-3.039-.844a14.167,14.167,0,0,1-5.364-3.435,10.534,10.534,0,0,1-2.6-5.835,12.87,12.87,0,0,1,.88-6.206" transform="translate(185.145 90.55)" fill="#263238"/>
        <path id="Trazado_234181" data-name="Trazado 234181" d="M173.215,82.638a19.142,19.142,0,0,0-2.552-9.556,15.24,15.24,0,0,0-7.293-6.319,17.424,17.424,0,0,0-2.3-.887l-2.411-.589c-1.626-.314-3.3-.391-4.959-.56-1.67.032-3.351-.043-5.027.073-1.674.143-3.351.318-5.043.432,1.654-.339,3.326-.614,5-.924,1.681-.218,3.387-.232,5.089-.357a25.9,25.9,0,0,1,10.064,1.89,15.628,15.628,0,0,1,7.559,6.863,17.188,17.188,0,0,1,1.879,9.934" transform="translate(183.097 81.524)" fill="#263238"/>
        <path id="Trazado_234182" data-name="Trazado 234182" d="M147.291,97.774a9.882,9.882,0,1,0-2.368-.655,9.9,9.9,0,0,0,2.368.655m2.666-18.249a8.56,8.56,0,1,1-9.14,5.182,8.6,8.6,0,0,1,9.14-5.182" transform="translate(176.994 99.582)" fill="#ffc727"/>
        <path id="Trazado_234183" data-name="Trazado 234183" d="M136.094,95.006c3.74.546,7.693-2.791,9.029-7.771a11.776,11.776,0,0,0-.227-7.211,6.153,6.153,0,0,0-10.177-2.73,11.784,11.784,0,0,0-3.8,6.131c-1.41,5.262.628,10.4,4.545,11.449a6.042,6.042,0,0,0,.635.132m3.649-18.044a4.594,4.594,0,0,1,.491.1,5.27,5.27,0,0,1,3.428,3.433,10.494,10.494,0,0,1,.187,6.4c-1.224,4.559-4.823,7.573-8.048,6.7s-4.832-5.271-3.612-9.829a10.483,10.483,0,0,1,3.362-5.448,5.44,5.44,0,0,1,4.193-1.358" transform="translate(166.321 96.365)" fill="#ffc727"/>
        <path id="Trazado_234184" data-name="Trazado 234184" d="M142.515,83.377l1.083-.758c-1.121-1.6-4.031-4.136-7.029-2.266l.7,1.119c2.684-1.679,5.143,1.758,5.248,1.9" transform="translate(174.1 101.594)" fill="#ffc727"/>
        <path id="Trazado_234185" data-name="Trazado 234185" d="M168.972,93.788l1.29-.282c-.132-.6-1.363-5.915-4.088-7.141-2.55-1.14-18.105-3.965-18.849-4.092l-.221,1.3c5.027.848,16.561,3.107,18.526,3.992,1.8.81,3.021,4.763,3.342,6.219" transform="translate(187.53 104.882)" fill="#ffc727"/>
        <path id="Trazado_234186" data-name="Trazado 234186" d="M153.412,89.114s8.419-8.8,12.516-5.655-3.292,16.656-8.849,17.8a5.408,5.408,0,0,1-6.72-3.976Z" transform="translate(191.679 105.528)" fill="#d3766a"/>
        <path id="Trazado_234187" data-name="Trazado 234187" d="M162.11,84.763c.084,0,.084.127.007.146-3.917.926-6.383,4.045-8.287,7.377,1.306-1.194,2.914-1.713,4.541-.127.084.084-.03.221-.13.182a3.328,3.328,0,0,0-3.8.591,16.184,16.184,0,0,0-2.184,2.659c-.223.3-.789.034-.607-.325l.046-.08c.63-4.713,5.293-10.728,10.412-10.423" transform="translate(193.283 108.043)" fill="#263238"/>
        <path id="Trazado_234188" data-name="Trazado 234188" d="M265.787,278.392c-.3.375-141.8-.166-141.8-.166-1.859-1.909,11.395-139.373,37-166.616,6.3-6.706,27.969-14.258,34.855-9.675,17.85,11.884,28.169,37.728,34.859,52.769,4.95,11.144,11.144,30.237,16.8,49.837,9.365,32.289,19.359,72.5,18.287,73.852" transform="translate(157.835 128.16)" fill="#ffc727"/>
        <path id="Trazado_234189" data-name="Trazado 234189" d="M169.988,121.356c5.435,12.482,10.566,25.059,14.9,37.969q6.47,19.276,11.294,39.022c1.854,7.566,3.478,15.143,4.729,22.83a.178.178,0,0,1-.346.086c-3.633-13.051-7.056-26.16-10.885-39.159-3.851-13.078-8.119-26.022-12.45-38.945-2.432-7.254-4.943-14.488-7.637-21.649-.084-.225.3-.375.394-.155" transform="translate(216.186 154.567)" fill="#263238"/>
        <path id="Trazado_234190" data-name="Trazado 234190" d="M255.836,132.722c-21.913,28.945-67.607,80.519-93.429,80.788C135.03,213.8,79.7,179.5,64.827,169.385c-6.313-4.293,28.7-48.915,36.354-46.076,7.523,2.791,55.385,31.859,61.4,32.873s48.194-29.8,75.551-45.913c32.148-18.933,35.5-1.062,17.7,22.452" transform="translate(81.677 130.442)" fill="#d3766a"/>
        <path id="Trazado_234191" data-name="Trazado 234191" d="M147.725,144.121c-2.985-3.335-17.307-27.739-23.769-33.123S89.091,95.86,81.892,95.221s-32.814,6.631-37.457,11.124c-3.719,3.6,2.6,12.291,17.175,11.167,13.628-1.049,16.836-1.97,20.749-1.324,3.995.657,15.571,10.162,14.5,15.917-.635,3.389-8.6,9.172-14.725,8.055s-9.8-7.157-17.37-10.728-16.417-2.025-17.161,1.046c-1.231,5.082,2.873,5.573,11.092,14.34,5.284,5.639,9.04,16.774,20.132,25.976,5.573,4.622,23.59,14.952,23.59,14.952Z" transform="translate(55.313 121.338)" fill="#d3766a"/>
        <path id="Trazado_234192" data-name="Trazado 234192" d="M88.733,150.173,42.9,152.766a24.51,24.51,0,0,1-2.789-8.992c-.519-9.177-2.077-36.709-2.077-36.709l45.831-2.593s1.576,27.887,2.1,37.184c.209,3.717,2.759,8.517,2.759,8.517" transform="translate(48.493 133.182)" fill="#37474f"/>
        <path id="Trazado_234193" data-name="Trazado 234193" d="M73.964,109.233c-5.416-.023-10.805.291-16.19.687-5.38.437-10.753.958-16.1,1.82,5.416.027,10.805-.289,16.19-.687,5.38-.441,10.753-.96,16.1-1.82" transform="translate(53.125 139.249)" fill="#fff"/>
        <path id="Trazado_234194" data-name="Trazado 234194" d="M72.351,111.89c-4.875-.066-9.725.207-14.566.562-4.841.4-9.675.874-14.479,1.692,4.877.068,9.725-.2,14.566-.56,4.839-.4,9.67-.878,14.479-1.695" transform="translate(55.207 142.625)" fill="#fff"/>
        <path id="Trazado_234195" data-name="Trazado 234195" d="M70.516,114.553c-4.268-.114-8.51.114-12.746.419-4.233.35-8.46.78-12.659,1.554a127.288,127.288,0,0,0,12.748-.421c4.231-.35,8.458-.78,12.657-1.551" transform="translate(57.508 145.995)" fill="#fff"/>
        <path id="Trazado_234196" data-name="Trazado 234196" d="M74.581,117.19c-5.416-.023-10.805.291-16.19.687-5.38.437-10.753.958-16.1,1.82,5.416.027,10.805-.289,16.19-.687,5.38-.441,10.753-.96,16.1-1.82" transform="translate(53.912 149.393)" fill="#fff"/>
        <path id="Trazado_234197" data-name="Trazado 234197" d="M121.013,113.731c-7.445-7.075-24.927-18.822-39.8-20.648-10.05-1.235-37.794,22-35.371,27.8s7.819,4.484,15.567,1.547c2.825-1.071,16.836-10.425,20.259-7.85,4.925,3.7,13.66,18.365,13.66,18.365Z" transform="translate(58.256 118.602)" fill="#d3766a"/>
        <path id="Trazado_234198" data-name="Trazado 234198" d="M45.851,114.174c2.293-7.432,10.009-13.012,17.862-17.857.123-.075.248.107.125.182-2,1.238-14.309,11.094-17.866,17.755-.041.075-.143,0-.121-.08" transform="translate(58.447 122.763)" fill="#263238"/>
        <path id="Trazado_234199" data-name="Trazado 234199" d="M116.747,113.728c-7.445-7.075-24.927-18.822-39.8-20.648-10.05-1.235-30.13,24.657-27.707,30.462s10.291,4.356,18.112-.755c2.527-1.652,10.182-10.5,13.608-7.921,4.923,3.7,16.979,12.93,16.979,12.93Z" transform="translate(62.521 118.605)" fill="#d3766a"/>
        <path id="Trazado_234200" data-name="Trazado 234200" d="M54.162,114.621c3.289-1.128,6.47-4.038,8.947-6.415,2.159-2.075,4.372-4.627,7.273-5.642a6.25,6.25,0,0,1,3.974-.2,12.349,12.349,0,0,1,3.571,2.279c1.283,1,2.507,2.066,3.712,3.153s1.622,1.485,2.812,2.6c.5.466.13.755-.423.262a43.651,43.651,0,0,0-6.549-4.738,14.276,14.276,0,0,0-3.715-2.009,5.384,5.384,0,0,0-4.117.742c-2.589,1.542-4.579,3.981-7.025,5.739-2.427,1.742-5.435,3.96-8.41,4.479-.146.025-.184-.2-.05-.248" transform="translate(68.941 130.192)" fill="#263238"/>
        <path id="Trazado_234201" data-name="Trazado 234201" d="M49.364,117.317c1.187-3.446,3.633-6.579,5.971-9.322a72.7,72.7,0,0,1,8.142-8.023c1.49-1.274,3.012-2.514,4.568-3.7,1.49-1.135,2.969-2.5,4.777-3.053,4.945-1.5,10.637,1.194,12.841,1.911.134.043.1.259-.043.216-1.818-.56-7.687-2.448-10.787-1.652a13.709,13.709,0,0,0-5.032,2.9c-1.324,1.058-2.65,2.118-3.947,3.21-5.284,4.45-10.594,9.586-13.974,15.683-1.872,3.38-2.823,7.441-.325,10.758.089.116-.075.241-.18.162-2.718-2.041-3.039-6.1-2.011-9.086" transform="translate(62.241 118.265)" fill="#263238"/>
        <path id="Trazado_234202" data-name="Trazado 234202" d="M107.957,127.007C105,123.5,97.575,107.837,93.134,103.574S69.811,85.441,63.214,87.887c-8.289,3.073,4.42,16.229,10.462,21.447s7.962,16.158,7.962,16.158Z" transform="translate(77.113 111.673)" fill="#d3766a"/>
        <path id="Trazado_234203" data-name="Trazado 234203" d="M62.564,93.241c2.086,1.608,4.045,3.48,5.958,5.287a51.422,51.422,0,0,1,5.373,5.325c1.551,1.977,4.24,8.922,4.454,10.132.994,5.582,2.268,17.518,5,28.749a54.616,54.616,0,0,0,4.727,12.2c.521.969.56,1.822-.346.471-8.56-12.764-10.1-37.236-10.994-41.131a34.025,34.025,0,0,0-4.272-9.638c-3.1-3.97-7.013-7.227-10.152-11.167-.127-.159.107-.341.255-.227" transform="translate(79.386 118.819)" fill="#263238"/>
        <path id="Trazado_234204" data-name="Trazado 234204" d="M111.7,134.508,72.117,186.686S133.91,223.54,160.96,215.63s74.009-61.324,89.22-86.286,4.372-35.728-21.163-20.4-73.2,44.85-74.948,45.387S111.7,134.508,111.7,134.508" transform="translate(91.935 129.847)" fill="#ffc727"/>
        <path id="Trazado_234205" data-name="Trazado 234205" d="M95.3,143.067c2.75-3.858,5.589-7.652,8.428-11.447,1.363-1.82,2.709-3.658,4.131-5.435,1.529-1.911,2.948-4,4.606-5.794a.134.134,0,0,1,.218.155c-1.165,2.147-2.684,4.156-4,6.222-1.217,1.92-2.525,3.785-3.81,5.66-2.675,3.91-5.35,7.819-8.117,11.665-5.539,7.707-11.281,15.228-17.129,22.7a.178.178,0,0,1-.291-.2c5.187-7.941,10.453-15.8,15.96-23.522" transform="translate(101.108 153.411)" fill="#263238"/>
        <path id="Trazado_234206" data-name="Trazado 234206" d="M100.9,188.809c6.629,2.552,14.138,2.618,21.053,1.222,7.823-1.579,14.331-5.721,20.532-10.58a326.882,326.882,0,0,0,38.064-35.037c6.681-7.207,13.187-14.627,19.252-22.361a.143.143,0,0,1,.234.164q-5.982,8.571-12.561,16.638c.366-.321.735-.641,1.087-.967,2.186-2.02,4.422-3.981,6.624-5.978.314-.284.678.2.407.494a82.615,82.615,0,0,1-6.372,6.283c-1.672,1.454-3.385,3.032-5.223,4.345a257.081,257.081,0,0,1-18.792,19.893c-6.52,6.194-13.3,12.141-20.387,17.687-6.306,4.936-12.86,9.39-20.821,11.06-7.921,1.661-15.755.428-23.219-2.527a.178.178,0,0,1,.121-.334" transform="translate(128.337 155.522)" fill="#263238"/>
        <path id="Trazado_234138" data-name="Trazado 234138" d="M291.861,179.413c-57.446-1.531-118.145-1.5-175.661,0,57.535,1.495,118.192,1.531,175.661,0" transform="translate(148.133 227.27)" fill="#263238"/>
      </g>
    </g>
  </g>
</svg>
