<svg id="Grupo_237346" data-name="Grupo 237346" xmlns="http://www.w3.org/2000/svg" xmlns:xlink="http://www.w3.org/1999/xlink" width="75.642" height="75.588" viewBox="0 0 75.642 75.588">
  <defs>
    <clipPath id="clip-path">
      <rect id="Rectángulo_313109" data-name="Rectángulo 313109" width="75.642" height="75.589" fill="none"/>
    </clipPath>
  </defs>
  <g id="Grupo_237345" data-name="Grupo 237345" clip-path="url(#clip-path)">
    <path id="Trazado_232360" data-name="Trazado 232360" d="M26.557,369.244c2.028.278,4.054.568,6.085.827a13.961,13.961,0,0,0,1.531.033,3.374,3.374,0,0,0,1.63.119c1.837.007,3.682.132,5.507-.009q3.2-.246,6.381-.713a41.613,41.613,0,0,0,7.919-1.993,16.565,16.565,0,0,0,5.284-2.875,7.287,7.287,0,0,0,1.579-2.021,2.886,2.886,0,0,1,2.648-1.559c2.945-.016,5.891-.022,8.836,0,1.5.012,1.91.464,1.91,1.952q0,6.607,0,13.214c0,1.365-.435,1.814-1.766,1.814H2.031c-1.3,0-1.751-.455-1.751-1.746q0-6.81,0-13.62c0-1.054.337-1.518,1.4-1.553,2.321-.077,4.645-.083,6.968-.055a10.832,10.832,0,0,1,3.45.218,2.21,2.21,0,0,1,1.367,1.046c1.081,2.191,2.989,3.377,5.074,4.39a22.757,22.757,0,0,0,5.064,1.76l.185.116c.842.042,1.585.567,2.448.5.051.165.179.167.317.149m-9.962,2.3c-1.456,0-2.912,0-4.368,0-.938,0-1.532.5-1.549,1.278a1.5,1.5,0,0,0,1.544,1.314q4.368.006,8.736,0a1.5,1.5,0,0,0,1.525-1.335,1.514,1.514,0,0,0-1.52-1.257c-1.456-.006-2.912,0-4.368,0m-10.409.012v-.01c-.241,0-.484-.012-.724,0a1.244,1.244,0,0,0-1.278,1.187,1.17,1.17,0,0,0,1.005,1.336,4.686,4.686,0,0,0,1.917.014,1.165,1.165,0,0,0,.957-1.305,1.206,1.206,0,0,0-1.074-1.216,4.355,4.355,0,0,0-.8-.008" transform="translate(-0.233 -302.446)" fill="#e4c05c"/>
    <path id="Trazado_232361" data-name="Trazado 232361" d="M191.589.027h2.6c0,1.235-.01,2.471,0,3.706.007.9.479,1.437,1.256,1.459.817.023,1.328-.523,1.335-1.46.01-1.235,0-2.471,0-3.706l2.6,0c0,1.216-.018,2.433,0,3.648.015.954.538,1.529,1.322,1.516.81-.013,1.268-.557,1.271-1.519,0-1.216,0-2.432,0-3.648l2.605,0c0,1.24-.022,2.48,0,3.719a1.42,1.42,0,0,0,1.334,1.444c.779-.019,1.249-.556,1.252-1.449,0-1.24,0-2.479,0-3.719h2.745c0,1.293-.01,2.585,0,3.878a1.224,1.224,0,1,0,2.445,0c.012-1.293,0-2.585,0-3.878h2.743q0,1.9,0,3.807a1.226,1.226,0,0,0,.208.84,1.181,1.181,0,0,0,1.352.488,1.438,1.438,0,0,0,1.03-1.4c.019-1.242,0-2.484,0-3.726l2.6,0c0,1.263,0,2.527,0,3.79a1.159,1.159,0,0,0,.311.957,1.338,1.338,0,0,0,1.48.328,1.31,1.31,0,0,0,.8-1.363c.019-1.236,0-2.473,0-3.709.81-.009,1.62-.04,2.429-.021a1.4,1.4,0,0,1,1.445,1.422c.022,2.945.027,5.89,0,8.834-.009.988-.538,1.45-1.546,1.456-1.621.009-3.241-.006-4.862-.011-.3-.009-.593-.025-.89-.025q-13.446,0-26.892,0c-.35,0-.7.021-1.052.033-1.649,0-3.3.016-4.947,0-1.1-.009-1.483-.4-1.487-1.506q-.013-4.379,0-8.759c0-1.006.455-1.443,1.478-1.45.81-.005,1.621.014,2.431.023,0,1.235-.01,2.471,0,3.706.007.906.476,1.438,1.254,1.46.816.023,1.329-.524,1.337-1.459.01-1.235,0-2.471,0-3.706" transform="translate(-155.051 0)" fill="#2980ba"/>
    <path id="Trazado_232362" data-name="Trazado 232362" d="M1.177,1.447A2.55,2.55,0,0,1,4.534.231,2.585,2.585,0,0,1,5.8,3.449a20.786,20.786,0,0,0-.689,2.714,5.436,5.436,0,0,0,.516,2.89A7.3,7.3,0,0,0,9.055,12.74a11.281,11.281,0,0,1,4.653,4.58,12.632,12.632,0,0,1,1.6,6.869,14.365,14.365,0,0,1-.986,4.035l-.123.159a5.349,5.349,0,0,0-.528,2.277,1.188,1.188,0,0,0,.018,1.292,2.985,2.985,0,0,0,.341,1.635l.125.175.05.313c-.019.1.037.13.121.138a7.491,7.491,0,0,0,3.112,3.153,11.762,11.762,0,0,1,6.094,8.264c.065.3.3.59.157.93-.186.231-.21.449.052.644q0,.812-.007,1.625c-.223.114-.167.311-.148.5q.007.156.014.313a10.1,10.1,0,0,1-.842,3.244l-.129.156a2.38,2.38,0,0,1-1.977,1.473.391.391,0,0,0-.656,0,2.7,2.7,0,0,1-2.241-2.928c.224-.044.377-.115.12-.332a9.211,9.211,0,0,0,.675-3.591,6.333,6.333,0,0,0-3.386-5.57,12.673,12.673,0,0,1-5.706-6.086l-.121-.148-.047-.315-.123-.172a13.022,13.022,0,0,1-.447-6.864c.226-1.366,1.067-2.5,1.31-3.85.482-2.68-.738-6.048-3.3-7.234a7.406,7.406,0,0,1-.689-.412l-.159-.139a11.744,11.744,0,0,1-4.543-4.859l-.131-.165a1.843,1.843,0,0,1-.359-.959l-.125-.175a12.2,12.2,0,0,1,.32-9.1l.13-.173" transform="translate(0 -0.004)" fill="#f3d55b"/>
    <path id="Trazado_232363" data-name="Trazado 232363" d="M236.363,135.8a1.779,1.779,0,0,1-1.92-1.117c-2.7-4.683-5.446-9.336-8.172-14a2.452,2.452,0,0,1-.158-.451,2.2,2.2,0,0,1,1.113-.13q13.208,0,26.417,0c.3,0,.593.023.889.035a55.284,55.284,0,0,1-2.93,5.189c-1.8,3.149-3.641,6.279-5.428,9.437a1.842,1.842,0,0,1-1.984,1.048l-7.826-.008" transform="translate(-189.421 -100.608)" fill="#bdc3c7"/>
    <path id="Trazado_232364" data-name="Trazado 232364" d="M253.4,79.833c-.3-.012-.593-.034-.889-.035q-13.208,0-26.417,0a2.2,2.2,0,0,0-1.113.13c-.165-.108-.178-.223-.178-.443.008-2.49.113-4.981-.04-7.47.35-.011.7-.033,1.051-.033q13.446,0,26.892,0c.3,0,.593.016.89.025-.193,1.909-.03,3.823-.089,5.733a8.3,8.3,0,0,1-.107,2.092" transform="translate(-188.296 -60.302)" fill="#3b97d3"/>
    <path id="Trazado_232365" data-name="Trazado 232365" d="M12.823,265.47c-.548,1.882-1.547,2.495-3.821,2.081a11.19,11.19,0,0,1-6.756-3.6,6.959,6.959,0,0,1-1.938-4.475,2.582,2.582,0,0,1,2.273-2.591,2.59,2.59,0,0,1,2.862,1.955,3.632,3.632,0,0,0,2.15,2.739l.167.136a2.548,2.548,0,0,0,1.115.356l.182.13a11.442,11.442,0,0,0,1.546.3,2.332,2.332,0,0,1,2.058,1.513l.127.171q.017.236.034.472,0,.405,0,.811" transform="translate(-0.257 -215.186)" fill="#e4c15d"/>
    <path id="Trazado_232366" data-name="Trazado 232366" d="M160.006,137.232l.017.492c-.166.049-.171.176-.153.315l-.037.468c-.089.024-.142.073-.122.174a7.907,7.907,0,0,1-2.872,4.11,1.948,1.948,0,0,1-1.055.308c-.135-.022-.262-.023-.323.135a2.455,2.455,0,0,1-2.42-1.545,2.484,2.484,0,0,1,.565-2.908c1.48-1.262,1.546-2.861,1.211-4.561a15.37,15.37,0,0,0-.642-2.078,2.554,2.554,0,0,1,2.178-3.182,2.51,2.51,0,0,1,2.93,1.964,6.337,6.337,0,0,1,.588,2.248c-.018.137-.015.265.149.316q.006.248.011.5c-.011.178-.082.373.139.484a12.159,12.159,0,0,1-.045,2.276c-.183.128-.134.313-.119.49" transform="translate(-128 -108.031)" fill="#e4c15d"/>
    <path id="Trazado_232367" data-name="Trazado 232367" d="M297.012,241.709q.033,2.969.066,5.938a1.347,1.347,0,0,1-.116.7,1.83,1.83,0,0,0-1,.48c-1.808,1.2-3.6,2.416-5.417,3.6-.413.269-.785.663-1.342.651,0-2.148-.117-4.3.061-6.443a31.333,31.333,0,0,0,3.4-2.15c1.465-.9,2.8-2,4.344-2.78" transform="translate(-242.246 -202.488)" fill="#7f8284"/>
    <path id="Trazado_232368" data-name="Trazado 232368" d="M289.213,287.369c.557.012.93-.382,1.342-.651,1.816-1.184,3.609-2.4,5.417-3.6a1.83,1.83,0,0,1,1-.48,6.222,6.222,0,0,1,.111,2.143c.017,1.416-.021,2.833-.037,4.25a1.576,1.576,0,0,0-.715.347q-3.086,2.058-6.176,4.11a1.94,1.94,0,0,1-.863.411,33.558,33.558,0,0,1-.091-4.188c-.022-.78.008-1.561.015-2.342" transform="translate(-242.252 -236.775)" fill="#a5a5a4"/>
    <path id="Trazado_232369" data-name="Trazado 232369" d="M297.008,220.934c-1.545.775-2.879,1.88-4.344,2.78a31.334,31.334,0,0,1-3.4,2.15,24.36,24.36,0,0,1-.075-3.462c-.022-1.83-.006-3.661-.005-5.492l7.826.008a27.164,27.164,0,0,1,0,4.016" transform="translate(-242.242 -181.713)" fill="#a5a5a4"/>
    <path id="Trazado_232370" data-name="Trazado 232370" d="M374.892,283.242a1.256,1.256,0,0,1-.454.823c-2.964,2.955-5.9,5.939-8.9,8.861a9.475,9.475,0,0,1-1.5,1.424c-.813.506-1.148.478-1.782-.225a1.423,1.423,0,0,1,.161-1.751c.807-.971,1.7-1.861,2.593-2.748,2.261-2.237,4.484-4.512,6.764-6.73.494-.48.94-1.093,1.778-1.132.683-.032,1.152.141,1.35.829q-.005.324-.01.648" transform="translate(-303.278 -236.04)" fill="#f3d660"/>
    <path id="Trazado_232371" data-name="Trazado 232371" d="M185.335,282.167a1.428,1.428,0,0,1,2.108-.122q3.3,3.269,6.571,6.558,1.77,1.769,3.538,3.542c.208.208.452.4.474.725q0,.406,0,.812c-.867,1.21-1.542,1.086-2.382.232-3.258-3.31-6.557-6.579-9.843-9.861a2.155,2.155,0,0,1-.635-.918.379.379,0,0,0,0-.643l.029-.169.139-.155" transform="translate(-155.118 -235.936)" fill="#f3d55b"/>
    <path id="Trazado_232372" data-name="Trazado 232372" d="M289,326.9a1.941,1.941,0,0,0,.863-.411q3.085-2.059,6.176-4.11a1.575,1.575,0,0,1,.715-.347c.014,1.963.023,3.927.045,5.89a.884.884,0,0,1-.458.794L294.391,330c-.106-.025-.142.033-.15.124a1.788,1.788,0,0,1-2.874-.007,9.762,9.762,0,0,0-1.64-1.112c-.97-.64-1.055-.882-.731-2.1" transform="translate(-241.958 -269.777)" fill="#7f8284"/>
    <path id="Trazado_232373" data-name="Trazado 232373" d="M368.949,251.024a1.349,1.349,0,0,1-.341.879c-1.644,2.034-3.27,4.082-4.908,6.121a1.333,1.333,0,0,1-2.3.019c-.49-.582-.221-1.043.147-1.506q1.992-2.5,4-4.986c.337-.421.662-.851,1-1.274a1.2,1.2,0,0,1,.922-.582l.487,0a.9.9,0,0,1,1,1.008q0,.162,0,.325" transform="translate(-302.533 -209.174)" fill="#f3d660"/>
    <path id="Trazado_232374" data-name="Trazado 232374" d="M218.931,249.416q2.467,3.1,4.937,6.2a1.369,1.369,0,0,1,.254,1.639,1.263,1.263,0,0,1-1.375.639,1.4,1.4,0,0,1-.912-.619c-1.636-2.039-3.274-4.077-4.89-6.133-.331-.421-.816-.835-.482-1.491a1.523,1.523,0,0,1,1.668-.862.543.543,0,0,0,.467.329h0c.009.211.14.287.331.3" transform="translate(-181.244 -208.408)" fill="#f3d660"/>
    <path id="Trazado_232375" data-name="Trazado 232375" d="M211.776.155c0,1.235.011,2.471,0,3.706-.008.934-.521,1.482-1.337,1.459-.778-.022-1.247-.554-1.254-1.46-.009-1.235,0-2.471,0-3.706h2.59" transform="translate(-175.238 -0.129)" fill="#285781"/>
    <path id="Trazado_232376" data-name="Trazado 232376" d="M404.676.148c0,1.236.017,2.473,0,3.709a1.31,1.31,0,0,1-.8,1.363,1.337,1.337,0,0,1-1.48-.329,1.159,1.159,0,0,1-.311-.957c.006-1.263,0-2.527,0-3.79l2.592,0" transform="translate(-336.836 -0.121)" fill="#285781"/>
    <path id="Trazado_232377" data-name="Trazado 232377" d="M243.783.154c0,1.235.011,2.471,0,3.706-.007.937-.519,1.483-1.335,1.46-.777-.022-1.249-.556-1.256-1.459-.009-1.235,0-2.471,0-3.706h2.59" transform="translate(-202.051 -0.129)" fill="#285781"/>
    <path id="Trazado_232378" data-name="Trazado 232378" d="M275.77.147c0,1.216,0,2.432,0,3.649,0,.962-.461,1.506-1.271,1.519-.784.013-1.307-.562-1.322-1.516-.019-1.216,0-2.432,0-3.648l2.592,0" transform="translate(-228.843 -0.123)" fill="#285781"/>
    <path id="Trazado_232379" data-name="Trazado 232379" d="M372.685.146c0,1.242.017,2.484,0,3.726a1.438,1.438,0,0,1-1.03,1.4,1.181,1.181,0,0,1-1.353-.488,1.227,1.227,0,0,1-.208-.84q0-1.9,0-3.807l2.591.005" transform="translate(-310.039 -0.118)" fill="#285781"/>
    <path id="Trazado_232380" data-name="Trazado 232380" d="M307.785.145c0,1.24.005,2.479,0,3.719,0,.893-.473,1.43-1.252,1.449A1.421,1.421,0,0,1,305.2,3.869c-.024-1.239,0-2.479,0-3.719l2.587-.005" transform="translate(-255.666 -0.121)" fill="#285781"/>
    <path id="Trazado_232381" data-name="Trazado 232381" d="M340.536.139c0,1.293.01,2.585,0,3.878a1.224,1.224,0,1,1-2.445,0c-.011-1.293,0-2.585,0-3.878h2.449" transform="translate(-283.224 -0.116)" fill="#285781"/>
    <path id="Trazado_232382" data-name="Trazado 232382" d="M451.5,257.618c.734.262,1.1.789.945,1.436a1.25,1.25,0,0,1-1.322,1.053,1.174,1.174,0,0,1-1.241-1.012c-.176-.8.118-1.186.97-1.464l.648-.012" transform="translate(-376.841 -215.815)" fill="#f3d660"/>
    <path id="Trazado_232383" data-name="Trazado 232383" d="M162.975,259.026c-.009.781-.476,1.1-1.185,1.133a1.442,1.442,0,0,1-1.415-1.2,1.225,1.225,0,0,1,1.111-1.267l.649,0a1.174,1.174,0,0,1,.84,1q0,.162,0,.325" transform="translate(-134.352 -215.879)" fill="#f3d660"/>
    <path id="Trazado_232384" data-name="Trazado 232384" d="M210.785,415.869a3.374,3.374,0,0,1-1.63-.119c.562-.217,1.125-.439,1.63.119" transform="translate(-175.216 -348.092)" fill="#f8f9f7"/>
    <path id="Trazado_232385" data-name="Trazado 232385" d="M83.31,190.21a1.188,1.188,0,0,1-.018-1.292,1.242,1.242,0,0,1,.018,1.292" transform="translate(-69.624 -158.263)" fill="#f8f9f7"/>
    <path id="Trazado_232386" data-name="Trazado 232386" d="M77.436,305.7q0-.406,0-.811.665.406,0,.811" transform="translate(-64.871 -255.413)" fill="#f8f9f7"/>
    <path id="Trazado_232387" data-name="Trazado 232387" d="M264.418,351.679q0-.406,0-.812.646.406,0,.812" transform="translate(-221.512 -293.933)" fill="#f8f9f5"/>
    <path id="Trazado_232388" data-name="Trazado 232388" d="M441.331,287.541q0-.324.01-.648c.436.223.439.439-.01.648" transform="translate(-369.717 -240.34)" fill="#f8f9f7"/>
    <path id="Trazado_232389" data-name="Trazado 232389" d="M145.29,287.558c-.262-.2-.237-.413-.052-.644a.383.383,0,0,1,.052.644" transform="translate(-121.551 -240.357)" fill="#efddac"/>
    <path id="Trazado_232390" data-name="Trazado 232390" d="M123.212,335a.391.391,0,0,1,.656,0,.4.4,0,0,1-.656,0" transform="translate(-103.219 -280.494)" fill="#f3d660"/>
    <path id="Trazado_232391" data-name="Trazado 232391" d="M167.87,255.941l-.649,0q.327-.681.649,0" transform="translate(-140.087 -214.122)" fill="#f8f9f7"/>
    <path id="Trazado_232392" data-name="Trazado 232392" d="M456.76,255.939l-.648.013c.208-.45.424-.446.648-.013" transform="translate(-382.1 -214.136)" fill="#f8f9f7"/>
    <path id="Trazado_232393" data-name="Trazado 232393" d="M184.326,286.9a.379.379,0,0,1,0,.643.4.4,0,0,1,0-.643" transform="translate(-154.276 -240.349)" fill="#f8f9f5"/>
    <path id="Trazado_232394" data-name="Trazado 232394" d="M145.233,301.391c-.019-.186-.074-.383.148-.5.189.11.132.3.15.465l-.3.033" transform="translate(-121.649 -252.068)" fill="#efddac"/>
    <path id="Trazado_232395" data-name="Trazado 232395" d="M400.619,248.317l-.487,0c.027-.157.082-.289.278-.267.154.018.184.141.208.264" transform="translate(-335.204 -207.8)" fill="#f8f9f7"/>
    <path id="Trazado_232396" data-name="Trazado 232396" d="M197.154,177.431c-.015-.176-.063-.361.119-.49.3.247.186.391-.119.49" transform="translate(-165.148 -148.229)" fill="#efddac"/>
    <path id="Trazado_232397" data-name="Trazado 232397" d="M197.434,160.421c-.221-.111-.15-.306-.139-.484.328.08.381.24.139.484" transform="translate(-165.264 -133.984)" fill="#f8f9f7"/>
    <path id="Trazado_232398" data-name="Trazado 232398" d="M227.789,249.19a.544.544,0,0,1-.468-.329c.232,0,.454.017.468.329" transform="translate(-190.434 -208.479)" fill="#f8f9f5"/>
    <path id="Trazado_232399" data-name="Trazado 232399" d="M169.231,216.2c.06-.158.187-.156.323-.135-.041.2-.1.37-.323.135" transform="translate(-141.77 -180.992)" fill="#f8f9f7"/>
    <path id="Trazado_232400" data-name="Trazado 232400" d="M409.3,256.227V255.9c.1.017.225.031.225.162s-.122.145-.225.162" transform="translate(-342.886 -214.377)" fill="#f8f9f7"/>
    <path id="Trazado_232401" data-name="Trazado 232401" d="M230.541,251.194c-.191-.009-.321-.084-.331-.3a.3.3,0,0,1,.331.3" transform="translate(-192.854 -210.185)" fill="#f8f9f5"/>
    <path id="Trazado_232402" data-name="Trazado 232402" d="M196.517,155.253c-.165-.051-.168-.178-.149-.316.192.038.369.084.149.316" transform="translate(-164.497 -129.796)" fill="#f8f9f7"/>
    <path id="Trazado_232403" data-name="Trazado 232403" d="M160.59,410.355c-.137.018-.265.016-.317-.149.232-.22.278-.044.317.149" transform="translate(-134.266 -343.558)" fill="#f8f9f7"/>
    <path id="Trazado_232404" data-name="Trazado 232404" d="M196.368,183.307c-.019-.138-.013-.265.153-.315.215.234.037.277-.153.315" transform="translate(-164.498 -153.298)" fill="#f8f9f7"/>
    <path id="Trazado_232405" data-name="Trazado 232405" d="M109.451,315.835c.257.218.1.288-.119.332-.025-.134-.028-.26.119-.332" transform="translate(-91.58 -264.585)" fill="#f3d660"/>
    <path id="Trazado_232406" data-name="Trazado 232406" d="M176.4,264.224q0-.162,0-.325c.1.017.224.031.224.162s-.122.145-.224.162" transform="translate(-147.773 -221.077)" fill="#f8f9f7"/>
    <path id="Trazado_232407" data-name="Trazado 232407" d="M145.336,303.792l.3-.032a.285.285,0,0,1-.284.345q-.007-.156-.014-.313" transform="translate(-121.753 -254.47)" fill="#f8f9f7"/>
    <path id="Trazado_232408" data-name="Trazado 232408" d="M87.625,210.1c-.084-.008-.14-.04-.121-.138l.121.138" transform="translate(-73.302 -175.895)" fill="#f8f9f5"/>
    <path id="Trazado_232409" data-name="Trazado 232409" d="M76.574,301.1l-.127-.171.127.171" transform="translate(-64.042 -252.094)" fill="#f8f9f7"/>
    <path id="Trazado_232410" data-name="Trazado 232410" d="M53.293,289.067l-.182-.131.182.131" transform="translate(-44.493 -242.051)" fill="#f8f9f7"/>
    <path id="Trazado_232411" data-name="Trazado 232411" d="M4.476,66.009l.125.175-.125-.175" transform="translate(-3.75 -55.298)" fill="#f3d660"/>
    <path id="Trazado_232412" data-name="Trazado 232412" d="M56.475,217.957l.123.172-.123-.172" transform="translate(-47.311 -182.59)" fill="#f3d660"/>
    <path id="Trazado_232413" data-name="Trazado 232413" d="M57.5,220.962l.121.148c-.082-.015-.141-.049-.121-.148" transform="translate(-48.169 -185.107)" fill="#f3d660"/>
    <path id="Trazado_232414" data-name="Trazado 232414" d="M86.57,207.132l-.125-.175.125.175" transform="translate(-72.418 -173.375)" fill="#f8f9f5"/>
    <path id="Trazado_232415" data-name="Trazado 232415" d="M139.438,326.032l.128-.156-.128.156" transform="translate(-116.812 -272.997)" fill="#f8f9f7"/>
    <path id="Trazado_232416" data-name="Trazado 232416" d="M195.4,187.989c-.02-.1.033-.15.122-.174l-.122.174" transform="translate(-163.691 -157.339)" fill="#f8f9f7"/>
    <path id="Trazado_232417" data-name="Trazado 232417" d="M45.373,286.044l-.167-.136.167.136" transform="translate(-37.871 -239.514)" fill="#f8f9f7"/>
    <path id="Trazado_232418" data-name="Trazado 232418" d="M87.482,174.067l.124-.159-.124.159" transform="translate(-73.287 -145.688)" fill="#f8f9f7"/>
    <path id="Trazado_232419" data-name="Trazado 232419" d="M322.2,371.2c.008-.092.044-.15.15-.124l-.15.124" transform="translate(-269.917 -310.854)" fill="#f8f9f7"/>
    <path id="Trazado_232420" data-name="Trazado 232420" d="M144.231,407.023l-.185-.116.185.116" transform="translate(-120.672 -340.879)" fill="#f8f9f7"/>
    <path id="Trazado_232421" data-name="Trazado 232421" d="M185.5,284.907l-.139.155a.134.134,0,0,1,.139-.155" transform="translate(-155.281 -238.676)" fill="#f3d660"/>
    <path id="Trazado_232422" data-name="Trazado 232422" d="M6.577,8.891l-.13.173.13-.173" transform="translate(-5.401 -7.448)" fill="#f3d660"/>
    <path id="Trazado_232423" data-name="Trazado 232423" d="M7.461,73l.131.165L7.461,73" transform="translate(-6.25 -61.156)" fill="#f3d660"/>
    <path id="Trazado_232424" data-name="Trazado 232424" d="M36.262,103.96l.159.139-.159-.139" transform="translate(-30.378 -87.091)" fill="#f3d660"/>
    <path id="Trazado_232425" data-name="Trazado 232425" d="M70.283,425.822c1.456,0,2.912,0,4.368,0a1.515,1.515,0,0,1,1.52,1.257,1.5,1.5,0,0,1-1.525,1.335q-4.368.007-8.736,0a1.5,1.5,0,0,1-1.544-1.315c.016-.777.61-1.274,1.548-1.278,1.456-.005,2.912,0,4.368,0" transform="translate(-53.921 -356.723)" fill="#b19046"/>
    <path id="Trazado_232426" data-name="Trazado 232426" d="M26.328,425.819a4.358,4.358,0,0,1,.8.008,1.206,1.206,0,0,1,1.074,1.216,1.165,1.165,0,0,1-.957,1.305,4.686,4.686,0,0,1-1.917-.014A1.17,1.17,0,0,1,24.326,427a1.244,1.244,0,0,1,1.278-1.187c.241-.014.483,0,.724,0Z" transform="translate(-20.376 -356.709)" fill="#b19046"/>
  </g>
</svg>
