<svg id="Grupo_237259" data-name="Grupo 237259" xmlns="http://www.w3.org/2000/svg" xmlns:xlink="http://www.w3.org/1999/xlink" width="73.732" height="75.684" viewBox="0 0 73.732 75.684">
  <defs>
    <clipPath id="clip-path">
      <rect id="Rectángulo_312954" data-name="Rectángulo 312954" width="73.732" height="75.684" fill="none"/>
    </clipPath>
  </defs>
  <g id="Grupo_237258" data-name="Grupo 237258" clip-path="url(#clip-path)">
    <path id="Trazado_231832" data-name="Trazado 231832" d="M207.215.049c.176-.012.351-.035.527-.035,10.744,0,21.487-.017,32.231.011a3.859,3.859,0,0,1,4.047,4.06c-.006,2.208-.019,4.415.01,6.623.009.676-.112,1-.91,1.009a1.555,1.555,0,0,0-1.641,1.712,1.611,1.611,0,0,0,1.766,1.418c.738-.044.785.28.784.871q-.024,11.921-.011,23.842,0,15.5-.006,30.995a7.393,7.393,0,0,1-.273,2.592,3.736,3.736,0,0,1-3.5,2.512q-16.336.011-32.672,0a3.454,3.454,0,0,1-.35-.034q0-1.563,0-3.126c1.1-.434,1.549-.975,1.416-1.815a1.343,1.343,0,0,0-1.416-1.261q0-1.289,0-2.579a1.419,1.419,0,0,0,1.215-.688c.7-1.151-.011-2.146-1.563-2.2.6-.8.267-1.719.348-2.585a1.4,1.4,0,0,0,1.413-1.341c.086-.942-.206-1.287-1.413-1.722v-2.38c.888-.252,1.485-.9,1.407-1.622a1.489,1.489,0,0,0-1.407-1.475V51.176c.351-.02.7-.056,1.054-.057,3.621,0,7.242,0,10.862-.006.992,0,1.359-.348,1.36-1.308q.01-11.966,0-23.932c0-.96-.367-1.3-1.36-1.308-2.738-.009-5.475,0-8.213-.006-1.234,0-2.469-.037-3.7-.057V22.849a1.306,1.306,0,0,0,1.09-.581c.669-1.126.356-1.883-1.091-2.517v-2.38a1.485,1.485,0,0,0,1.41-1.361c.1-.969-.2-1.3-1.41-1.7V11.921a1.685,1.685,0,0,0,1.416-1.67,1.393,1.393,0,0,0-1.416-1.421V6.385c.06-.054.112-.14.182-.158.906-.236,1.329-.732,1.231-1.56a1.326,1.326,0,0,0-1.413-1.315q0-1.651,0-3.3M231.079,66.99c.679.007,1.747-.8,1.733-1.313-.031-1.177-.55-1.831-1.474-1.861-1.021-.033-1.6.68-1.58,1.93a2.3,2.3,0,0,0,1.321,1.245m-4.424-40.178c.116-.783-.4-1.454-1.513-1.51a1.614,1.614,0,0,0-1.489,1.543,1.866,1.866,0,0,0,1.651,1.628,1.728,1.728,0,0,0,1.352-1.661m-12.017-5.5a1.356,1.356,0,0,0-1.516-1.5,1.644,1.644,0,0,0-1.477,1.527,1.876,1.876,0,0,0,1.54,1.645,1.718,1.718,0,0,0,1.454-1.671m0,44.178a1.444,1.444,0,0,0-1.473-1.666,1.545,1.545,0,0,0-1.511,1.575,1.74,1.74,0,0,0,1.556,1.588,1.7,1.7,0,0,0,1.428-1.5m24.043-.062c-.019-1.1-.533-1.647-1.511-1.618a1.387,1.387,0,0,0-1.336,1.511c.008.864.634,1.673,1.29,1.666a1.633,1.633,0,0,0,1.557-1.559m-12.03-5.555a1.4,1.4,0,0,0-1.378-1.54,1.651,1.651,0,0,0-1.622,1.485,1.99,1.99,0,0,0,1.682,1.693,1.708,1.708,0,0,0,1.318-1.637m3.178-.1c-.008.83.7,1.739,1.352,1.729.623-.009,1.579-.862,1.57-1.4-.02-1.114-.6-1.769-1.566-1.773a1.3,1.3,0,0,0-1.355,1.444m6.005-32.923c.009.736.665,1.575,1.25,1.6a1.933,1.933,0,0,0,1.758-1.637,1.682,1.682,0,0,0-1.619-1.522,1.379,1.379,0,0,0-1.389,1.562M226.655,65.38a1.444,1.444,0,0,0-1.387-1.565,1.742,1.742,0,0,0-1.612,1.527,1.856,1.856,0,0,0,1.606,1.648,1.675,1.675,0,0,0,1.393-1.61m-6,.072a1.455,1.455,0,0,0-1.411-1.637,1.717,1.717,0,0,0-1.6,1.548,1.975,1.975,0,0,0,1.543,1.627,1.688,1.688,0,0,0,1.466-1.538m-6.013-55.189a1.279,1.279,0,0,0-1.387-1.4c-1.215-.026-1.445.482-1.572,1.414a1.508,1.508,0,0,0,1.46,1.589c.957,0,1.486-.561,1.5-1.6m10.594,59.2a1.471,1.471,0,0,0-1.579,1.452,1.711,1.711,0,0,0,1.492,1.56,1.627,1.627,0,0,0,1.509-1.587c0-1.031-.385-1.42-1.422-1.426m-.027-66.079a1.361,1.361,0,0,0-1.538,1.4,1.655,1.655,0,0,0,1.614,1.617c.872-.025,1.387-.65,1.372-1.665a1.277,1.277,0,0,0-1.449-1.348M214.638,54.388a1.368,1.368,0,0,0-1.4-1.523,1.56,1.56,0,0,0-1.6,1.478c-.017.638.939,1.708,1.511,1.691a1.684,1.684,0,0,0,1.483-1.647m6.014-.013a1.4,1.4,0,0,0-1.416-1.517,1.664,1.664,0,0,0-1.594,1.506,2.05,2.05,0,0,0,1.535,1.659,1.707,1.707,0,0,0,1.476-1.648m-6.014,5.478a1.4,1.4,0,0,0-1.518-1.517,1.619,1.619,0,0,0-1.476,1.518c0,.689.92,1.686,1.527,1.654a1.675,1.675,0,0,0,1.467-1.655m0,11.07c.013-1.029-.389-1.45-1.4-1.462a1.366,1.366,0,0,0-1.583,1.408,1.64,1.64,0,0,0,1.512,1.6,1.666,1.666,0,0,0,1.468-1.55m4.479-51.109a1.667,1.667,0,0,0-1.475,1.52,1.672,1.672,0,0,0,1.508,1.486,1.5,1.5,0,1,0-.033-3.006m7.539,29.049a1.357,1.357,0,0,0-1.419-1.483,1.526,1.526,0,0,0-1.582,1.394,1.642,1.642,0,0,0,1.509,1.61,1.377,1.377,0,0,0,1.493-1.521m0-33.068a1.329,1.329,0,0,0-1.45-1.454,1.618,1.618,0,0,0-1.548,1.453,1.622,1.622,0,0,0,1.552,1.55c.93,0,1.434-.537,1.446-1.548M225.238,41.9a1.448,1.448,0,0,0-1.585,1.378,1.7,1.7,0,0,0,1.6,1.63,1.385,1.385,0,0,0,1.4-1.535,1.3,1.3,0,0,0-1.417-1.473m1.418,12.52a1.393,1.393,0,0,0-1.354-1.562,1.607,1.607,0,0,0-1.644,1.453,1.97,1.97,0,0,0,1.574,1.713,1.728,1.728,0,0,0,1.424-1.6m6.013-27.578c.125-.954-.428-1.424-1.464-1.535-.819-.087-1.366.575-1.371,1.541a1.631,1.631,0,0,0,1.46,1.625,1.691,1.691,0,0,0,1.375-1.631m4.668,20.538a1.34,1.34,0,0,0-1.5,1.433,1.385,1.385,0,0,0,1.377,1.571,1.685,1.685,0,0,0,1.631-1.508,1.623,1.623,0,0,0-1.511-1.5m-18.2-30.037a1.378,1.378,0,0,0,1.515-1.495,1.384,1.384,0,0,0-1.505-1.507,1.7,1.7,0,0,0-1.5,1.4,1.66,1.66,0,0,0,1.494,1.6m6.029,5.478a1.384,1.384,0,0,0,1.49-1.516,1.376,1.376,0,0,0-1.519-1.49,1.63,1.63,0,0,0-1.481,1.52,1.61,1.61,0,0,0,1.51,1.487m1.489-12.48a1.289,1.289,0,0,0-1.406-1.477,1.434,1.434,0,0,0-1.591,1.448,1.689,1.689,0,0,0,1.491,1.553,1.4,1.4,0,0,0,1.506-1.524M219.2,8.863a1.6,1.6,0,0,0-1.561,1.389,1.669,1.669,0,0,0,1.523,1.613,1.442,1.442,0,0,0,1.487-1.475A1.32,1.32,0,0,0,219.2,8.863m-6.091,8.481a1.389,1.389,0,0,0,1.525-1.489,1.352,1.352,0,0,0-1.491-1.515,1.511,1.511,0,0,0-1.5,1.469,1.627,1.627,0,0,0,1.468,1.535m19.554-1.565a1.418,1.418,0,1,0-2.834.057c0,.966.512,1.522,1.384,1.507a1.4,1.4,0,0,0,1.45-1.564m6.018,44.036a1.425,1.425,0,1,0-2.847.034,1.639,1.639,0,0,0,1.441,1.662,1.716,1.716,0,0,0,1.406-1.7m-25.5-56.434c-1.109-.106-1.331.451-1.505,1.378a1.609,1.609,0,0,0,1.283,1.623,1.527,1.527,0,0,0,1.678-1.564,1.3,1.3,0,0,0-1.456-1.436m13.473,28.925c0-1.027-.39-1.365-1.553-1.361a1.423,1.423,0,0,0-1.449,1.387,1.893,1.893,0,0,0,1.552,1.619,1.657,1.657,0,0,0,1.45-1.645m4.634,20.551c-.958.167-1.58.427-1.462,1.712a1.751,1.751,0,0,0,1.391,1.453c.456.017,1.6-.935,1.59-1.32-.039-1.106-.669-1.872-1.519-1.846m1.379-42.485c.015-1.056-.369-1.487-1.342-1.511a1.294,1.294,0,0,0-1.493,1.38c-.015.96.513,1.647,1.311,1.612.915-.04,1.692-.571,1.523-1.481m4.633,6.969a1.337,1.337,0,0,0,1.386-1.505,1.424,1.424,0,1,0-2.846-.039,1.363,1.363,0,0,0,1.46,1.544m-.114,13.6c-.979,0-1.343.374-1.347,1.372a1.63,1.63,0,0,0,1.345,1.635,1.987,1.987,0,0,0,1.662-1.637,1.455,1.455,0,0,0-1.66-1.37m-18,30.391a1.385,1.385,0,0,0,1.467-1.561,1.433,1.433,0,0,0-1.419-1.45,1.506,1.506,0,1,0-.048,3.01m-.031,8.123a1.414,1.414,0,0,0-1.511,1.414,1.716,1.716,0,0,0,1.536,1.6,1.659,1.659,0,0,0,1.473-1.725,1.3,1.3,0,0,0-1.5-1.287m12.094,0c-1.039,0-1.407.359-1.415,1.392a1.423,1.423,0,0,0,1.317,1.619,1.445,1.445,0,0,0,1.518-1.514c.005-1.122-.346-1.493-1.42-1.5M219.186,3.381a1.415,1.415,0,0,0-1.542,1.377,1.721,1.721,0,0,0,1.5,1.635A1.642,1.642,0,0,0,220.652,4.9a1.35,1.35,0,0,0-1.467-1.518m7.469,34.429c-.005-.923-.509-1.39-1.5-1.388a1.491,1.491,0,0,0-1.5,1.454,1.771,1.771,0,0,0,1.612,1.553,1.653,1.653,0,0,0,1.39-1.619m3.179-16.554c-.008,1,.459,1.56,1.309,1.564a1.379,1.379,0,0,0,1.526-1.473,1.37,1.37,0,0,0-1.466-1.533,1.333,1.333,0,0,0-1.368,1.442m1.4,9.69c-1.059,0-1.4.336-1.4,1.4a1.438,1.438,0,0,0,1.345,1.607,1.641,1.641,0,0,0,1.49-1.613c0-1.013-.388-1.39-1.434-1.395M237.3,41.9a1.288,1.288,0,0,0-1.463,1.4c-.007.844.516,1.575,1.144,1.6a1.889,1.889,0,0,0,1.862-1.554A1.623,1.623,0,0,0,237.3,41.9m-4.634-3.988c.012-1.1-.353-1.479-1.436-1.49-.974-.01-1.383.384-1.4,1.347a1.429,1.429,0,1,0,2.836.143m6.016-16.64a1.426,1.426,0,1,0-2.847.085,1.471,1.471,0,0,0,1.428,1.544,1.547,1.547,0,0,0,1.419-1.63m-6.017,27.619a1.356,1.356,0,0,0-1.4-1.511,1.3,1.3,0,0,0-1.43,1.384c-.009,1.032.495,1.613,1.4,1.62a1.356,1.356,0,0,0,1.432-1.493m-2.835-44.1c0,.809.5,1.545,1.084,1.569a1.487,1.487,0,0,0,1.751-1.554c.015-1.024-.382-1.426-1.409-1.428s-1.421.377-1.426,1.413m8.853,49.559a1.426,1.426,0,1,0-2.847.027,1.671,1.671,0,0,0,1.406,1.642,1.726,1.726,0,0,0,1.441-1.67m0-49.605c-.015-1.029-.426-1.388-1.566-1.366-.889.017-1.292.479-1.28,1.47.009.8.626,1.563,1.234,1.527,1.1-.065,1.627-.6,1.612-1.631M237.307,69.46c-1-.01-1.458.421-1.468,1.376a1.566,1.566,0,0,0,1.419,1.635,1.446,1.446,0,0,0,1.428-1.534c.016-1.023-.4-1.466-1.379-1.476M231.235,41.9c-1.03.009-1.418.43-1.4,1.525A1.412,1.412,0,0,0,231.01,44.9a1.483,1.483,0,0,0,1.659-1.647,1.287,1.287,0,0,0-1.434-1.356m6.029-33.037a1.325,1.325,0,0,0-1.425,1.481,1.388,1.388,0,0,0,1.329,1.521,1.412,1.412,0,0,0,1.518-1.526,1.3,1.3,0,0,0-1.422-1.477m-.059,27.56c-.929,0-1.359.437-1.367,1.384-.007.794.628,1.605,1.257,1.608a1.47,1.47,0,0,0,1.591-1.542c.009-1.046-.405-1.452-1.481-1.449" transform="translate(-170.298 -0.007)" fill="#14ba56"/>
    <path id="Trazado_231833" data-name="Trazado 231833" d="M36.916,51.169q0,.826,0,1.652c-1.073.215-1.626.768-1.589,1.587.036.785.62,1.341,1.588,1.511q0,1.19,0,2.38c-.783.156-1.6.968-1.589,1.571a1.669,1.669,0,0,0,1.589,1.493c-.081.867.252,1.789-.348,2.585a1.617,1.617,0,0,0-1.22,1.573c0,.622.816,1.246,1.568,1.319q0,1.289,0,2.579c-.754-.041-1.113.458-1.461,1.02-.362.585.067,1,.283,1.429.224.45.827.33,1.178.626q0,1.563,0,3.126c-.264.013-.528.037-.792.037-10.6,0-21.2-.028-31.8.025A3.95,3.95,0,0,1,.052,72.441,6,6,0,0,1,.124,70.8Q.1,43.331.1,15.857c0-.66-.007-1.1.9-1.027a1.506,1.506,0,0,0,1.464-1.606A1.529,1.529,0,0,0,1,11.7c-.765.034-.919-.228-.9-.94C.154,8.292.15,5.819.154,3.346A3.6,3.6,0,0,1,3.529.024C3.909-.013,4.294,0,4.676,0Q20.313,0,35.949,0c.323,0,.646.024.968.037q0,1.651,0,3.3c-.267.08-.55-.015-.82.2-.448.356-.847.784-.741,1.332a1.846,1.846,0,0,0,1.561,1.5V8.823c-.931.189-1.59.79-1.588,1.451,0,.611.786,1.422,1.588,1.64q0,1.193,0,2.387c-.846.192-1.547.548-1.583,1.549-.021.569.824,1.349,1.583,1.515q0,1.19,0,2.38c-1.021.179-1.62.788-1.589,1.613a1.527,1.527,0,0,0,1.589,1.485q0,.826,0,1.652v.08Q30.957,24.567,25,24.563c-1.024,0-1.35.341-1.351,1.4q-.006,11.871,0,23.742c0,1.056.327,1.4,1.351,1.4q5.957,0,11.915-.011ZM30.752,8.856a1.357,1.357,0,0,0-1.431,1.473,1.4,1.4,0,0,0,1.506,1.529,1.565,1.565,0,0,0,1.493-1.565,1.361,1.361,0,0,0-1.568-1.437M24.733,22.813a1.428,1.428,0,0,0,1.584-1.531,1.5,1.5,0,0,0-1.49-1.475,1.426,1.426,0,0,0-1.521,1.6,1.381,1.381,0,0,0,1.426,1.408m-1.427,37A1.711,1.711,0,0,0,24.772,61.5a1.673,1.673,0,0,0,1.547-1.689,1.637,1.637,0,0,0-1.529-1.484,1.48,1.48,0,0,0-1.485,1.486M5.288,59.83A1.671,1.671,0,0,0,6.7,61.5,2.062,2.062,0,0,0,8.3,59.876a1.625,1.625,0,0,0-1.489-1.539c-1.039.05-1.6.654-1.518,1.493m0,5.506A1.65,1.65,0,0,0,6.65,66.983a1.907,1.907,0,0,0,1.645-1.531A1.691,1.691,0,0,0,6.8,63.806a1.44,1.44,0,0,0-1.516,1.531m19.518-48a1.587,1.587,0,0,0,1.515-1.458,1.386,1.386,0,0,0-1.56-1.544,1.377,1.377,0,0,0-1.455,1.384,1.426,1.426,0,0,0,1.5,1.618m-1.5,48.05a1.685,1.685,0,0,0,1.44,1.6,1.688,1.688,0,0,0,1.571-1.565,1.615,1.615,0,0,0-1.5-1.611,1.572,1.572,0,0,0-1.51,1.579m1.485-9.529a1.481,1.481,0,0,0,1.526-1.52,1.506,1.506,0,1,0-1.526,1.52M11.29,59.83A1.681,1.681,0,0,0,12.762,61.5,1.893,1.893,0,0,0,14.3,59.875a1.66,1.66,0,0,0-1.481-1.547,1.412,1.412,0,0,0-1.53,1.5M6.667,17.335A1.641,1.641,0,0,0,8.3,15.859,1.593,1.593,0,0,0,6.8,14.333a1.3,1.3,0,0,0-1.516,1.374c-.015,1.025.485,1.614,1.379,1.628m6.061-3A1.359,1.359,0,0,0,11.29,15.81a1.393,1.393,0,0,0,1.319,1.525A1.642,1.642,0,0,0,14.3,15.814a1.435,1.435,0,0,0-1.574-1.482m18.153,3a1.347,1.347,0,0,0,1.441-1.454,1.382,1.382,0,0,0-1.554-1.549,1.414,1.414,0,0,0-1.447,1.588,1.58,1.58,0,0,0,1.56,1.414M5.288,26.808c-.01.744.671,1.627,1.262,1.639A1.92,1.92,0,0,0,8.3,26.815a1.655,1.655,0,0,0-1.6-1.529,1.38,1.38,0,0,0-1.405,1.522M20.307,65.365a1.632,1.632,0,0,0-1.558-1.559,1.579,1.579,0,0,0-1.445,1.63,1.65,1.65,0,0,0,1.389,1.542c.659,0,1.774-.861,1.614-1.613M30.855,19.808a1.543,1.543,0,0,0-1.534,1.442,1.852,1.852,0,0,0,1.533,1.73c.657.03,1.472-.9,1.465-1.673a1.411,1.411,0,0,0-1.464-1.5M18.724,8.856a1.346,1.346,0,0,0-1.42,1.468,1.459,1.459,0,0,0,1.42,1.536,1.629,1.629,0,0,0,1.582-1.491,1.4,1.4,0,0,0-1.582-1.513m-6,0a1.358,1.358,0,0,0-1.428,1.464,1.434,1.434,0,0,0,1.4,1.538A1.652,1.652,0,0,0,14.3,10.187c-.007-.814-.622-1.331-1.583-1.331m19.6,56.575a1.5,1.5,0,1,0-3-.133,1.685,1.685,0,0,0,1.435,1.684,1.667,1.667,0,0,0,1.564-1.552M17.3,26.844a1.744,1.744,0,0,0,1.241,1.6A1.8,1.8,0,0,0,20.305,26.9a1.629,1.629,0,0,0-1.5-1.619,1.516,1.516,0,0,0-1.5,1.56M12.8,63.806a1.574,1.574,0,0,0-1.511,1.46,1.694,1.694,0,0,0,1.4,1.717,1.889,1.889,0,0,0,1.6-1.55,1.672,1.672,0,0,0-1.5-1.626M11.289,26.821c.007.76.721,1.647,1.308,1.624A1.868,1.868,0,0,0,14.3,26.8a1.644,1.644,0,0,0-1.512-1.517,1.414,1.414,0,0,0-1.5,1.535M6.7,8.855a1.3,1.3,0,0,0-1.415,1.467,1.405,1.405,0,0,0,1.318,1.539,1.676,1.676,0,0,0,1.689-1.636A1.436,1.436,0,0,0,6.7,8.855M17.3,59.867A1.76,1.76,0,0,0,18.819,61.5a1.778,1.778,0,0,0,1.489-1.65,1.632,1.632,0,0,0-1.5-1.524A1.53,1.53,0,0,0,17.3,59.867M24.785,8.856a1.354,1.354,0,0,0-1.479,1.432,1.567,1.567,0,0,0,1.424,1.57,1.6,1.6,0,0,0,1.588-1.524,1.353,1.353,0,0,0-1.533-1.478M5.288,21.347a1.533,1.533,0,0,0,1.467,1.581A1.934,1.934,0,0,0,8.3,21.28,1.644,1.644,0,0,0,6.75,19.807a1.375,1.375,0,0,0-1.462,1.54m19.54,48.106a1.348,1.348,0,0,0-1.522,1.382,1.66,1.66,0,0,0,1.489,1.63,1.646,1.646,0,0,0,1.523-1.592,1.346,1.346,0,0,0-1.49-1.421m6.025,0a1.366,1.366,0,0,0-1.532,1.368,1.659,1.659,0,0,0,1.468,1.644,1.663,1.663,0,0,0,1.531-1.578,1.352,1.352,0,0,0-1.467-1.434m-12.018,0A1.37,1.37,0,0,0,17.3,70.817a1.632,1.632,0,0,0,1.458,1.648A1.662,1.662,0,0,0,20.306,70.9a1.357,1.357,0,0,0-1.471-1.444m-.058-52.118a1.584,1.584,0,0,0,1.531-1.553,1.393,1.393,0,0,0-1.488-1.449A1.383,1.383,0,0,0,17.3,15.848a1.435,1.435,0,0,0,1.472,1.488M30.883,52.858a1.468,1.468,0,0,0-1.562,1.49,2.016,2.016,0,0,0,1.487,1.681,1.812,1.812,0,0,0,1.511-1.648,1.509,1.509,0,0,0-1.436-1.522M17.3,48.847a1.427,1.427,0,0,0,1.407,1.53,1.631,1.631,0,0,0,1.6-1.515,1.484,1.484,0,0,0-1.468-1.489A1.381,1.381,0,0,0,17.3,48.847M5.288,43.338A1.408,1.408,0,0,0,6.67,44.9a1.667,1.667,0,0,0,1.625-1.6,1.53,1.53,0,0,0-1.662-1.409,1.278,1.278,0,0,0-1.344,1.445m1.519,4.035a1.336,1.336,0,0,0-1.519,1.376c-.012,1,.507,1.611,1.381,1.629a1.663,1.663,0,0,0,1.628-1.5,1.59,1.59,0,0,0-1.49-1.5m-.053-44c-1.044,0-1.473.428-1.467,1.465,0,.818.594,1.559,1.221,1.535a1.673,1.673,0,0,0,1.786-1.6,1.416,1.416,0,0,0-1.541-1.4m5.921,19.439A1.625,1.625,0,0,0,14.3,21.34a1.633,1.633,0,0,0-1.565-1.532,1.4,1.4,0,0,0-1.445,1.569,1.365,1.365,0,0,0,1.385,1.436M11.29,54.326a1.7,1.7,0,0,0,1.43,1.691A2.084,2.084,0,0,0,14.3,54.392a1.629,1.629,0,0,0-1.467-1.542,1.4,1.4,0,0,0-1.545,1.475m0-5.451a1.431,1.431,0,0,0,1.441,1.5A1.638,1.638,0,0,0,14.3,48.923a1.517,1.517,0,0,0-1.5-1.55,1.382,1.382,0,0,0-1.511,1.5M6.774,69.453c-1.039-.012-1.474.386-1.486,1.362a1.562,1.562,0,0,0,1.419,1.65c.688,0,1.639-.89,1.572-1.581-.084-.86-.443-1.442-1.5-1.431m18-66.078a1.352,1.352,0,0,0-1.468,1.432c.006.687.7,1.55,1.255,1.571a1.667,1.667,0,0,0,1.757-1.536,1.373,1.373,0,0,0-1.544-1.467m-13.483,67.4a1.64,1.64,0,0,0,1.519,1.687,1.682,1.682,0,0,0,1.482-1.541,1.411,1.411,0,0,0-1.444-1.49c-.975.076-1.545.489-1.557,1.343m7.463-28.885A1.358,1.358,0,0,0,17.3,43.352,1.59,1.59,0,0,0,18.743,44.9a1.625,1.625,0,0,0,1.564-1.627,1.4,1.4,0,0,0-1.554-1.381m-6,0a1.342,1.342,0,0,0-1.466,1.435A1.536,1.536,0,0,0,12.779,44.9,1.669,1.669,0,0,0,14.3,43.3a1.445,1.445,0,0,0-1.545-1.412M17.3,21.309a1.584,1.584,0,0,0,1.475,1.626,1.953,1.953,0,0,0,1.529-1.578,1.612,1.612,0,0,0-1.561-1.549,1.385,1.385,0,0,0-1.442,1.5M5.288,54.255c-.009,1,.528,1.607,1.422,1.6A1.656,1.656,0,0,0,8.3,54.4a1.627,1.627,0,0,0-1.488-1.547,1.357,1.357,0,0,0-1.52,1.4M30.8,3.374a1.352,1.352,0,0,0-1.484,1.41c0,.727.729,1.656,1.334,1.579,1.006-.128,1.687-.607,1.665-1.607A1.362,1.362,0,0,0,30.8,3.374m-12.047,0A1.331,1.331,0,0,0,17.3,4.8c0,.681.727,1.591,1.243,1.567a1.649,1.649,0,0,0,1.759-1.527,1.4,1.4,0,0,0-1.548-1.469m.089,52.482a1.621,1.621,0,0,0,1.461-1.525,1.594,1.594,0,0,0-1.417-1.478,1.5,1.5,0,1,0-.044,3m-.063-24.917c-.985-.006-1.464.441-1.479,1.381a1.724,1.724,0,0,0,1.309,1.62A1.826,1.826,0,0,0,20.307,32.4a1.356,1.356,0,0,0-1.524-1.464m-13.5,1.388c0,.745.712,1.626,1.3,1.6.868-.036,1.8-.878,1.7-1.624-.114-.782-.489-1.471-1.548-1.384-1.034.085-1.442.406-1.444,1.406m7.454-1.388c-.987-.006-1.433.394-1.451,1.3a1.71,1.71,0,0,0,1.318,1.7A1.929,1.929,0,0,0,14.3,32.374a1.385,1.385,0,0,0-1.56-1.435M30.767,61.33a1.378,1.378,0,0,0,1.553-1.449,1.524,1.524,0,0,0-1.5-1.553,1.628,1.628,0,0,0-1.493,1.51,1.4,1.4,0,0,0,1.445,1.492M12.693,3.374a1.358,1.358,0,0,0-1.4,1.494c0,.6.729,1.5,1.209,1.505a1.637,1.637,0,0,0,1.787-1.589,1.357,1.357,0,0,0-1.594-1.41m-1.4,34.48c0,.675.735,1.59,1.246,1.56a1.69,1.69,0,0,0,1.755-1.548A1.4,1.4,0,0,0,12.734,36.4a1.347,1.347,0,0,0-1.444,1.452m7.432-1.439A1.334,1.334,0,0,0,17.3,37.887c.02.7.745,1.543,1.3,1.516a1.627,1.627,0,0,0,1.7-1.563,1.386,1.386,0,0,0-1.586-1.425m-12.033,0c-.966,0-1.4.452-1.4,1.447a1.6,1.6,0,0,0,1.238,1.547A1.836,1.836,0,0,0,8.3,37.85a1.475,1.475,0,0,0-1.607-1.435" transform="translate(0 0)" fill="#109e49"/>
    <path id="Trazado_231834" data-name="Trazado 231834" d="M208.824,138.559c1.234.02,2.469.053,3.7.057,2.738.009,5.475,0,8.213.006.993,0,1.359.348,1.36,1.308q.01,11.966,0,23.932c0,.96-.368,1.306-1.36,1.308-3.621.008-7.242,0-10.862.006-.351,0-.7.037-1.054.057l0-.08q0-1.225,0-2.45a1.707,1.707,0,0,0,1.151-1.916,22.275,22.275,0,0,1-.013-2.461c.014-.792-.291-1.289-1.139-1.336q0-1.034,0-2.068a1.781,1.781,0,0,0,1.146-1.931c-.049-.816-.021-1.637-.007-2.455a1.33,1.33,0,0,0-1.139-1.5q0-1.119,0-2.238a.891.891,0,0,0,.945-.731,9.785,9.785,0,0,0,.063-3.8,1.057,1.057,0,0,0-1.008-1.01q0-1.313,0-2.626Zm5.683,13.383h0c0-.585.037-1.174-.01-1.756a1.072,1.072,0,0,0-1.194-1.1,1.02,1.02,0,0,0-1.113,1.153c.01,1.083,0,2.166,0,3.249,0,.692.214,1.213,1.023,1.235a1.143,1.143,0,0,0,1.291-1.2c.03-.525.006-1.054.006-1.581m-2.319,7.774c0,.53-.009,1.06,0,1.589.015.719.538,1.375,1.075,1.369a1.4,1.4,0,0,0,1.238-1.343q.028-1.545,0-3.09c-.015-.857-.4-1.176-1.237-1.232-.93-.063-1.078.486-1.08,1.206q0,.751,0,1.5m4.564-15.683h-.014c0,.5-.007,1,0,1.5.015.908.4,1.406,1.071,1.414a1.344,1.344,0,0,0,1.232-1.442q.035-1.411,0-2.824a3.018,3.018,0,0,0-.2-.845c-.248-.746-.889-.552-1.414-.527-.5.024-.667.416-.674.869-.008.617,0,1.235,0,1.853M212.19,144c0,.587-.006,1.175,0,1.762.009.677.335,1.169,1.021,1.167a1.176,1.176,0,0,0,1.264-1.09,32.269,32.269,0,0,0,0-3.61c-.037-.7-.545-.967-1.236-.936a.962.962,0,0,0-1.047,1.034c-.019.558,0,1.116,0,1.674m6.857,7.936a13.379,13.379,0,0,0-.013-1.585c-.081-.672-.346-1.271-1.166-1.271s-1.118.366-1.128,1.309q-.016,1.5,0,3c.007.667.025,1.335.969,1.345a1.271,1.271,0,0,0,1.335-1.386c.022-.469,0-.94,0-1.41m-2.305,7.77c0,.588.019,1.177,0,1.765a1.026,1.026,0,0,0,.935,1.17,1.134,1.134,0,0,0,1.248-.861,7.235,7.235,0,0,0,.121-2.1,9.461,9.461,0,0,0-.066-1.844c-.142-.837-.821-.882-1.5-.821-.619.056-.725.505-.731,1.01-.007.559,0,1.118,0,1.677" transform="translate(-171.908 -114.065)" fill="#5a5c5b"/>
    <path id="Trazado_231835" data-name="Trazado 231835" d="M337.682,364.132a2.3,2.3,0,0,1-1.32-1.245c-.024-1.249.56-1.962,1.58-1.929.924.03,1.442.684,1.474,1.861.014.512-1.054,1.321-1.734,1.313" transform="translate(-276.901 -297.149)" fill="#eceeed"/>
    <path id="Trazado_231836" data-name="Trazado 231836" d="M304.826,144.6a1.727,1.727,0,0,1-1.352,1.661,1.866,1.866,0,0,1-1.651-1.628,1.614,1.614,0,0,1,1.489-1.543c1.112.056,1.629.727,1.513,1.51" transform="translate(-248.469 -117.792)" fill="#eceeed"/>
    <path id="Trazado_231837" data-name="Trazado 231837" d="M236.886,113.551a1.717,1.717,0,0,1-1.454,1.671,1.876,1.876,0,0,1-1.54-1.645,1.644,1.644,0,0,1,1.477-1.527,1.356,1.356,0,0,1,1.516,1.5" transform="translate(-192.546 -92.243)" fill="#eceeed"/>
    <path id="Trazado_231838" data-name="Trazado 231838" d="M236.951,362.664a1.7,1.7,0,0,1-1.428,1.5,1.741,1.741,0,0,1-1.556-1.588A1.545,1.545,0,0,1,235.478,361a1.444,1.444,0,0,1,1.473,1.666" transform="translate(-192.608 -297.177)" fill="#eceeed"/>
    <path id="Trazado_231839" data-name="Trazado 231839" d="M373.6,362.559a1.633,1.633,0,0,1-1.557,1.559c-.656.006-1.282-.8-1.29-1.666a1.387,1.387,0,0,1,1.336-1.511c.978-.029,1.493.522,1.511,1.618" transform="translate(-305.215 -297.135)" fill="#eceeed"/>
    <path id="Trazado_231840" data-name="Trazado 231840" d="M304.84,331.5a1.708,1.708,0,0,1-1.318,1.637,1.99,1.99,0,0,1-1.682-1.693,1.651,1.651,0,0,1,1.622-1.485,1.4,1.4,0,0,1,1.378,1.54" transform="translate(-248.482 -271.628)" fill="#eceeed"/>
    <path id="Trazado_231841" data-name="Trazado 231841" d="M336.786,331.4a1.3,1.3,0,0,1,1.355-1.444c.967,0,1.546.659,1.566,1.773.01.537-.947,1.39-1.57,1.4-.65.01-1.36-.9-1.352-1.729" transform="translate(-277.25 -271.629)" fill="#eceeed"/>
    <path id="Trazado_231842" data-name="Trazado 231842" d="M370.757,144.61a1.379,1.379,0,0,1,1.389-1.562,1.683,1.683,0,0,1,1.619,1.523,1.933,1.933,0,0,1-1.758,1.637c-.585-.023-1.241-.862-1.25-1.6" transform="translate(-305.217 -117.761)" fill="#eceeed"/>
    <path id="Trazado_231843" data-name="Trazado 231843" d="M304.841,362.513a1.675,1.675,0,0,1-1.392,1.61,1.857,1.857,0,0,1-1.606-1.648,1.742,1.742,0,0,1,1.612-1.527,1.443,1.443,0,0,1,1.387,1.565" transform="translate(-248.484 -297.141)" fill="#eceeed"/>
    <path id="Trazado_231844" data-name="Trazado 231844" d="M270.833,362.588a1.688,1.688,0,0,1-1.466,1.538,1.976,1.976,0,0,1-1.543-1.627,1.716,1.716,0,0,1,1.6-1.548,1.455,1.455,0,0,1,1.411,1.637" transform="translate(-220.479 -297.144)" fill="#eceeed"/>
    <path id="Trazado_231845" data-name="Trazado 231845" d="M237,51.485c-.013,1.041-.543,1.607-1.5,1.6a1.508,1.508,0,0,1-1.46-1.589c.127-.932.357-1.44,1.572-1.414a1.279,1.279,0,0,1,1.387,1.4" transform="translate(-192.663 -41.23)" fill="#eceeed"/>
    <path id="Trazado_231846" data-name="Trazado 231846" d="M303.406,392.889c1.037.005,1.425.394,1.422,1.426a1.627,1.627,0,0,1-1.509,1.587,1.712,1.712,0,0,1-1.492-1.56,1.471,1.471,0,0,1,1.579-1.452" transform="translate(-248.471 -323.436)" fill="#eceeed"/>
    <path id="Trazado_231847" data-name="Trazado 231847" d="M303.426,19.062a1.277,1.277,0,0,1,1.449,1.348c.015,1.015-.5,1.64-1.372,1.665a1.655,1.655,0,0,1-1.614-1.617,1.361,1.361,0,0,1,1.538-1.4" transform="translate(-248.518 -15.688)" fill="#eceeed"/>
    <path id="Trazado_231848" data-name="Trazado 231848" d="M236.883,300.534a1.684,1.684,0,0,1-1.483,1.647c-.573.016-1.528-1.053-1.511-1.692a1.56,1.56,0,0,1,1.6-1.478,1.368,1.368,0,0,1,1.4,1.523" transform="translate(-192.543 -246.154)" fill="#eceeed"/>
    <path id="Trazado_231849" data-name="Trazado 231849" d="M270.829,300.487a1.708,1.708,0,0,1-1.476,1.648,2.05,2.05,0,0,1-1.535-1.659,1.664,1.664,0,0,1,1.594-1.506,1.4,1.4,0,0,1,1.416,1.517" transform="translate(-220.475 -246.12)" fill="#eceeed"/>
    <path id="Trazado_231850" data-name="Trazado 231850" d="M236.885,331.475a1.675,1.675,0,0,1-1.467,1.655c-.607.032-1.527-.965-1.527-1.654a1.618,1.618,0,0,1,1.476-1.519,1.4,1.4,0,0,1,1.518,1.517" transform="translate(-192.545 -271.629)" fill="#eceeed"/>
    <path id="Trazado_231851" data-name="Trazado 231851" d="M236.946,394.353a1.666,1.666,0,0,1-1.468,1.55,1.64,1.64,0,0,1-1.512-1.6,1.366,1.366,0,0,1,1.583-1.408c1.008.012,1.409.433,1.4,1.462" transform="translate(-192.607 -323.438)" fill="#eceeed"/>
    <path id="Trazado_231852" data-name="Trazado 231852" d="M269.295,112.044a1.5,1.5,0,1,1,.033,3.006,1.5,1.5,0,0,1-.033-3.006" transform="translate(-220.476 -92.237)" fill="#eceeed"/>
    <path id="Trazado_231853" data-name="Trazado 231853" d="M304.827,269.467a1.377,1.377,0,0,1-1.493,1.522,1.643,1.643,0,0,1-1.509-1.61,1.526,1.526,0,0,1,1.582-1.394,1.357,1.357,0,0,1,1.42,1.483" transform="translate(-248.469 -220.611)" fill="#eceeed"/>
    <path id="Trazado_231854" data-name="Trazado 231854" d="M304.841,82.533c-.012,1.012-.516,1.551-1.446,1.548a1.5,1.5,0,1,1,0-3,1.329,1.329,0,0,1,1.45,1.455" transform="translate(-248.484 -66.746)" fill="#eceeed"/>
    <path id="Trazado_231855" data-name="Trazado 231855" d="M303.4,236.983a1.3,1.3,0,0,1,1.417,1.473,1.385,1.385,0,0,1-1.4,1.535,1.7,1.7,0,0,1-1.6-1.63,1.448,1.448,0,0,1,1.585-1.378" transform="translate(-248.462 -195.09)" fill="#eceeed"/>
    <path id="Trazado_231856" data-name="Trazado 231856" d="M304.845,300.528a1.728,1.728,0,0,1-1.424,1.6,1.969,1.969,0,0,1-1.574-1.713,1.607,1.607,0,0,1,1.644-1.452,1.393,1.393,0,0,1,1.353,1.562" transform="translate(-248.488 -246.116)" fill="#eceeed"/>
    <path id="Trazado_231857" data-name="Trazado 231857" d="M339.621,144.616a1.691,1.691,0,0,1-1.375,1.631,1.631,1.631,0,0,1-1.46-1.625c.005-.966.552-1.629,1.371-1.541,1.036.11,1.59.58,1.464,1.535" transform="translate(-277.251 -117.781)" fill="#eceeed"/>
    <path id="Trazado_231858" data-name="Trazado 231858" d="M372.256,267.982a1.623,1.623,0,0,1,1.511,1.5,1.685,1.685,0,0,1-1.631,1.508,1.385,1.385,0,0,1-1.377-1.571,1.34,1.34,0,0,1,1.5-1.433" transform="translate(-305.218 -220.61)" fill="#eceeed"/>
    <path id="Trazado_231859" data-name="Trazado 231859" d="M269.32,84.083a1.659,1.659,0,0,1-1.494-1.6,1.694,1.694,0,0,1,1.5-1.4,1.5,1.5,0,1,1-.01,3" transform="translate(-220.481 -66.748)" fill="#eceeed"/>
    <path id="Trazado_231860" data-name="Trazado 231860" d="M303.348,115.05a1.61,1.61,0,0,1-1.51-1.487,1.63,1.63,0,0,1,1.481-1.52,1.5,1.5,0,1,1,.029,3.006" transform="translate(-248.48 -92.237)" fill="#eceeed"/>
    <path id="Trazado_231861" data-name="Trazado 231861" d="M304.847,51.57a1.4,1.4,0,0,1-1.506,1.524,1.688,1.688,0,0,1-1.491-1.553,1.433,1.433,0,0,1,1.591-1.448,1.289,1.289,0,0,1,1.406,1.477" transform="translate(-248.49 -41.238)" fill="#eceeed"/>
    <path id="Trazado_231862" data-name="Trazado 231862" d="M269.387,50.094a1.32,1.32,0,0,1,1.448,1.527,1.442,1.442,0,0,1-1.486,1.475,1.669,1.669,0,0,1-1.523-1.613,1.6,1.6,0,0,1,1.561-1.389" transform="translate(-220.481 -41.238)" fill="#eceeed"/>
    <path id="Trazado_231863" data-name="Trazado 231863" d="M235.361,84.084a1.627,1.627,0,0,1-1.469-1.535,1.511,1.511,0,0,1,1.5-1.469,1.352,1.352,0,0,1,1.492,1.515,1.389,1.389,0,0,1-1.525,1.489" transform="translate(-192.546 -66.747)" fill="#eceeed"/>
    <path id="Trazado_231864" data-name="Trazado 231864" d="M339.62,82.52a1.4,1.4,0,0,1-1.45,1.564c-.873.015-1.383-.541-1.384-1.507a1.418,1.418,0,1,1,2.834-.057" transform="translate(-277.251 -66.748)" fill="#eceeed"/>
    <path id="Trazado_231865" data-name="Trazado 231865" d="M373.606,331.438a1.717,1.717,0,0,1-1.406,1.7,1.639,1.639,0,0,1-1.441-1.662,1.425,1.425,0,1,1,2.847-.034" transform="translate(-305.218 -271.63)" fill="#eceeed"/>
    <path id="Trazado_231866" data-name="Trazado 231866" d="M235.516,19.029a1.3,1.3,0,0,1,1.456,1.436,1.527,1.527,0,0,1-1.678,1.564,1.608,1.608,0,0,1-1.283-1.623c.174-.927.4-1.483,1.505-1.378" transform="translate(-192.632 -15.654)" fill="#eceeed"/>
    <path id="Trazado_231867" data-name="Trazado 231867" d="M304.824,176.379a1.657,1.657,0,0,1-1.45,1.645,1.893,1.893,0,0,1-1.552-1.619,1.423,1.423,0,0,1,1.449-1.387c1.163,0,1.549.334,1.553,1.361" transform="translate(-248.467 -144.079)" fill="#eceeed"/>
    <path id="Trazado_231868" data-name="Trazado 231868" d="M338.144,298.97c.85-.026,1.48.74,1.519,1.846.014.384-1.134,1.337-1.59,1.319a1.751,1.751,0,0,1-1.391-1.453c-.118-1.285.5-1.545,1.462-1.712" transform="translate(-277.153 -246.119)" fill="#eceeed"/>
    <path id="Trazado_231869" data-name="Trazado 231869" d="M339.617,51.6c.168.911-.608,1.442-1.523,1.482-.8.035-1.326-.652-1.311-1.612a1.293,1.293,0,0,1,1.493-1.38c.973.023,1.356.455,1.342,1.51" transform="translate(-277.248 -41.236)" fill="#eceeed"/>
    <path id="Trazado_231870" data-name="Trazado 231870" d="M372.222,84.083a1.363,1.363,0,0,1-1.46-1.544,1.427,1.427,0,1,1,1.46,1.544" transform="translate(-305.22 -66.748)" fill="#eceeed"/>
    <path id="Trazado_231871" data-name="Trazado 231871" d="M372.105,175.02a1.455,1.455,0,0,1,1.66,1.37,1.986,1.986,0,0,1-1.662,1.637,1.63,1.63,0,0,1-1.345-1.635c0-1,.369-1.368,1.347-1.372" transform="translate(-305.217 -144.081)" fill="#eceeed"/>
    <path id="Trazado_231872" data-name="Trazado 231872" d="M269.415,332.914a1.506,1.506,0,1,1,.048-3.01,1.433,1.433,0,0,1,1.419,1.45,1.385,1.385,0,0,1-1.467,1.56" transform="translate(-220.527 -271.584)" fill="#eceeed"/>
    <path id="Trazado_231873" data-name="Trazado 231873" d="M269.338,392.891a1.3,1.3,0,0,1,1.5,1.286,1.659,1.659,0,0,1-1.473,1.725,1.717,1.717,0,0,1-1.536-1.6,1.414,1.414,0,0,1,1.511-1.414" transform="translate(-220.482 -323.438)" fill="#eceeed"/>
    <path id="Trazado_231874" data-name="Trazado 231874" d="M338.2,392.893c1.074,0,1.426.375,1.42,1.5A1.445,1.445,0,0,1,338.1,395.9a1.423,1.423,0,0,1-1.317-1.619c.008-1.034.376-1.4,1.415-1.392" transform="translate(-277.249 -323.439)" fill="#eceeed"/>
    <path id="Trazado_231875" data-name="Trazado 231875" d="M269.365,19.088a1.35,1.35,0,0,1,1.467,1.518,1.641,1.641,0,0,1-1.508,1.494,1.721,1.721,0,0,1-1.5-1.636,1.415,1.415,0,0,1,1.542-1.376" transform="translate(-220.477 -15.714)" fill="#eceeed"/>
    <path id="Trazado_231876" data-name="Trazado 231876" d="M304.818,207.386a1.653,1.653,0,0,1-1.39,1.619,1.771,1.771,0,0,1-1.613-1.553,1.492,1.492,0,0,1,1.5-1.454c.989,0,1.493.465,1.5,1.388" transform="translate(-248.462 -169.583)" fill="#eceeed"/>
    <path id="Trazado_231877" data-name="Trazado 231877" d="M336.786,113.489a1.332,1.332,0,0,1,1.368-1.442,1.5,1.5,0,0,1-.059,3.006c-.85,0-1.317-.562-1.309-1.564" transform="translate(-277.25 -92.24)" fill="#eceeed"/>
    <path id="Trazado_231878" data-name="Trazado 231878" d="M201.428,114.789a1.527,1.527,0,0,1-1.589-1.485c-.031-.825.568-1.433,1.589-1.613,1.447.634,1.76,1.391,1.091,2.517a1.307,1.307,0,0,1-1.09.581" transform="translate(-164.511 -91.947)" fill="#eceeed"/>
    <path id="Trazado_231879" data-name="Trazado 231879" d="M338.185,175.02c1.045,0,1.433.381,1.434,1.395a1.641,1.641,0,0,1-1.49,1.613,1.438,1.438,0,0,1-1.345-1.607c0-1.064.343-1.4,1.4-1.4" transform="translate(-277.249 -144.081)" fill="#eceeed"/>
    <path id="Trazado_231880" data-name="Trazado 231880" d="M372.225,236.984a1.623,1.623,0,0,1,1.543,1.448,1.889,1.889,0,0,1-1.862,1.554c-.628-.024-1.151-.755-1.144-1.6a1.288,1.288,0,0,1,1.464-1.4" transform="translate(-305.22 -195.091)" fill="#eceeed"/>
    <path id="Trazado_231881" data-name="Trazado 231881" d="M339.618,207.488a1.429,1.429,0,1,1-2.836-.143c.017-.963.426-1.357,1.4-1.347,1.083.011,1.448.39,1.436,1.49" transform="translate(-277.247 -169.583)" fill="#eceeed"/>
    <path id="Trazado_231882" data-name="Trazado 231882" d="M373.6,113.506a1.547,1.547,0,0,1-1.419,1.63,1.471,1.471,0,0,1-1.428-1.544,1.426,1.426,0,1,1,2.847-.085" transform="translate(-305.215 -92.241)" fill="#eceeed"/>
    <path id="Trazado_231883" data-name="Trazado 231883" d="M201.425,301.9c-.969-.17-1.553-.726-1.588-1.511-.037-.819.516-1.371,1.589-1.587a1.49,1.49,0,0,1,1.407,1.475c.078.725-.519,1.37-1.407,1.622" transform="translate(-164.509 -245.985)" fill="#eceeed"/>
    <path id="Trazado_231884" data-name="Trazado 231884" d="M339.62,269.494a1.356,1.356,0,0,1-1.432,1.493c-.908-.007-1.412-.589-1.4-1.62a1.3,1.3,0,0,1,1.43-1.384,1.356,1.356,0,0,1,1.4,1.511" transform="translate(-277.25 -220.611)" fill="#eceeed"/>
    <path id="Trazado_231885" data-name="Trazado 231885" d="M336.783,20.5c.005-1.036.388-1.416,1.426-1.413s1.424.4,1.409,1.428a1.487,1.487,0,0,1-1.751,1.555c-.58-.024-1.088-.76-1.084-1.569" transform="translate(-277.248 -15.714)" fill="#eceeed"/>
    <path id="Trazado_231886" data-name="Trazado 231886" d="M373.6,300.49a1.725,1.725,0,0,1-1.441,1.669,1.671,1.671,0,0,1-1.406-1.642,1.426,1.426,0,1,1,2.847-.027" transform="translate(-305.215 -246.144)" fill="#eceeed"/>
    <path id="Trazado_231887" data-name="Trazado 231887" d="M373.6,20.453c.015,1.029-.516,1.566-1.612,1.631-.608.036-1.225-.727-1.234-1.527-.011-.992.391-1.454,1.28-1.47,1.14-.022,1.552.337,1.566,1.366" transform="translate(-305.216 -15.712)" fill="#eceeed"/>
    <path id="Trazado_231888" data-name="Trazado 231888" d="M372.227,392.89c.982.01,1.4.453,1.379,1.476a1.446,1.446,0,0,1-1.428,1.534,1.566,1.566,0,0,1-1.419-1.635c.01-.955.47-1.386,1.468-1.376" transform="translate(-305.219 -323.437)" fill="#eceeed"/>
    <path id="Trazado_231889" data-name="Trazado 231889" d="M338.173,236.984a1.287,1.287,0,0,1,1.434,1.356,1.482,1.482,0,0,1-1.659,1.647c-.609.007-1.169-.7-1.179-1.478-.014-1.1.374-1.517,1.4-1.525" transform="translate(-277.237 -195.091)" fill="#eceeed"/>
    <path id="Trazado_231890" data-name="Trazado 231890" d="M372.183,50.094a1.3,1.3,0,0,1,1.422,1.477,1.412,1.412,0,0,1-1.518,1.526,1.388,1.388,0,0,1-1.329-1.521,1.325,1.325,0,0,1,1.425-1.481" transform="translate(-305.218 -41.238)" fill="#eceeed"/>
    <path id="Trazado_231891" data-name="Trazado 231891" d="M201.432,332.857a1.669,1.669,0,0,1-1.589-1.493c-.015-.6.806-1.414,1.589-1.571,1.207.435,1.5.78,1.413,1.723a1.4,1.4,0,0,1-1.413,1.341" transform="translate(-164.516 -271.494)" fill="#eceeed"/>
    <path id="Trazado_231892" data-name="Trazado 231892" d="M372.12,206c1.076,0,1.49.4,1.481,1.449a1.47,1.47,0,0,1-1.591,1.542c-.629,0-1.264-.814-1.257-1.608.008-.946.438-1.382,1.367-1.384" transform="translate(-305.213 -169.583)" fill="#eceeed"/>
    <path id="Trazado_231893" data-name="Trazado 231893" d="M201.459,83.959c-.759-.165-1.6-.946-1.583-1.515.036-1,.737-1.357,1.583-1.549,1.211.4,1.512.734,1.41,1.7a1.485,1.485,0,0,1-1.41,1.361" transform="translate(-164.542 -66.595)" fill="#eceeed"/>
    <path id="Trazado_231894" data-name="Trazado 231894" d="M201.375,395.765c-.351-.3-.954-.176-1.178-.626-.216-.433-.645-.844-.283-1.429.348-.562.707-1.061,1.461-1.02a1.343,1.343,0,0,1,1.416,1.261c.133.839-.319,1.38-1.416,1.815" transform="translate(-164.459 -323.27)" fill="#eceeed"/>
    <path id="Trazado_231895" data-name="Trazado 231895" d="M201.438,53c-.8-.218-1.586-1.029-1.588-1.64,0-.661.657-1.263,1.588-1.451a1.393,1.393,0,0,1,1.415,1.421A1.685,1.685,0,0,1,201.438,53" transform="translate(-164.522 -41.086)" fill="#eceeed"/>
    <path id="Trazado_231896" data-name="Trazado 231896" d="M201.486,21.955a1.846,1.846,0,0,1-1.561-1.5c-.105-.548.294-.975.741-1.331.27-.215.552-.12.82-.2a1.326,1.326,0,0,1,1.413,1.316c.1.828-.325,1.324-1.231,1.56-.069.018-.121.1-.182.158" transform="translate(-164.57 -15.577)" fill="#eceeed"/>
    <path id="Trazado_231897" data-name="Trazado 231897" d="M201.534,364.642c-.752-.073-1.572-.7-1.568-1.32a1.617,1.617,0,0,1,1.22-1.573c1.552.058,2.258,1.054,1.563,2.2a1.419,1.419,0,0,1-1.215.688" transform="translate(-164.617 -297.802)" fill="#eceeed"/>
    <path id="Trazado_231898" data-name="Trazado 231898" d="M147.035,155.243q0,1.034,0,2.068c-.826-.048-1.143.38-1.137,1.166.008,1.167-.016,2.335-.027,3.5-.125.253.045.288.23.314.271.3.469.684.934.731q0,1.225,0,2.45-5.957.007-11.915.011c-1.024,0-1.35-.342-1.351-1.4q-.005-11.871,0-23.742c0-1.056.327-1.4,1.351-1.4q5.957,0,11.915.011v2.626c-.8-.072-1.122.361-1.127,1.1-.008,1.114,0,2.228,0,3.343,0,.748.354,1.142,1.129,1.1v2.238a1.279,1.279,0,0,0-1.141,1.487,16.1,16.1,0,0,1-.006,2.117,1.941,1.941,0,0,0,1.148,2.279m-3.359,4.862h-.007a15.532,15.532,0,0,0-.013-1.76c-.095-.825-.635-1.067-1.434-1.022-.748.043-.851.51-.861,1.067-.019,1.086.007,2.173-.013,3.258-.014.753.285,1.255,1.057,1.336.671.071,1.231-.563,1.266-1.383.021-.5,0-1,0-1.5m0-15.743h-.008a15.6,15.6,0,0,0-.013-1.759c-.088-.772-.575-1.035-1.356-1.009s-.928.482-.937,1.087c-.016,1.085.005,2.171-.011,3.257-.011.753.289,1.254,1.07,1.321a1.305,1.305,0,0,0,1.249-1.312c.029-.527.006-1.056.006-1.584m-6.852,7.866c0,.586.012,1.173,0,1.759a.912.912,0,0,0,.817,1.042c.569.08,1.148-.009,1.3-.706a9.52,9.52,0,0,0,0-4.217.935.935,0,0,0-1.218-.7.949.949,0,0,0-.91,1.061c.039.584.008,1.172.009,1.758m0-7.935c0,.558,0,1.117,0,1.675.007.681.239,1.265,1,1.28a1.22,1.22,0,0,0,1.278-1.184,22.125,22.125,0,0,0,0-3.433,1.084,1.084,0,0,0-1.347-1.029c-.751.084-.972.508-.934,1.194.028.5.005,1,.007,1.5m2.308,15.8q0-.749,0-1.5a1.294,1.294,0,0,0,0-.176c-.106-.774-.548-1.072-1.393-1.091s-.884.546-.9,1.106c-.033,1.056-.015,2.115-.011,3.172,0,.781.5,1.451,1.1,1.369a1.334,1.334,0,0,0,1.193-1.3c.049-.524.01-1.057.012-1.585m2.23-7.884c0,.556-.01,1.113,0,1.67.015.66.28,1.124,1.011,1.163a1.242,1.242,0,0,0,1.295-1.135,34,34,0,0,0-.014-3.425,1.09,1.09,0,0,0-1.149-1.08,1.045,1.045,0,0,0-1.145,1.138q0,.835,0,1.67" transform="translate(-110.119 -114.385)" fill="#4d4e4d"/>
    <path id="Trazado_231899" data-name="Trazado 231899" d="M167.3,50.1a1.36,1.36,0,0,1,1.568,1.437,1.565,1.565,0,0,1-1.493,1.565,1.4,1.4,0,0,1-1.506-1.529A1.357,1.357,0,0,1,167.3,50.1" transform="translate(-136.545 -41.241)" fill="#eceeed"/>
    <path id="Trazado_231900" data-name="Trazado 231900" d="M133.266,115.053a1.381,1.381,0,0,1-1.426-1.408,1.426,1.426,0,0,1,1.521-1.6,1.5,1.5,0,0,1,1.49,1.475,1.428,1.428,0,0,1-1.584,1.531" transform="translate(-108.534 -92.24)" fill="#eceeed"/>
    <path id="Trazado_231901" data-name="Trazado 231901" d="M131.839,331.445a1.48,1.48,0,0,1,1.484-1.486,1.637,1.637,0,0,1,1.529,1.484,1.673,1.673,0,0,1-1.547,1.689,1.711,1.711,0,0,1-1.466-1.686" transform="translate(-108.533 -271.63)" fill="#eceeed"/>
    <path id="Trazado_231902" data-name="Trazado 231902" d="M29.879,331.494c-.08-.84.48-1.443,1.518-1.493a1.625,1.625,0,0,1,1.489,1.539,2.062,2.062,0,0,1-1.592,1.629,1.671,1.671,0,0,1-1.416-1.675" transform="translate(-24.591 -271.664)" fill="#eceeed"/>
    <path id="Trazado_231903" data-name="Trazado 231903" d="M29.914,362.475a1.44,1.44,0,0,1,1.516-1.531,1.691,1.691,0,0,1,1.491,1.646,1.907,1.907,0,0,1-1.645,1.531,1.65,1.65,0,0,1-1.362-1.646" transform="translate(-24.626 -297.138)" fill="#eceeed"/>
    <path id="Trazado_231904" data-name="Trazado 231904" d="M133.336,84.083a1.426,1.426,0,0,1-1.5-1.618,1.51,1.51,0,0,1,3.015.161,1.587,1.587,0,0,1-1.515,1.458" transform="translate(-108.531 -66.748)" fill="#eceeed"/>
    <path id="Trazado_231905" data-name="Trazado 231905" d="M131.839,362.525a1.572,1.572,0,0,1,1.51-1.579,1.615,1.615,0,0,1,1.5,1.611,1.508,1.508,0,1,1-3.012-.032" transform="translate(-108.533 -297.14)" fill="#eceeed"/>
    <path id="Trazado_231906" data-name="Trazado 231906" d="M133.324,301.974a1.5,1.5,0,1,1,1.526-1.52,1.481,1.481,0,0,1-1.526,1.52" transform="translate(-108.533 -246.119)" fill="#eceeed"/>
    <path id="Trazado_231907" data-name="Trazado 231907" d="M63.867,331.46a1.412,1.412,0,0,1,1.531-1.5,1.66,1.66,0,0,1,1.481,1.547,1.893,1.893,0,0,1-1.539,1.626,1.681,1.681,0,0,1-1.472-1.671" transform="translate(-52.577 -271.63)" fill="#eceeed"/>
    <path id="Trazado_231908" data-name="Trazado 231908" d="M31.292,84.08c-.894-.013-1.394-.6-1.379-1.628a1.3,1.3,0,0,1,1.515-1.374A1.593,1.593,0,0,1,32.921,82.6a1.64,1.64,0,0,1-1.628,1.476" transform="translate(-24.625 -66.745)" fill="#eceeed"/>
    <path id="Trazado_231909" data-name="Trazado 231909" d="M65.306,81.08a1.435,1.435,0,0,1,1.574,1.481,1.642,1.642,0,0,1-1.693,1.521,1.393,1.393,0,0,1-1.318-1.525,1.359,1.359,0,0,1,1.438-1.477" transform="translate(-52.578 -66.747)" fill="#eceeed"/>
    <path id="Trazado_231910" data-name="Trazado 231910" d="M167.426,84.082a1.58,1.58,0,0,1-1.559-1.414,1.414,1.414,0,0,1,1.447-1.588,1.382,1.382,0,0,1,1.554,1.549,1.347,1.347,0,0,1-1.441,1.454" transform="translate(-136.545 -66.746)" fill="#eceeed"/>
    <path id="Trazado_231911" data-name="Trazado 231911" d="M29.914,144.565a1.38,1.38,0,0,1,1.405-1.522,1.655,1.655,0,0,1,1.6,1.529,1.92,1.92,0,0,1-1.747,1.632c-.592-.012-1.272-.9-1.262-1.639" transform="translate(-24.625 -117.757)" fill="#eceeed"/>
    <path id="Trazado_231912" data-name="Trazado 231912" d="M100.887,362.5c.16.753-.955,1.614-1.614,1.613a1.65,1.65,0,0,1-1.389-1.542,1.578,1.578,0,0,1,1.445-1.63,1.632,1.632,0,0,1,1.558,1.559" transform="translate(-80.58 -297.137)" fill="#eceeed"/>
    <path id="Trazado_231913" data-name="Trazado 231913" d="M167.4,112.048a1.411,1.411,0,0,1,1.464,1.5c.007.772-.808,1.7-1.465,1.673a1.852,1.852,0,0,1-1.533-1.73,1.543,1.543,0,0,1,1.534-1.442" transform="translate(-136.542 -92.241)" fill="#eceeed"/>
    <path id="Trazado_231914" data-name="Trazado 231914" d="M99.3,50.1a1.4,1.4,0,0,1,1.582,1.513A1.629,1.629,0,0,1,99.3,53.1a1.459,1.459,0,0,1-1.42-1.536A1.346,1.346,0,0,1,99.3,50.1" transform="translate(-80.58 -41.24)" fill="#eceeed"/>
    <path id="Trazado_231915" data-name="Trazado 231915" d="M65.3,50.1c.961,0,1.576.517,1.583,1.331A1.652,1.652,0,0,1,65.267,53.1a1.434,1.434,0,0,1-1.4-1.538A1.358,1.358,0,0,1,65.3,50.1" transform="translate(-52.578 -41.239)" fill="#eceeed"/>
    <path id="Trazado_231916" data-name="Trazado 231916" d="M168.867,362.57a1.667,1.667,0,0,1-1.564,1.552,1.685,1.685,0,0,1-1.434-1.684,1.5,1.5,0,1,1,3,.133" transform="translate(-136.547 -297.139)" fill="#eceeed"/>
    <path id="Trazado_231917" data-name="Trazado 231917" d="M97.886,144.592a1.517,1.517,0,0,1,1.5-1.56,1.629,1.629,0,0,1,1.5,1.619,1.8,1.8,0,0,1-1.761,1.542,1.744,1.744,0,0,1-1.241-1.6" transform="translate(-80.582 -117.747)" fill="#eceeed"/>
    <path id="Trazado_231918" data-name="Trazado 231918" d="M65.384,360.946a1.672,1.672,0,0,1,1.5,1.626,1.889,1.889,0,0,1-1.6,1.55,1.694,1.694,0,0,1-1.4-1.716,1.574,1.574,0,0,1,1.511-1.46" transform="translate(-52.581 -297.14)" fill="#eceeed"/>
    <path id="Trazado_231919" data-name="Trazado 231919" d="M63.863,144.576a1.414,1.414,0,0,1,1.5-1.535,1.644,1.644,0,0,1,1.512,1.518,1.868,1.868,0,0,1-1.7,1.642c-.588.023-1.3-.864-1.308-1.624" transform="translate(-52.573 -117.755)" fill="#eceeed"/>
    <path id="Trazado_231920" data-name="Trazado 231920" d="M31.329,50.095a1.435,1.435,0,0,1,1.591,1.371A1.676,1.676,0,0,1,31.232,53.1a1.406,1.406,0,0,1-1.318-1.54,1.3,1.3,0,0,1,1.415-1.467" transform="translate(-24.625 -41.239)" fill="#eceeed"/>
    <path id="Trazado_231921" data-name="Trazado 231921" d="M97.886,331.5a1.53,1.53,0,0,1,1.507-1.539,1.632,1.632,0,0,1,1.5,1.524,1.778,1.778,0,0,1-1.489,1.65,1.76,1.76,0,0,1-1.515-1.635" transform="translate(-80.582 -271.631)" fill="#eceeed"/>
    <path id="Trazado_231922" data-name="Trazado 231922" d="M133.318,50.095a1.353,1.353,0,0,1,1.533,1.478,1.6,1.6,0,0,1-1.588,1.524,1.566,1.566,0,0,1-1.424-1.57,1.354,1.354,0,0,1,1.479-1.432" transform="translate(-108.533 -41.239)" fill="#eceeed"/>
    <path id="Trazado_231923" data-name="Trazado 231923" d="M29.914,113.585a1.375,1.375,0,0,1,1.462-1.54,1.644,1.644,0,0,1,1.547,1.472,1.933,1.933,0,0,1-1.541,1.648,1.533,1.533,0,0,1-1.467-1.581" transform="translate(-24.626 -92.238)" fill="#eceeed"/>
    <path id="Trazado_231924" data-name="Trazado 231924" d="M133.359,392.891a1.346,1.346,0,0,1,1.49,1.421,1.509,1.509,0,1,1-3.012-.039,1.348,1.348,0,0,1,1.522-1.382" transform="translate(-108.532 -323.438)" fill="#eceeed"/>
    <path id="Trazado_231925" data-name="Trazado 231925" d="M167.4,392.89a1.352,1.352,0,0,1,1.467,1.434,1.5,1.5,0,1,1-3-.066,1.366,1.366,0,0,1,1.532-1.368" transform="translate(-136.542 -323.437)" fill="#eceeed"/>
    <path id="Trazado_231926" data-name="Trazado 231926" d="M99.414,392.888a1.357,1.357,0,0,1,1.471,1.444,1.662,1.662,0,0,1-1.544,1.569,1.632,1.632,0,0,1-1.458-1.648,1.37,1.37,0,0,1,1.531-1.365" transform="translate(-80.579 -323.435)" fill="#eceeed"/>
    <path id="Trazado_231927" data-name="Trazado 231927" d="M99.359,84.08a1.435,1.435,0,0,1-1.472-1.488,1.5,1.5,0,0,1,3-.066,1.584,1.584,0,0,1-1.531,1.553" transform="translate(-80.583 -66.745)" fill="#eceeed"/>
    <path id="Trazado_231928" data-name="Trazado 231928" d="M167.43,299.013a1.509,1.509,0,0,1,1.436,1.522,1.812,1.812,0,0,1-1.51,1.648,2.016,2.016,0,0,1-1.488-1.681,1.468,1.468,0,0,1,1.562-1.49" transform="translate(-136.547 -246.155)" fill="#eceeed"/>
    <path id="Trazado_231929" data-name="Trazado 231929" d="M97.886,269.457a1.381,1.381,0,0,1,1.536-1.474,1.484,1.484,0,0,1,1.468,1.489,1.63,1.63,0,0,1-1.6,1.515,1.427,1.427,0,0,1-1.407-1.529" transform="translate(-80.582 -220.61)" fill="#eceeed"/>
    <path id="Trazado_231930" data-name="Trazado 231930" d="M29.914,238.428a1.278,1.278,0,0,1,1.344-1.445,1.53,1.53,0,0,1,1.662,1.409,1.667,1.667,0,0,1-1.625,1.6,1.408,1.408,0,0,1-1.381-1.563" transform="translate(-24.626 -195.09)" fill="#eceeed"/>
    <path id="Trazado_231931" data-name="Trazado 231931" d="M31.432,267.983a1.59,1.59,0,0,1,1.49,1.5,1.663,1.663,0,0,1-1.628,1.5c-.874-.018-1.394-.63-1.381-1.629a1.336,1.336,0,0,1,1.519-1.376" transform="translate(-24.625 -220.61)" fill="#eceeed"/>
    <path id="Trazado_231932" data-name="Trazado 231932" d="M31.377,19.086a1.416,1.416,0,0,1,1.541,1.4,1.673,1.673,0,0,1-1.786,1.6c-.627.025-1.216-.716-1.221-1.535-.006-1.037.422-1.464,1.467-1.465" transform="translate(-24.623 -15.712)" fill="#eceeed"/>
    <path id="Trazado_231933" data-name="Trazado 231933" d="M65.251,115.055a1.365,1.365,0,0,1-1.385-1.436,1.4,1.4,0,0,1,1.445-1.569,1.506,1.506,0,1,1-.06,3.005" transform="translate(-52.576 -92.242)" fill="#eceeed"/>
    <path id="Trazado_231934" data-name="Trazado 231934" d="M63.865,300.444a1.4,1.4,0,0,1,1.545-1.475,1.629,1.629,0,0,1,1.467,1.542,2.083,2.083,0,0,1-1.581,1.625,1.7,1.7,0,0,1-1.431-1.691" transform="translate(-52.575 -246.118)" fill="#eceeed"/>
    <path id="Trazado_231935" data-name="Trazado 231935" d="M63.861,269.484a1.382,1.382,0,0,1,1.511-1.5,1.517,1.517,0,0,1,1.5,1.55,1.638,1.638,0,0,1-1.572,1.454,1.431,1.431,0,0,1-1.441-1.5" transform="translate(-52.572 -220.61)" fill="#eceeed"/>
    <path id="Trazado_231936" data-name="Trazado 231936" d="M31.4,392.887c1.062-.011,1.421.571,1.5,1.431.067.692-.884,1.584-1.572,1.581a1.562,1.562,0,0,1-1.419-1.65c.013-.976.447-1.374,1.486-1.361" transform="translate(-24.624 -323.434)" fill="#eceeed"/>
    <path id="Trazado_231937" data-name="Trazado 231937" d="M133.306,19.088a1.373,1.373,0,0,1,1.544,1.467,1.667,1.667,0,0,1-1.757,1.536,1.744,1.744,0,0,1-1.255-1.571,1.352,1.352,0,0,1,1.468-1.432" transform="translate(-108.533 -15.714)" fill="#eceeed"/>
    <path id="Trazado_231938" data-name="Trazado 231938" d="M63.868,394.109c.012-.854.582-1.268,1.557-1.343a1.411,1.411,0,0,1,1.444,1.49,1.682,1.682,0,0,1-1.482,1.541,1.64,1.64,0,0,1-1.519-1.687" transform="translate(-52.578 -323.331)" fill="#eceeed"/>
    <path id="Trazado_231939" data-name="Trazado 231939" d="M99.333,236.984a1.4,1.4,0,0,1,1.554,1.38,1.625,1.625,0,0,1-1.564,1.627,1.59,1.59,0,0,1-1.439-1.549,1.358,1.358,0,0,1,1.449-1.459" transform="translate(-80.58 -195.091)" fill="#eceeed"/>
    <path id="Trazado_231940" data-name="Trazado 231940" d="M65.329,236.983a1.445,1.445,0,0,1,1.545,1.412,1.669,1.669,0,0,1-1.522,1.6,1.536,1.536,0,0,1-1.489-1.573,1.341,1.341,0,0,1,1.466-1.435" transform="translate(-52.573 -195.09)" fill="#eceeed"/>
    <path id="Trazado_231941" data-name="Trazado 231941" d="M97.887,113.552a1.385,1.385,0,0,1,1.442-1.5,1.612,1.612,0,0,1,1.561,1.549,1.953,1.953,0,0,1-1.528,1.578,1.584,1.584,0,0,1-1.475-1.626" transform="translate(-80.583 -92.243)" fill="#eceeed"/>
    <path id="Trazado_231942" data-name="Trazado 231942" d="M29.914,300.4a1.358,1.358,0,0,1,1.52-1.4,1.628,1.628,0,0,1,1.488,1.547A1.656,1.656,0,0,1,31.335,302c-.894.006-1.43-.6-1.422-1.6" transform="translate(-24.625 -246.141)" fill="#eceeed"/>
    <path id="Trazado_231943" data-name="Trazado 231943" d="M167.351,19.088a1.362,1.362,0,0,1,1.515,1.382c.022,1-.659,1.48-1.665,1.607-.605.077-1.337-.852-1.334-1.579a1.352,1.352,0,0,1,1.484-1.41" transform="translate(-136.546 -15.714)" fill="#eceeed"/>
    <path id="Trazado_231944" data-name="Trazado 231944" d="M99.34,19.087a1.4,1.4,0,0,1,1.548,1.469,1.649,1.649,0,0,1-1.759,1.527c-.516.024-1.238-.887-1.243-1.567a1.331,1.331,0,0,1,1.454-1.429" transform="translate(-80.582 -15.713)" fill="#eceeed"/>
    <path id="Trazado_231945" data-name="Trazado 231945" d="M99.429,301.987a1.5,1.5,0,1,1,.044-3,1.594,1.594,0,0,1,1.417,1.478,1.621,1.621,0,0,1-1.461,1.525" transform="translate(-80.582 -246.131)" fill="#eceeed"/>
    <path id="Trazado_231946" data-name="Trazado 231946" d="M99.365,175.02a1.356,1.356,0,0,1,1.524,1.464,1.826,1.826,0,0,1-1.694,1.538,1.724,1.724,0,0,1-1.309-1.62c.016-.941.494-1.387,1.479-1.381" transform="translate(-80.582 -144.081)" fill="#eceeed"/>
    <path id="Trazado_231947" data-name="Trazado 231947" d="M29.91,176.288c0-1,.409-1.322,1.444-1.407,1.059-.087,1.434.6,1.548,1.384.109.747-.827,1.588-1.7,1.624-.584.025-1.3-.856-1.3-1.6" transform="translate(-24.623 -143.961)" fill="#eceeed"/>
    <path id="Trazado_231948" data-name="Trazado 231948" d="M65.32,175.019a1.385,1.385,0,0,1,1.56,1.436,1.929,1.929,0,0,1-1.692,1.567,1.71,1.71,0,0,1-1.318-1.7c.017-.908.464-1.308,1.451-1.3" transform="translate(-52.579 -144.08)" fill="#eceeed"/>
    <path id="Trazado_231949" data-name="Trazado 231949" d="M167.313,332.959a1.4,1.4,0,0,1-1.445-1.492,1.628,1.628,0,0,1,1.493-1.51,1.524,1.524,0,0,1,1.5,1.553,1.378,1.378,0,0,1-1.553,1.449" transform="translate(-136.547 -271.629)" fill="#eceeed"/>
    <path id="Trazado_231950" data-name="Trazado 231950" d="M65.27,19.054a1.357,1.357,0,0,1,1.594,1.411,1.637,1.637,0,0,1-1.788,1.589c-.48,0-1.2-.9-1.209-1.505a1.359,1.359,0,0,1,1.4-1.494" transform="translate(-52.577 -15.68)" fill="#eceeed"/>
    <path id="Trazado_231951" data-name="Trazado 231951" d="M63.864,207.356a1.347,1.347,0,0,1,1.444-1.452,1.4,1.4,0,0,1,1.557,1.464,1.69,1.69,0,0,1-1.755,1.548c-.511.029-1.242-.886-1.246-1.56" transform="translate(-52.574 -169.502)" fill="#eceeed"/>
    <path id="Trazado_231952" data-name="Trazado 231952" d="M99.3,206a1.386,1.386,0,0,1,1.586,1.425,1.627,1.627,0,0,1-1.7,1.563c-.557.027-1.282-.818-1.3-1.516A1.335,1.335,0,0,1,99.3,206" transform="translate(-80.578 -169.582)" fill="#eceeed"/>
    <path id="Trazado_231953" data-name="Trazado 231953" d="M31.313,206a1.475,1.475,0,0,1,1.607,1.435,1.836,1.836,0,0,1-1.77,1.558,1.6,1.6,0,0,1-1.238-1.547c0-.995.435-1.447,1.4-1.447" transform="translate(-24.624 -169.583)" fill="#eceeed"/>
    <path id="Trazado_231954" data-name="Trazado 231954" d="M230.171,200.965c0,.527.024,1.055-.006,1.58a1.143,1.143,0,0,1-1.291,1.2c-.809-.022-1.022-.544-1.023-1.235,0-1.083.008-2.166,0-3.249a1.02,1.02,0,0,1,1.113-1.153,1.071,1.071,0,0,1,1.194,1.1c.047.582.01,1.17.01,1.756h0" transform="translate(-187.572 -163.088)" fill="#eceeed"/>
    <path id="Trazado_231955" data-name="Trazado 231955" d="M227.844,245.613c0-.5,0-1,0-1.5,0-.721.15-1.27,1.08-1.206.834.057,1.223.376,1.238,1.232q.027,1.545,0,3.09a1.4,1.4,0,0,1-1.238,1.343c-.537.006-1.06-.65-1.075-1.369-.011-.529,0-1.059,0-1.589" transform="translate(-187.565 -199.962)" fill="#eceeed"/>
    <path id="Trazado_231956" data-name="Trazado 231956" d="M253.606,156.654c0-.618-.006-1.235,0-1.853.006-.453.174-.845.674-.869.525-.025,1.166-.22,1.414.527a3.016,3.016,0,0,1,.2.844q.037,1.411,0,2.824a1.343,1.343,0,0,1-1.232,1.442c-.675-.008-1.057-.506-1.071-1.414-.008-.5,0-1,0-1.5h.014" transform="translate(-208.762 -126.686)" fill="#eceeed"/>
    <path id="Trazado_231957" data-name="Trazado 231957" d="M227.852,156.7c0-.558-.015-1.117,0-1.674a.962.962,0,0,1,1.047-1.034c.691-.031,1.2.236,1.236.936a32.275,32.275,0,0,1,0,3.61,1.176,1.176,0,0,1-1.264,1.09c-.686,0-1.013-.49-1.021-1.166-.008-.587,0-1.175,0-1.762" transform="translate(-187.569 -126.765)" fill="#eceeed"/>
    <path id="Trazado_231958" data-name="Trazado 231958" d="M255.888,200.912c0,.47.018.941,0,1.41a1.271,1.271,0,0,1-1.335,1.385c-.943-.011-.962-.679-.969-1.345q-.015-1.5,0-3c.01-.943.312-1.309,1.128-1.309s1.086.6,1.166,1.271a13.643,13.643,0,0,1,.014,1.585" transform="translate(-208.747 -163.045)" fill="#eceeed"/>
    <path id="Trazado_231959" data-name="Trazado 231959" d="M253.6,245.566c0-.559-.005-1.118,0-1.677.006-.5.112-.954.731-1.01.68-.061,1.359-.017,1.5.821a9.46,9.46,0,0,1,.066,1.844,7.229,7.229,0,0,1-.121,2.1,1.134,1.134,0,0,1-1.248.861,1.026,1.026,0,0,1-.936-1.17c.023-.587,0-1.177.005-1.765" transform="translate(-208.761 -199.93)" fill="#eceeed"/>
    <path id="Trazado_231960" data-name="Trazado 231960" d="M203.393,203.731a1.941,1.941,0,0,1-1.148-2.279,16.134,16.134,0,0,0,.007-2.116,1.279,1.279,0,0,1,1.141-1.488,1.33,1.33,0,0,1,1.139,1.5c-.014.818-.041,1.64.007,2.455a1.781,1.781,0,0,1-1.146,1.93" transform="translate(-166.477 -162.873)" fill="#eceeed"/>
    <path id="Trazado_231961" data-name="Trazado 231961" d="M203.409,248.528c-.465-.047-.663-.436-.934-.731.036-.188,0-.324-.23-.314.01-1.167.035-2.335.027-3.5-.005-.785.311-1.213,1.137-1.165.847.047,1.153.544,1.139,1.336a22.283,22.283,0,0,0,.013,2.461,1.707,1.707,0,0,1-1.151,1.916" transform="translate(-166.493 -199.888)" fill="#eceeed"/>
    <path id="Trazado_231962" data-name="Trazado 231962" d="M203.555,159.368c-.775.044-1.127-.35-1.129-1.1,0-1.114-.007-2.228,0-3.343.006-.736.326-1.169,1.127-1.1a1.057,1.057,0,0,1,1.008,1.01,9.778,9.778,0,0,1-.063,3.8.891.891,0,0,1-.945.731" transform="translate(-166.639 -126.631)" fill="#eceeed"/>
    <path id="Trazado_231963" data-name="Trazado 231963" d="M179,245.657c0,.5.017,1,0,1.5-.035.82-.595,1.454-1.266,1.383-.772-.081-1.071-.583-1.057-1.336.02-1.086-.006-2.172.013-3.258.01-.557.113-1.024.861-1.067.8-.046,1.339.2,1.434,1.021a15.531,15.531,0,0,1,.013,1.76H179" transform="translate(-145.437 -199.937)" fill="#eceeed"/>
    <path id="Trazado_231964" data-name="Trazado 231964" d="M179,156.679c0,.528.023,1.058-.006,1.584a1.305,1.305,0,0,1-1.249,1.312c-.781-.067-1.082-.568-1.07-1.321.016-1.085,0-2.172.011-3.257.009-.6.149-1.062.937-1.087s1.268.237,1.356,1.009a15.6,15.6,0,0,1,.013,1.759H179" transform="translate(-145.443 -126.702)" fill="#eceeed"/>
    <path id="Trazado_231965" data-name="Trazado 231965" d="M151,200.815c0-.586.031-1.174-.008-1.758A.949.949,0,0,1,151.9,198a.935.935,0,0,1,1.218.7,9.519,9.519,0,0,1,0,4.216c-.156.7-.736.786-1.3.706a.912.912,0,0,1-.817-1.042c.015-.586,0-1.172,0-1.759" transform="translate(-124.3 -162.972)" fill="#eceeed"/>
    <path id="Trazado_231966" data-name="Trazado 231966" d="M150.984,156.594c0-.5.022-1-.005-1.5-.038-.686.183-1.11.934-1.194a1.084,1.084,0,0,1,1.347,1.029,22.1,22.1,0,0,1,0,3.433,1.219,1.219,0,0,1-1.278,1.184c-.76-.015-.992-.6-1-1.28-.006-.558,0-1.116,0-1.675" transform="translate(-124.286 -126.686)" fill="#eceeed"/>
    <path id="Trazado_231967" data-name="Trazado 231967" d="M153.3,245.694c0,.529.04,1.061-.01,1.585a1.334,1.334,0,0,1-1.193,1.3c-.6.082-1.1-.588-1.1-1.369,0-1.058-.022-2.116.011-3.172.018-.56.069-1.125.9-1.106s1.287.317,1.393,1.091a1.3,1.3,0,0,1,0,.176q0,.749,0,1.5" transform="translate(-124.294 -199.985)" fill="#eceeed"/>
    <path id="Trazado_231968" data-name="Trazado 231968" d="M176.691,200.9c0-.556,0-1.113,0-1.67a1.045,1.045,0,0,1,1.145-1.138,1.09,1.09,0,0,1,1.149,1.08,33.994,33.994,0,0,1,.014,3.425,1.242,1.242,0,0,1-1.295,1.135c-.731-.039-1-.5-1.011-1.163-.012-.556,0-1.113,0-1.67" transform="translate(-145.453 -163.071)" fill="#eceeed"/>
    <path id="Trazado_231969" data-name="Trazado 231969" d="M202.045,269.236c.233-.01.266.127.23.314-.184-.026-.355-.062-.23-.314" transform="translate(-166.293 -221.641)" fill="#5a5c5b"/>
  </g>
</svg>
