<svg xmlns="http://www.w3.org/2000/svg" width="89.343" height="83.875" viewBox="0 0 89.343 83.875">
  <g id="Grupo_237545" data-name="Grupo 237545" transform="translate(11040.014 11529.645)">
    <rect id="Rectángulo_313602" data-name="Rectángulo 313602" width="66.819" height="61.157" transform="translate(-11035.255 -11510.391) rotate(-11.083)" fill="#2d2743"/>
    <rect id="Rectángulo_313603" data-name="Rectángulo 313603" width="66.819" height="61.157" transform="translate(-11033.582 -11510.718) rotate(-11.083)" fill="#3c3352"/>
    <rect id="Rectángulo_313604" data-name="Rectángulo 313604" width="52.511" height="48.061" transform="translate(-11025.845 -11506.697) rotate(-11.083)" fill="#1e1b32"/>
    <rect id="Rectángulo_313605" data-name="Rectángulo 313605" width="50.661" height="48.061" transform="matrix(0.981, -0.192, 0.192, 0.981, -11024.029, -11507.053)" fill="#2d2743"/>
    <path id="Trazado_234207" data-name="Trazado 234207" d="M51.408,123.14l-2.845.557a.928.928,0,0,1-1.087-.73l-.09-.465a.928.928,0,0,1,.73-1.087l2.845-.557a.928.928,0,0,1,1.087.731l.092.463a.93.93,0,0,1-.731,1.087" transform="translate(-11064.213 -11577.113)" fill="#2d2743"/>
    <path id="Trazado_234208" data-name="Trazado 234208" d="M51.478,130.332l-.85.167a1.094,1.094,0,0,1-1.28-.86l-1.161-5.928a1.1,1.1,0,0,1,.862-1.28l.85-.167a1.094,1.094,0,0,1,1.28.86l1.161,5.928a1.1,1.1,0,0,1-.862,1.28" transform="translate(-11063.746 -11576.29)" fill="#a5bac6"/>
    <path id="Trazado_234209" data-name="Trazado 234209" d="M49.917,127.74l1.533-.3a1.116,1.116,0,0,0,.877-1.306l-.923-4.711-3.714.727.923,4.712a1.115,1.115,0,0,0,1.3.877" transform="translate(-11064.025 -11576.771)" fill="#e3e3ed"/>
    <path id="Trazado_234210" data-name="Trazado 234210" d="M55.843,122.271,53,122.828a.928.928,0,0,1-1.087-.73l-.09-.465a.928.928,0,0,1,.73-1.087l2.845-.557a.928.928,0,0,1,1.087.731l.092.463a.93.93,0,0,1-.731,1.087" transform="translate(-11061.611 -11577.623)" fill="#2d2743"/>
    <path id="Trazado_234211" data-name="Trazado 234211" d="M55.913,129.463l-.85.167a1.094,1.094,0,0,1-1.28-.86l-1.161-5.928a1.1,1.1,0,0,1,.862-1.28l.85-.167a1.094,1.094,0,0,1,1.28.86l1.161,5.928a1.1,1.1,0,0,1-.862,1.28" transform="translate(-11061.144 -11576.8)" fill="#a5bac6"/>
    <path id="Trazado_234212" data-name="Trazado 234212" d="M54.353,126.871l1.533-.3a1.116,1.116,0,0,0,.877-1.306l-.923-4.711-3.714.727.923,4.712a1.115,1.115,0,0,0,1.3.877" transform="translate(-11061.423 -11577.281)" fill="#e3e3ed"/>
    <path id="Trazado_234213" data-name="Trazado 234213" d="M60.279,121.4l-2.845.557a.928.928,0,0,1-1.087-.73l-.09-.465a.928.928,0,0,1,.73-1.087l2.845-.557a.928.928,0,0,1,1.087.731l.092.463a.93.93,0,0,1-.731,1.087" transform="translate(-11059.009 -11578.133)" fill="#2d2743"/>
    <path id="Trazado_234214" data-name="Trazado 234214" d="M60.349,128.594l-.85.167a1.094,1.094,0,0,1-1.28-.86l-1.161-5.928a1.1,1.1,0,0,1,.862-1.28l.85-.167a1.094,1.094,0,0,1,1.28.86l1.161,5.928a1.1,1.1,0,0,1-.862,1.28" transform="translate(-11058.542 -11577.31)" fill="#a5bac6"/>
    <path id="Trazado_234215" data-name="Trazado 234215" d="M58.789,126l1.533-.3A1.116,1.116,0,0,0,61.2,124.4l-.923-4.711-3.714.727.923,4.712a1.115,1.115,0,0,0,1.3.877" transform="translate(-11058.82 -11577.791)" fill="#e3e3ed"/>
    <path id="Trazado_234216" data-name="Trazado 234216" d="M64.715,120.533l-2.845.557a.928.928,0,0,1-1.087-.73l-.09-.465a.928.928,0,0,1,.73-1.087l2.845-.557a.928.928,0,0,1,1.087.731l.092.463a.93.93,0,0,1-.731,1.087" transform="translate(-11056.407 -11578.643)" fill="#2d2743"/>
    <path id="Trazado_234217" data-name="Trazado 234217" d="M64.784,127.725l-.85.167a1.094,1.094,0,0,1-1.28-.86L61.492,121.1a1.1,1.1,0,0,1,.862-1.28l.85-.167a1.094,1.094,0,0,1,1.28.86l1.161,5.928a1.1,1.1,0,0,1-.862,1.28" transform="translate(-11055.94 -11577.819)" fill="#a5bac6"/>
    <path id="Trazado_234218" data-name="Trazado 234218" d="M63.224,125.133l1.533-.3a1.116,1.116,0,0,0,.877-1.306l-.923-4.711L61,119.544l.923,4.712a1.115,1.115,0,0,0,1.3.877" transform="translate(-11056.219 -11578.301)" fill="#e3e3ed"/>
    <path id="Trazado_234219" data-name="Trazado 234219" d="M69.5,119.6l-2.846.557a.93.93,0,0,1-1.087-.73l-.09-.465a.929.929,0,0,1,.73-1.087l2.845-.557a.93.93,0,0,1,1.088.731l.092.463A.933.933,0,0,1,69.5,119.6" transform="translate(-11053.604 -11579.191)" fill="#2d2743"/>
    <path id="Trazado_234220" data-name="Trazado 234220" d="M69.565,126.79l-.85.167a1.094,1.094,0,0,1-1.28-.86l-1.161-5.928a1.1,1.1,0,0,1,.862-1.28l.85-.167a1.094,1.094,0,0,1,1.28.86l1.161,5.928a1.1,1.1,0,0,1-.862,1.28" transform="translate(-11053.136 -11578.368)" fill="#a5bac6"/>
    <path id="Trazado_234221" data-name="Trazado 234221" d="M68,124.2l1.533-.3a1.116,1.116,0,0,0,.877-1.306l-.923-4.711-3.714.727.923,4.712a1.115,1.115,0,0,0,1.3.877" transform="translate(-11053.415 -11578.85)" fill="#e3e3ed"/>
    <path id="Trazado_234222" data-name="Trazado 234222" d="M73.93,118.728l-2.845.557a.928.928,0,0,1-1.087-.73l-.09-.465a.928.928,0,0,1,.73-1.087l2.845-.557a.928.928,0,0,1,1.087.731l.092.463a.93.93,0,0,1-.731,1.087" transform="translate(-11051.001 -11579.701)" fill="#2d2743"/>
    <path id="Trazado_234223" data-name="Trazado 234223" d="M74,125.921l-.85.167a1.094,1.094,0,0,1-1.28-.86L70.707,119.3a1.1,1.1,0,0,1,.862-1.28l.85-.167a1.094,1.094,0,0,1,1.28.86l1.161,5.928a1.1,1.1,0,0,1-.862,1.28" transform="translate(-11050.534 -11578.878)" fill="#a5bac6"/>
    <path id="Trazado_234224" data-name="Trazado 234224" d="M72.44,123.328l1.533-.3a1.116,1.116,0,0,0,.877-1.306l-.923-4.711-3.714.727.923,4.712a1.115,1.115,0,0,0,1.3.877" transform="translate(-11050.813 -11579.359)" fill="#e3e3ed"/>
    <path id="Trazado_234225" data-name="Trazado 234225" d="M78.366,117.859l-2.845.557a.928.928,0,0,1-1.087-.73l-.09-.465a.928.928,0,0,1,.73-1.087l2.845-.557a.928.928,0,0,1,1.087.731l.092.463a.93.93,0,0,1-.731,1.087" transform="translate(-11048.399 -11580.211)" fill="#2d2743"/>
    <path id="Trazado_234226" data-name="Trazado 234226" d="M78.436,125.051l-.85.167a1.094,1.094,0,0,1-1.28-.86l-1.161-5.928A1.1,1.1,0,0,1,76,117.15l.85-.167a1.094,1.094,0,0,1,1.28.86l1.161,5.928a1.1,1.1,0,0,1-.862,1.28" transform="translate(-11047.932 -11579.388)" fill="#a5bac6"/>
    <path id="Trazado_234227" data-name="Trazado 234227" d="M76.875,122.459l1.533-.3a1.116,1.116,0,0,0,.877-1.306l-.923-4.711-3.714.727.923,4.712a1.115,1.115,0,0,0,1.3.877" transform="translate(-11048.211 -11579.869)" fill="#e3e3ed"/>
    <path id="Trazado_234228" data-name="Trazado 234228" d="M82.8,116.99l-2.845.557a.928.928,0,0,1-1.087-.73l-.09-.465a.928.928,0,0,1,.73-1.087l2.845-.557a.928.928,0,0,1,1.087.731l.092.463a.93.93,0,0,1-.731,1.087" transform="translate(-11045.797 -11580.721)" fill="#2d2743"/>
    <path id="Trazado_234229" data-name="Trazado 234229" d="M82.871,124.182l-.85.167a1.094,1.094,0,0,1-1.28-.86l-1.161-5.928a1.1,1.1,0,0,1,.862-1.28l.85-.167a1.094,1.094,0,0,1,1.28.86l1.161,5.928a1.1,1.1,0,0,1-.862,1.28" transform="translate(-11045.33 -11579.897)" fill="#a5bac6"/>
    <path id="Trazado_234230" data-name="Trazado 234230" d="M81.311,121.59l1.533-.3a1.116,1.116,0,0,0,.877-1.306l-.923-4.711L79.083,116l.923,4.712a1.115,1.115,0,0,0,1.3.877" transform="translate(-11045.609 -11580.379)" fill="#e3e3ed"/>
    <path id="Trazado_234231" data-name="Trazado 234231" d="M44.048,85.571l-2.845.557a.93.93,0,0,0-.731,1.087l.092.465a.927.927,0,0,0,1.087.73l2.845-.557a.928.928,0,0,0,.73-1.087l-.09-.463a.929.929,0,0,0-1.087-.731" transform="translate(-11068.269 -11597.813)" fill="#2d2743"/>
    <path id="Trazado_234232" data-name="Trazado 234232" d="M41.767,80.767l-.85.167a1.1,1.1,0,0,0-.862,1.28l1.161,5.928A1.094,1.094,0,0,0,42.5,89l.85-.167a1.1,1.1,0,0,0,.862-1.28l-1.161-5.926a1.094,1.094,0,0,0-1.28-.862" transform="translate(-11068.515 -11600.634)" fill="#a5bac6"/>
    <path id="Trazado_234233" data-name="Trazado 234233" d="M41.117,83.108l1.533-.3a1.115,1.115,0,0,1,1.3.877l.923,4.712-3.714.727-.923-4.712a1.115,1.115,0,0,1,.877-1.3" transform="translate(-11068.407 -11599.436)" fill="#e3e3ed"/>
    <path id="Trazado_234234" data-name="Trazado 234234" d="M48.484,84.7l-2.845.557a.93.93,0,0,0-.731,1.087l.092.465a.927.927,0,0,0,1.087.73l2.845-.557a.928.928,0,0,0,.73-1.087l-.09-.463a.929.929,0,0,0-1.087-.731" transform="translate(-11065.666 -11598.323)" fill="#2d2743"/>
    <path id="Trazado_234235" data-name="Trazado 234235" d="M46.2,79.9l-.85.167a1.1,1.1,0,0,0-.862,1.28l1.161,5.928a1.094,1.094,0,0,0,1.28.86l.85-.167a1.1,1.1,0,0,0,.862-1.28l-1.161-5.926A1.094,1.094,0,0,0,46.2,79.9" transform="translate(-11065.912 -11601.144)" fill="#a5bac6"/>
    <path id="Trazado_234236" data-name="Trazado 234236" d="M45.552,82.239l1.533-.3a1.116,1.116,0,0,1,1.3.879l.923,4.712-3.714.725-.923-4.712a1.115,1.115,0,0,1,.877-1.3" transform="translate(-11065.806 -11599.945)" fill="#e3e3ed"/>
    <path id="Trazado_234237" data-name="Trazado 234237" d="M52.919,83.833l-2.845.557a.93.93,0,0,0-.731,1.087l.092.465a.927.927,0,0,0,1.087.73l2.845-.557a.928.928,0,0,0,.73-1.087l-.09-.463a.929.929,0,0,0-1.087-.731" transform="translate(-11063.064 -11598.833)" fill="#2d2743"/>
    <path id="Trazado_234238" data-name="Trazado 234238" d="M50.64,79.029l-.852.167a1.1,1.1,0,0,0-.862,1.28L50.089,86.4a1.091,1.091,0,0,0,1.279.86l.85-.167a1.1,1.1,0,0,0,.862-1.28l-1.16-5.928a1.1,1.1,0,0,0-1.28-.86" transform="translate(-11063.311 -11601.653)" fill="#a5bac6"/>
    <path id="Trazado_234239" data-name="Trazado 234239" d="M49.988,81.372l1.533-.3a1.115,1.115,0,0,1,1.3.877l.923,4.712-3.714.727-.923-4.712a1.115,1.115,0,0,1,.877-1.3" transform="translate(-11063.203 -11600.454)" fill="#e3e3ed"/>
    <path id="Trazado_234240" data-name="Trazado 234240" d="M57.355,82.964l-2.845.557a.93.93,0,0,0-.731,1.087l.092.465a.927.927,0,0,0,1.087.73l2.845-.557a.928.928,0,0,0,.73-1.087l-.09-.463a.929.929,0,0,0-1.087-.731" transform="translate(-11060.463 -11599.343)" fill="#2d2743"/>
    <path id="Trazado_234241" data-name="Trazado 234241" d="M55.074,78.16l-.85.168a1.094,1.094,0,0,0-.862,1.279l1.161,5.929a1.093,1.093,0,0,0,1.28.858l.85-.165a1.1,1.1,0,0,0,.862-1.282l-1.161-5.924a1.1,1.1,0,0,0-1.28-.863" transform="translate(-11060.709 -11602.163)" fill="#a5bac6"/>
    <path id="Trazado_234242" data-name="Trazado 234242" d="M54.423,80.5l1.533-.3a1.115,1.115,0,0,1,1.3.877l.923,4.712-3.714.727-.923-4.712a1.115,1.115,0,0,1,.877-1.3" transform="translate(-11060.602 -11600.965)" fill="#e3e3ed"/>
    <path id="Trazado_234243" data-name="Trazado 234243" d="M62.135,82.028l-2.845.557a.93.93,0,0,0-.731,1.087l.092.465a.927.927,0,0,0,1.087.73l2.845-.557a.928.928,0,0,0,.73-1.087l-.09-.463a.929.929,0,0,0-1.087-.731" transform="translate(-11057.658 -11599.892)" fill="#2d2743"/>
    <path id="Trazado_234244" data-name="Trazado 234244" d="M59.854,77.224,59,77.39a1.1,1.1,0,0,0-.862,1.28L59.3,84.6a1.094,1.094,0,0,0,1.28.86l.85-.167a1.1,1.1,0,0,0,.862-1.28l-1.161-5.926a1.094,1.094,0,0,0-1.28-.862" transform="translate(-11057.904 -11602.712)" fill="#a5bac6"/>
    <path id="Trazado_234245" data-name="Trazado 234245" d="M59.2,79.566l1.533-.3a1.115,1.115,0,0,1,1.3.877l.923,4.712-3.714.727-.923-4.712a1.115,1.115,0,0,1,.877-1.3" transform="translate(-11057.797 -11601.514)" fill="#e3e3ed"/>
    <path id="Trazado_234246" data-name="Trazado 234246" d="M66.571,81.159l-2.845.557A.93.93,0,0,0,63,82.8l.092.465a.927.927,0,0,0,1.087.73l2.845-.557a.928.928,0,0,0,.73-1.087l-.09-.463a.929.929,0,0,0-1.087-.731" transform="translate(-11055.057 -11600.401)" fill="#2d2743"/>
    <path id="Trazado_234247" data-name="Trazado 234247" d="M64.29,76.355l-.85.167a1.1,1.1,0,0,0-.862,1.28l1.161,5.928a1.094,1.094,0,0,0,1.28.86l.85-.167a1.1,1.1,0,0,0,.862-1.28l-1.161-5.926a1.094,1.094,0,0,0-1.28-.862" transform="translate(-11055.303 -11603.222)" fill="#a5bac6"/>
    <path id="Trazado_234248" data-name="Trazado 234248" d="M63.639,78.7l1.533-.3a1.115,1.115,0,0,1,1.3.877l.923,4.712-3.714.727L62.762,80a1.115,1.115,0,0,1,.877-1.3" transform="translate(-11055.195 -11602.023)" fill="#e3e3ed"/>
    <path id="Trazado_234249" data-name="Trazado 234249" d="M71.006,80.29l-2.845.557a.93.93,0,0,0-.731,1.087l.092.465a.927.927,0,0,0,1.087.73l2.845-.557a.928.928,0,0,0,.73-1.087l-.09-.463a.929.929,0,0,0-1.087-.731" transform="translate(-11052.454 -11600.911)" fill="#2d2743"/>
    <path id="Trazado_234250" data-name="Trazado 234250" d="M68.725,75.486l-.85.167a1.1,1.1,0,0,0-.862,1.28l1.161,5.928a1.094,1.094,0,0,0,1.28.86l.85-.167a1.1,1.1,0,0,0,.862-1.28l-1.161-5.926a1.094,1.094,0,0,0-1.28-.862" transform="translate(-11052.701 -11603.731)" fill="#a5bac6"/>
    <path id="Trazado_234251" data-name="Trazado 234251" d="M68.075,77.828l1.533-.3a1.115,1.115,0,0,1,1.3.877l.923,4.712-3.714.727L67.2,79.132a1.115,1.115,0,0,1,.877-1.3" transform="translate(-11052.593 -11602.533)" fill="#e3e3ed"/>
    <path id="Trazado_234252" data-name="Trazado 234252" d="M75.442,79.421l-2.845.557a.93.93,0,0,0-.731,1.087l.092.465a.927.927,0,0,0,1.087.73L75.89,81.7a.928.928,0,0,0,.73-1.087l-.09-.463a.929.929,0,0,0-1.087-.731" transform="translate(-11049.853 -11601.421)" fill="#2d2743"/>
    <path id="Trazado_234253" data-name="Trazado 234253" d="M73.161,74.617l-.85.167a1.1,1.1,0,0,0-.862,1.28l1.161,5.928a1.094,1.094,0,0,0,1.28.86l.85-.167A1.1,1.1,0,0,0,75.6,81.4l-1.161-5.926a1.094,1.094,0,0,0-1.28-.862" transform="translate(-11050.099 -11604.241)" fill="#a5bac6"/>
    <path id="Trazado_234254" data-name="Trazado 234254" d="M72.51,76.958l1.533-.3a1.115,1.115,0,0,1,1.3.877l.923,4.712-3.714.727-.923-4.712a1.117,1.117,0,0,1,.877-1.306" transform="translate(-11049.991 -11603.043)" fill="#e3e3ed"/>
    <path id="Trazado_234255" data-name="Trazado 234255" d="M43.74,120.621l.557,2.845a.93.93,0,0,0,1.087.731l.465-.092a.927.927,0,0,0,.73-1.087l-.557-2.845a.928.928,0,0,0-1.087-.73l-.463.09a.929.929,0,0,0-.731,1.087" transform="translate(-11066.352 -11577.943)" fill="#2d2743"/>
    <path id="Trazado_234256" data-name="Trazado 234256" d="M38.936,122.681l.167.85a1.1,1.1,0,0,0,1.28.862l5.928-1.161a1.094,1.094,0,0,0,.86-1.28L47,121.1a1.1,1.1,0,0,0-1.28-.862L39.8,121.4a1.094,1.094,0,0,0-.862,1.28" transform="translate(-11069.172 -11577.478)" fill="#a5bac6"/>
    <path id="Trazado_234257" data-name="Trazado 234257" d="M41.278,123.5l-.3-1.533a1.115,1.115,0,0,1,.877-1.3l4.712-.923.727,3.714-4.712.923a1.115,1.115,0,0,1-1.3-.877" transform="translate(-11067.975 -11577.757)" fill="#e3e3ed"/>
    <path id="Trazado_234258" data-name="Trazado 234258" d="M42.871,116.185l.557,2.845a.93.93,0,0,0,1.087.731l.465-.092a.927.927,0,0,0,.73-1.087l-.557-2.845a.928.928,0,0,0-1.087-.73l-.463.09a.929.929,0,0,0-.731,1.087" transform="translate(-11066.861 -11580.546)" fill="#2d2743"/>
    <path id="Trazado_234259" data-name="Trazado 234259" d="M38.067,118.246l.167.85a1.1,1.1,0,0,0,1.28.862l5.928-1.161a1.094,1.094,0,0,0,.86-1.28l-.167-.85a1.1,1.1,0,0,0-1.28-.862l-5.926,1.161a1.094,1.094,0,0,0-.862,1.28" transform="translate(-11069.682 -11580.079)" fill="#a5bac6"/>
    <path id="Trazado_234260" data-name="Trazado 234260" d="M40.409,119.069l-.3-1.533a1.115,1.115,0,0,1,.877-1.3l4.712-.923.727,3.714-4.712.923a1.115,1.115,0,0,1-1.3-.877" transform="translate(-11068.484 -11580.358)" fill="#e3e3ed"/>
    <path id="Trazado_234261" data-name="Trazado 234261" d="M42,111.749l.557,2.846a.933.933,0,0,0,1.087.731l.465-.092a.93.93,0,0,0,.73-1.088l-.557-2.845a.931.931,0,0,0-1.087-.73l-.463.09A.931.931,0,0,0,42,111.749" transform="translate(-11067.371 -11583.147)" fill="#2d2743"/>
    <path id="Trazado_234262" data-name="Trazado 234262" d="M37.2,113.81l.167.85a1.1,1.1,0,0,0,1.28.862l5.928-1.161a1.094,1.094,0,0,0,.86-1.28l-.167-.85a1.1,1.1,0,0,0-1.28-.862l-5.926,1.161a1.094,1.094,0,0,0-.862,1.28" transform="translate(-11070.191 -11582.682)" fill="#a5bac6"/>
    <path id="Trazado_234263" data-name="Trazado 234263" d="M39.54,114.633l-.3-1.533a1.115,1.115,0,0,1,.877-1.3l4.712-.923.727,3.714-4.712.923a1.115,1.115,0,0,1-1.3-.877" transform="translate(-11068.994 -11582.961)" fill="#e3e3ed"/>
    <path id="Trazado_234264" data-name="Trazado 234264" d="M41.133,107.314l.557,2.845a.93.93,0,0,0,1.087.731l.465-.092a.927.927,0,0,0,.73-1.087l-.557-2.845a.928.928,0,0,0-1.087-.73l-.463.09a.929.929,0,0,0-.731,1.087" transform="translate(-11067.881 -11585.749)" fill="#2d2743"/>
    <path id="Trazado_234265" data-name="Trazado 234265" d="M36.329,109.375l.167.85a1.1,1.1,0,0,0,1.28.862l5.928-1.161a1.094,1.094,0,0,0,.86-1.28l-.167-.85a1.1,1.1,0,0,0-1.28-.862l-5.926,1.161a1.094,1.094,0,0,0-.862,1.28" transform="translate(-11070.701 -11585.283)" fill="#a5bac6"/>
    <path id="Trazado_234266" data-name="Trazado 234266" d="M38.672,110.2l-.3-1.533a1.116,1.116,0,0,1,.879-1.3l4.712-.923.727,3.714-4.712.923a1.113,1.113,0,0,1-1.3-.877" transform="translate(-11069.503 -11585.563)" fill="#e3e3ed"/>
    <path id="Trazado_234267" data-name="Trazado 234267" d="M40.2,102.534l.557,2.845a.93.93,0,0,0,1.087.731l.465-.092a.927.927,0,0,0,.73-1.087l-.557-2.845a.928.928,0,0,0-1.087-.73l-.463.09a.929.929,0,0,0-.731,1.087" transform="translate(-11068.43 -11588.554)" fill="#2d2743"/>
    <path id="Trazado_234268" data-name="Trazado 234268" d="M35.393,104.6l.167.85a1.1,1.1,0,0,0,1.28.862l5.928-1.161a1.094,1.094,0,0,0,.86-1.28l-.167-.85a1.1,1.1,0,0,0-1.28-.862l-5.926,1.161a1.094,1.094,0,0,0-.862,1.28" transform="translate(-11071.25 -11588.088)" fill="#a5bac6"/>
    <path id="Trazado_234269" data-name="Trazado 234269" d="M37.735,105.417l-.3-1.533a1.115,1.115,0,0,1,.877-1.3l4.712-.923.727,3.714-4.712.923a1.115,1.115,0,0,1-1.3-.877" transform="translate(-11070.053 -11588.367)" fill="#e3e3ed"/>
    <path id="Trazado_234270" data-name="Trazado 234270" d="M39.328,98.1l.557,2.845a.93.93,0,0,0,1.087.731l.465-.092a.927.927,0,0,0,.73-1.087L41.61,97.65a.928.928,0,0,0-1.087-.73l-.463.09a.929.929,0,0,0-.731,1.087" transform="translate(-11068.939 -11591.155)" fill="#2d2743"/>
    <path id="Trazado_234271" data-name="Trazado 234271" d="M34.524,100.159l.167.85a1.1,1.1,0,0,0,1.28.862L41.9,100.71a1.094,1.094,0,0,0,.86-1.28l-.167-.85a1.1,1.1,0,0,0-1.28-.862l-5.928,1.161a1.094,1.094,0,0,0-.86,1.28" transform="translate(-11071.76 -11590.689)" fill="#a5bac6"/>
    <path id="Trazado_234272" data-name="Trazado 234272" d="M36.866,100.982l-.3-1.533a1.115,1.115,0,0,1,.877-1.3l4.712-.923.727,3.714-4.712.923a1.115,1.115,0,0,1-1.3-.877" transform="translate(-11070.563 -11590.969)" fill="#e3e3ed"/>
    <path id="Trazado_234273" data-name="Trazado 234273" d="M38.459,93.663l.557,2.845a.93.93,0,0,0,1.087.731l.465-.092a.927.927,0,0,0,.73-1.087l-.557-2.845a.928.928,0,0,0-1.087-.73l-.463.09a.929.929,0,0,0-.731,1.087" transform="translate(-11069.449 -11593.757)" fill="#2d2743"/>
    <path id="Trazado_234274" data-name="Trazado 234274" d="M33.655,95.723l.167.85a1.1,1.1,0,0,0,1.28.862l5.928-1.161a1.094,1.094,0,0,0,.86-1.28l-.167-.85a1.1,1.1,0,0,0-1.28-.862l-5.926,1.161a1.094,1.094,0,0,0-.862,1.28" transform="translate(-11072.27 -11593.292)" fill="#a5bac6"/>
    <path id="Trazado_234275" data-name="Trazado 234275" d="M36,96.546l-.3-1.533a1.115,1.115,0,0,1,.877-1.3l4.712-.923.727,3.714-4.712.923a1.115,1.115,0,0,1-1.3-.877" transform="translate(-11071.072 -11593.57)" fill="#e3e3ed"/>
    <path id="Trazado_234276" data-name="Trazado 234276" d="M37.59,89.227l.557,2.845a.93.93,0,0,0,1.087.731l.465-.092a.927.927,0,0,0,.73-1.087l-.557-2.845a.928.928,0,0,0-1.087-.73l-.463.09a.929.929,0,0,0-.731,1.087" transform="translate(-11069.959 -11596.359)" fill="#2d2743"/>
    <path id="Trazado_234277" data-name="Trazado 234277" d="M32.786,91.288l.167.85a1.1,1.1,0,0,0,1.28.862l5.928-1.161a1.094,1.094,0,0,0,.86-1.28l-.167-.85a1.1,1.1,0,0,0-1.28-.862l-5.926,1.161a1.094,1.094,0,0,0-.862,1.28" transform="translate(-11072.779 -11595.894)" fill="#a5bac6"/>
    <path id="Trazado_234278" data-name="Trazado 234278" d="M35.128,92.111l-.3-1.533a1.115,1.115,0,0,1,.877-1.3l4.712-.923.727,3.714-4.712.923a1.115,1.115,0,0,1-1.3-.877" transform="translate(-11071.582 -11596.172)" fill="#e3e3ed"/>
    <path id="Trazado_234279" data-name="Trazado 234279" d="M84.756,112.586l.557,2.845a.928.928,0,0,1-.73,1.087l-.465.09a.928.928,0,0,1-1.087-.73l-.557-2.845a.928.928,0,0,1,.731-1.087l.463-.092a.93.93,0,0,1,1.087.731" transform="translate(-11043.63 -11582.395)" fill="#2d2743"/>
    <path id="Trazado_234280" data-name="Trazado 234280" d="M91.948,112.3l.167.85a1.094,1.094,0,0,1-.86,1.28l-5.928,1.161a1.1,1.1,0,0,1-1.28-.862l-.167-.85a1.094,1.094,0,0,1,.86-1.28l5.928-1.161a1.1,1.1,0,0,1,1.28.862" transform="translate(-11042.807 -11582.643)" fill="#a5bac6"/>
    <path id="Trazado_234281" data-name="Trazado 234281" d="M89.356,114.029l-.3-1.533a1.116,1.116,0,0,0-1.306-.877l-4.711.923.727,3.714,4.712-.923a1.115,1.115,0,0,0,.877-1.3" transform="translate(-11043.288 -11582.535)" fill="#e3e3ed"/>
    <path id="Trazado_234282" data-name="Trazado 234282" d="M83.887,108.15,84.444,111a.93.93,0,0,1-.73,1.087l-.465.09a.929.929,0,0,1-1.087-.73l-.557-2.845a.93.93,0,0,1,.731-1.088l.463-.092a.933.933,0,0,1,1.087.731" transform="translate(-11044.14 -11584.997)" fill="#2d2743"/>
    <path id="Trazado_234283" data-name="Trazado 234283" d="M91.079,107.861l.167.85a1.094,1.094,0,0,1-.86,1.28l-5.928,1.161a1.1,1.1,0,0,1-1.28-.862l-.167-.85a1.094,1.094,0,0,1,.86-1.28L89.8,107a1.1,1.1,0,0,1,1.28.862" transform="translate(-11043.316 -11585.245)" fill="#a5bac6"/>
    <path id="Trazado_234284" data-name="Trazado 234284" d="M88.487,109.593l-.3-1.531a1.118,1.118,0,0,0-1.306-.879l-4.711.923.727,3.716,4.712-.923a1.117,1.117,0,0,0,.877-1.306" transform="translate(-11043.798 -11585.138)" fill="#e3e3ed"/>
    <path id="Trazado_234285" data-name="Trazado 234285" d="M83.018,103.715l.557,2.845a.928.928,0,0,1-.73,1.087l-.465.09a.928.928,0,0,1-1.087-.73l-.557-2.845a.928.928,0,0,1,.731-1.087l.463-.092a.93.93,0,0,1,1.087.731" transform="translate(-11044.649 -11587.599)" fill="#2d2743"/>
    <path id="Trazado_234286" data-name="Trazado 234286" d="M90.21,103.426l.167.85a1.094,1.094,0,0,1-.86,1.28l-5.928,1.161a1.1,1.1,0,0,1-1.28-.862l-.167-.85a1.094,1.094,0,0,1,.86-1.28l5.928-1.161a1.1,1.1,0,0,1,1.28.862" transform="translate(-11043.826 -11587.847)" fill="#a5bac6"/>
    <path id="Trazado_234287" data-name="Trazado 234287" d="M87.618,105.158l-.3-1.533a1.116,1.116,0,0,0-1.306-.877l-4.711.923.727,3.714,4.712-.923a1.115,1.115,0,0,0,.877-1.3" transform="translate(-11044.308 -11587.739)" fill="#e3e3ed"/>
    <path id="Trazado_234288" data-name="Trazado 234288" d="M82.149,99.279l.557,2.845a.928.928,0,0,1-.73,1.087l-.465.09a.928.928,0,0,1-1.087-.73l-.557-2.845a.928.928,0,0,1,.731-1.087l.463-.092a.93.93,0,0,1,1.087.731" transform="translate(-11045.159 -11590.201)" fill="#2d2743"/>
    <path id="Trazado_234289" data-name="Trazado 234289" d="M89.341,98.99l.167.85a1.094,1.094,0,0,1-.86,1.28l-5.928,1.161a1.1,1.1,0,0,1-1.28-.862l-.167-.85a1.094,1.094,0,0,1,.86-1.28l5.928-1.161a1.1,1.1,0,0,1,1.28.862" transform="translate(-11044.336 -11590.448)" fill="#a5bac6"/>
    <path id="Trazado_234290" data-name="Trazado 234290" d="M86.749,100.723l-.3-1.533a1.116,1.116,0,0,0-1.306-.877l-4.711.923.727,3.714,4.712-.923a1.115,1.115,0,0,0,.877-1.3" transform="translate(-11044.817 -11590.341)" fill="#e3e3ed"/>
    <path id="Trazado_234291" data-name="Trazado 234291" d="M81.213,94.5l.557,2.845a.928.928,0,0,1-.73,1.087l-.465.09a.928.928,0,0,1-1.087-.73l-.557-2.845a.928.928,0,0,1,.731-1.087l.463-.092a.93.93,0,0,1,1.087.731" transform="translate(-11045.708 -11593.005)" fill="#2d2743"/>
    <path id="Trazado_234292" data-name="Trazado 234292" d="M88.405,94.21l.167.85a1.094,1.094,0,0,1-.86,1.28L81.785,97.5a1.1,1.1,0,0,1-1.28-.862l-.167-.85a1.094,1.094,0,0,1,.86-1.28l5.928-1.16a1.094,1.094,0,0,1,1.28.86" transform="translate(-11044.885 -11593.252)" fill="#a5bac6"/>
    <path id="Trazado_234293" data-name="Trazado 234293" d="M85.813,95.942l-.3-1.533a1.116,1.116,0,0,0-1.306-.877l-4.711.923.727,3.714,4.712-.923a1.115,1.115,0,0,0,.877-1.3" transform="translate(-11045.366 -11593.146)" fill="#e3e3ed"/>
    <path id="Trazado_234294" data-name="Trazado 234294" d="M80.344,90.062l.557,2.846A.929.929,0,0,1,80.171,94l-.465.09a.929.929,0,0,1-1.087-.73l-.557-2.845a.931.931,0,0,1,.731-1.088l.463-.09a.931.931,0,0,1,1.087.73" transform="translate(-11046.218 -11595.606)" fill="#2d2743"/>
    <path id="Trazado_234295" data-name="Trazado 234295" d="M87.536,89.774l.167.85a1.094,1.094,0,0,1-.86,1.28l-5.928,1.161a1.1,1.1,0,0,1-1.28-.862l-.167-.85a1.094,1.094,0,0,1,.86-1.28l5.928-1.161a1.1,1.1,0,0,1,1.28.862" transform="translate(-11045.395 -11595.854)" fill="#a5bac6"/>
    <path id="Trazado_234296" data-name="Trazado 234296" d="M84.944,91.507l-.3-1.533a1.116,1.116,0,0,0-1.306-.877l-4.711.923.727,3.714,4.712-.923a1.115,1.115,0,0,0,.877-1.3" transform="translate(-11045.876 -11595.747)" fill="#e3e3ed"/>
    <path id="Trazado_234297" data-name="Trazado 234297" d="M79.475,85.628l.557,2.845a.928.928,0,0,1-.73,1.087l-.465.09a.928.928,0,0,1-1.087-.73l-.557-2.845a.928.928,0,0,1,.731-1.087l.463-.092a.93.93,0,0,1,1.087.731" transform="translate(-11046.728 -11598.209)" fill="#2d2743"/>
    <path id="Trazado_234298" data-name="Trazado 234298" d="M86.667,85.339l.167.85a1.094,1.094,0,0,1-.86,1.28l-5.928,1.161a1.1,1.1,0,0,1-1.28-.862l-.167-.85a1.094,1.094,0,0,1,.86-1.28l5.928-1.161a1.1,1.1,0,0,1,1.28.862" transform="translate(-11045.904 -11598.456)" fill="#a5bac6"/>
    <path id="Trazado_234299" data-name="Trazado 234299" d="M84.075,87.071l-.3-1.533a1.116,1.116,0,0,0-1.306-.877l-4.711.923.727,3.714,4.712-.923a1.115,1.115,0,0,0,.877-1.3" transform="translate(-11046.386 -11598.35)" fill="#e3e3ed"/>
    <path id="Trazado_234300" data-name="Trazado 234300" d="M78.606,81.192l.557,2.846a.93.93,0,0,1-.73,1.087l-.465.09a.929.929,0,0,1-1.087-.73l-.557-2.845a.931.931,0,0,1,.731-1.088l.463-.092a.933.933,0,0,1,1.087.731" transform="translate(-11047.237 -11600.811)" fill="#2d2743"/>
    <path id="Trazado_234301" data-name="Trazado 234301" d="M85.8,80.9l.167.85a1.094,1.094,0,0,1-.86,1.28L79.178,84.2a1.1,1.1,0,0,1-1.28-.862l-.167-.85a1.094,1.094,0,0,1,.86-1.28l5.928-1.161a1.1,1.1,0,0,1,1.28.862" transform="translate(-11046.414 -11601.059)" fill="#a5bac6"/>
    <path id="Trazado_234302" data-name="Trazado 234302" d="M83.206,82.636l-.3-1.533a1.116,1.116,0,0,0-1.306-.877l-4.711.923.727,3.714,4.712-.923a1.115,1.115,0,0,0,.877-1.3" transform="translate(-11046.896 -11600.951)" fill="#e3e3ed"/>
  </g>
</svg>
