<svg xmlns="http://www.w3.org/2000/svg" xmlns:xlink="http://www.w3.org/1999/xlink" width="25.921" height="70.211" viewBox="0 0 25.921 70.211">
  <defs>
    <clipPath id="clip-path">
      <rect id="Rectángulo_313606" data-name="Rectángulo 313606" width="25.919" height="13.631" fill="none"/>
    </clipPath>
    <clipPath id="clip-path-2">
      <rect id="Rectángulo_313607" data-name="Rectángulo 313607" width="20.608" height="8.26" fill="none"/>
    </clipPath>
    <clipPath id="clip-path-3">
      <rect id="Rectángulo_313608" data-name="Rectángulo 313608" width="25.919" height="11.002" fill="none"/>
    </clipPath>
    <clipPath id="clip-path-4">
      <rect id="Rectángulo_313609" data-name="Rectángulo 313609" width="20.608" height="6.816" fill="none"/>
    </clipPath>
  </defs>
  <g id="Grupo_237544" data-name="Grupo 237544" transform="translate(10995.344 11648)">
    <path id="Trazado_234303" data-name="Trazado 234303" d="M64.753,59.51H64.62a.694.694,0,0,1-.692-.692V18.934a.694.694,0,0,1,.692-.692h.133a.693.693,0,0,1,.692.692V58.818a.693.693,0,0,1-.692.692" transform="translate(-11054.499 -11637.299)" fill="#94bbdf"/>
    <path id="Trazado_234304" data-name="Trazado 234304" d="M65.091,59.51h-.133a.694.694,0,0,1-.692-.692V18.934a.694.694,0,0,1,.692-.692h.133a.693.693,0,0,1,.692.692V58.818a.693.693,0,0,1-.692.692" transform="translate(-11054.301 -11637.299)" fill="#b1d3ee"/>
    <path id="Trazado_234305" data-name="Trazado 234305" d="M69.109,55.154h-.133a.694.694,0,0,1-.692-.692V14.578a.694.694,0,0,1,.692-.692h.133a.693.693,0,0,1,.692.692V54.462a.693.693,0,0,1-.692.692" transform="translate(-11051.943 -11639.854)" fill="#94bbdf"/>
    <path id="Trazado_234306" data-name="Trazado 234306" d="M69.447,55.154h-.133a.694.694,0,0,1-.692-.692V14.578a.694.694,0,0,1,.692-.692h.133a.693.693,0,0,1,.692.692V54.462a.693.693,0,0,1-.692.692" transform="translate(-11051.745 -11639.854)" fill="#b1d3ee"/>
    <path id="Trazado_234307" data-name="Trazado 234307" d="M73.78,59.356h-.133a.694.694,0,0,1-.692-.692V18.78a.694.694,0,0,1,.692-.692h.133a.693.693,0,0,1,.692.692V58.664a.693.693,0,0,1-.692.692" transform="translate(-11049.204 -11637.39)" fill="#94bbdf"/>
    <path id="Trazado_234308" data-name="Trazado 234308" d="M74.118,59.356h-.133a.694.694,0,0,1-.692-.692V18.78a.694.694,0,0,1,.692-.692h.133a.693.693,0,0,1,.692.692V58.664a.693.693,0,0,1-.692.692" transform="translate(-11049.006 -11637.39)" fill="#b1d3ee"/>
    <path id="Trazado_234309" data-name="Trazado 234309" d="M62.594,20.772v8.242c0,1.582,4.614,2.862,10.3,2.862s10.3-1.28,10.3-2.862V20.772Z" transform="translate(-11055.281 -11635.814)" fill="#3c3352"/>
    <path id="Trazado_234310" data-name="Trazado 234310" d="M60.921,13.886V24.253c0,1.988,5.8,3.6,12.959,3.6s12.959-1.612,12.959-3.6V13.886Z" transform="translate(-11056.263 -11639.854)" fill="#fb0"/>
    <path id="Trazado_234311" data-name="Trazado 234311" d="M86.839,15.217c0,1.988-5.8,3.6-12.959,3.6s-12.959-1.612-12.959-3.6,5.8-3.6,12.959-3.6,12.959,1.612,12.959,3.6" transform="translate(-11056.264 -11641.186)" fill="#ffc947"/>
    <path id="Trazado_234312" data-name="Trazado 234312" d="M62.594,8.429v8.242c0,1.582,4.614,2.862,10.3,2.862s10.3-1.28,10.3-2.862V8.429Z" transform="translate(-11055.281 -11643.056)" fill="#3c3352"/>
    <path id="Trazado_234313" data-name="Trazado 234313" d="M83.2,9.487c0,1.58-4.614,2.862-10.3,2.862S62.6,11.068,62.6,9.487s4.612-2.862,10.3-2.862S83.2,7.907,83.2,9.487" transform="translate(-11055.281 -11644.113)" fill="#ffc947"/>
    <path id="Trazado_234314" data-name="Trazado 234314" d="M60.921,2.269V12.636c0,1.988,5.8,3.6,12.959,3.6s12.959-1.612,12.959-3.6V2.269Z" transform="translate(-11056.263 -11646.669)" fill="#fb0"/>
    <path id="Trazado_234315" data-name="Trazado 234315" d="M86.839,3.6c0,1.988-5.8,3.6-12.959,3.6S60.92,5.588,60.92,3.6,66.722,0,73.879,0,86.839,1.612,86.839,3.6" transform="translate(-11056.264 -11648)" fill="#ffc947"/>
    <g id="Grupo_237534" data-name="Grupo 237534" transform="translate(-10995.343 -11644.063)" opacity="0.32" style="mix-blend-mode: overlay;isolation: isolate">
      <g id="Grupo_237533" data-name="Grupo 237533">
        <g id="Grupo_237532" data-name="Grupo 237532" clip-path="url(#clip-path)">
          <path id="Trazado_234316" data-name="Trazado 234316" d="M71.24,12.848a20.549,20.549,0,0,1-10.319-2.607v2.27c0,1.988,5.8,3.6,12.959,3.6S86.84,14.5,86.84,12.512V2.481c0,5.724-6.984,10.367-15.6,10.367" transform="translate(-60.92 -2.481)"/>
        </g>
      </g>
    </g>
    <path id="Trazado_234317" data-name="Trazado 234317" d="M77.24,2.269c0,.113.025.222.025.336V2.269Z" transform="translate(-11046.69 -11646.669)" fill="#fb0"/>
    <g id="Grupo_237537" data-name="Grupo 237537" transform="translate(-10992.688 -11631.78)" opacity="0.32" style="mix-blend-mode: overlay;isolation: isolate">
      <g id="Grupo_237536" data-name="Grupo 237536">
        <g id="Grupo_237535" data-name="Grupo 237535" clip-path="url(#clip-path-2)">
          <path id="Trazado_234318" data-name="Trazado 234318" d="M69.778,16.755a18.531,18.531,0,0,1-7.184-1.412v.278c0,1.58,4.614,2.862,10.3,2.862S83.2,17.2,83.2,15.621v-5.4c-2.312,3.849-7.446,6.532-13.424,6.532" transform="translate(-62.594 -10.223)"/>
        </g>
      </g>
    </g>
    <g id="Grupo_237540" data-name="Grupo 237540" transform="translate(-10995.343 -11623.003)" opacity="0.32" style="mix-blend-mode: overlay;isolation: isolate">
      <g id="Grupo_237539" data-name="Grupo 237539">
        <g id="Grupo_237538" data-name="Grupo 237538" clip-path="url(#clip-path-3)">
          <path id="Trazado_234319" data-name="Trazado 234319" d="M72.1,23.109A19.843,19.843,0,0,1,60.92,19.956v3.2c0,1.988,5.8,3.6,12.959,3.6s12.959-1.612,12.959-3.6v-7.4c-1.666,4.224-7.622,7.354-14.735,7.354" transform="translate(-60.921 -15.755)"/>
        </g>
      </g>
    </g>
    <g id="Grupo_237543" data-name="Grupo 237543" transform="translate(-10992.688 -11610.754)" opacity="0.32" style="mix-blend-mode: overlay;isolation: isolate">
      <g id="Grupo_237542" data-name="Grupo 237542">
        <g id="Grupo_237541" data-name="Grupo 237541" clip-path="url(#clip-path-4)">
          <path id="Trazado_234320" data-name="Trazado 234320" d="M71.218,28.1A19.211,19.211,0,0,1,62.6,26.21v1.22c0,1.58,4.612,2.862,10.3,2.862S83.2,29.01,83.2,27.43V23.476C81.3,26.184,76.656,28.1,71.218,28.1" transform="translate(-62.594 -23.474)"/>
        </g>
      </g>
    </g>
  </g>
</svg>
