<svg xmlns="http://www.w3.org/2000/svg" width="29.763" height="65.352" viewBox="0 0 29.763 65.352">
  <g id="Grupo_237546" data-name="Grupo 237546" transform="translate(11029.99 11353.626)">
    <path id="Trazado_234321" data-name="Trazado 234321" d="M43.516,240.3h0a.676.676,0,0,1-.674-.674V204.264a.674.674,0,1,1,1.349,0v35.359a.676.676,0,0,1-.674.674" transform="translate(-11066.868 -11528.572)" fill="#94bbdf"/>
    <path id="Trazado_234322" data-name="Trazado 234322" d="M48.883,240.3h0a.676.676,0,0,1-.674-.674V204.264a.674.674,0,1,1,1.349,0v35.359a.676.676,0,0,1-.674.674" transform="translate(-11063.72 -11528.572)" fill="#94bbdf"/>
    <path id="Trazado_234323" data-name="Trazado 234323" d="M54.25,240.3h0a.676.676,0,0,1-.674-.674V204.264a.674.674,0,1,1,1.349,0v35.359a.676.676,0,0,1-.674.674" transform="translate(-11060.571 -11528.572)" fill="#94bbdf"/>
    <path id="Trazado_234324" data-name="Trazado 234324" d="M43.817,240.3h0a.676.676,0,0,1-.674-.674V204.264a.674.674,0,1,1,1.349,0v35.359a.676.676,0,0,1-.674.674" transform="translate(-11066.691 -11528.572)" fill="#b1d3ee"/>
    <path id="Trazado_234325" data-name="Trazado 234325" d="M49.184,240.3h0a.676.676,0,0,1-.674-.674V204.264a.674.674,0,1,1,1.349,0v35.359a.676.676,0,0,1-.674.674" transform="translate(-11063.544 -11528.572)" fill="#b1d3ee"/>
    <path id="Trazado_234326" data-name="Trazado 234326" d="M54.551,240.3h0a.676.676,0,0,1-.674-.674V204.264a.674.674,0,1,1,1.349,0v35.359a.676.676,0,0,1-.674.674" transform="translate(-11060.396 -11528.572)" fill="#b1d3ee"/>
    <path id="Trazado_234327" data-name="Trazado 234327" d="M43.984,209.967h0a1.467,1.467,0,0,1-1.463-1.463v-7.682a1.463,1.463,0,1,1,2.926,0V208.5a1.467,1.467,0,0,1-1.463,1.463" transform="translate(-11067.057 -11531.054)" fill="#3c3352"/>
    <path id="Trazado_234328" data-name="Trazado 234328" d="M49.3,209.967h0a1.467,1.467,0,0,1-1.463-1.463v-7.682a1.463,1.463,0,1,1,2.926,0V208.5a1.467,1.467,0,0,1-1.463,1.463" transform="translate(-11063.938 -11531.054)" fill="#3c3352"/>
    <path id="Trazado_234329" data-name="Trazado 234329" d="M54.669,209.967h0a1.467,1.467,0,0,1-1.463-1.463v-7.682a1.463,1.463,0,1,1,2.926,0V208.5a1.467,1.467,0,0,1-1.463,1.463" transform="translate(-11060.789 -11531.054)" fill="#3c3352"/>
    <rect id="Rectángulo_313610" data-name="Rectángulo 313610" width="2.926" height="1.03" transform="translate(-11024.536 -11326.657)" fill="#1e1b32"/>
    <rect id="Rectángulo_313611" data-name="Rectángulo 313611" width="2.926" height="1.03" transform="translate(-11016.098 -11326.657)" fill="#1e1b32"/>
    <rect id="Rectángulo_313612" data-name="Rectángulo 313612" width="2.926" height="1.03" transform="translate(-11007.583 -11326.657)" fill="#1e1b32"/>
    <path id="Trazado_234330" data-name="Trazado 234330" d="M63.06,212.686h-20.8a3.183,3.183,0,0,1-3.173-3.173v-20.8a3.183,3.183,0,0,1,3.173-3.173h20.8a3.183,3.183,0,0,1,3.173,3.173v20.8a3.183,3.183,0,0,1-3.173,3.173" transform="translate(-11069.073 -11539.162)" fill="#2d2743"/>
    <path id="Trazado_234331" data-name="Trazado 234331" d="M64.707,212.686H43.9a3.183,3.183,0,0,1-3.173-3.173v-20.8a3.183,3.183,0,0,1,3.173-3.173h20.8a3.183,3.183,0,0,1,3.173,3.173v20.8a3.183,3.183,0,0,1-3.173,3.173" transform="translate(-11068.107 -11539.162)" fill="#3c3352"/>
  </g>
</svg>
