<svg xmlns="http://www.w3.org/2000/svg" width="48.798" height="48.827" viewBox="0 0 48.798 48.827">
  <g id="Grupo_55033" data-name="Grupo 55033" transform="translate(-4309.294 278.131)">
    <path id="Trazado_104784" data-name="Trazado 104784" d="M4325.614-232.432a18.463,18.463,0,0,0,4.366,1.186,22.125,22.125,0,0,0,11.556-1.116.57.57,0,0,0,.154-.015,22.581,22.581,0,0,0,7.32-4.478,22.458,22.458,0,0,0,7.376-14.982,22.149,22.149,0,0,0-2.163-11.739,22.511,22.511,0,0,0-7.721-8.976,19.689,19.689,0,0,0-4.966-2.524,22.086,22.086,0,0,0-11.613-1.111,17.613,17.613,0,0,0-4.313,1.182,20.7,20.7,0,0,0-6.648,3.894,22.487,22.487,0,0,0-7.931,15.211,22.209,22.209,0,0,0,2.666,13.084c.306.567.232,1.049-.193,1.286-.461.257-.934.081-1.24-.493a24.218,24.218,0,0,1-2.908-9.866,24,24,0,0,1,5.069-16.8,23.406,23.406,0,0,1,16.155-9.228,23.751,23.751,0,0,1,19.264,5.915,23.386,23.386,0,0,1,7.942,14.537,23.737,23.737,0,0,1-5.766,19.85,23.525,23.525,0,0,1-15.283,8.111,24.091,24.091,0,0,1-16.172-3.61,22.507,22.507,0,0,1-4.043-3.23.849.849,0,0,1-.125-1.246.8.8,0,0,1,1.247.075,22.707,22.707,0,0,0,6.231,4.371A11.177,11.177,0,0,0,4325.614-232.432Z" fill="#b3009d"/>
    <path id="Trazado_104785" data-name="Trazado 104785" d="M4368.08-244.168l-.218-.084a.168.168,0,0,0-.213-.083,19.005,19.005,0,0,0-19.2,3.729,18.527,18.527,0,0,0-6.536,12.17,19.151,19.151,0,0,0,3.637,14.093c.112.156.236.3.338.466a.8.8,0,0,1-.159,1.159.794.794,0,0,1-1.153-.206,19.871,19.871,0,0,1-2.188-3.44c-.162-.326-.34-.645-.51-.967a23.792,23.792,0,0,1-1.494-5.149,21.291,21.291,0,0,1,1.265-11.428c.051-.129.086-.264.128-.4q.4-.764.792-1.529a21.142,21.142,0,0,1,20.315-11.18,21,21,0,0,1,11.187,4.264c.592.448.66.7.364,1.383a.956.956,0,0,1-1.319-.056c-.4-.309-.809-.6-1.232-.868A15.672,15.672,0,0,0,4368.08-244.168Z" transform="translate(-27.581 -27.796)" fill="#b3009d"/>
    <path id="Trazado_104787" data-name="Trazado 104787" d="M4356.444,83.515a.841.841,0,0,1-.816.839.822.822,0,0,1-.772-.821.794.794,0,1,1,1.588-.018Z" transform="translate(-40.784 -323.015)" fill="#b3009d"/>
    <path id="Trazado_104788" data-name="Trazado 104788" d="M4440.452-189.962q0,1.31,0,2.619c0,.171-.025.344.159.466a2.285,2.285,0,0,1,.926,2.252,8.948,8.948,0,0,1-2.979,6.315,1.679,1.679,0,0,0-.6,1.311,8.967,8.967,0,0,1-1.878,5.292,21.945,21.945,0,0,1-3.861,3.9,6.615,6.615,0,0,1-8.708-.587,36.826,36.826,0,0,1-2.915-3.006,9.361,9.361,0,0,1-2.121-5.842c-.006-.589-.4-.856-.742-1.189a8.931,8.931,0,0,1-2.828-6.592A2,2,0,0,1,4416-186.97c.235-.122.631.01.7-.335a2.083,2.083,0,0,0-.1-.772,19.514,19.514,0,0,1-.44-3.994,7.274,7.274,0,0,1,4.1-6.789,14.963,14.963,0,0,1,5.8-1.644,21.748,21.748,0,0,1,6.049.105,10.508,10.508,0,0,1,6.888,3.9,6.873,6.873,0,0,1,1.458,4.176C4440.456-191.534,4440.451-190.748,4440.452-189.962Zm-2.445,6.627a3.61,3.61,0,0,1-1.592,3.407,4.109,4.109,0,0,1-2.068.457c-.75-.014-1.5-.051-2.25.007a3.421,3.421,0,0,1-3.443-1.99c-.422-.745-.438-.746-.872.016a3.424,3.424,0,0,1-3.453,1.973,16.059,16.059,0,0,0-2.2,0,3.342,3.342,0,0,1-3.669-3.653,1.911,1.911,0,0,0-.917-2.174c-.276-.146-.5-.327-.8-.19s-.266.438-.242.692a7.483,7.483,0,0,0,2.526,5.335,2.845,2.845,0,0,1,1.092,2.267,7.638,7.638,0,0,0,1.926,4.968,28.927,28.927,0,0,0,2.837,2.858,4.665,4.665,0,0,0,4.379,1.115,4.268,4.268,0,0,0,2.43-1.227c.765-.715,1.5-1.468,2.229-2.216a7.8,7.8,0,0,0,2.386-5.364,3.072,3.072,0,0,1,1.114-2.421,6.969,6.969,0,0,0,2.444-5.558c0-.473-.425-.709-.766-.4a9.916,9.916,0,0,0-.926.749C4437.853-184.271,4438.009-183.793,4438.007-183.336Zm-3.819,2.2a1.694,1.694,0,0,0,2.113-1.98c-.022-.171,0-.348,0-.522a2.7,2.7,0,0,1,1.356-2.727.623.623,0,0,0,.286-.769.633.633,0,0,0-.663-.484c-.331,0-.662.007-.992.011-.14-.005-.279-.016-.418-.016q-8.226,0-16.452,0c-.41,0-.791.038-.916.507s.172.7.521.917a2.241,2.241,0,0,1,1.045,1.554,10.257,10.257,0,0,1,.071,1.826,1.571,1.571,0,0,0,1.691,1.7c1,.005,1.991-.008,2.986.006a1.3,1.3,0,0,0,.936-.38,8.275,8.275,0,0,0,1.1-1.586,1.59,1.59,0,0,1,2.747-.007c.216.316.378.67.6.979.335.461.647.984,1.322.987C4432.407-181.121,4433.3-181.133,4434.188-181.138Zm2.836-9.939a4.926,4.926,0,0,0,1.758,2.3,24.117,24.117,0,0,0-.039-4.092c-.534-3-2.587-4.668-5.4-5.527a17.363,17.363,0,0,0-2.75-.539,25.211,25.211,0,0,0-4.477.088,13.191,13.191,0,0,0-5.456,1.647,5.652,5.652,0,0,0-2.247,2.342c-.854,1.685-.634,3.457-.417,5.223.07.57.314.655.827.38.134-.072.186-.2.268-.311a9.048,9.048,0,0,1,.644-.82c1.72-1.823,3.945-2.234,6.309-2.19,1.514.028,3.024.207,4.542.144a6.783,6.783,0,0,0,2.292-.463,3.067,3.067,0,0,0,1.85-1.444.85.85,0,0,1,.979-.6c.528.1.678.5.674.978A7.048,7.048,0,0,0,4437.023-191.078Zm-16.107,1.806h10.56c1.36,0,2.721-.011,4.082.006.461.006.512-.137.3-.508a7.216,7.216,0,0,1-.621-1.381c-.292-.886-.285-.861-1.153-.461a11.74,11.74,0,0,1-6.047.786,13.649,13.649,0,0,0-4.317.069A5.133,5.133,0,0,0,4420.916-189.272Z" transform="translate(-94.54 -69.346)" fill="#b3009d"/>
    <path id="Trazado_104789" data-name="Trazado 104789" d="M4443.411-172.387c.687-.289.923-.215,1.382.365a22.405,22.405,0,0,1,2.12,3.4,1.262,1.262,0,0,0,.05.148,20.961,20.961,0,0,1,1.669,13.776,34.268,34.268,0,0,1-1.292,4.072,24.3,24.3,0,0,1-2.91,4.7,20.83,20.83,0,0,1-12.893,7.554,20.793,20.793,0,0,1-13.9-2.382,20.261,20.261,0,0,1-2.615-1.732.867.867,0,0,1-.261-1.193.788.788,0,0,1,1.2-.129,20.136,20.136,0,0,0,4.229,2.492,19.057,19.057,0,0,0,14.378.428c.2-.059.4-.1.594-.18a19.243,19.243,0,0,0,9.7-8.4,19.151,19.151,0,0,0,2.312-13.162,18.96,18.96,0,0,0-3.679-8.393A.989.989,0,0,1,4443.411-172.387Z" transform="translate(-94.285 -94.511)" fill="#b3009d"/>
    <path id="Trazado_104792" data-name="Trazado 104792" d="M4602.82-220.972a.168.168,0,0,1,.214.083C4602.9-220.748,4602.854-220.848,4602.82-220.972Z" transform="translate(-262.752 -51.158)" fill="#b3009d"/>
    <path id="Trazado_104800" data-name="Trazado 104800" d="M4635.106-48.274a1.389,1.389,0,0,1-.171,1.352C4634.937-47.38,4634.781-47.857,4635.106-48.274Z" transform="translate(-291.469 -205.759)" fill="#b3009d"/>
  </g>
</svg>
