<svg id="Grupo_237301" data-name="Grupo 237301" xmlns="http://www.w3.org/2000/svg" xmlns:xlink="http://www.w3.org/1999/xlink" width="36.507" height="75.684" viewBox="0 0 36.507 75.684">
  <defs>
    <clipPath id="clip-path">
      <rect id="Rectángulo_312979" data-name="Rectángulo 312979" width="36.507" height="75.684" fill="none"/>
    </clipPath>
  </defs>
  <g id="Grupo_237300" data-name="Grupo 237300" clip-path="url(#clip-path)">
    <path id="Trazado_232206" data-name="Trazado 232206" d="M27.616,66.305a13.8,13.8,0,0,0-7.032-12.03V11.106c0-1.153-1-3.968-4.776-5.133.008.126-.067.152-.174.2A7.191,7.191,0,0,0,14.159,7a6.584,6.584,0,0,0-1.7,1.945,5.681,5.681,0,0,0-.839,2.9c.007.564,0,1.128,0,1.692,0,.108-.039.228.06.32A2.333,2.333,0,0,1,13.835,12.7a1.859,1.859,0,0,1,1.42.607,2.792,2.792,0,0,1,.859,2.112c-.007.839,0,1.677,0,2.516l2.668-.01v2.289l-2.606-.01a.726.726,0,0,0-.062.388q0,1.844,0,3.688l2.667,0v2.286c-.716,0-1.433-.005-2.149-.006a2.051,2.051,0,0,1-.514-.052q0,1.479,0,2.957a5.583,5.583,0,0,1-.061,1.163l2.729-.006v2.289c-.708,0-1.416,0-2.124-.008-.181,0-.362-.024-.543-.037q0,2.084,0,4.168a1.756,1.756,0,0,1,.512-.059c.717,0,1.433,0,2.15-.005v2.292l-2.668-.006.009,4.067c.886,0,1.773,0,2.659,0V45.6l-2.233-.006h-.068l-.358,0q-.041,2.034,0,4.068l2.66-.009v2.231c-.8,0-1.609,0-2.413.013a.2.2,0,0,1-.251.165v.625a13.809,13.809,0,1,0-.609,27.313.165.165,0,0,1,.048.1c.214.037.392-.1.6-.122a7.376,7.376,0,0,0,1.62-.4c.577-.2,1.146-.421,1.712-.65a10.85,10.85,0,0,0,1.584-.847,10.8,10.8,0,0,0,1.158-.838,13.782,13.782,0,0,0,5.392-10.943" transform="translate(0 -4.496)" fill="#d8ecff"/>
    <path id="Trazado_232207" data-name="Trazado 232207" d="M15.554,79a16.208,16.208,0,0,1-2.269.062,13.38,13.38,0,0,1-3.044-.446A12.942,12.942,0,0,1,7.46,77.523,14.063,14.063,0,0,1,4.9,75.82a13.891,13.891,0,0,1-2.5-2.76A13.75,13.75,0,0,1,.323,68.37a17.693,17.693,0,0,1-.292-2.181A13.456,13.456,0,0,1,.057,64.2,10.372,10.372,0,0,1,.4,62.15a12.94,12.94,0,0,1,.9-2.573A14.786,14.786,0,0,1,2.957,56.9a13.448,13.448,0,0,1,3.25-2.96A1.7,1.7,0,0,0,7,53c.349.151.307-.092.307-.3q0-13.479,0-26.958,0-6.84-.006-13.679a1.42,1.42,0,0,0-.184-.907,6.267,6.267,0,0,1,1.392-4.1,6.627,6.627,0,0,1,7.018-2.3,2.3,2.3,0,0,1,.279.114c.008.126-.067.152-.174.2a7.2,7.2,0,0,0-1.476.827,6.584,6.584,0,0,0-1.7,1.945,5.683,5.683,0,0,0-.839,2.9c.007.564,0,1.128,0,1.692,0,.108-.039.228.06.32a3.857,3.857,0,0,0-.309,2q.005,7.632,0,15.265c0,.488,0,.488.427.586-.147.079-.383-.122-.469.149q0,.087,0,.174c0,.044,0,.088,0,.132v.178c0,.113-.009.225-.009.338q0,7.2,0,14.405,0,3.6.008,7.2c0,.039,0,.079,0,.118q-.011.155-.022.31a4.549,4.549,0,0,0-1.29.793,14.827,14.827,0,0,0-3.484,3.757A11.875,11.875,0,0,0,5.211,61a14.286,14.286,0,0,0-.674,4.34,17.362,17.362,0,0,0,.117,1.834,12.089,12.089,0,0,0,1.01,3.649,13.952,13.952,0,0,0,3.62,4.9,13.389,13.389,0,0,0,4.169,2.468c.611.227,1.236.416,1.855.623.1.035.23.041.247.189" transform="translate(0 -3.388)" fill="#b3daff"/>
    <path id="Trazado_232208" data-name="Trazado 232208" d="M91.823,6.471A1.926,1.926,0,0,1,90.768,6.1a3.47,3.47,0,0,1-1.35-1.468A3.285,3.285,0,0,1,90.548.581,3.224,3.224,0,0,1,94.217.565a3.084,3.084,0,0,1,1.407,2.214,3.277,3.277,0,0,1-2.509,3.687.7.7,0,0,1-.123.007c-.012-.161-.121-.184-.255-.189a3.1,3.1,0,0,1-.719-.039c-.17-.046-.192.095-.2.225m.563-2.216a.975.975,0,0,0,1.035-.972,1.074,1.074,0,0,0-1.067-1.005,1.089,1.089,0,0,0-1.013,1,1,1,0,0,0,1.045.973" transform="translate(-67.092 0)" fill="#b3daff"/>
    <path id="Trazado_232209" data-name="Trazado 232209" d="M68.858,56.6l-3.82-.016a.341.341,0,0,1-.123-.322c.005-.479,0-.958,0-1.438a.919.919,0,0,1,.058-.509l3.882-.015a10.929,10.929,0,0,1,1.132.064,1.221,1.221,0,0,1,.886,1.022,1.169,1.169,0,0,1-.7,1.09,3.485,3.485,0,0,1-1.318.123" transform="translate(-48.863 -40.876)" fill="#8ac9ff"/>
    <path id="Trazado_232210" data-name="Trazado 232210" d="M64.934,80,68.814,80a7.97,7.97,0,0,1,1.1.059,1.089,1.089,0,0,1-.093,2.163c-.335.029-.671.047-1.007.07-1.121,0-2.242-.008-3.363-.009a2.037,2.037,0,0,1-.514-.052c-.021-.045-.066-.095-.057-.133a3.721,3.721,0,0,0,0-1.152A2.031,2.031,0,0,1,64.934,80" transform="translate(-48.821 -60.22)" fill="#8ac9ff"/>
    <path id="Trazado_232211" data-name="Trazado 232211" d="M68.848,107.949c-1.112,0-2.225-.005-3.337-.012-.181,0-.362-.024-.543-.038-.005-.11-.011-.22-.016-.329a1.929,1.929,0,0,0-.053-.771q0-.569.007-1.137l3.943-.009a6.208,6.208,0,0,1,1.126.071,1.086,1.086,0,0,1-.152,2.155c-.324.033-.649.047-.974.07" transform="translate(-48.854 -79.534)" fill="#8ac9ff"/>
    <path id="Trazado_232212" data-name="Trazado 232212" d="M68.938,159.294l-3.384-.01c-.023-.03-.046-.029-.068,0l-.358,0c-.047-.76-.024-1.521,0-2.281,1.107,0,2.215.011,3.321-.009.2,0,.41.181.611,0a4.333,4.333,0,0,1,1.216.092,1.221,1.221,0,0,1,.748,1,1.276,1.276,0,0,1-.706,1.066,4.074,4.074,0,0,1-1.379.136" transform="translate(-49.006 -118.186)" fill="#8ac9ff"/>
    <path id="Trazado_232213" data-name="Trazado 232213" d="M28.443,31.41a1.418,1.418,0,0,1,.183.907q.013,6.84.006,13.679,0,13.479,0,26.958c0,.209.042.452-.307.3q0-13.856,0-27.713,0-6.569,0-13.139a3.976,3.976,0,0,1,.113-.993" transform="translate(-21.323 -23.645)" fill="#d8ecff"/>
    <path id="Trazado_232214" data-name="Trazado 232214" d="M65.107,131.392a1.764,1.764,0,0,1,.512-.059c1.122,0,2.243,0,3.365-.008a3.755,3.755,0,0,1,1.387.184.987.987,0,0,1,.623.971,1.118,1.118,0,0,1-.737,1.011,3.565,3.565,0,0,1-1.274.132l-3.882-.008c-.049-.741-.006-1.481.006-2.222" transform="translate(-48.99 -98.859)" fill="#8ac9ff"/>
    <path id="Trazado_232215" data-name="Trazado 232215" d="M65.127,182.677,69,182.663a11.478,11.478,0,0,1,1.159.058,1.119,1.119,0,0,1,.855,1.089,1.177,1.177,0,0,1-1.064,1.082c-.316.017-.633.017-.949.024-1.21-.031-2.42-.022-3.629-.005a.189.189,0,0,0-.252-.016c-.033-.739-.022-1.479.006-2.218" transform="translate(-49.006 -137.505)" fill="#8ac9ff"/>
    <path id="Trazado_232216" data-name="Trazado 232216" d="M121.747,26.461a2.859,2.859,0,0,0-.69-.116,1.057,1.057,0,0,0-1.386.881c-.019.089-.021.182-.038.272a1.468,1.468,0,0,1-.361.894,1.6,1.6,0,0,1-2.514-.543,3.1,3.1,0,0,1-.121-1.028c-.007-1.507-.087-3.016.042-4.522a1.417,1.417,0,0,1,1.5-1.351,1.317,1.317,0,0,1,1.458,1.349.873.873,0,0,0,.755.869,2.816,2.816,0,0,0,1.126.007.93.93,0,0,0,.761-.808,3.093,3.093,0,0,0-1.958-3.278,5.946,5.946,0,0,0-2.766-.406,3.951,3.951,0,0,0-1.969.62,3.8,3.8,0,0,0-1.55,3.186c-.013.172-.068.336-.067.513.006,1.288,0,2.575.007,3.862a2.387,2.387,0,0,0,.117.8c.021.152.039.3.062.455a3.423,3.423,0,0,0,3.275,2.922,6.119,6.119,0,0,0,2.132-.16,3.365,3.365,0,0,0,2.715-3.689.84.84,0,0,0-.528-.732" transform="translate(-85.792 -14.046)" fill="#b3daff"/>
    <path id="Trazado_232217" data-name="Trazado 232217" d="M82,141.754a3.51,3.51,0,0,1,.06.652c-.075.83-.007,1.661-.036,2.49,0,.088.057.251-.1.239s-.075-.158-.063-.254c.09-.736.018-1.475.039-2.212.008-.3,0-.608,0-.911l.1,0" transform="translate(-61.61 -106.71)" fill="#d8ecff"/>
    <path id="Trazado_232218" data-name="Trazado 232218" d="M100.038,25.46c0-.131.025-.272.2-.226a3.087,3.087,0,0,0,.719.039c.134,0,.242.027.254.189a1.34,1.34,0,0,1-1.169,0" transform="translate(-75.307 -18.989)" fill="#d8ecff"/>
    <path id="Trazado_232219" data-name="Trazado 232219" d="M35.741,151.623a6.539,6.539,0,0,1-4.046-.588,6.809,6.809,0,0,1-3.6-4.146,7.1,7.1,0,0,1-.3-2.335,6.757,6.757,0,0,1,3.068-5.429c.222-.137.445-.274.67-.4a1.4,1.4,0,0,0,.713-1.015c.007-.005.021-.011.02-.016a.223.223,0,0,0-.012-.044c0-.061,0-.122.005-.183l.068-.033-.067-.035q0-2-.008-4.006a.177.177,0,0,0,0-.241l-.022-.065q.011-.155.022-.31.073-.06,0-.118,0-3.6-.008-7.2,0-7.2,0-14.405c0-.113.006-.225.009-.338a.114.114,0,0,0,0-.178c0-.044,0-.088,0-.131a.112.112,0,0,0,0-.175c.086-.271.322-.07.469-.149l.131,0h.115l.132,0h.246l.114,0h.132l.114,0,.132,0,.114,0,.132,0,.114,0,.132,0,.114,0,.133,0,.357,0h.135l.424.045c-.02.254-.058.508-.058.762q0,12.813,0,25.627c0,.339,0,.678,0,1.017a1.376,1.376,0,0,1-.685,1.17,9.356,9.356,0,0,0-1.5,1.039,7.484,7.484,0,0,0-1.516,1.948,6.826,6.826,0,0,0,1.252,8.006,6.745,6.745,0,0,0,2.552,1.593.274.274,0,0,1,.2.344" transform="translate(-20.922 -82.859)" fill="#fb2a39"/>
    <path id="Trazado_232220" data-name="Trazado 232220" d="M48.275,52.185l-.133,0a.07.07,0,0,0-.114,0l-.132,0a.069.069,0,0,0-.114,0l-.132,0a.069.069,0,0,0-.114,0l-.132,0a.07.07,0,0,0-.114,0h-.132a.07.07,0,0,0-.113,0H46.91a.07.07,0,0,0-.113,0l-.132,0a.069.069,0,0,0-.115,0l-.131,0c-.427-.1-.427-.1-.427-.586q0-7.633,0-15.265a3.859,3.859,0,0,1,.309-2,2.333,2.333,0,0,1,2.155-1.163,1.858,1.858,0,0,1,1.42.607,3.1,3.1,0,0,0-.749,2.174c.012,5.138.006,10.276.007,15.415a1.6,1.6,0,0,0,.042.518c.053.159-.022.254-.2.262a1.54,1.54,0,0,0-.207.036h-.135a.417.417,0,0,0-.357,0" transform="translate(-34.618 -24.973)" fill="#8ac9ff"/>
    <path id="Trazado_232221" data-name="Trazado 232221" d="M45.832,110.7a.112.112,0,0,1,0,.174q0-.087,0-.174" transform="translate(-34.501 -83.334)" fill="#fe4654"/>
    <path id="Trazado_232222" data-name="Trazado 232222" d="M45.833,111.938a.114.114,0,0,1,0,.178v-.178" transform="translate(-34.501 -84.265)" fill="#fe4654"/>
    <path id="Trazado_232223" data-name="Trazado 232223" d="M45.827,201.425q.074.058,0,.118c0-.039,0-.079,0-.118" transform="translate(-34.498 -151.629)" fill="#fe4654"/>
    <path id="Trazado_232224" data-name="Trazado 232224" d="M45.37,151.718a.274.274,0,0,0-.2-.344,6.745,6.745,0,0,1-2.552-1.593,6.826,6.826,0,0,1-1.252-8.006,7.484,7.484,0,0,1,1.516-1.948,9.357,9.357,0,0,1,1.5-1.039,1.376,1.376,0,0,0,.685-1.17c0-.339,0-.678,0-1.017q0-12.813,0-25.627c0-.254.038-.508.058-.762a13.7,13.7,0,0,1,1.47.006,1.925,1.925,0,0,1,.053.771c0,.11.011.22.016.329q0,2.084,0,4.168c-.013.74-.055,1.481-.006,2.222q0,2.034.009,4.067c-.023.76-.046,1.521,0,2.281q-.041,2.034,0,4.068c-.029.739-.039,1.479-.006,2.218q0,.09,0,.181-.006,2.987-.011,5.973c0,.441.011.883.011,1.324a1.09,1.09,0,0,0,.7,1.014,7.469,7.469,0,0,1,2.214,1.775,5.4,5.4,0,0,1,1,1.666,7.62,7.62,0,0,1,.472,1.743,6.2,6.2,0,0,1,.071,1.429,7.225,7.225,0,0,1-.581,2.25,6.094,6.094,0,0,1-2.022,2.614,7.379,7.379,0,0,1-3.148,1.405" transform="translate(-30.551 -82.954)" fill="#fe4654"/>
    <path id="Trazado_232225" data-name="Trazado 232225" d="M65.185,191.747q0-.091,0-.182a.188.188,0,0,1,.252.016.2.2,0,0,1-.251.165" transform="translate(-49.069 -144.176)" fill="#b3daff"/>
    <path id="Trazado_232226" data-name="Trazado 232226" d="M45.829,203.419a.177.177,0,0,1,0,.241c0-.08,0-.16,0-.241" transform="translate(-34.498 -153.13)" fill="#fe4654"/>
    <path id="Trazado_232227" data-name="Trazado 232227" d="M45.857,220.6l.067.035-.068.033c0-.022,0-.045,0-.068" transform="translate(-34.52 -166.061)" fill="#fe4654"/>
    <path id="Trazado_232228" data-name="Trazado 232228" d="M45.81,221.611a.224.224,0,0,1,.013.044s-.013.011-.021.016l.008-.06" transform="translate(-34.479 -166.825)" fill="#fe4654"/>
    <path id="Trazado_232229" data-name="Trazado 232229" d="M59.129,54.094a13.7,13.7,0,0,0-1.47-.006l-.424-.045a1.539,1.539,0,0,1,.207-.036c.176-.008.251-.1.2-.262a1.59,1.59,0,0,1-.041-.518c0-5.138.005-10.276-.007-15.415a3.1,3.1,0,0,1,.749-2.174,2.792,2.792,0,0,1,.859,2.112c-.007.839,0,1.677,0,2.516a.919.919,0,0,0-.058.509c0,.479,0,.958,0,1.438a.341.341,0,0,0,.124.322.722.722,0,0,0-.062.388q0,1.844,0,3.688a2.027,2.027,0,0,0-.048.938,3.73,3.73,0,0,1,0,1.153c-.008.038.037.088.057.133q0,1.479,0,2.958a5.6,5.6,0,0,1-.061,1.163q0,.569-.007,1.137" transform="translate(-43.085 -26.828)" fill="#b3daff"/>
    <path id="Trazado_232230" data-name="Trazado 232230" d="M66.658,166.175c.022-.03.045-.031.068,0h-.068" transform="translate(-50.179 -125.076)" fill="#b3daff"/>
    <path id="Trazado_232231" data-name="Trazado 232231" d="M55.241,109.952a.417.417,0,0,1,.357,0l-.357,0" transform="translate(-41.584 -82.74)" fill="#b3daff"/>
    <path id="Trazado_232232" data-name="Trazado 232232" d="M52.248,109.988a.069.069,0,0,1,.114,0l-.114,0" transform="translate(-39.331 -82.775)" fill="#b3daff"/>
    <path id="Trazado_232233" data-name="Trazado 232233" d="M54.24,109.987a.07.07,0,0,1,.114,0l-.114,0" transform="translate(-40.831 -82.775)" fill="#b3daff"/>
    <path id="Trazado_232234" data-name="Trazado 232234" d="M53.244,109.988a.07.07,0,0,1,.114,0l-.114,0" transform="translate(-40.081 -82.775)" fill="#b3daff"/>
    <path id="Trazado_232235" data-name="Trazado 232235" d="M51.252,109.987a.07.07,0,0,1,.114,0l-.114,0" transform="translate(-38.582 -82.775)" fill="#b3daff"/>
    <path id="Trazado_232236" data-name="Trazado 232236" d="M50.257,109.985a.07.07,0,0,1,.113,0l-.113,0" transform="translate(-37.833 -82.774)" fill="#b3daff"/>
    <path id="Trazado_232237" data-name="Trazado 232237" d="M49.26,109.985a.071.071,0,0,1,.113,0H49.26" transform="translate(-37.082 -82.774)" fill="#b3daff"/>
    <path id="Trazado_232238" data-name="Trazado 232238" d="M48.26,109.99a.069.069,0,0,1,.115,0H48.26" transform="translate(-36.329 -82.775)" fill="#b3daff"/>
  </g>
</svg>
