<svg xmlns="http://www.w3.org/2000/svg" xmlns:xlink="http://www.w3.org/1999/xlink" width="85" height="74" viewBox="0 0 85 74">
  <defs>
    <clipPath id="clip-path">
      <rect id="Rectángulo_313113" data-name="Rectángulo 313113" width="85" height="74" transform="translate(0)" fill="none"/>
    </clipPath>
  </defs>
  <g id="Grupo_237353" data-name="Grupo 237353" transform="translate(0)">
    <g id="Grupo_237352" data-name="Grupo 237352" clip-path="url(#clip-path)">
      <path id="Trazado_232431" data-name="Trazado 232431" d="M42.562,0Q58.15,0,73.738.009a10.51,10.51,0,0,1,2.545.207,6.474,6.474,0,0,1,2.4.909.816.816,0,0,0,.2.107A7.238,7.238,0,0,1,81.4,2.919a16.442,16.442,0,0,1,1.941,2.3,11.443,11.443,0,0,1,.9,1.853c.112.243.19.5.3.745a5.619,5.619,0,0,1,.393,2.166c.049,1.044.064,2.09.064,3.136Q85,31.259,84.99,49.4c0,.926-.125,1.854-.217,2.778a3.259,3.259,0,0,1-.222.737c-.083.235-.21.456-.272.7a2.249,2.249,0,0,1-.5,1.081.466.466,0,0,0-.106.17A6.633,6.633,0,0,1,82.146,57.1a13.966,13.966,0,0,1-1.682,1.5c-.446.358-.943.651-1.418.972a.365.365,0,0,1-.1.06,13.569,13.569,0,0,1-2.936.965c-.745.038-1.483.2-2.227.266-.321.031-.65-.033-.975-.033q-7.808,0-15.617,0a2.894,2.894,0,0,0-1,.082,2.743,2.743,0,0,0-.99.641c-.679.712-9.04,10.551-9.674,11.2a3.8,3.8,0,0,1-2.42,1.206,4.137,4.137,0,0,1-2.33-.335,5.1,5.1,0,0,1-1.2-.906c-.513-.509-9.555-11-9.779-11.285a1.572,1.572,0,0,0-1.306-.6q-5.806-.007-11.612,0c-1.834,0-3.671.047-5.5-.02-1.116-.041-2.227-.253-3.339-.4a1.8,1.8,0,0,1-.423-.175l-1.187-.5a.818.818,0,0,1-.107-.042A14.43,14.43,0,0,1,3.818,58a10.492,10.492,0,0,1-1.842-2.113,5.333,5.333,0,0,1-.921-1.707c-.063-.316-.341-.586-.425-.9-.167-.629-.244-1.28-.4-1.913A12.244,12.244,0,0,1,0,48.422Q0,30.1.009,11.787A11.135,11.135,0,0,1,.362,8.682c.072-.248.1-.508.149-.762a.388.388,0,0,1,.016-.085c.309-.7.584-1.411.938-2.083a13.151,13.151,0,0,1,1.042-1.6A6.389,6.389,0,0,1,3.3,3.321,12.95,12.95,0,0,1,4.511,2.236c.475-.348,1-.624,1.512-.926A6.184,6.184,0,0,1,6.58,1.02q.44-.2.889-.387c.115-.047.248-.05.36-.1A8.277,8.277,0,0,1,11.357.006Q26.96,0,42.562,0Z" transform="translate(-0.001 0)" fill="#ffca00"/>
      <path id="Trazado_232432" data-name="Trazado 232432" d="M131.85,63.142a11.1,11.1,0,0,1-.65,4.112,8.719,8.719,0,0,1-1.721,3.089,18.61,18.61,0,0,1-1.42,1.724c-.753.782-1.557,1.513-2.347,2.258-.452.426-.919.836-1.378,1.253-.609.554-1.214,1.111-1.826,1.661q-2.1,1.889-4.213,3.771c-.856.761-1.732,1.5-2.584,2.265-.811.728-1.6,1.485-2.407,2.215q-1.483,1.337-2.991,2.646a1.245,1.245,0,0,1-1.507.014c-.58-.455-1.152-.923-1.7-1.421-.838-.765-1.633-1.577-2.476-2.337-.766-.691-1.582-1.326-2.356-2.008-1-.882-1.979-1.794-2.979-2.679-.647-.572-1.322-1.113-1.975-1.679-.406-.352-.793-.724-1.19-1.086-1.318-1.205-2.67-2.375-3.941-3.628a30.617,30.617,0,0,1-2.342-2.689c-.518-.646-.95-1.362-1.418-2.048a.923.923,0,0,1-.152-.255c-.519-1.93-1.25-3.783-1.054-5.89a27.124,27.124,0,0,1,1.063-4.282,5.847,5.847,0,0,1,1.176-1.9,16.187,16.187,0,0,1,1.791-2.027,13.223,13.223,0,0,1,1.919-1.378,13.56,13.56,0,0,1,4.108-1.585,9.92,9.92,0,0,1,5.759.271,15.525,15.525,0,0,1,2.655,1.12,12.241,12.241,0,0,1,2.787,2.178,1.278,1.278,0,0,0,1.223.53,1.763,1.763,0,0,0,.745-.316c.754-.624,1.439-1.337,2.224-1.914a8.777,8.777,0,0,1,1.881-.981,13.1,13.1,0,0,1,6.318-1.123,7.639,7.639,0,0,1,1.422.268c.789.236,1.563.522,2.339.8a2.839,2.839,0,0,1,.519.288c.144.09.267.25.42.286a4.756,4.756,0,0,1,2.148,1.374c.518.491.965,1.056,1.442,1.59.122.137.246.275.355.422a8.924,8.924,0,0,1,.64.9,7.311,7.311,0,0,1,.917,1.8c.345,1.467,1.025,2.885.773,4.4" transform="translate(-67.05 -39.18)" fill="#cc003a"/>
    </g>
  </g>
</svg>
