<svg id="Grupo_237267" data-name="Grupo 237267" xmlns="http://www.w3.org/2000/svg" xmlns:xlink="http://www.w3.org/1999/xlink" width="74.355" height="75.683" viewBox="0 0 74.355 75.683">
  <defs>
    <clipPath id="clip-path">
      <rect id="Rectángulo_312957" data-name="Rectángulo 312957" width="74.355" height="75.683" fill="none"/>
    </clipPath>
  </defs>
  <g id="Grupo_237266" data-name="Grupo 237266" clip-path="url(#clip-path)">
    <path id="Trazado_232098" data-name="Trazado 232098" d="M.1,115.818a33.188,33.188,0,0,0,.126-4.866q.012-28.794,0-57.587A4.579,4.579,0,0,0,.1,51.833c.454-.091.285-.451.313-.726a1.4,1.4,0,0,1,1.356-.579l14.981.012a14.7,14.7,0,0,0,2.7-.008l2.484-.014a5.353,5.353,0,0,0,2.572-.1,11.05,11.05,0,0,0,2.59.086q.02,1.089.039,2.178c.024,1.276-.266,2.616.752,3.689a1.7,1.7,0,0,1-1.01.207c-.255,0-.55-.056-.614.319-1.008.081-.332.842-.509,1.259a1.875,1.875,0,0,1-1.1.177c-1.1,0-1.375.279-1.385,1.392,0,.292,0,.585,0,.877-.8.205-1.679.175-1.446,1.536.21,1.224.044,1.253,1.278,1.323l.138.14c.01.173.027.346.029.518.023,1.427.342,1.74,1.785,1.776.243.006.53-.11.71.175-.208.886.139,1.217,1.029,1.076a4.388,4.388,0,0,1,1.048,0c.426.036.579-.134.536-.549a5.8,5.8,0,0,1,.008-.7c.292,0,.584,0,.876,0,1.1-.015,1.55-.489,1.579-1.6.008-.3-.151-.649.172-.894.779.17,1.221-.03,1.056-.936a1.765,1.765,0,0,1,0-.607c.147-.846-.152-1.243-1.042-1.082-.305-.352-.18-.777-.19-1.175-.024-.938-.33-1.236-1.248-1.28-.414-.02-.873.192-1.242-.172q0-.608.006-1.216l.2-.2a4.383,4.383,0,0,0,1.372.2c2.391-.013,4.782,0,7.173-.007a2.748,2.748,0,0,0,2.859-2.839q.008-1.749.011-3.5a6.635,6.635,0,0,0,2.452-.17c0,1.258.007,2.517.014,3.775a2.6,2.6,0,0,0,2.749,2.732q6.848.005,13.7,0A2.547,2.547,0,0,0,61.6,54.182q.022-1.843.045-3.685l2.528.042a14.389,14.389,0,0,0,2.357.045l.227-.1a37.524,37.524,0,0,0,3.766.052,12.992,12.992,0,0,0,2.5.007l.174.03a1.3,1.3,0,0,1,1.228,1.4c0,3.046.01,6.091.009,9.137q0,27.1-.013,54.209c0,1.311-.452,1.74-1.766,1.74q-34.616,0-69.233,0a5.89,5.89,0,0,0-1.637.131,1.189,1.189,0,0,1-1.364-.68c-.036-.265.117-.618-.321-.7m65.347-7.56c.009-.123-.049-.165-.165-.139l-1.053-.033q0-.305-.005-.61c-.011-1.434-.481-1.9-1.932-1.892-.2,0-.405.017-.608.026-.117-1.218-.117-1.218-1.314-1.218s-1.2,0-1.309,1.217c-.347-.008-.694-.031-1.04-.023-1.164.028-1.517.4-1.53,1.581,0,.366.094.757-.192,1.076-.327.087-.893-.161-.958.152a4.84,4.84,0,0,0-.016,2.081c.122.487.775.106,1.168.238-.149,2.643.541,2.578,2.58,2.48a2.776,2.776,0,0,1,.031.609c-.116.69.2.871.828.792a5.315,5.315,0,0,1,.961,0c.5.028.776-.156.744-.7a5.728,5.728,0,0,1,.039-.7c.2.006.407.017.611.017,1.507,0,1.932-.433,1.939-1.975,0-.175,0-.35,0-.525,1.247-.036,1.249-.036,1.245-1.326,0-.376-.017-.752-.027-1.127M19.769,91.531a2.11,2.11,0,0,0-.609.04c-.513.192-1,.376-1.019,1.105a1.229,1.229,0,0,0,.916,1.306,1.147,1.147,0,0,0,1.4-.63c.406-.658.105-1.155-.342-1.627-.039-.2-.059-.424-.341-.195M70.029,59.7c-.04-.185-.068-.391-.329-.187-1.808,0-3.617-.024-5.425,0-1.034.012-1.3.292-1.312,1.3-.015.933.068,1.874-.025,2.8-.095.944.275,1.2,1.121,1.03l.08.008.074-.031,5.1-.052c1.27.13,1.27.13,1.27-1.1,0-.79.006-1.579,0-2.369a1.657,1.657,0,0,0-.555-1.4M66.695,73.3l.168-.159A2.528,2.528,0,0,0,65.1,68.511a22.488,22.488,0,0,0-2.511-3.448,1.359,1.359,0,0,0-1.115-.413q-8.87.01-17.741.007a.9.9,0,0,0-.8.244A24.377,24.377,0,0,0,40.311,68.5a2.865,2.865,0,0,0-2.434.856,2.688,2.688,0,0,0,.778,3.959,3.562,3.562,0,0,0-.075.517q-.009,4.809-.008,9.618c0,.2-.02.413.167.561a2.816,2.816,0,0,0-1.4,2.06c-.108,1.793.9,2.775,2.958,2.878.758,1.031,1.539,2.046,2.263,3.1a1.623,1.623,0,0,0,1.479.747q8.649-.013,17.3,0a1.713,1.713,0,0,0,1.492-.739l2.278-3.108c2.021-.122,2.9-1.086,2.812-3.026-.041-.862-.658-1.3-1.213-1.8q-.029-5.389-.058-10.777l.042-.047M11.688,68.371l.213-.1-.213-.1q0-3.417-.007-6.833c0-1.926,0-1.914-1.905-1.774-.4.029-.576.146-.575.564.01,2.628,0,5.256.006,7.884,0,.242.018.519.338.505a5.169,5.169,0,0,0,2.143-.142m19.3,44.8a2.9,2.9,0,0,1-.146-1.637c.043-.676-.214-.836-.856-.832-3.893.027-7.786,0-11.68.018-1.777.006-1.478-.264-1.561,1.516-.037.79.219.98.985.974,4.3-.035,8.606-.014,12.909-.012.036.123.047.3.23.241.06-.018.08-.174.118-.267M15.888,91.88c-.037-.194-.069-.4-.333-.186a4.837,4.837,0,0,0-2.314-.03,3.777,3.777,0,0,0-2.125,5.844,3.989,3.989,0,0,0,3.653,1.724,4.143,4.143,0,0,0,3.247-3.512,3.706,3.706,0,0,0-2.128-3.84m3.517-13.223c0,2.958,0,5.916,0,8.873A1.282,1.282,0,0,0,20.8,88.92q6.15.008,12.3,0a1.457,1.457,0,0,0,1.643-1.674q.007-8.566,0-17.132c0-1.246-.453-1.7-1.679-1.7q-6.018-.008-12.036,0c-1.223,0-1.62.406-1.623,1.632q-.009,4.3,0,8.61m28.69,19.231q7.948,0,15.9,0c1.7,0,1.453.245,1.471-1.5.012-1.123,0-1.124-1.149-1.124H32.433c-1.61,0-1.56,0-1.624,1.636-.033.838.258,1.011,1.039,1.006,5.415-.031,10.831-.017,16.247-.017m.008,5.1h7.733c2.929,0,5.859-.017,8.788.013.644.007.942-.161.843-.833a3.7,3.7,0,0,1,0-.527c0-1.129,0-1.13-1.149-1.13q-15.994,0-31.988,0c-1.719,0-1.429-.239-1.515,1.479-.042.834.247,1.015,1.034,1.011,5.419-.032,10.838-.017,16.258-.017M16.783,74.244c0-4.6-.013-9.2.014-13.8,0-.683-.176-.993-.883-.885a1.628,1.628,0,0,1-.526,0c-.916-.166-1.1.239-1.1,1.108.032,8.9.02,17.808.02,26.713,0,1.549,0,1.5,1.522,1.56.793.03.978-.229.972-.991-.034-4.569-.017-9.138-.017-13.708M6.577,72.978c0-4.185-.01-8.37.011-12.555,0-.612-.113-.934-.816-.869-.546.05-1.255-.233-1.615.023-.479.339-.03,1.065-.033,1.623-.033,7.96-.026,15.92-.019,23.88,0,1.566-.213,1.321,1.415,1.4.883.042,1.08-.307,1.074-1.122-.033-4.126-.015-8.252-.016-12.379m5.14,27.4c-1.45.013-1.264-.142-1.276,1.253-.006.7,0,1.4,0,2.107,0,1.968,0,1.956,1.989,1.867.431-.019.679-.118.627-.594-.047-.431.1-.669.582-.627.566.049.692-.3.671-.776a9.354,9.354,0,0,1,0-1.141c.04-.5-.1-.8-.668-.719-.473.065-.646-.184-.585-.618.092-.655-.24-.825-.815-.757a4.53,4.53,0,0,1-.527,0m-7.625-5.1v.878c0,1.781,0,1.765,1.76,1.743.5-.006.8-.093.722-.669-.049-.383.085-.653.524-.585.832.13.912-.349.854-.987a5.928,5.928,0,0,1,0-.965c.034-.47-.113-.744-.633-.669-.581.084-.807-.165-.74-.738.035-.3-.084-.459-.433-.51C4.3,92.5,4.093,92.668,4.093,94.488Zm6.347,15.35c0,.292-.007.584,0,.875.059,1.973-.426,1.654,1.787,1.7.462.01.737-.1.674-.624-.05-.417.078-.705.565-.626.735.12.916-.242.846-.892a6.9,6.9,0,0,1,0-1.05c.016-.365-.121-.57-.5-.519-.651.089-.813-.24-.757-.813.025-.257.037-.569-.35-.577-.642-.014-1.284-.012-1.925,0-.331.007-.331.27-.332.508,0,.671,0,1.342,0,2.013M4.093,103v1.05c0,1.586,0,1.562,1.564,1.582.639.008,1.034-.108.934-.856-.047-.347.094-.587.484-.535.678.09.779-.281.734-.832-.031-.377-.012-.758-.005-1.137.005-.293-.044-.542-.414-.512-.753.062-.926-.338-.775-.974.07-.3-.006-.317-.3-.318-2.225-.014-2.225-.023-2.225,2.183V103M11.68,72.888c0-2.021,0-2.021-1.87-1.894a.663.663,0,0,1-.088,0c-.373-.025-.525.151-.521.521q.016,1.4,0,2.808c0,.358.131.5.507.543,1.9.208,1.97.156,1.97-1.716Zm35.849,34.021c0-1.285,0-1.285-1.027-1.286-1.609,0-1.609,0-1.61,1.053,0,1.584,0,1.584,1.245,1.584,1.391,0,1.391,0,1.392-1.351M36.054,110.72c-1.356,0-1.356,0-1.357,1.045,0,1.592,0,1.592,1.236,1.592,1.4,0,1.4,0,1.4-1.253,0-1.384,0-1.384-1.28-1.384m6.385-3.848c-.02-1.431.17-1.236-1.07-1.247-1.574-.014-1.574,0-1.574,1.086,0,1.548,0,1.548,1.282,1.548,1.362,0,1.362,0,1.362-1.387m2.453,5.007c0,1.477,0,1.477,1.173,1.478,1.463,0,1.463,0,1.464-1.191,0-1.446,0-1.446-1.131-1.446-1.505,0-1.505,0-1.506,1.159m-2.453.077c-.02-1.414.174-1.246-1.074-1.256-1.57-.012-1.57,0-1.571,1.112,0,1.544,0,1.544,1.29,1.544,1.355,0,1.355,0,1.355-1.4m8.9-6.334c-1.349,0-1.349,0-1.35,1.052,0,1.584,0,1.584,1.245,1.585,1.392,0,1.392,0,1.392-1.262,0-1.375,0-1.375-1.287-1.375m-.017,5.076c-1.511.019-1.321-.165-1.33,1.089-.012,1.57,0,1.57,1.263,1.57,1.371,0,1.371,0,1.372-1.287,0-1.372,0-1.372-1.3-1.372M28.369,96.607c0-1.343,0-1.343-1.094-1.344-1.507,0-1.462,0-1.545,1.83-.049,1.094.685.785,1.223.786,1.589,0,1.4.205,1.416-1.272m-1.315,6.379c1.314,0,1.314,0,1.315-1.12,0-1.356,0-1.364-1.171-1.355-1.573.012-1.448-.211-1.449,1.255,0,1.391-.123,1.2,1.3,1.22m8.962,5.112c1.318,0,1.318,0,1.318-1.262,0-1.214,0-1.214-1.274-1.214-1.363,0-1.363,0-1.363,1.213,0,1.263,0,1.263,1.319,1.263m34.541-6.318c0-1.254,0-1.261-1.1-1.253-1.478.011-1.369-.186-1.367,1.16,0,1.407-.162,1.3,1.142,1.3,1.462,0,1.31.172,1.323-1.2m-1.281-3.892c1.289,0,1.295,0,1.288-1.158-.008-1.408.162-1.3-1.143-1.3-1.331-.005-1.338,0-1.331,1.112.01,1.468-.174,1.337,1.185,1.347m1.281,14.1a1.161,1.161,0,0,0-1.229-1.267,1.433,1.433,0,0,0-1.4,1.17,1.813,1.813,0,0,0,1.3,1.455,1.5,1.5,0,0,0,1.336-1.357m-63.987.055a1.249,1.249,0,0,0-1.281-1.321,1.384,1.384,0,0,0-1.349,1.2,1.8,1.8,0,0,0,1.326,1.423,1.513,1.513,0,0,0,1.3-1.3M53.978,59.554a1.274,1.274,0,0,0-1.348,1.157,1.374,1.374,0,0,0,1.354,1.315,1.342,1.342,0,0,0,1.275-1.279,1.143,1.143,0,0,0-1.281-1.193m-3.822,1.193a1.186,1.186,0,0,0-1.213-1.193,1.265,1.265,0,0,0-1.4,1.2,1.307,1.307,0,0,0,2.614,0M18.176,104.389c-.909,0-1.432.443-1.408,1.184A1.446,1.446,0,0,0,18,106.843a1.36,1.36,0,0,0,1.392-1.284,1.109,1.109,0,0,0-1.213-1.17m3.692-2.595c.011-.926-.3-1.265-1.155-1.27a1.155,1.155,0,0,0-1.305,1.281,1.306,1.306,0,0,0,1.168,1.18,1.126,1.126,0,0,0,1.293-1.19m1.325,5.053a1.337,1.337,0,0,0,1.3-1.277c.026-.746-.465-1.194-1.291-1.18a1.226,1.226,0,0,0-1.334,1.191,1.424,1.424,0,0,0,1.323,1.266M10.359,82.594A1.042,1.042,0,0,0,9.2,83.776a1.138,1.138,0,0,0,1.166,1.284,1.2,1.2,0,0,0,1.3-1.3c.006-.734-.486-1.172-1.31-1.166m48.746-23.04c-.868,0-1.223.357-1.217,1.211a1.129,1.129,0,0,0,1.133,1.259,1.343,1.343,0,0,0,1.337-1.33,1.121,1.121,0,0,0-1.252-1.14m11.458-3.865c.01-.831-.373-1.214-1.218-1.219a1.1,1.1,0,0,0-1.252,1.207,1.3,1.3,0,0,0,1.2,1.251,1.252,1.252,0,0,0,1.272-1.238M10.384,54.47c-.8-.009-1.178.353-1.185,1.125-.007.837.392,1.314,1.113,1.329a1.349,1.349,0,0,0,1.355-1.277c.017-.733-.457-1.168-1.283-1.178m-5.042,0c-.852,0-1.24.375-1.238,1.2a1.252,1.252,0,0,0,1.252,1.258A1.3,1.3,0,0,0,6.575,55.7,1.1,1.1,0,0,0,5.342,54.47m8.969,1.2a1.283,1.283,0,0,0,1.15,1.257,1.331,1.331,0,0,0,1.3-1.334c-.023-.75-.477-1.13-1.336-1.117-.77.012-1.13.4-1.118,1.194m8.96,37.008a1.277,1.277,0,0,0,1.174,1.349,1.192,1.192,0,0,0,1.287-1.312,1.278,1.278,0,0,0-1.188-1.15,1.191,1.191,0,0,0-1.273,1.113m6.274,1.348a1.124,1.124,0,0,0,1.289-1.089A1.275,1.275,0,0,0,29.7,91.56a1.3,1.3,0,0,0-1.331,1.105,1.337,1.337,0,0,0,1.177,1.356" transform="translate(-0.081 -41.555)" fill="#00763a"/>
    <path id="Trazado_232099" data-name="Trazado 232099" d="M259.984,8.965q-.023,1.842-.045,3.685a2.547,2.547,0,0,1-2.723,2.747q-6.848.005-13.7,0a2.6,2.6,0,0,1-2.749-2.732c-.007-1.258-.01-2.517-.014-3.775q.023-1.756.047-3.512l.141-.17,2.311-.027c-.008.643,0,1.287-.03,1.93-.017.4.117.578.545.577q6.5-.014,12.992,0c.436,0,.554-.184.535-.58-.022-.467-.022-.937,0-1.4.017-.366-.1-.516-.489-.535-.632-.031-1.445.295-1.849-.163-.387-.438-.112-1.234-.119-1.872,0-.407-.129-.569-.554-.567q-3.906.02-7.813,0c-.473,0-.579.182-.6.62-.088,2.027-.1,2.027-2.183,2.017-.117,0-.234,0-.351-.007q.015-1.8.029-3.594c.011-1.2.35-1.552,1.557-1.556,3.186-.009,6.372-.017,9.558.008a5.2,5.2,0,0,1,2.059.158,1.3,1.3,0,0,1,.9,1.327c.01.994.03,1.989-.008,2.981-.02.514.092.7.66.7,1.875,0,1.874.03,1.875,1.9,0,.614.008,1.227.012,1.841m-9.633,3.829H255.7c1.6,0,1.554,0,1.608-1.624.026-.766-.243-.9-.943-.9-3.8.033-7.606.016-11.409.016-1.768,0-1.737,0-1.746,1.75,0,.645.237.775.818.768,2.106-.027,4.212-.011,6.319-.011" transform="translate(-198.418 -0.023)" fill="#454545"/>
    <path id="Trazado_232100" data-name="Trazado 232100" d="M166.478,9.116q-.005,1.749-.011,3.5a2.748,2.748,0,0,1-2.859,2.839c-2.391,0-4.782-.006-7.173.007a4.395,4.395,0,0,1-1.373-.2,1.236,1.236,0,0,0-.669-.361c-1.019-1.073-.728-2.413-.752-3.688q-.021-1.089-.039-2.179c.007-1.024.036-2.05.01-3.073-.012-.492.061-.715.65-.717,1.882-.006,1.882-.036,1.882-1.887,0-.527,0-1.054,0-1.581.009-1.363.321-1.669,1.719-1.674q2.064-.008,4.128,0c1.324,0,1.81.464,1.845,1.814.028,1.053,0,2.108,0,3.162a1.582,1.582,0,0,1-1.092.182c-1.479.007-1.513,0-1.469-1.484.021-.712-.087-1.039-.93-1-1.6.076-1.641.019-1.592,1.606.022.723-.224.873-.892.861-1.786-.034-1.764,0-1.768,1.769,0,.555.127.763.722.747,1.521-.041,3.044-.006,4.566-.017.785-.005,1.833.256,2.285-.143.529-.467.114-1.541.173-2.349.635-.008,1.273.017,1.905-.034.559-.045.683.193.678.7-.012,1.067.032,2.135.053,3.2m-6.438,1.229h-2.192c-1.8,0-1.779,0-1.752,1.823.008.54.176.7.705.693,1.753-.027,3.507-.01,5.261-.01,1.935,0,1.921,0,1.793-1.961-.027-.417-.161-.558-.57-.551-1.081.018-2.163.006-3.244.005" transform="translate(-126.591 -0.079)" fill="#454545"/>
    <path id="Trazado_232101" data-name="Trazado 232101" d="M254.9,17.086c.117,0,.234.007.351.007,2.082.01,2.1.01,2.183-2.017.019-.438.126-.623.6-.62q3.906.026,7.813,0c.425,0,.549.16.554.567.007.638-.268,1.434.119,1.872.4.457,1.217.132,1.849.163.388.019.506.17.489.535-.022.467-.023.937,0,1.4.019.4-.1.581-.535.58q-6.5-.016-12.992,0c-.428,0-.561-.175-.545-.577.027-.643.022-1.286.03-1.93l.049-.027Z" transform="translate(-209.98 -11.914)" fill="#ababab"/>
    <path id="Trazado_232102" data-name="Trazado 232102" d="M366.822,9.029a14.371,14.371,0,0,1-2.357-.045c.017-1.052.053-2.1.04-3.155-.006-.454.061-.725.6-.655.572.074.674-.281.664-.762-.019-.965-.014-1.93,0-2.9.012-1.054.347-1.45,1.369-1.486,1.2-.043,2.4-.04,3.6,0a1.417,1.417,0,0,1,1.46,1.579,18.906,18.906,0,0,1-.015,2.367c-.1.912.146,1.375,1.129,1.233l.141.146V8.7l-.134.288a13.036,13.036,0,0,1-2.5-.006c.019-1.106.034-2.213.059-3.319.007-.319-.11-.53-.45-.473-.778.13-.867-.306-.812-.913.029-.318,0-.642.007-.962.015-.431.038-.776-.6-.784-.682-.009-.671.36-.653.829.015.379-.02.76.009,1.137.036.477-.12.73-.633.66-.617-.084-.735.261-.721.783.027.991.02,1.983.026,2.974l-.224.118" transform="translate(-300.371 0.001)" fill="#454545"/>
    <path id="Trazado_232103" data-name="Trazado 232103" d="M175.527,17.786c-.059.808.356,1.881-.173,2.349-.452.4-1.5.138-2.285.143-1.522.01-3.045-.025-4.566.017-.6.016-.723-.192-.722-.747,0-1.774-.017-1.8,1.768-1.769.668.012.914-.137.892-.861-.049-1.587,0-1.53,1.592-1.606.843-.04.951.287.93,1-.044,1.487-.011,1.491,1.469,1.484a1.582,1.582,0,0,0,1.092-.182l0,.174" transform="translate(-138.275 -12.616)" fill="#d3d3d3"/>
    <path id="Trazado_232104" data-name="Trazado 232104" d="M97.479,32.994a14.7,14.7,0,0,1-2.7.008,16.3,16.3,0,0,0,.089-3.142c.009-.5.113-.71.681-.716,1.887-.02,1.883-.046,1.888,1.835,0,.671.027,1.342.041,2.013" transform="translate(-78.112 -24.017)" fill="#454545"/>
    <path id="Trazado_232105" data-name="Trazado 232105" d="M126.824,32.909a5.353,5.353,0,0,1-2.572.1c.02-1.075.055-2.15.053-3.225,0-.39.079-.549.523-.572,2.011-.1,2.011-.121,2.01,1.867,0,.611-.009,1.222-.014,1.833" transform="translate(-102.401 -24.042)" fill="#454545"/>
    <path id="Trazado_232106" data-name="Trazado 232106" d="M.019,422.292c.439.08.285.432.321.7-.334-.128-.374-.391-.321-.7" transform="translate(0 -348.029)" fill="#02763b"/>
    <path id="Trazado_232107" data-name="Trazado 232107" d="M.4,54.317c-.028.275.141.634-.313.726A.9.9,0,0,1,.4,54.317" transform="translate(-0.066 -44.765)" fill="#02763b"/>
    <path id="Trazado_232108" data-name="Trazado 232108" d="M414.788,49.751l.134-.287q.02.159.04.317l-.174-.03" transform="translate(-341.845 -40.765)" fill="#555"/>
    <path id="Trazado_232109" data-name="Trazado 232109" d="M414.893,29.75l-.141-.146c.118-.019.168.026.141.146" transform="translate(-341.815 -24.394)" fill="#555"/>
    <path id="Trazado_232110" data-name="Trazado 232110" d="M241.131,29.47l-.141.17c-.023-.114,0-.188.141-.17" transform="translate(-198.604 -24.285)" fill="#555"/>
    <path id="Trazado_232111" data-name="Trazado 232111" d="M109.876,162.956q0-4.3,0-8.61c0-1.226.4-1.63,1.623-1.632q6.018-.01,12.036,0c1.226,0,1.677.455,1.679,1.7q.009,8.566,0,17.132a1.457,1.457,0,0,1-1.643,1.674q-6.15.009-12.3,0a1.282,1.282,0,0,1-1.393-1.39c-.007-2.958,0-5.916,0-8.873m7.558,3.919c1.9,0,3.808-.02,5.712.012.6.01.82-.159.809-.788q-.052-3.075,0-6.151c.009-.605-.164-.808-.789-.8q-5.624.039-11.248,0c-.6,0-.821.152-.81.784q.053,3.075,0,6.151c-.009.6.163.819.789.806,1.845-.036,3.691-.013,5.536-.013m.109,1.248c-1.871,0-3.742.027-5.611-.015-.672-.015-.87.214-.83.857.049.786.032,1.578,0,2.367-.017.494.17.663.662.661q5.743-.02,11.487,0c.549,0,.714-.2.694-.72-.031-.788-.042-1.58,0-2.367.035-.615-.183-.809-.8-.8-1.87.034-3.741.012-5.612.012m.011-10.2c1.841,0,3.684-.033,5.523.017.717.02.918-.227.875-.9-.05-.786-.028-1.578-.007-2.367.012-.453-.162-.617-.615-.616q-5.787.016-11.574,0c-.5,0-.665.192-.65.674.025.818.036,1.638,0,2.454-.027.575.177.762.752.754,1.9-.029,3.8-.011,5.7-.011" transform="translate(-90.552 -125.854)" fill="#ababab"/>
    <path id="Trazado_232112" data-name="Trazado 232112" d="M192.009,308.03c-5.416,0-10.831-.015-16.247.017-.78,0-1.072-.168-1.039-1.006.064-1.634.014-1.636,1.624-1.636h31.879c1.151,0,1.161,0,1.149,1.124-.018,1.743.232,1.494-1.471,1.5q-7.948.016-15.9,0" transform="translate(-143.995 -251.697)" fill="#454545"/>
    <path id="Trazado_232113" data-name="Trazado 232113" d="M192.021,337.684c-5.419,0-10.839-.015-16.258.017-.787,0-1.076-.177-1.034-1.011.087-1.718-.2-1.478,1.515-1.479q15.994-.011,31.988,0c1.148,0,1.148,0,1.149,1.13a3.7,3.7,0,0,0,0,.527c.1.672-.2.84-.843.833-2.929-.031-5.859-.014-8.788-.014h-7.733" transform="translate(-143.999 -276.253)" fill="#454545"/>
    <path id="Trazado_232114" data-name="Trazado 232114" d="M83.275,116.911c0,4.569-.017,9.139.017,13.708.006.762-.178,1.021-.972.991-1.52-.058-1.522-.011-1.522-1.559,0-8.9.012-17.808-.02-26.713,0-.869.185-1.273,1.1-1.108a1.628,1.628,0,0,0,.526,0c.708-.108.887.2.883.885-.027,4.6-.014,9.2-.014,13.8" transform="translate(-66.573 -84.222)" fill="#454545"/>
    <path id="Trazado_232115" data-name="Trazado 232115" d="M253.534,262.641l-2.278,3.107a1.714,1.714,0,0,1-1.492.739q-8.649-.02-17.3,0a1.622,1.622,0,0,1-1.478-.746c-.724-1.054-1.506-2.069-2.263-3.1a3.824,3.824,0,0,0,1.941-1.46,11.07,11.07,0,0,1,1.576,2.07,1.346,1.346,0,0,0,1.3.63c4.682-.015,9.365-.055,14.047.021,1.316.022,2.307-.192,2.917-1.462a7.565,7.565,0,0,1,.946-1.246,4.214,4.214,0,0,0,2.087,1.448" transform="translate(-188.502 -215.249)" fill="#454545"/>
    <path id="Trazado_232116" data-name="Trazado 232116" d="M24.564,115.374c0,4.126-.018,8.253.015,12.379.007.815-.191,1.164-1.074,1.122-1.628-.078-1.413.167-1.415-1.4-.007-7.96-.014-15.92.019-23.88,0-.557-.447-1.284.033-1.623.361-.255,1.07.028,1.615-.022.7-.065.819.257.816.869-.02,4.185-.011,8.37-.01,12.555" transform="translate(-18.067 -83.951)" fill="#454545"/>
    <path id="Trazado_232117" data-name="Trazado 232117" d="M228.768,135.175a24.4,24.4,0,0,1,2.619-3.594.9.9,0,0,1,.8-.244q8.871,0,17.741-.007a1.359,1.359,0,0,1,1.115.413,22.5,22.5,0,0,1,2.511,3.448,2.959,2.959,0,0,0-2.072,1.435c-.57-.768-1.168-1.518-1.7-2.313a1.134,1.134,0,0,0-1.1-.5c-5.037.012-10.073.019-15.11-.008a1.407,1.407,0,0,0-1.248.624,13.808,13.808,0,0,1-1.6,2.046,4.92,4.92,0,0,0-1.956-1.3" transform="translate(-188.538 -108.235)" fill="#454545"/>
    <path id="Trazado_232118" data-name="Trazado 232118" d="M64.253,284.537a3.706,3.706,0,0,1,2.128,3.84,4.143,4.143,0,0,1-3.247,3.512,3.989,3.989,0,0,1-3.653-1.724,3.777,3.777,0,0,1,2.126-5.844,4.836,4.836,0,0,1,2.314.03c.037.194.173.212.333.186m-1.6,2.151a1.563,1.563,0,0,0-1.38,1.248,1.686,1.686,0,0,0,1.348,1.376,1.405,1.405,0,0,0,1.287-1.4,1.316,1.316,0,0,0-1.255-1.221" transform="translate(-48.446 -234.211)" fill="#ababab"/>
    <path id="Trazado_232119" data-name="Trazado 232119" d="M108.666,395.686c-4.3,0-8.606-.022-12.909.013-.766.006-1.022-.184-.985-.974.083-1.78-.216-1.509,1.561-1.516,3.893-.014,7.786.009,11.679-.017.641,0,.9.156.856.831a2.9,2.9,0,0,0,.147,1.638l-.349.025" transform="translate(-78.103 -324.046)" fill="#454545"/>
    <path id="Trazado_232120" data-name="Trazado 232120" d="M319.686,366.758c.285-.319.187-.709.191-1.076.013-1.178.366-1.553,1.53-1.581.346-.008.693.014,1.04.023h2.623c.2-.009.405-.025.608-.026,1.451,0,1.921.457,1.932,1.891q0,.305.005.61,0,1.313,0,2.625c0,.175,0,.35,0,.525-.007,1.541-.432,1.976-1.939,1.975-.2,0-.407-.011-.611-.017h-2.6c-2.039.1-2.729.163-2.58-2.48-.093-.821.223-1.675-.194-2.471m4.08,3.708c.643,0,1.287-.025,1.928.008.486.025.675-.128.664-.639-.029-1.285-.022-2.572,0-3.857.007-.437-.112-.633-.589-.624q-2.016.036-4.033,0c-.5-.01-.578.225-.573.641.015,1.286.026,2.572,0,3.857-.013.53.216.642.681.621.642-.028,1.286-.007,1.928-.007" transform="translate(-263.467 -300.069)" fill="#ababab"/>
    <path id="Trazado_232121" data-name="Trazado 232121" d="M134.2,102.311c-.18-.285-.467-.169-.71-.175-1.443-.036-1.763-.349-1.785-1.776,0-.173-.019-.346-.029-.518a.342.342,0,0,0,.03-.156q0-1.422,0-2.844c0-.292,0-.585,0-.877.01-1.113.287-1.391,1.385-1.392a1.874,1.874,0,0,0,1.1-.177l2.593-.006c.369.365.828.153,1.242.173.917.044,1.224.342,1.248,1.28.01.4-.115.823.19,1.175a3.915,3.915,0,0,0-.014,2.624c-.323.245-.164.594-.172.894-.029,1.107-.483,1.581-1.579,1.6-.292,0-.584,0-.876,0a7.981,7.981,0,0,0-2.621.176m-1.246-4.02c0,.645.026,1.29-.008,1.933-.027.5.168.662.659.652,1.259-.025,2.52-.031,3.778,0,.553.014.7-.2.69-.719q-.043-1.889,0-3.779c.013-.549-.212-.716-.725-.709-1.259.019-2.52.026-3.779,0-.534-.013-.642.227-.623.689.027.643.007,1.289.007,1.933" transform="translate(-108.517 -77.791)" fill="#ababab"/>
    <path id="Trazado_232122" data-name="Trazado 232122" d="M219.046,191.275c-.188-.147-.167-.358-.167-.561q0-4.809.008-9.618a3.517,3.517,0,0,1,.075-.516,2.6,2.6,0,0,0,2.3.1l.2.046q0,5.188,0,10.376l-.132.157.011.033a4,4,0,0,0-2.3-.015" transform="translate(-180.387 -148.824)" fill="#454545"/>
    <path id="Trazado_232123" data-name="Trazado 232123" d="M367.186,180.6q.029,5.389.058,10.777a3.843,3.843,0,0,0-2.462-.126l-.023-10.689a2.612,2.612,0,0,0,2.427.037" transform="translate(-300.614 -148.806)" fill="#454545"/>
    <path id="Trazado_232124" data-name="Trazado 232124" d="M54.346,110.937a5.163,5.163,0,0,1-2.143.142c-.32.014-.338-.263-.338-.505,0-2.628,0-5.256-.006-7.884,0-.418.176-.535.575-.564,1.906-.14,1.9-.151,1.905,1.774q0,3.417.007,6.833c0,.068,0,.136,0,.2" transform="translate(-42.739 -84.122)" fill="#454545"/>
    <path id="Trazado_232125" data-name="Trazado 232125" d="M360.612,158.109a2.611,2.611,0,0,1-2.427-.037c-1.119-.864-1.752-1.9-1.2-3.362a2.957,2.957,0,0,1,2.072-1.435,2.528,2.528,0,0,1,1.764,4.628c-.117-.011-.163.052-.168.159Z" transform="translate(-294.04 -126.319)" fill="#ababab"/>
    <path id="Trazado_232126" data-name="Trazado 232126" d="M215.382,158.108a2.6,2.6,0,0,1-2.3-.1,2.688,2.688,0,0,1-.778-3.959,2.864,2.864,0,0,1,2.434-.856,4.922,4.922,0,0,1,1.956,1.3,3.076,3.076,0,0,1-1.094,3.477l-.217.138" transform="translate(-174.506 -126.254)" fill="#ababab"/>
    <path id="Trazado_232127" data-name="Trazado 232127" d="M213.259,240.593a4,4,0,0,1,2.3.015,2.892,2.892,0,0,1,1.2,3.463,3.822,3.822,0,0,1-1.941,1.46c-2.056-.1-3.066-1.085-2.958-2.878a2.816,2.816,0,0,1,1.395-2.06" transform="translate(-174.6 -198.141)" fill="#ababab"/>
    <path id="Trazado_232128" data-name="Trazado 232128" d="M358.247,240.674a3.842,3.842,0,0,1,2.461.126c.556.5,1.172.937,1.213,1.8.092,1.941-.791,2.9-2.811,3.026a4.216,4.216,0,0,1-2.087-1.448,2.779,2.779,0,0,1,.029-2.08,5.682,5.682,0,0,1,1.194-1.423" transform="translate(-294.079 -198.233)" fill="#ababab"/>
    <path id="Trazado_232129" data-name="Trazado 232129" d="M369.594,113.087l-5.1.052a.122.122,0,0,0-.042-.117c.018-1.023.059-2.046.046-3.069-.007-.5.162-.667.658-.656,1.258.026,2.518.033,3.776,0,.56-.016.7.2.683.72-.033,1.024-.015,2.049-.018,3.074" transform="translate(-300.358 -90.073)" fill="#ffcc46"/>
    <path id="Trazado_232130" data-name="Trazado 232130" d="M363.746,107.141c0-1.025-.015-2.05.018-3.074.017-.515-.123-.736-.683-.72-1.258.035-2.518.028-3.776,0-.5-.01-.665.161-.658.656.014,1.023-.027,2.046-.045,3.069l-.112.14c-.846.17-1.216-.087-1.121-1.031.093-.924.01-1.865.025-2.8.017-1.008.278-1.288,1.312-1.3,1.808-.021,3.616,0,5.424,0,.026.209.167.217.329.186a1.657,1.657,0,0,1,.555,1.4c.009.789,0,1.579,0,2.369,0,1.228,0,1.228-1.27,1.1" transform="translate(-294.51 -84.127)" fill="#ababab"/>
    <path id="Trazado_232131" data-name="Trazado 232131" d="M379.01,20.761c-.007-.991,0-1.983-.026-2.974-.014-.522.1-.867.721-.783.513.07.669-.183.633-.66-.028-.377.007-.758-.008-1.137-.019-.469-.029-.837.653-.829.64.008.617.353.6.784-.011.32.021.644-.007.962-.055.607.034,1.043.812.913.34-.057.457.153.45.472-.024,1.106-.04,2.213-.059,3.319-1.255-.01-2.512.083-3.766-.052l0-.016" transform="translate(-312.336 -11.85)" fill="#ababab"/>
    <path id="Trazado_232132" data-name="Trazado 232132" d="M60.174,334.434a4.527,4.527,0,0,0,.527,0c.576-.068.907.1.815.757-.061.433.112.682.585.617.572-.078.707.215.668.719a9.317,9.317,0,0,0,0,1.141c.021.481-.1.826-.671.776-.48-.042-.629.2-.582.627.052.476-.2.575-.627.594-1.989.089-1.989.1-1.989-1.867,0-.7-.005-1.405,0-2.107.012-1.395-.174-1.24,1.277-1.253" transform="translate(-48.538 -275.607)"/>
    <path id="Trazado_232133" data-name="Trazado 232133" d="M22.814,293.279v-.79c0-1.82.211-1.985,2.054-1.712.349.052.468.208.433.51-.066.573.16.821.741.738.52-.075.667.2.633.669a5.888,5.888,0,0,0,0,.965c.058.638-.021,1.116-.854.987-.439-.068-.574.2-.524.585.074.576-.226.663-.722.669-1.76.022-1.76.038-1.76-1.743Z" transform="translate(-18.802 -239.556)"/>
    <path id="Trazado_232134" data-name="Trazado 232134" d="M58.878,380.907c0-.671,0-1.342,0-2.014,0-.238,0-.5.332-.508.642-.013,1.284-.015,1.925,0,.387.009.375.32.35.577-.056.573.106.9.757.813.381-.052.519.154.5.519a6.9,6.9,0,0,0,0,1.05c.071.65-.11,1.012-.846.892-.487-.079-.616.209-.565.626.063.527-.211.634-.674.624-2.213-.048-1.728.271-1.787-1.7-.009-.292,0-.584,0-.875" transform="translate(-48.518 -311.835)"/>
    <path id="Trazado_232135" data-name="Trazado 232135" d="M22.814,337.533v-.35c0-2.206,0-2.2,2.225-2.183.29,0,.366.022.3.318-.151.636.022,1.036.775.974.37-.03.419.219.414.512-.007.379-.026.761.005,1.137.045.55-.056.922-.734.832-.39-.052-.531.189-.484.535.1.749-.3.865-.934.856-1.563-.02-1.564,0-1.564-1.582v-1.05" transform="translate(-18.802 -276.086)"/>
    <path id="Trazado_232136" data-name="Trazado 232136" d="M54.348,169.083v.263c0,1.872-.072,1.924-1.97,1.716-.376-.041-.511-.185-.507-.543q.013-1.4,0-2.808c0-.37.148-.546.521-.521a.663.663,0,0,0,.088,0c1.87-.127,1.87-.127,1.87,1.894" transform="translate(-42.748 -137.75)" fill="#454545"/>
    <path id="Trazado_232137" data-name="Trazado 232137" d="M257.455,365.6c0,1.351,0,1.351-1.392,1.351-1.246,0-1.246,0-1.245-1.584,0-1.054,0-1.054,1.61-1.053,1.027,0,1.027,0,1.027,1.286" transform="translate(-210.006 -300.248)" fill="#ababab"/>
    <path id="Trazado_232138" data-name="Trazado 232138" d="M198.2,393.3c1.28,0,1.28,0,1.28,1.384,0,1.253,0,1.253-1.4,1.253-1.238,0-1.238,0-1.236-1.592,0-1.045,0-1.045,1.357-1.045" transform="translate(-162.226 -324.139)" fill="#ababab"/>
    <path id="Trazado_232139" data-name="Trazado 232139" d="M228.474,365.563c0,1.387,0,1.387-1.362,1.387-1.283,0-1.283,0-1.282-1.548,0-1.09,0-1.1,1.574-1.086,1.24.011,1.05-.185,1.07,1.247" transform="translate(-186.116 -300.246)" fill="#ababab"/>
    <path id="Trazado_232140" data-name="Trazado 232140" d="M254.818,394.464c0-1.159,0-1.159,1.506-1.159,1.132,0,1.132,0,1.131,1.446,0,1.192,0,1.192-1.464,1.191-1.174,0-1.174,0-1.173-1.478" transform="translate(-210.006 -324.139)" fill="#ababab"/>
    <path id="Trazado_232141" data-name="Trazado 232141" d="M228.475,394.44c0,1.4,0,1.4-1.355,1.4-1.29,0-1.29,0-1.289-1.544,0-1.116,0-1.124,1.571-1.112,1.248.009,1.054-.159,1.074,1.256" transform="translate(-186.117 -324.038)" fill="#ababab"/>
    <path id="Trazado_232142" data-name="Trazado 232142" d="M285.156,364.316c1.287,0,1.287,0,1.287,1.375,0,1.262,0,1.262-1.392,1.262-1.246,0-1.246,0-1.245-1.585,0-1.052,0-1.052,1.35-1.052" transform="translate(-233.896 -300.248)" fill="#ababab"/>
    <path id="Trazado_232143" data-name="Trazado 232143" d="M285.136,393.178c1.3,0,1.3,0,1.3,1.371,0,1.288,0,1.288-1.371,1.288-1.267,0-1.275,0-1.263-1.57.009-1.254-.18-1.07,1.33-1.089" transform="translate(-233.894 -324.035)" fill="#ababab"/>
    <path id="Trazado_232144" data-name="Trazado 232144" d="M148.48,306.749c-.019,1.477.173,1.276-1.416,1.272-.538,0-1.272.308-1.223-.786.082-1.83.037-1.832,1.545-1.83,1.094,0,1.094,0,1.094,1.344" transform="translate(-120.192 -251.697)" fill="#454545"/>
    <path id="Trazado_232145" data-name="Trazado 232145" d="M147.251,337.7c-1.427-.016-1.306.171-1.3-1.22,0-1.466-.124-1.243,1.449-1.255,1.172-.009,1.172,0,1.171,1.355,0,1.12,0,1.12-1.315,1.12" transform="translate(-120.278 -276.269)" fill="#454545"/>
    <path id="Trazado_232146" data-name="Trazado 232146" d="M198.161,366.793c-1.319,0-1.319,0-1.319-1.263,0-1.213,0-1.213,1.363-1.212,1.274,0,1.274,0,1.274,1.214,0,1.261,0,1.261-1.318,1.261" transform="translate(-162.226 -300.249)" fill="#ababab"/>
    <path id="Trazado_232147" data-name="Trazado 232147" d="M389.178,336.571c-.013,1.375.139,1.2-1.324,1.2-1.3,0-1.14.111-1.142-1.3,0-1.346-.111-1.149,1.367-1.16,1.1-.008,1.1,0,1.1,1.253" transform="translate(-318.702 -276.346)" fill="#454545"/>
    <path id="Trazado_232148" data-name="Trazado 232148" d="M387.9,308.8c-1.359-.011-1.176.12-1.185-1.347-.007-1.114,0-1.118,1.331-1.112,1.3.005,1.135-.106,1.143,1.3.007,1.158,0,1.158-1.288,1.158" transform="translate(-318.708 -252.471)" fill="#454545"/>
    <path id="Trazado_232149" data-name="Trazado 232149" d="M388.42,394.572a1.5,1.5,0,0,1-1.336,1.357,1.813,1.813,0,0,1-1.3-1.455,1.433,1.433,0,0,1,1.4-1.17,1.161,1.161,0,0,1,1.229,1.267" transform="translate(-317.943 -324.139)" fill="#1a79d7"/>
    <path id="Trazado_232150" data-name="Trazado 232150" d="M24.573,394.63a1.513,1.513,0,0,1-1.3,1.3,1.8,1.8,0,0,1-1.326-1.423,1.384,1.384,0,0,1,1.349-1.2,1.249,1.249,0,0,1,1.281,1.321" transform="translate(-18.083 -324.142)" fill="#1a79d7"/>
    <path id="Trazado_232151" data-name="Trazado 232151" d="M300.162,102.352a1.143,1.143,0,0,1,1.281,1.193,1.342,1.342,0,0,1-1.275,1.279,1.374,1.374,0,0,1-1.354-1.315,1.274,1.274,0,0,1,1.348-1.157" transform="translate(-246.265 -84.353)" fill="#454545"/>
    <path id="Trazado_232152" data-name="Trazado 232152" d="M272.5,103.545a1.307,1.307,0,0,1-2.614,0,1.265,1.265,0,0,1,1.4-1.2,1.186,1.186,0,0,1,1.213,1.193" transform="translate(-222.421 -84.352)" fill="#454545"/>
    <path id="Trazado_232153" data-name="Trazado 232153" d="M96.3,357.3a1.109,1.109,0,0,1,1.213,1.17,1.36,1.36,0,0,1-1.392,1.284,1.447,1.447,0,0,1-1.229-1.27c-.024-.74.5-1.18,1.408-1.184" transform="translate(-78.2 -294.469)" fill="#1a79d7"/>
    <path id="Trazado_232154" data-name="Trazado 232154" d="M112.361,336.593a1.126,1.126,0,0,1-1.293,1.19,1.306,1.306,0,0,1-1.168-1.18,1.155,1.155,0,0,1,1.305-1.281c.858.006,1.166.345,1.155,1.27" transform="translate(-90.574 -276.354)" fill="#1a79d7"/>
    <path id="Trazado_232155" data-name="Trazado 232155" d="M125.223,359.767A1.424,1.424,0,0,1,123.9,358.5a1.226,1.226,0,0,1,1.334-1.191c.827-.015,1.317.434,1.291,1.18a1.337,1.337,0,0,1-1.3,1.277" transform="translate(-102.111 -294.475)" fill="#1a79d7"/>
    <path id="Trazado_232156" data-name="Trazado 232156" d="M53.012,233.367c.825-.006,1.317.432,1.31,1.166a1.2,1.2,0,0,1-1.3,1.3,1.138,1.138,0,0,1-1.166-1.284,1.041,1.041,0,0,1,1.16-1.182" transform="translate(-42.733 -192.328)" fill="#1a79d7"/>
    <path id="Trazado_232157" data-name="Trazado 232157" d="M329.932,102.352a1.121,1.121,0,0,1,1.252,1.14,1.343,1.343,0,0,1-1.337,1.33,1.129,1.129,0,0,1-1.133-1.259c-.005-.854.35-1.207,1.217-1.211" transform="translate(-270.908 -84.353)" fill="#454545"/>
    <path id="Trazado_232158" data-name="Trazado 232158" d="M389.214,74.66a1.253,1.253,0,0,1-1.272,1.239,1.3,1.3,0,0,1-1.2-1.251A1.1,1.1,0,0,1,388,73.441c.845,0,1.228.388,1.218,1.219" transform="translate(-318.732 -60.526)" fill="#454545"/>
    <path id="Trazado_232159" data-name="Trazado 232159" d="M53.037,73.442c.826.009,1.3.445,1.283,1.178A1.349,1.349,0,0,1,52.965,75.9c-.72-.015-1.12-.493-1.113-1.329.007-.771.389-1.134,1.185-1.125" transform="translate(-42.734 -60.527)" fill="#d3d3d3"/>
    <path id="Trazado_232160" data-name="Trazado 232160" d="M24.12,73.44a1.1,1.1,0,0,1,1.233,1.226A1.3,1.3,0,0,1,24.134,75.9a1.252,1.252,0,0,1-1.252-1.258c0-.824.385-1.2,1.238-1.2" transform="translate(-18.858 -60.525)" fill="#454545"/>
    <path id="Trazado_232161" data-name="Trazado 232161" d="M80.921,74.639c-.012-.8.348-1.182,1.118-1.194.858-.013,1.313.367,1.336,1.117a1.331,1.331,0,0,1-1.3,1.334,1.283,1.283,0,0,1-1.15-1.257" transform="translate(-66.69 -60.528)" fill="#d3d3d3"/>
    <path id="Trazado_232162" data-name="Trazado 232162" d="M131.872,285.463a1.192,1.192,0,0,1,1.273-1.113,1.278,1.278,0,0,1,1.188,1.15,1.192,1.192,0,0,1-1.287,1.312,1.277,1.277,0,0,1-1.174-1.349" transform="translate(-108.681 -234.345)" fill="#1a79d7"/>
    <path id="Trazado_232163" data-name="Trazado 232163" d="M162.029,286.808a1.337,1.337,0,0,1-1.177-1.356,1.3,1.3,0,0,1,1.331-1.105,1.275,1.275,0,0,1,1.135,1.373,1.124,1.124,0,0,1-1.289,1.089" transform="translate(-132.564 -234.342)" fill="#1a79d7"/>
    <path id="Trazado_232164" data-name="Trazado 232164" d="M104.663,284.373c.447.472.748.969.342,1.627a1.147,1.147,0,0,1-1.4.63,1.229,1.229,0,0,1-.916-1.305c.023-.73.505-.913,1.019-1.105a2.11,2.11,0,0,1,.609-.04c.05.177.19.195.341.195" transform="translate(-84.634 -234.202)" fill="#1a79d7"/>
    <path id="Trazado_232165" data-name="Trazado 232165" d="M124.89,108.332q0,1.422,0,2.844a.255.255,0,0,0-.168.015c-1.233-.071-1.068-.1-1.278-1.323-.233-1.362.647-1.331,1.446-1.536" transform="translate(-101.704 -89.281)" fill="#d3d3d3"/>
    <path id="Trazado_232166" data-name="Trazado 232166" d="M335.457,407.37h2.6a5.8,5.8,0,0,0-.039.7c.033.544-.24.728-.743.7a5.316,5.316,0,0,0-.961,0c-.625.08-.944-.1-.828-.792a2.776,2.776,0,0,0-.031-.609" transform="translate(-276.465 -335.731)" fill="#d3d3d3"/>
    <path id="Trazado_232167" data-name="Trazado 232167" d="M148.281,88.517l-2.593.006c.177-.417-.5-1.178.509-1.259l2.09.038q0,.608-.006,1.216" transform="translate(-120.018 -71.918)" fill="#d3d3d3"/>
    <path id="Trazado_232168" data-name="Trazado 232168" d="M364.772,380.948q0-1.313,0-2.625l1.052.033.165.139c.009.376.026.752.027,1.127,0,1.29,0,1.29-1.245,1.326" transform="translate(-300.624 -311.792)" fill="#d3d3d3"/>
    <path id="Trazado_232169" data-name="Trazado 232169" d="M174.844,111.788a3.916,3.916,0,0,1,.014-2.624c.89-.162,1.189.235,1.042,1.082a1.764,1.764,0,0,0,0,.606c.165.906-.277,1.106-1.056.936" transform="translate(-143.915 -89.937)" fill="#d3d3d3"/>
    <path id="Trazado_232170" data-name="Trazado 232170" d="M145.752,138.5a7.99,7.99,0,0,1,2.622-.176,5.771,5.771,0,0,0-.008.7c.043.415-.11.585-.536.549a4.389,4.389,0,0,0-1.048,0c-.89.142-1.237-.19-1.029-1.076" transform="translate(-120.073 -113.98)" fill="#d3d3d3"/>
    <path id="Trazado_232171" data-name="Trazado 232171" d="M338.011,358.538h-2.623c.113-1.217.113-1.217,1.309-1.217s1.2,0,1.314,1.218" transform="translate(-276.408 -294.483)" fill="#d3d3d3"/>
    <path id="Trazado_232172" data-name="Trazado 232172" d="M314.624,379.163c.417.8.1,1.65.194,2.471-.393-.132-1.046.249-1.168-.238a4.84,4.84,0,0,1,.016-2.081c.064-.313.631-.065.958-.152" transform="translate(-258.405 -312.475)" fill="#d3d3d3"/>
    <path id="Trazado_232173" data-name="Trazado 232173" d="M150.953,84.838l-2.09-.038c.064-.375.359-.323.614-.319a1.7,1.7,0,0,0,1.01-.207,1.234,1.234,0,0,1,.669.361l-.2.2" transform="translate(-122.684 -69.455)" fill="#02763b"/>
    <path id="Trazado_232174" data-name="Trazado 232174" d="M88.326,284.878c-.16.026-.3.008-.333-.186.264-.211.3-.008.333.186" transform="translate(-72.519 -234.553)" fill="#02763b"/>
    <path id="Trazado_232175" data-name="Trazado 232175" d="M112.3,283.93c-.151,0-.291-.018-.341-.195.282-.229.3,0,.341.195" transform="translate(-92.267 -233.759)" fill="#02763b"/>
    <path id="Trazado_232176" data-name="Trazado 232176" d="M396.215,101.938c-.163.031-.3.023-.329-.186.261-.2.289,0,.329.186" transform="translate(-326.267 -83.788)" fill="#02763b"/>
    <path id="Trazado_232177" data-name="Trazado 232177" d="M173.794,407.257l.349-.025c-.038.093-.058.249-.118.267-.183.054-.194-.119-.23-.242" transform="translate(-143.231 -335.617)" fill="#225d3f"/>
    <path id="Trazado_232178" data-name="Trazado 232178" d="M66,151.53c0-.068,0-.136,0-.2l.213.1-.213.1" transform="translate(-54.394 -124.715)" fill="#225d3f"/>
    <path id="Trazado_232179" data-name="Trazado 232179" d="M370.928,378.614l-.165-.139c.116-.026.174.017.165.139" transform="translate(-305.562 -311.911)" fill="#ababab"/>
    <path id="Trazado_232180" data-name="Trazado 232180" d="M363.812,130.634l.112-.14a.123.123,0,0,1,.042.117l-.074.031-.08-.008" transform="translate(-299.833 -107.546)" fill="#6f6f6f"/>
    <path id="Trazado_232181" data-name="Trazado 232181" d="M130.888,124.484a.254.254,0,0,1,.168-.015.342.342,0,0,1-.03.156l-.138-.14" transform="translate(-107.87 -102.574)" fill="#02763b"/>
    <path id="Trazado_232182" data-name="Trazado 232182" d="M378.09,50.676l0,.016-.227.1.224-.118" transform="translate(-311.416 -41.764)" fill="#488d6a"/>
    <path id="Trazado_232183" data-name="Trazado 232183" d="M378.8,179.75c0-.107.051-.17.168-.159l-.168.159" transform="translate(-312.181 -148.007)" fill="#225d3f"/>
    <path id="Trazado_232184" data-name="Trazado 232184" d="M261.864,60.8c-2.106,0-4.213-.017-6.319.011-.581.008-.821-.123-.818-.768.009-1.75-.022-1.75,1.746-1.75,3.8,0,7.606.017,11.409-.016.7-.006.969.133.943.9-.054,1.622-.01,1.623-1.608,1.623h-5.354" transform="translate(-209.931 -48.033)" fill="#ababab"/>
    <path id="Trazado_232185" data-name="Trazado 232185" d="M171.693,58.347c1.081,0,2.163.012,3.244-.006.409-.007.543.133.57.551.129,1.962.142,1.961-1.793,1.961-1.753,0-3.507-.017-5.261.01-.529.008-.7-.153-.705-.693-.027-1.824-.049-1.823,1.752-1.823h2.192" transform="translate(-138.244 -48.081)" fill="#ababab"/>
    <path id="Trazado_232186" data-name="Trazado 232186" d="M123.208,197.034c-1.845,0-3.691-.023-5.536.013-.627.012-.8-.2-.789-.806q.047-3.075,0-6.151c-.011-.632.214-.788.81-.784q5.624.033,11.248,0c.624,0,.8.2.789.8q-.048,3.075,0,6.151c.011.629-.208.8-.809.788-1.9-.032-3.808-.012-5.712-.012" transform="translate(-96.327 -156.013)" fill="#6f6f6f"/>
    <path id="Trazado_232187" data-name="Trazado 232187" d="M123.268,240.286c1.871,0,3.742.021,5.612-.012.613-.011.831.182.8.8-.044.787-.033,1.579,0,2.367.02.52-.145.723-.694.72q-5.743-.027-11.487,0c-.492,0-.679-.167-.662-.661.027-.788.044-1.58,0-2.367-.04-.643.158-.872.83-.857,1.87.042,3.741.015,5.611.015" transform="translate(-96.278 -198.018)" fill="#d3d3d3"/>
    <path id="Trazado_232188" data-name="Trazado 232188" d="M123.3,164.2c-1.9,0-3.8-.018-5.7.011-.575.009-.779-.179-.752-.754.039-.816.028-1.637,0-2.454-.015-.481.147-.675.65-.674q5.787.021,11.574,0c.453,0,.628.163.615.616-.022.789-.044,1.58.007,2.367.043.676-.157.922-.875.9-1.84-.05-3.682-.017-5.523-.017" transform="translate(-96.298 -132.138)" fill="#d3d3d3"/>
    <path id="Trazado_232189" data-name="Trazado 232189" d="M256.067,162.27a5.681,5.681,0,0,0-1.194,1.423,2.779,2.779,0,0,0-.029,2.08,7.564,7.564,0,0,0-.946,1.246c-.61,1.27-1.6,1.483-2.917,1.462-4.681-.077-9.364-.036-14.046-.021a1.346,1.346,0,0,1-1.3-.63,11.071,11.071,0,0,0-1.576-2.07,2.892,2.892,0,0,0-1.2-3.464l-.011-.033c.1,0,.157-.046.132-.157q0-5.188,0-10.376l.016-.184a3.076,3.076,0,0,0,1.094-3.477,13.823,13.823,0,0,0,1.6-2.046,1.407,1.407,0,0,1,1.248-.624c5.036.028,10.073.021,15.11.008a1.134,1.134,0,0,1,1.1.5c.53.795,1.128,1.544,1.7,2.313-.553,1.46.081,2.5,1.2,3.362l.023,10.689M244.44,164.6c2.049,0,4.1,0,6.147,0,1.117,0,1.589-.477,1.59-1.6q.006-5.928,0-11.856c0-1.455-.418-1.87-1.877-1.871q-5.928-.006-11.856,0c-1.191,0-1.579.377-1.581,1.565q-.009,6.148,0,12.295c0,1.234.243,1.461,1.515,1.465,2.02.007,4.04,0,6.06,0" transform="translate(-191.898 -119.829)" fill="#feb314"/>
    <path id="Trazado_232190" data-name="Trazado 232190" d="M74.294,298.4a1.316,1.316,0,0,1,1.255,1.221,1.405,1.405,0,0,1-1.287,1.4,1.686,1.686,0,0,1-1.348-1.376,1.563,1.563,0,0,1,1.38-1.248" transform="translate(-60.09 -245.924)" fill="#ffcc46"/>
    <path id="Trazado_232191" data-name="Trazado 232191" d="M330.656,376.346c-.643,0-1.287-.021-1.928.007-.465.021-.694-.091-.681-.622.031-1.285.02-2.572,0-3.857,0-.416.075-.651.573-.641q2.016.039,4.033,0c.477-.009.6.187.589.624-.02,1.286-.027,2.572,0,3.857.012.51-.178.663-.664.639-.641-.033-1.285-.008-1.928-.008" transform="translate(-270.357 -305.949)" fill="#b3221d"/>
    <path id="Trazado_232192" data-name="Trazado 232192" d="M138.891,104.28c0-.645.02-1.29-.007-1.933-.019-.463.088-.7.623-.689,1.259.03,2.519.022,3.779,0,.513-.008.738.16.725.709q-.045,1.888,0,3.779c.012.52-.137.733-.69.719-1.259-.033-2.519-.027-3.778,0-.491.01-.686-.148-.659-.652.034-.643.008-1.289.008-1.933" transform="translate(-114.457 -83.78)" fill="#454545"/>
    <path id="Trazado_232193" data-name="Trazado 232193" d="M232.977,240.406c.025.11-.028.155-.132.157l.132-.157" transform="translate(-191.898 -198.129)" fill="#555"/>
    <path id="Trazado_232194" data-name="Trazado 232194" d="M232.657,180.353c-.005.061-.011.123-.016.184l-.2-.046.217-.138" transform="translate(-191.564 -148.637)" fill="#555"/>
    <path id="Trazado_232195" data-name="Trazado 232195" d="M263.25,182.722c-2.02,0-4.04.005-6.06,0-1.272,0-1.513-.231-1.515-1.465q-.011-6.148,0-12.3c0-1.188.39-1.564,1.581-1.565q5.928,0,11.856,0c1.459,0,1.875.416,1.877,1.871q.006,5.928,0,11.856c0,1.121-.473,1.594-1.59,1.6-2.049.006-4.1,0-6.147,0m.1-1.259c1.873,0,3.748-.023,5.62.013.613.012.795-.171.79-.788q-.04-5.62,0-11.241c0-.588-.13-.816-.771-.811q-5.664.042-11.329,0c-.578,0-.743.174-.739.749q.036,5.664,0,11.329c-.005.65.233.768.813.759,1.873-.031,3.747-.012,5.62-.012" transform="translate(-210.709 -137.955)" fill="#ababab"/>
    <path id="Trazado_232196" data-name="Trazado 232196" d="M269.166,187.29c-1.874,0-3.748-.02-5.62.012-.58.01-.818-.109-.813-.759q.045-5.664,0-11.329c0-.575.161-.752.74-.749q5.664.033,11.329,0c.641,0,.775.223.771.811q-.034,5.62,0,11.241c0,.617-.177.8-.79.788-1.873-.036-3.747-.013-5.62-.013" transform="translate(-216.529 -143.782)" fill="#454545"/>
  </g>
</svg>
