<svg xmlns="http://www.w3.org/2000/svg" width="26.085" height="48.931" viewBox="0 0 26.085 48.931">
  <g id="Grupo_55029" data-name="Grupo 55029" transform="translate(-2927.759 324.012)">
    <path id="Trazado_104732" data-name="Trazado 104732" d="M2928.84-303.95a2.38,2.38,0,0,1-.142-.877c.008-1.7.006-3.391,0-5.086a2.752,2.752,0,0,1,1.49-2.6.585.585,0,0,0,.349-.614c-.017-.5-.014-1,0-1.5a1.833,1.833,0,0,1,1.446-1.88c.327-.086.488-.2.436-.552a1.885,1.885,0,0,1,0-.478c.06-.539-.023-.883-.679-1.054a1.7,1.7,0,0,1-1.2-1.749c-.026-.6-.025-1.2,0-1.795a1.861,1.861,0,0,1,1.927-1.872q8.315-.012,16.63,0a1.861,1.861,0,0,1,1.926,1.873c.025.577.019,1.157,0,1.735a1.847,1.847,0,0,1-1.485,1.913c-.316.088-.429.226-.394.533a2.1,2.1,0,0,1,0,.418c-.048.561-.029.968.717,1.141a1.654,1.654,0,0,1,1.16,1.651,4.526,4.526,0,0,1,0,.6c-.043.819-.064,1.536.875,2.029a2.191,2.191,0,0,1,.955,2.027q.012,6.522,0,13.043a2.765,2.765,0,0,1-2.772,2.789c-.777.023-1.555,0-2.333.009-.171,0-.349-.031-.427.215a1.793,1.793,0,0,0,1.07,2.346c.626.259,1.254.512,1.873.786a2.673,2.673,0,0,1,1.656,2.489,1.825,1.825,0,0,1,0,.3c-.093.844-.031,1.578.9,2.006a1.673,1.673,0,0,1,.816,1.211,7.962,7.962,0,0,1-.019,3.611,2.309,2.309,0,0,1-1.218,1.488.842.842,0,0,0-.485.9c.013,3.071.007-.7.007,2.376,0,.2.008.4-.011.6a.869.869,0,0,1-.808.826.876.876,0,0,1-.98-.616,2.129,2.129,0,0,1-.086-.828c0-3.071-.006.7.008-2.376a.854.854,0,0,0-.483-.9,2.6,2.6,0,0,1-1.345-2.262,17.2,17.2,0,0,1,0-2.093,2.673,2.673,0,0,1,1.421-2.283.7.7,0,0,0,.405-.708c-.021-2,.176-1.77-1.665-2.494-.408-.161-.815-.323-1.216-.5a2.721,2.721,0,0,1-1.735-2.624c-.026-1.468-.022-1.468-1.517-1.468-.558,0-1.117.018-1.675-.006-.372-.016-.534.081-.531.493.017,2.234.012,4.467,0,6.7a.55.55,0,0,0,.342.555,2.828,2.828,0,0,1,1.538,2.647,12.912,12.912,0,0,1-.049,2.031,2.638,2.638,0,0,1-1.392,2.045.755.755,0,0,0-.441.8c.012,3.111.007-.616.006,2.5,0,.955-.289,1.394-.92,1.407-.649.013-.955-.442-.955-1.428,0-3.091,0,.656.006-2.435a.79.79,0,0,0-.458-.851,2.559,2.559,0,0,1-1.366-1.994,10.863,10.863,0,0,1-.03-2.447,2.7,2.7,0,0,1,1.479-2.248.637.637,0,0,0,.375-.657q-.016-3.291,0-6.581c0-.365-.071-.546-.49-.534-.917.026-1.834.021-2.751,0-.36-.008-.526.109-.477.477.3,2.272-.828,3.532-2.914,4.111a.571.571,0,0,0-.056.022c-1.875.731-1.622.481-1.645,2.622a.52.52,0,0,0,.317.513,2.865,2.865,0,0,1,1.52,2.777c-.01.439,0,.877,0,1.316a2.791,2.791,0,0,1-1.53,2.7c-.331.172-.3.424-.3.7,0,3.091,0-.656,0,2.435a3.5,3.5,0,0,1-.048.713.871.871,0,0,1-.981.768.854.854,0,0,1-.846-.909c-.011-1.137-.006-2.273-.006-3.41,0-2.134-.009,2.57.008.437a.775.775,0,0,0-.457-.794,2.72,2.72,0,0,1-1.419-2.41c-.019-.578-.008-1.157,0-1.735a2.758,2.758,0,0,1,1.474-2.558.66.66,0,0,0,.4-.7c-.16-2.962.717-3.418,2.887-4.242q.14-.053.278-.109c1.535-.627,1.533-.64,1.449-2.286-.018-.345-.143-.444-.467-.438-.757.014-1.516.017-2.273,0a2.8,2.8,0,0,1-2.75-2.224,1.455,1.455,0,0,1,.231-1.3c.9-.412,1.4-.167,1.58.8a.935.935,0,0,0,.987.844c.357.011.716-.009,1.074-.015q7.418.009,14.836.018c.518,0,1.036-.018,1.553-.028.139.01.277.026.415.028,1.309.017,1.525-.2,1.525-1.5,0-3.837-.034-7.674.014-11.51.024-1.889-.341-1.917-1.951-1.81-2.233-.011-4.466-.03-6.7-.03-3.23,0-6.46.013-9.69.021-.258-.01-.517-.03-.775-.03-1.056,0-1.292.238-1.293,1.307q0,2.452,0,4.9a1.079,1.079,0,0,1-.547,1.108A.993.993,0,0,1,2928.84-303.95Zm5.485-18.155c-.2-.01-.4-.028-.594-.029-1.347-.007-1.337-.006-1.319,1.377,0,.3.071.437.393.522a1.8,1.8,0,0,1,1.476,1.847c.027.576.023,1.154,0,1.731a1.81,1.81,0,0,1-1.494,1.888c-.2.058-.4.094-.368.367.056.5-.14,1.025.124,1.5.028.05.187.037.285.036.5-.006.993-.018,1.49-.027l12.923.008c.2.005.4.015.6.016,1.352,0,1.343,0,1.316-1.37-.006-.328-.079-.486-.442-.558a1.652,1.652,0,0,1-1.378-1.7c-.011-.518,0-1.037,0-1.555,0-1.392.22-1.731,1.528-2.2a.376.376,0,0,0,.285-.49c-.085-.467.225-.988-.187-1.408a.17.17,0,0,0-.114-.024,6.855,6.855,0,0,0-1.6.06c-1.2,0-2.393-.014-3.589-.012Q2938.99-322.12,2934.325-322.1Zm7.37,38.958h.015a7.5,7.5,0,0,0-.008-.955.886.886,0,0,0-.913-.855.858.858,0,0,0-.919.841,12.891,12.891,0,0,0,.012,2.027.831.831,0,0,0,.924.818.84.84,0,0,0,.879-.8A7.655,7.655,0,0,0,2941.7-283.147Zm-10.227.025h0c0-.318.015-.638,0-.955a.9.9,0,0,0-.871-.885.893.893,0,0,0-.943.876c-.027.655-.027,1.314,0,1.969a.867.867,0,0,0,.9.845.872.872,0,0,0,.908-.836C2931.49-282.444,2931.469-282.784,2931.469-283.122Zm20.449.018h0a9.237,9.237,0,0,0-.008-1.072.839.839,0,0,0-.91-.772.807.807,0,0,0-.885.788,19.128,19.128,0,0,0,0,2.087.817.817,0,0,0,.873.8.867.867,0,0,0,.925-.816C2951.941-282.426,2951.918-282.766,2951.918-283.1Z" transform="translate(0 0)" fill="#b3009d"/>
    <path id="Trazado_104733" data-name="Trazado 104733" d="M2935.891-137.287a.981.981,0,0,1,1.177-.283.91.91,0,0,1,.453,1.2.91.91,0,0,1-1.182.491c-.146-.054-.288-.119-.432-.179A1.45,1.45,0,0,1,2935.891-137.287Z" transform="translate(-7.041 -164.037)" fill="#b3009d"/>
    <path id="Trazado_104741" data-name="Trazado 104741" d="M2995.827-182.326c-1.455,0-2.909,0-4.363,0-.772,0-1.112-.3-1.1-.935.011-.612.339-.891,1.084-.892q4.453-.005,8.906,0c.735,0,1.065.29,1.071.9s-.329.918-1.055.921C2998.855-182.321,2997.341-182.326,2995.827-182.326Z" transform="translate(-55.109 -123.112)" fill="#b3009d"/>
    <path id="Trazado_104742" data-name="Trazado 104742" d="M3016.179-151.338c-.576,0-1.152.01-1.727,0-.667-.014-1-.331-.99-.922a.886.886,0,0,1,.966-.9c1.211-.011,2.422-.013,3.634,0a.875.875,0,0,1,.93.935.829.829,0,0,1-.906.883C3017.45-151.324,3016.815-151.338,3016.179-151.338Z" transform="translate(-75.442 -150.388)" fill="#b3009d"/>
    <path id="Trazado_104743" data-name="Trazado 104743" d="M3018.946-290.093a2.771,2.771,0,0,1-2.793,2.745,2.772,2.772,0,0,1-2.752-2.846,2.762,2.762,0,0,1,2.792-2.741A2.766,2.766,0,0,1,3018.946-290.093Zm-1.846-.073a.971.971,0,0,0-.929-.918.97.97,0,0,0-.924.922.926.926,0,0,0,.959.933A.926.926,0,0,0,3017.1-290.167Z" transform="translate(-75.389 -27.356)" fill="#b3009d"/>
    <path id="Trazado_104744" data-name="Trazado 104744" d="M3030.67-276.557a.926.926,0,0,1-.895.938.926.926,0,0,1-.958-.933.97.97,0,0,1,.924-.922A.971.971,0,0,1,3030.67-276.557Z" transform="translate(-88.96 -40.965)" fill="#b3009d"/>
  </g>
</svg>
