<svg xmlns="http://www.w3.org/2000/svg" width="48.923" height="48.931" viewBox="0 0 48.923 48.931">
  <g id="Grupo_55030" data-name="Grupo 55030" transform="translate(-3175.105 315.378)">
    <path id="Trazado_104746" data-name="Trazado 104746" d="M3432.543-100.646a3.593,3.593,0,0,1-.143.394.733.733,0,0,1-.721.435.755.755,0,0,1-.718-.522,2.016,2.016,0,0,1-.088-.725c0-5.74-.017-11.479.008-17.219a10.485,10.485,0,0,1,5.319-9.456,10.8,10.8,0,0,1,5.884-1.439,10.681,10.681,0,0,1,6.562,2.144,10.129,10.129,0,0,1,4.219,7.979c.115,3.5.036,7,.04,10.5,0,2.555,0,5.11,0,7.664a.961.961,0,0,1-.458.983c-.513.269-.94.009-1.221-.74q0-9.371-.009-18.742a4.915,4.915,0,0,0-.17-1.135,8.9,8.9,0,0,0-3.219-5.079,6.886,6.886,0,0,0-2.915-1.48,10.04,10.04,0,0,0-5.833-.081,8.858,8.858,0,0,0-6.53,8.093c-.06,5.617-.025,11.234-.029,16.851C3432.522-101.7,3432.536-101.171,3432.543-100.646Z" transform="translate(-228.9 -166.642)" fill="#b3009d"/>
    <path id="Trazado_104747" data-name="Trazado 104747" d="M3252.445-145.8c0-1.89-.076-3.783.016-5.668a8.918,8.918,0,0,1,5.91-8.3,8.731,8.731,0,0,1,9.758,1.681,10.948,10.948,0,0,1,2.958,4.521.807.807,0,0,1-.43,1.095.777.777,0,0,1-1.069-.473,12.728,12.728,0,0,0-1.376-2.585,7.646,7.646,0,0,0-11.654-1.223,7.64,7.64,0,0,0-2.509,5.9c-.007,3.394-.013,6.789,0,10.183a8,8,0,0,0,3.375,6.715q2.843,2.113,5.685,4.226a3.223,3.223,0,0,1,.483.4.734.734,0,0,1,.057,1.006.72.72,0,0,1-.976.243,7.449,7.449,0,0,1-.911-.614c-2.025-1.526-4.151-2.922-6.071-4.582a8.987,8.987,0,0,1-3.231-6.7c-.068-1.94-.013-3.884-.013-5.825Z" transform="translate(-69.19 -138.56)" fill="#b3009d"/>
    <path id="Trazado_104748" data-name="Trazado 104748" d="M3285-118.5c.052,1.713-.021,3.374.059,5.035a7.94,7.94,0,0,0,3.1,6,66.34,66.34,0,0,0,5.833,4.281c.351.228.373.4.149.733-.619.931-.607.946-1.559.3a55.113,55.113,0,0,1-6.1-4.623,8.853,8.853,0,0,1-3.048-6.463c-.1-3.268-.076-6.542-.033-9.812a6.091,6.091,0,0,1,5.952-6.055,6.144,6.144,0,0,1,6.23,5.66c.058,1.327.02,2.658.029,3.987a9.124,9.124,0,0,0,.677,3.737.84.84,0,0,1-.389,1.232c-.46.18-.848-.028-1.1-.6a9.629,9.629,0,0,1-.81-3.973,41.81,41.81,0,0,0-.071-4.507,4.5,4.5,0,0,0-4.439-3.9,4.486,4.486,0,0,0-4.4,3.934C3284.918-121.835,3285.063-120.138,3285-118.5Z" transform="translate(-96.894 -166.706)" fill="#b3009d"/>
    <path id="Trazado_104749" data-name="Trazado 104749" d="M3316.182-90.883a43.033,43.033,0,0,0,.113,4.559,7.656,7.656,0,0,0,2.786,4.846c1.5,1.254,3.035,2.478,4.559,3.709.68.549.828.99.457,1.439-.355.43-.795.393-1.453-.145-1.694-1.382-3.435-2.712-5.061-4.169a8.973,8.973,0,0,1-3.032-6.742c-.051-2.589-.034-5.179-.017-7.769a2.852,2.852,0,0,1,2.742-2.885,2.914,2.914,0,0,1,2.936,2.828q.063,2.518.009,5.039a8.32,8.32,0,0,0,3.472,7.26,2.046,2.046,0,0,1,.385.352.749.749,0,0,1-.032,1.086.724.724,0,0,1-1.04.092,12.2,12.2,0,0,1-2.426-2.307,10.138,10.138,0,0,1-2.011-6.223c-.02-1.749.117-3.5,0-5.246a1.189,1.189,0,0,0-1.645-1.132,1.121,1.121,0,0,0-.729,1c-.124,1.311.012,2.622-.008,3.933C3316.18-91.2,3316.182-91.041,3316.182-90.883Z" transform="translate(-124.768 -194.51)" fill="#b3009d"/>
    <path id="Trazado_104750" data-name="Trazado 104750" d="M3190.087-205.473a15.608,15.608,0,0,1,3.1-10.1,15.963,15.963,0,0,1,10.765-6.467,15.563,15.563,0,0,1,2.664-.181c.636.012,1.036.322,1.051.8s-.409.854-1.061.84a14.035,14.035,0,0,0-7.573,1.942,14.123,14.123,0,0,0-7.212,11.016c-.153,1.309-.049,2.621-.077,3.931-.015.667-.271,1-.8,1.012s-.82-.318-.853-.973c-.014-.279,0-.56-.005-.84S3190.087-205.055,3190.087-205.473Z" transform="translate(-13.398 -83.37)" fill="#b3009d"/>
    <path id="Trazado_104751" data-name="Trazado 104751" d="M3213.126-282.84a.808.808,0,0,1-1.042.873,30.086,30.086,0,0,0-3.4-.589,21.028,21.028,0,0,0-10.25,1.6,20.877,20.877,0,0,0-6.5,4.342,2.119,2.119,0,0,1-.451.355.738.738,0,0,1-1.024-.218.767.767,0,0,1,.113-1.087,20.974,20.974,0,0,1,2.276-2.015,22.643,22.643,0,0,1,9.214-4.229,22.841,22.841,0,0,1,10.239.207C3212.759-283.483,3213.108-283.28,3213.126-282.84Z" transform="translate(-13.577 -27.825)" fill="#b3009d"/>
    <path id="Trazado_104753" data-name="Trazado 104753" d="M3339.422-253.239c7.214.442,12.689,3.7,16.258,10.041.31.551.208,1.027-.24,1.269s-.9.068-1.205-.495a17.066,17.066,0,0,0-3.418-4.484,17.2,17.2,0,0,0-9.913-4.584c-.61-.072-1.219-.089-1.831-.1-.738-.016-1.128-.3-1.134-.819-.006-.539.41-.833,1.168-.825C3339.212-253.238,3339.317-253.239,3339.422-253.239Z" transform="translate(-145.73 -55.612)" fill="#b3009d"/>
    <path id="Trazado_104754" data-name="Trazado 104754" d="M3221.094-154.34a35.691,35.691,0,0,1,.177-5.132,12.98,12.98,0,0,1,4.109-7.776.82.82,0,0,1,1.177-.019.8.8,0,0,1-.082,1.213,12.1,12.1,0,0,0-2.563,3.488,12.2,12.2,0,0,0-1.162,5.283c-.013,2.117,0,4.235,0,6.352,0,.157,0,.316-.009.472a.776.776,0,0,1-.779.772.726.726,0,0,1-.806-.666,5.84,5.84,0,0,1-.056-.887C3221.09-152.2,3221.094-153.165,3221.094-154.34Z" transform="translate(-41.152 -132.339)" fill="#b3009d"/>
    <path id="Trazado_104755" data-name="Trazado 104755" d="M3364.518-183.607a.772.772,0,0,1-.554.75.8.8,0,0,1-.99-.387,17.089,17.089,0,0,0-1.3-2.029,11.079,11.079,0,0,0-6.373-3.964c-.238-.054-.481-.094-.713-.17a.8.8,0,0,1-.6-.92.838.838,0,0,1,.995-.635,12.728,12.728,0,0,1,6.172,2.818,13.194,13.194,0,0,1,3.184,3.991A1.236,1.236,0,0,1,3364.518-183.607Z" transform="translate(-160.083 -111.336)" fill="#b3009d"/>
    <path id="Trazado_104756" data-name="Trazado 104756" d="M3416.488-268.532a2.234,2.234,0,0,1,.363.1,24.392,24.392,0,0,1,9,6.549.871.871,0,0,1,.185,1.057.772.772,0,0,1-.846.391,1.023,1.023,0,0,1-.629-.44,22.329,22.329,0,0,0-4.64-4.07,21.233,21.233,0,0,0-3.556-1.9,1.409,1.409,0,0,1-.645-.432.751.751,0,0,1-.054-.84A.786.786,0,0,1,3416.488-268.532Z" transform="translate(-215.199 -41.924)" fill="#b3009d"/>
    <path id="Trazado_104757" data-name="Trazado 104757" d="M3304.115-315.043a23.738,23.738,0,0,1,9.046.223.829.829,0,0,1,.752,1,.85.85,0,0,1-1.105.6,23.8,23.8,0,0,0-7.762-.348,2.5,2.5,0,0,1-.777-.048C3303.748-314.145,3303.722-314.384,3304.115-315.043Z" transform="translate(-115.218)" fill="#b3009d"/>
    <path id="Trazado_104758" data-name="Trazado 104758" d="M3180.737-205.6a1.014,1.014,0,0,1-.329.808,16.115,16.115,0,0,0-3.686,5.909c-.209.581-.611.806-1.075.649a.85.85,0,0,1-.458-1.208,17.522,17.522,0,0,1,4.079-6.52.817.817,0,0,1,.986-.264A.765.765,0,0,1,3180.737-205.6Z" transform="translate(0 -97.615)" fill="#b3009d"/>
    <path id="Trazado_104759" data-name="Trazado 104759" d="M3244.358-244.613c0,.464-.348.69-.808.807a18.532,18.532,0,0,0-3.763,1.437c-.5.251-.975.548-1.47.807a.808.808,0,0,1-1.181-.258.815.815,0,0,1,.384-1.152,21.418,21.418,0,0,1,5.762-2.466A.823.823,0,0,1,3244.358-244.613Z" transform="translate(-55.414 -62.561)" fill="#b3009d"/>
    <path id="Trazado_104760" data-name="Trazado 104760" d="M3221.385,19.8a11.827,11.827,0,0,1,.009-1.252.808.808,0,0,1,.842-.759.834.834,0,0,1,.762.852c.042,1.01-.051,2.022.08,3.031a11.536,11.536,0,0,0,.292,1.431c.172.659-.029,1.067-.561,1.2-.471.122-.8-.122-1-.736A10.935,10.935,0,0,1,3221.385,19.8Z" transform="translate(-41.407 -298.167)" fill="#b3009d"/>
    <path id="Trazado_104761" data-name="Trazado 104761" d="M3377.876-217.485a11.738,11.738,0,0,1,2.4.909,11.623,11.623,0,0,1,1.83,1.122.844.844,0,0,1,.313,1.142.791.791,0,0,1-1.184.223,13.47,13.47,0,0,0-3.8-1.844.746.746,0,0,1-.555-.939C3376.974-217.288,3377.264-217.525,3377.876-217.485Z" transform="translate(-180.551 -87.607)" fill="#b3009d"/>
    <path id="Trazado_104762" data-name="Trazado 104762" d="M3439.641-175.527a.86.86,0,0,1,.666.315,16.393,16.393,0,0,1,2.363,2.929c.335.529.265,1.013-.164,1.285-.4.255-.866.119-1.194-.388a17.874,17.874,0,0,0-2.2-2.724.782.782,0,0,1-.193-.955A.755.755,0,0,1,3439.641-175.527Z" transform="translate(-236.02 -125.159)" fill="#b3009d"/>
    <path id="Trazado_104763" data-name="Trazado 104763" d="M3419.765-296.4a1.881,1.881,0,0,1-.4-.135c-1-.581-2.04-1.073-3.088-1.556a.8.8,0,0,1-.508-.736.764.764,0,0,1,.992-.776,15.8,15.8,0,0,1,3.6,1.8.722.722,0,0,1,.2.907A.82.82,0,0,1,3419.765-296.4Z" transform="translate(-215.389 -14.08)" fill="#b3009d"/>
    <path id="Trazado_104764" data-name="Trazado 104764" d="M3288.432-190.083a.726.726,0,0,1-.65.683,14.223,14.223,0,0,0-3.036.937.8.8,0,0,1-1.1-.4.812.812,0,0,1,.473-1.078,10.465,10.465,0,0,1,3.33-1.029A.817.817,0,0,1,3288.432-190.083Z" transform="translate(-97.078 -111.328)" fill="#b3009d"/>
    <path id="Trazado_104765" data-name="Trazado 104765" d="M3232.2-295.333a7.336,7.336,0,0,1-2.089,1.06.692.692,0,0,1-.889-.373.7.7,0,0,1,.18-.989,5.079,5.079,0,0,1,2.293-.951C3232.316-296.242,3232.4-296.036,3232.2-295.333Z" transform="translate(-48.322 -16.818)" fill="#b3009d"/>
    <path id="Trazado_104766" data-name="Trazado 104766" d="M3273.35-305.39c-.659-.572-.67-.613-.322-1.3a1.058,1.058,0,0,1,1.031-.211.912.912,0,0,1,.3,1.241A.955.955,0,0,1,3273.35-305.39Z" transform="translate(-87.434 -7.533)" fill="#b3009d"/>
    <path id="Trazado_104767" data-name="Trazado 104767" d="M3476.515-88.235c.152.114.3.236.457.34a1.678,1.678,0,0,1,.769,1.8,7.56,7.56,0,0,0-.176,1.6c-.146,1.344-.306,2.687-.432,4.032a2.043,2.043,0,0,1-1.145,1.843c-1.178.212-2.344.483-3.542.583a28.267,28.267,0,0,1-4.784,0c-1.2-.1-2.364-.368-3.543-.562-1.1-.436-1.13-1.428-1.249-2.386-.137-1.1-.174-2.214-.417-3.3-.04-.575-.052-1.153-.126-1.723a1.789,1.789,0,0,1,.944-2.027,2.011,2.011,0,0,0,.322-.267c.093-.047.188-.089.277-.141a12.037,12.037,0,0,1,8.178-1.519A12.542,12.542,0,0,1,3476.515-88.235Zm-6.4,8.685a21.158,21.158,0,0,0,4.87-.542c.22-.046.447-.078.481-.386q.31-2.837.64-5.672a.571.571,0,0,0-.323-.589,10.335,10.335,0,0,0-11.551.03.6.6,0,0,0-.282.656c.211,1.75.42,3.5.593,5.256.043.433.175.641.621.732A22.492,22.492,0,0,0,3470.111-79.551Z" transform="translate(-257.028 -201.593)" fill="#b3009d"/>
    <path id="Trazado_104768" data-name="Trazado 104768" d="M3504.568,105.325c-.891,0-1.781.006-2.672,0-.611-.006-.957-.3-.978-.795s.373-.85.986-.853q2.672-.013,5.344,0c.642,0,1,.318,1,.829s-.367.814-1.005.819C3506.349,105.33,3505.458,105.325,3504.568,105.325Z" transform="translate(-291.59 -375.031)" fill="#b3009d"/>
    <path id="Trazado_104769" data-name="Trazado 104769" d="M3504.6,74.294c-.925,0-1.851.02-2.776-.007-.76-.022-1.138-.667-.766-1.252a.847.847,0,0,1,.759-.389c1.833-.007,3.666-.013,5.5,0a.823.823,0,0,1,.927.845c-.013.488-.371.793-.971.8C3506.377,74.3,3505.486,74.294,3504.6,74.294Z" transform="translate(-291.583 -347.261)" fill="#b3009d"/>
    <path id="Trazado_104773" data-name="Trazado 104773" d="M3498.2-35.817a5.681,5.681,0,0,1,3.758,1.63c.515.485.583.93.24,1.324-.329.378-.8.34-1.326-.107a4.108,4.108,0,0,0-5.884.043.908.908,0,0,1-1.266.113.872.872,0,0,1,.135-1.29A5.67,5.67,0,0,1,3498.2-35.817Z" transform="translate(-284.943 -250.194)" fill="#b3009d"/>
  </g>
</svg>
